<svg width="171" height="52" viewBox="0 0 171 52" fill="none" xmlns="http://www.w3.org/2000/svg">
<g clip-path="url(#clip0_12_1133)">
<path d="M54.0052 2.07322V49.5446C54.0052 50.0484 53.592 50.4591 53.08 50.4591H42.2156C41.7059 50.4591 41.2927 50.0507 41.2927 49.5446V2.07322C41.2927 1.56934 41.7059 1.15869 42.2156 1.15869H53.08C53.5898 1.15869 54.0052 1.56712 54.0052 2.07322Z" fill="#141414"/>
<path d="M114.678 32.6057C112.277 43.7288 102.147 51.6178 89.2662 51.6178C74.0116 51.6178 62.4713 40.5013 62.4713 25.8089C62.4713 11.1164 74.0116 0 89.2662 0C102.12 0 112.235 7.85787 114.662 18.9455C114.792 19.5426 114.33 20.1064 113.712 20.1064H102.062C101.671 20.1064 101.316 19.8755 101.168 19.5182C99.3334 15.1031 94.7837 12.173 89.2482 12.1797C81.6939 12.1908 75.5768 18.3417 75.5768 25.8111C75.5768 33.2805 81.4446 39.4403 89.2684 39.4403C94.8062 39.4403 99.3558 36.4992 101.182 32.073C101.321 31.7334 101.655 31.5158 102.026 31.5158H113.784C114.368 31.5158 114.801 32.0464 114.68 32.608L114.678 32.6057Z" fill="#141414"/>
<path d="M134.639 23.9865C134.354 23.6247 134.367 23.1164 134.671 22.7701L135.564 21.7468V21.6935L134.581 22.7501C134.251 23.1053 134.23 23.6424 134.529 24.0242L141.062 32.3194L141.093 32.2883L141.154 32.3682L141.201 32.3194L134.637 23.9865H134.639Z" fill="#111111"/>
<path d="M141.156 32.3682L135.834 37.8954C135.661 38.0729 135.567 38.3105 135.567 38.5568V49.4979C135.567 50.0262 135.133 50.4569 134.597 50.4569H123.824C123.29 50.4569 122.854 50.0262 122.854 49.4979V2.11762C122.854 1.58932 123.29 1.15869 123.824 1.15869H134.597C135.133 1.15869 135.567 1.58932 135.567 2.11762V21.6957L134.583 22.7523C134.253 23.1075 134.233 23.6446 134.531 24.0264L141.098 32.2905L141.158 32.3704L141.156 32.3682Z" fill="#141414"/>
<path d="M169.557 50.4591H155.764C155.454 50.4591 155.162 50.317 154.973 50.0751L148.717 42.0485L147.799 40.8787L141.156 32.3705L141.095 32.2905L134.529 24.0265C134.23 23.6469 134.253 23.1075 134.581 22.7523L135.564 21.6957L143.586 13.0765L154.493 1.4717C154.681 1.27192 154.946 1.15649 155.223 1.15649H168.515C169.388 1.15649 169.84 2.18867 169.24 2.81908L150.489 22.4882C150.15 22.8433 150.125 23.3894 150.43 23.7734L170.343 48.8653C170.857 49.5135 170.39 50.4591 169.557 50.4591Z" fill="#6233FA"/>
<path d="M32.1283 2.11985V12.7724C32.1283 13.3007 31.6949 13.7313 31.1582 13.7313H14.5787C13.5569 13.7313 12.726 14.5504 12.726 15.5626V49.5002C12.726 50.0285 12.2903 50.4591 11.7559 50.4591H0.970114C0.433407 50.4591 0 50.0285 0 49.5002V14.6902C0 14.1619 0.433407 13.7335 0.970114 13.7335H11.5942C12.2971 13.7335 12.9259 13.3495 13.2515 12.748L19.1912 1.67146C19.3596 1.35848 19.6875 1.16092 20.049 1.16092H31.1604C31.6971 1.16092 32.1305 1.58933 32.1305 2.11985H32.1283Z" fill="#141414"/>
</g>
<defs>
<clipPath id="clip0_12_1133">
<rect width="170.556" height="51.6156" fill="white"/>
</clipPath>
</defs>
</svg>
