<svg width="289" height="87" viewBox="0 0 289 87" fill="none" xmlns="http://www.w3.org/2000/svg">
<g clip-path="url(#clip0_251_22)">
<path d="M91.5097 3.49448V83.5092C91.5097 84.3585 90.8096 85.0507 89.942 85.0507H71.5328C70.669 85.0507 69.9689 84.3622 69.9689 83.5092V3.49448C69.9689 2.64517 70.669 1.953 71.5328 1.953H89.942C90.8058 1.953 91.5097 2.64143 91.5097 3.49448Z" fill="#111111"/>
<path d="M194.317 54.9582C190.249 73.7066 173.084 87.0037 151.258 87.0037C125.41 87.0037 105.855 68.2665 105.855 43.5019C105.855 18.7372 125.41 0 151.258 0C173.039 0 190.177 13.2447 194.29 31.9333C194.511 32.9397 193.727 33.8901 192.681 33.8901H172.94C172.278 33.8901 171.676 33.501 171.425 32.8986C168.316 25.4568 160.607 20.5181 151.228 20.5293C138.427 20.5481 128.062 30.9156 128.062 43.5056C128.062 56.0956 138.005 66.4781 151.262 66.4781C160.645 66.4781 168.354 61.5207 171.448 54.0602C171.684 53.4878 172.251 53.1211 172.879 53.1211H192.802C193.792 53.1211 194.526 54.0153 194.321 54.9619L194.317 54.9582Z" fill="#111111"/>
<path d="M228.141 40.4301C227.657 39.8202 227.68 38.9635 228.194 38.3798L229.708 36.655V36.5652L228.042 38.3461C227.482 38.9447 227.448 39.8502 227.954 40.4937L239.023 54.4755L239.077 54.4231L239.179 54.5578L239.259 54.4755L228.137 40.4301H228.141Z" fill="#111111"/>
<path d="M239.183 54.5578L230.165 63.874C229.872 64.1734 229.712 64.5737 229.712 64.989V83.4306C229.712 84.3211 228.978 85.0469 228.068 85.0469H209.815C208.91 85.0469 208.171 84.3211 208.171 83.4306V3.56931C208.171 2.67884 208.91 1.953 209.815 1.953H228.068C228.978 1.953 229.712 2.67884 229.712 3.56931V36.5689L228.046 38.3498C227.486 38.9485 227.452 39.8539 227.958 40.4974L239.084 54.4269L239.187 54.5616L239.183 54.5578Z" fill="#111111"/>
<path d="M287.307 85.0507H263.935C263.41 85.0507 262.916 84.8113 262.596 84.4035L251.995 70.8744L250.439 68.9026L239.183 54.5616L239.08 54.4269L227.954 40.4975C227.448 39.8577 227.486 38.9486 228.042 38.3499L229.708 36.569L243.3 22.0409L261.782 2.48063C262.101 2.1439 262.55 1.94934 263.018 1.94934H285.541C287.021 1.94934 287.786 3.68912 286.77 4.75169L254.997 37.9047C254.423 38.5033 254.381 39.4237 254.898 40.071L288.638 82.3644C289.51 83.4569 288.718 85.0507 287.307 85.0507Z" fill="#8C3EEF"/>
<path d="M54.4401 3.57309V21.5283C54.4401 22.4188 53.7057 23.1446 52.7962 23.1446H24.7029C22.9716 23.1446 21.5637 24.5252 21.5637 26.2313V83.4344C21.5637 84.3249 20.8255 85.0507 19.9199 85.0507H1.64382C0.734391 85.0507 0 84.3249 0 83.4344V24.7609C0 23.8705 0.734391 23.1484 1.64382 23.1484H19.6459C20.8369 23.1484 21.9024 22.5011 22.4541 21.4872L32.5187 2.81732C32.8041 2.28978 33.3596 1.95679 33.9722 1.95679H52.8C53.7095 1.95679 54.4439 2.67889 54.4439 3.57309H54.4401Z" fill="#111111"/>
</g>
<defs>
<clipPath id="clip0_251_22">
<rect width="289" height="87" fill="white"/>
</clipPath>
</defs>
</svg>
