<svg width="110" height="34" viewBox="0 0 110 34" fill="none" xmlns="http://www.w3.org/2000/svg">
<g clip-path="url(#clip0_312_247)">
<path d="M35.0519 1.45742V32.1586C35.0519 32.4845 34.7872 32.7501 34.4592 32.7501H27.5001C27.1736 32.7501 26.9089 32.4859 26.9089 32.1586V1.45742C26.9089 1.13155 27.1736 0.865967 27.5001 0.865967H34.4592C34.7857 0.865967 35.0519 1.13011 35.0519 1.45742Z" fill="#111111"/>
<path d="M73.9151 21.2037C72.3774 28.3974 65.8887 33.4994 57.6379 33.4994C47.8667 33.4994 40.4746 26.3101 40.4746 16.808C40.4746 7.30593 47.8667 0.116577 57.6379 0.116577C65.8714 0.116577 72.3501 5.19851 73.905 12.3692C73.9884 12.7554 73.6921 13.12 73.2966 13.12H65.834C65.5837 13.12 65.3565 12.9707 65.2615 12.7396C64.0863 9.88422 61.1721 7.98927 57.6264 7.99357C52.7875 8.00075 48.8692 11.9787 48.8692 16.8094C48.8692 21.6401 52.6278 25.6239 57.6393 25.6239C61.1865 25.6239 64.1007 23.7217 65.2702 20.8592C65.3593 20.6395 65.5737 20.4989 65.811 20.4989H73.3426C73.7166 20.4989 73.9942 20.842 73.9165 21.2052L73.9151 21.2037Z" fill="#111111"/>
<path d="M86.7013 15.6294C86.5186 15.3954 86.5273 15.0666 86.7215 14.8427L87.2939 14.1809V14.1464L86.6639 14.8298C86.4525 15.0594 86.4395 15.4069 86.6308 15.6538L90.8152 21.0185L90.8353 20.9984L90.8742 21.0501L90.9044 21.0185L86.6999 15.6294H86.7013Z" fill="#111111"/>
<path d="M90.8757 21.0501L87.4667 24.6247C87.3559 24.7396 87.2955 24.8932 87.2955 25.0525V32.1285C87.2955 32.4701 87.0179 32.7486 86.6741 32.7486H79.774C79.4316 32.7486 79.1526 32.4701 79.1526 32.1285V1.48614C79.1526 1.14447 79.4316 0.865967 79.774 0.865967H86.6741C87.0179 0.865967 87.2955 1.14447 87.2955 1.48614V14.1479L86.6655 14.8312C86.454 15.0609 86.4411 15.4083 86.6324 15.6553L90.8383 20.9999L90.8772 21.0516L90.8757 21.0501Z" fill="#111111"/>
<path d="M109.067 32.75H100.233C100.034 32.75 99.847 32.6582 99.7262 32.5017L95.7188 27.3107L95.1305 26.5541L90.8756 21.0515L90.8368 20.9999L86.6308 15.6552C86.4395 15.4097 86.4539 15.0609 86.6639 14.8312L87.2939 14.1479L92.432 8.57354L99.4184 1.06835C99.5392 0.939152 99.709 0.864502 99.8859 0.864502H108.4C108.959 0.864502 109.249 1.53204 108.865 1.93975L96.8537 14.6604C96.6365 14.8901 96.6207 15.2432 96.8163 15.4916L109.571 31.7193C109.9 32.1385 109.601 32.75 109.067 32.75Z" fill="#6233FA"/>
<path d="M21.0388 1.48754V8.37686C21.0388 8.71853 20.7611 8.99703 20.4174 8.99703H9.79747C9.14299 8.99703 8.61077 9.52676 8.61077 10.1814V32.1299C8.61077 32.4715 8.33172 32.75 7.98937 32.75H1.08063C0.736844 32.75 0.459229 32.4715 0.459229 32.1299V9.6172C0.459229 9.27553 0.736844 8.99846 1.08063 8.99846H7.88581C8.33604 8.99846 8.73879 8.75011 8.94736 8.36107L12.752 1.19755C12.8599 0.995137 13.0699 0.867371 13.3015 0.867371H20.4188C20.7626 0.867371 21.0402 1.14444 21.0402 1.48754H21.0388Z" fill="#111111"/>
</g>
<defs>
<clipPath id="clip0_312_247">
<rect width="109.248" height="33.3814" fill="white" transform="translate(0.459229 0.116577)"/>
</clipPath>
</defs>
</svg>
