<svg width="185" height="186" viewBox="0 0 185 186" fill="none" xmlns="http://www.w3.org/2000/svg">
<g clip-path="url(#clip0_312_292)">
<path d="M124.562 1.9811V83.6522C124.562 84.5191 123.858 85.2256 122.985 85.2256H104.477C103.608 85.2256 102.905 84.5229 102.905 83.6522V1.9811C102.905 1.11421 103.608 0.407715 104.477 0.407715H122.985C123.854 0.407715 124.562 1.11039 124.562 1.9811Z" fill="#F0F0F0"/>
<path d="M87.2881 2.06188V20.3888C87.2881 21.2977 86.5498 22.0386 85.6354 22.0386H57.3906C55.6499 22.0386 54.2344 23.4477 54.2344 25.1892V83.5764C54.2344 84.4853 53.4922 85.2261 52.5817 85.2261H34.2032C33.2889 85.2261 32.5505 84.4853 32.5505 83.5764V23.6845C32.5505 22.7756 33.2889 22.0386 34.2032 22.0386H52.3024C53.4999 22.0386 54.5711 21.3779 55.1258 20.343L65.2485 1.29046C65.5354 0.751992 66.0939 0.412109 66.7099 0.412109H85.6393C86.5536 0.412109 87.2919 1.14916 87.2919 2.06188H87.2881Z" fill="#F0F0F0"/>
<path d="M88.979 152.4C84.8894 171.537 67.6318 185.109 45.6878 185.109C19.7001 185.109 0.0400391 165.988 0.0400391 140.711C0.0400391 115.433 19.7001 96.3081 45.6878 96.3081C67.5859 96.3081 84.8167 109.827 88.9523 128.902C89.1742 129.93 88.3861 130.9 87.334 130.9H67.4865C66.8208 130.9 66.2164 130.503 65.9639 129.888C62.8383 122.292 55.0875 117.251 45.6572 117.262C32.7877 117.282 22.3666 127.864 22.3666 140.714C22.3666 153.565 32.3631 164.162 45.6917 164.162C55.1258 164.162 62.8766 159.102 65.9868 151.487C66.224 150.903 66.794 150.529 67.4253 150.529H87.4564C88.4511 150.529 89.1895 151.442 88.9829 152.408L88.979 152.4Z" fill="#F0F0F0"/>
<path d="M122.985 137.575C122.5 136.953 122.523 136.078 123.039 135.483L124.562 133.722V133.63L122.886 135.448C122.324 136.059 122.289 136.983 122.798 137.64L133.927 151.911L133.98 151.858L134.084 151.995L134.164 151.911L122.982 137.575H122.985Z" fill="#111111"/>
<path d="M182.471 183.12H158.973C158.445 183.12 157.948 182.875 157.627 182.459L146.968 168.65L145.404 166.637L134.087 151.999L133.984 151.862L122.798 137.644C122.289 136.991 122.327 136.063 122.886 135.452L124.561 133.634L138.227 118.805L156.808 98.8401C157.129 98.4964 157.581 98.2979 158.051 98.2979H180.695C182.184 98.2979 182.953 100.074 181.931 101.158L149.987 134.998C149.409 135.609 149.367 136.548 149.887 137.209L183.81 180.378C184.686 181.493 183.89 183.12 182.471 183.12Z" fill="#6233FA"/>
<path d="M134.084 151.995L125.017 161.505C124.722 161.81 124.562 162.219 124.562 162.643V181.466C124.562 182.375 123.823 183.116 122.909 183.116H104.557C103.647 183.116 102.905 182.375 102.905 181.466V99.9476C102.905 99.0387 103.647 98.2979 104.557 98.2979H122.909C123.823 98.2979 124.562 99.0387 124.562 99.9476V133.63L122.886 135.448C122.324 136.059 122.289 136.983 122.798 137.64L133.984 151.858L134.088 151.995H134.084Z" fill="url(#paint0_linear_312_292)"/>
</g>
<defs>
<linearGradient id="paint0_linear_312_292" x1="102.905" y1="140.711" x2="144.421" y2="140.711" gradientUnits="userSpaceOnUse">
<stop stop-color="#F2F2F2"/>
<stop offset="0.24" stop-color="#EFEFEF"/>
<stop offset="0.38" stop-color="#E7E7E7"/>
<stop offset="0.49" stop-color="#D9D9D9"/>
<stop offset="0.59" stop-color="#C5C5C5"/>
<stop offset="0.66" stop-color="#B3B3B3"/>
</linearGradient>
<clipPath id="clip0_312_292">
<rect width="184.133" height="184.701" fill="white" transform="translate(0.0400391 0.407715)"/>
</clipPath>
</defs>
</svg>
