<svg width="102" height="103" viewBox="0 0 102 103" fill="none" xmlns="http://www.w3.org/2000/svg">
<g clip-path="url(#clip0_336_79)">
<path d="M68.9783 0.871574V46.1131C68.9783 46.5933 68.5884 46.9846 68.1052 46.9846H57.8524C57.3714 46.9846 56.9814 46.5954 56.9814 46.1131V0.871574C56.9814 0.391362 57.3714 0 57.8524 0H68.1052C68.5863 0 68.9783 0.389247 68.9783 0.871574Z" fill="#111111"/>
<path d="M48.3308 0.916325V11.0685C48.3308 11.572 47.9218 11.9824 47.4153 11.9824H31.7691C30.8049 11.9824 30.0208 12.763 30.0208 13.7276V46.0711C30.0208 46.5746 29.6096 46.985 29.1052 46.985H18.9245C18.418 46.985 18.009 46.5746 18.009 46.0711V12.8941C18.009 12.3906 18.418 11.9824 18.9245 11.9824H28.9505C29.6139 11.9824 30.2072 11.6164 30.5145 11.0431L36.122 0.489C36.2809 0.190718 36.5903 0.00244141 36.9315 0.00244141H47.4174C47.9239 0.00244141 48.3329 0.410727 48.3329 0.916325H48.3308Z" fill="#111111"/>
<path d="M49.2675 84.1958C47.0021 94.7965 37.4423 102.315 25.2865 102.315C10.8907 102.315 0 91.7227 0 77.7204C0 63.7181 10.8907 53.1238 25.2865 53.1238C37.4169 53.1238 46.9618 60.6126 49.2527 71.1793C49.3756 71.7484 48.9391 72.2857 48.3563 72.2857H37.3618C36.993 72.2857 36.6582 72.0657 36.5183 71.7251C34.7869 67.5175 30.4934 64.725 25.2695 64.7314C18.1405 64.742 12.3677 70.6039 12.3677 77.7225C12.3677 84.8411 17.9053 90.7115 25.2886 90.7115C30.5146 90.7115 34.8081 87.9085 36.531 83.6902C36.6624 83.3666 36.9782 83.1593 37.3279 83.1593H48.4241C48.9751 83.1593 49.3841 83.6648 49.2697 84.2001L49.2675 84.1958Z" fill="#111111"/>
<path d="M68.1052 75.9835C67.8361 75.6387 67.8488 75.1542 68.1349 74.8242L68.9783 73.849V73.7982L68.0501 74.8052C67.7386 75.1437 67.7195 75.6556 68.0014 76.0195L74.1662 83.925L74.1958 83.8954L74.2531 83.9715L74.2976 83.925L68.1031 75.9835H68.1052Z" fill="#111111"/>
<path d="M101.057 101.213H88.0407C87.7482 101.213 87.4727 101.077 87.2947 100.847L81.3906 93.1972L80.5238 92.0823L74.2552 83.9737L74.1979 83.8976L68.0014 76.0217C67.7195 75.6599 67.7407 75.1459 68.0501 74.8074L68.9783 73.8004L76.5481 65.586L86.8412 54.5264C87.0192 54.336 87.2693 54.226 87.5299 54.226H100.074C100.898 54.226 101.324 55.2097 100.758 55.8104L83.0626 74.5556C82.7426 74.8941 82.7193 75.4145 83.0075 75.7805L101.799 99.6938C102.284 100.312 101.843 101.213 101.057 101.213Z" fill="#6233FA"/>
<path d="M74.2531 83.9716L69.2305 89.2391C69.0673 89.4084 68.9783 89.6347 68.9783 89.8695V100.297C68.9783 100.8 68.5693 101.211 68.0628 101.211H57.8969C57.3926 101.211 56.9814 100.8 56.9814 100.297V55.1398C56.9814 54.6364 57.3926 54.226 57.8969 54.226H68.0628C68.5693 54.226 68.9783 54.6364 68.9783 55.1398V73.7983L68.0501 74.8053C67.7386 75.1437 67.7195 75.6557 68.0014 76.0195L74.198 83.8954L74.2552 83.9716H74.2531Z" fill="#111111"/>
</g>
<defs>
<clipPath id="clip0_336_79">
<rect width="102" height="102.315" fill="white"/>
</clipPath>
</defs>
</svg>
