<svg width="85" height="85" viewBox="0 0 85 85" fill="none" xmlns="http://www.w3.org/2000/svg">
<g clip-path="url(#clip0_269_75)">
<path d="M42.4989 84.9979C65.9705 84.9979 84.9979 65.9705 84.9979 42.4989C84.9979 19.0274 65.9705 0 42.4989 0C19.0274 0 0 19.0274 0 42.4989C0 65.9705 19.0274 84.9979 42.4989 84.9979Z" fill="white"/>
<path d="M18.3792 42.3145C18.3792 37.9264 18.3792 33.5383 18.3792 29.1502C18.3792 27.9249 18.6696 27.6408 19.9118 27.6408C23.9077 27.6408 27.9037 27.6345 31.8996 27.6408C38.1405 27.6514 42.058 34.0195 39.2258 39.5672C38.999 40.0102 39.0753 40.218 39.4315 40.5402C42.3569 43.1815 43.4677 46.4525 42.3548 50.2491C41.2567 53.9886 38.6047 56.1466 34.7847 56.8779C34.2802 56.9755 33.7736 56.9861 33.2648 56.9861C28.7983 56.9861 24.3317 56.9861 19.8652 56.9861C18.6887 56.9861 18.3792 56.6723 18.3792 55.4788C18.3792 51.0907 18.3792 46.7026 18.3792 42.3145ZM29.0632 51.5083C30.492 51.5083 31.9187 51.5147 33.3475 51.5083C35.5521 51.4956 37.2395 49.8803 37.2798 47.7541C37.3201 45.6554 35.567 43.9468 33.3411 43.9404C30.4454 43.932 27.5518 43.9489 24.6561 43.9277C24.1346 43.9235 23.9289 44.0592 23.9374 44.6146C23.965 46.6878 23.965 48.761 23.9374 50.8342C23.9311 51.396 24.1452 51.5295 24.6624 51.5189C26.1294 51.4914 27.5963 51.5105 29.0632 51.5083ZM28.4061 33.197C27.1342 33.197 25.8623 33.2118 24.5903 33.1906C24.107 33.1822 23.9332 33.3623 23.9417 33.8435C23.9629 35.1345 23.9671 36.4277 23.9417 37.7187C23.9311 38.2189 24.1282 38.3504 24.5988 38.3461C27.0261 38.3271 29.4533 38.3461 31.8805 38.3334C33.4196 38.3249 34.5643 37.1866 34.5516 35.7196C34.5388 34.3078 33.4238 33.2224 31.9314 33.2012C30.757 33.1843 29.5826 33.197 28.4082 33.197H28.4061Z" fill="#A3A3A3"/>
<path d="M57.8489 47.2071C55.4407 47.2071 53.0326 47.2071 50.6244 47.2071C49.9482 47.2071 49.9291 47.2389 50.139 47.8537C51.2773 51.1734 54.9722 52.7675 57.9316 51.2137C58.1054 51.1225 58.3004 51.0441 58.4276 50.9042C59.0445 50.2258 59.8225 50.1643 60.6747 50.194C62.0038 50.2407 63.3372 50.2025 64.6685 50.2089C65.4698 50.2131 65.6479 50.5268 65.2684 51.2349C63.4072 54.703 60.5411 56.7974 56.6321 57.2722C53.1598 57.6941 50.122 56.579 47.6418 54.12C43.5102 50.0244 42.9887 43.4338 46.5013 38.8189C49.3059 35.1324 53.0877 33.5128 57.6623 34.5134C62.2773 35.5225 65.0628 38.5878 66.2796 43.1095C66.5085 43.9638 66.5594 44.8456 66.6145 45.7254C66.6781 46.7132 66.2393 47.1923 65.2493 47.2008C63.6043 47.2156 61.9593 47.205 60.3164 47.205C59.4939 47.205 58.6714 47.205 57.8489 47.205V47.2071ZM50.741 42.4481C50.9954 42.4481 51.1692 42.4481 51.3409 42.4481C54.0967 42.4481 56.8547 42.4481 59.6105 42.4459C60.1108 42.4459 59.8585 42.1958 59.7334 42.0135C57.6157 38.9333 52.6913 39.122 50.741 42.4502V42.4481Z" fill="#A3A3A3"/>
<path d="M55.0401 28.7368C56.5452 28.7368 58.0524 28.7305 59.5575 28.7389C60.5899 28.7453 60.8718 29.0421 60.8761 30.0787C60.8782 30.7231 60.8866 31.3697 60.8718 32.0141C60.8591 32.6522 60.6026 32.9384 59.9751 33.0359C59.7822 33.0656 59.5851 33.074 59.39 33.0762C56.4752 33.0783 53.5625 33.0783 50.6477 33.0762C50.4336 33.0762 50.2195 33.0507 50.0054 33.021C49.4818 32.9469 49.1999 32.6268 49.1893 32.1095C49.1702 31.3082 49.1617 30.5048 49.1893 29.7035C49.2126 29.0506 49.5708 28.7538 50.3425 28.7432C51.5932 28.7241 52.846 28.7368 54.0967 28.7347C54.4105 28.7347 54.7221 28.7347 55.0358 28.7347L55.0401 28.7368Z" fill="#A3A3A3"/>
</g>
<defs>
<clipPath id="clip0_269_75">
<rect width="85" height="85" fill="white"/>
</clipPath>
</defs>
</svg>
