<svg width="101" height="104" viewBox="0 0 101 104" fill="none" xmlns="http://www.w3.org/2000/svg">
<path d="M50.5 103.149C78.3904 103.149 101 80.0583 101 51.5745C101 23.0907 78.3904 0 50.5 0C22.6096 0 0 23.0907 0 51.5745C0 80.0583 22.6096 103.149 50.5 103.149Z" fill="#D8D8D8"/>
<path d="M20 67.98C20 56.9922 20 46.0052 20 35.0174C20.0432 34.8439 20.0849 34.6704 20.1311 34.4976C21.0191 31.1459 23.83 29.0011 27.3448 29.0011C43.1905 29.0004 59.037 28.9981 74.8827 29.0034C78.7241 29.0049 81.9926 32.2235 81.9949 36.0082C82.0017 46.3357 82.0017 56.6632 81.9949 66.9906C81.9926 70.7754 78.7248 73.994 74.8827 73.9948C58.9362 74 42.989 73.9955 27.0425 74C26.2446 74 25.4756 73.8631 24.7392 73.5812C22.1184 72.5769 20.5857 70.6669 20 67.9808L20 67.98ZM50.958 69.1279C58.5392 69.1279 66.1204 69.1279 73.7015 69.1279C73.9637 69.1279 74.2266 69.1369 74.488 69.1227C76.0806 69.0337 76.9625 68.1655 77.0602 66.5958C77.0701 66.4372 77.0655 66.2772 77.0655 66.1179C77.0655 56.9436 77.0655 47.7693 77.0655 38.595C77.0655 38.4955 77.061 38.396 77.0655 38.2966C77.0845 37.8763 76.9034 37.9167 76.6466 38.1156C76.5041 38.2263 76.3556 38.3295 76.2101 38.4364C68.01 44.4579 59.8068 50.4757 51.6157 56.5091C51.1581 56.8464 50.8452 56.8875 50.3633 56.5316C43.5981 51.5398 36.8171 46.5683 30.0398 41.5923C28.5191 40.4757 26.9993 39.3592 25.4749 38.248C25.3218 38.1366 25.1718 37.8905 24.9725 38.0027C24.7884 38.1066 24.9142 38.3699 24.8877 38.5606C24.8824 38.5995 24.8869 38.6398 24.8869 38.6802C24.8869 47.7947 24.8869 56.9092 24.8869 66.0237C24.8869 66.2226 24.8793 66.4223 24.8937 66.6205C24.9968 68.084 25.7241 68.8714 27.1902 69.0905C27.4668 69.1317 27.7524 69.1264 28.0342 69.1264C35.676 69.1279 43.317 69.1279 50.9588 69.1279H50.958ZM73.9697 33.9226H28.0039C28.2532 34.117 28.407 34.2426 28.5669 34.36C35.7806 39.6561 42.995 44.9515 50.2087 50.2476C50.7204 50.623 51.2328 50.622 51.746 50.2446C57.3906 46.1001 63.0367 41.9572 68.6813 37.8127C70.4095 36.5437 72.1354 35.2716 73.969 33.9226H73.9697Z" fill="white"/>
</svg>
