<svg width="101" height="100" viewBox="0 0 101 100" fill="none" xmlns="http://www.w3.org/2000/svg">
<g clip-path="url(#clip0_269_74)">
<path d="M50.6655 99.6783C78.1645 99.6783 100.457 77.386 100.457 49.887C100.457 22.388 78.1645 0.0957336 50.6655 0.0957336C23.1666 0.0957336 0.874268 22.388 0.874268 49.887C0.874268 77.386 23.1666 99.6783 50.6655 99.6783Z" fill="white"/>
<path d="M68.7783 52.4079C67.8718 57.4993 64.8567 60.6683 59.8771 62.002C58.7247 62.31 57.5524 62.4789 56.3777 62.6552C56.0325 62.7074 55.9182 62.7819 56.1964 63.0898C57.3537 64.3763 57.8058 65.9336 57.8207 67.6199C57.8455 70.2625 57.8207 72.9026 57.8256 75.5451C57.8256 75.8258 57.8381 76.1114 57.8902 76.387C58.0392 77.1917 58.5583 77.6537 59.3059 77.6636C56.5789 78.513 53.6805 78.9675 50.6753 78.9675C47.6702 78.9675 44.7668 78.5105 42.0374 77.6611C42.9017 77.6909 43.5077 77.1694 43.5598 76.2008C43.6443 74.6585 43.5772 73.1087 43.5698 71.5614C43.5698 71.241 43.3984 71.1293 43.0879 71.2013C42.4621 71.3453 41.8213 71.4 41.1805 71.4323C38.995 71.549 36.9808 71.1144 35.3192 69.5671C34.5419 68.8419 34.0501 67.9403 33.6403 66.9742C32.9474 65.33 32.0061 63.8747 30.4439 62.9036C30.1757 62.7372 29.9298 62.5161 29.7187 62.2777C29.3313 61.8431 29.4356 61.5351 30.0118 61.4084C30.6351 61.2718 31.2486 61.3613 31.8471 61.5748C33.1386 62.0393 34.1321 62.8763 34.8871 64.0038C35.2869 64.5999 35.6595 65.2158 36.1537 65.7398C38.2101 67.9204 41.0563 67.8012 43.3785 66.8227C43.6467 66.7109 43.689 66.4725 43.7386 66.2266C43.9547 65.1165 44.3546 64.0907 45.0972 63.219C45.4747 62.7769 45.4548 62.7347 44.8513 62.6428C43.4729 62.4292 42.0995 62.2032 40.7658 61.7686C37.4824 60.6981 34.969 58.741 33.5658 55.5173C32.7909 53.7316 32.4979 51.8416 32.3389 49.9118C32.0682 46.6111 32.7586 43.6134 34.9194 41.0354C35.1578 40.7523 35.2397 40.4891 35.1181 40.1115C34.3804 37.8266 34.6387 35.574 35.3937 33.3437C35.4931 33.0457 35.6644 32.929 35.9724 32.9215C36.561 32.9091 37.1372 32.9811 37.706 33.1277C39.5935 33.6194 41.2749 34.5483 42.8892 35.6063C43.2419 35.8373 43.5698 35.9292 43.9994 35.8199C48.4749 34.6898 52.9553 34.6898 57.4307 35.8224C57.8082 35.9167 58.1187 35.8795 58.444 35.6634C59.3729 35.05 60.3266 34.4713 61.3399 34.0068C62.614 33.4232 63.908 32.9066 65.346 32.924C65.644 32.9265 65.8874 32.9488 66.0091 33.304C66.7368 35.4349 67.0423 37.6006 66.3866 39.7961C66.1979 40.4294 66.3121 40.8318 66.7169 41.3136C67.7501 42.548 68.4182 43.976 68.7957 45.5407C69.3496 47.8281 69.1856 50.1205 68.7808 52.393L68.7783 52.4079Z" fill="white"/>
<path d="M79.6914 47.6369V52.393C79.4455 53.8036 79.3089 55.2292 78.9761 56.625C78.0075 60.6832 76.2789 64.3788 73.7332 67.687C70.2487 72.2146 65.8205 75.4607 60.4459 77.4078C60.1802 77.5047 59.9095 77.604 59.6338 77.6462C59.5196 77.6636 59.4078 77.6711 59.301 77.6686C58.5534 77.6586 58.0344 77.1942 57.8853 76.392C57.8357 76.1163 57.8208 75.8307 57.8208 75.5501C57.8183 72.9075 57.8406 70.2674 57.8158 67.6249C57.8009 65.9385 57.3489 64.3813 56.1915 63.0948C55.9134 62.7868 56.0301 62.7123 56.3728 62.6602C57.5476 62.4838 58.7223 62.315 59.8722 62.007C64.8543 60.6708 67.867 57.5042 68.7735 52.4128C69.1783 50.1403 69.3422 47.848 68.7884 45.5606C68.4109 43.9934 67.7403 42.5653 66.7096 41.3335C66.3048 40.8517 66.1905 40.4493 66.3793 39.816C67.0349 37.6205 66.7295 35.4548 66.0018 33.3239C65.8801 32.9687 65.6342 32.9463 65.3386 32.9439C63.9006 32.929 62.6067 33.4431 61.3326 34.0267C60.3193 34.4911 59.3656 35.0698 58.4367 35.6833C58.1114 35.8994 57.8009 35.9391 57.4234 35.8422C52.9479 34.7097 48.47 34.7097 43.9921 35.8397C43.5624 35.949 43.2321 35.8546 42.8819 35.6262C41.2651 34.5681 39.5862 33.6418 37.6986 33.1475C37.1274 33.001 36.5537 32.929 35.9651 32.9414C35.6571 32.9463 35.4882 33.0656 35.3864 33.3636C34.6314 35.5939 34.3731 37.8465 35.1107 40.1314C35.2324 40.5089 35.1504 40.7722 34.912 41.0553C32.7513 43.6333 32.0608 46.631 32.3316 49.9317C32.4905 51.864 32.7811 53.754 33.5585 55.5372C34.9617 58.7609 37.4751 60.7155 40.7584 61.7884C42.0921 62.2231 43.4655 62.4491 44.8439 62.6627C45.4475 62.7545 45.4673 62.7968 45.0898 63.2389C44.3447 64.1106 43.9474 65.1363 43.7313 66.2465C43.6816 66.4924 43.6419 66.7283 43.3712 66.8426C41.049 67.8211 38.2053 67.9403 36.1464 65.7597C35.6521 65.2357 35.2796 64.6197 34.8797 64.0237C34.1247 62.8961 33.1313 62.0591 31.8398 61.5947C31.2413 61.3811 30.6278 61.2917 30.0044 61.4283C29.4282 61.555 29.3239 61.8629 29.7114 62.2976C29.9225 62.536 30.1683 62.757 30.4366 62.9234C32.0012 63.8945 32.94 65.3499 33.633 66.9941C34.0403 67.9602 34.5345 68.8617 35.3119 69.5869C36.9709 71.1342 38.9876 71.5689 41.1732 71.4521C41.814 71.4198 42.4522 71.3652 43.0806 71.2212C43.391 71.1491 43.5624 71.2584 43.5624 71.5813C43.5699 73.1286 43.6369 74.6783 43.5525 76.2206C43.4978 77.1893 42.8918 77.7083 42.03 77.681C41.7866 77.6736 41.5234 77.6239 41.2477 77.5245C38.0314 76.3945 35.0834 74.7802 32.4483 72.612C27.8685 68.8468 24.6796 64.2348 23.0081 58.7882C22.119 56.0041 21.6396 53.0362 21.6396 49.9541C21.6396 49.6784 21.6446 49.4027 21.6521 49.1295C21.7564 42.6796 23.9593 36.7413 28.2833 31.4487C33.1983 25.4285 39.5911 21.862 47.3474 21.0201C57.1899 19.9497 65.5274 23.1684 72.2331 30.4156C76.3584 34.8736 78.7327 40.2183 79.5076 46.256C79.5672 46.7229 79.6293 47.1873 79.6889 47.6542L79.6914 47.6369Z" fill="#A3A3A3"/>
</g>
<defs>
<clipPath id="clip0_269_74">
<rect width="99.585" height="99.585" fill="white" transform="translate(0.874268 0.0957336)"/>
</clipPath>
</defs>
</svg>
