<svg width="94" height="94" viewBox="0 0 94 94" fill="none" xmlns="http://www.w3.org/2000/svg">
<g clip-path="url(#clip0_269_74)">
<path d="M46.7913 93.5827C72.6335 93.5827 93.5827 72.6335 93.5827 46.7913C93.5827 20.9492 72.6335 0 46.7913 0C20.9492 0 0 20.9492 0 46.7913C0 72.6335 20.9492 93.5827 46.7913 93.5827Z" fill="#8C3EEF"/>
<path d="M63.813 49.1603C62.9611 53.945 60.1276 56.9231 55.448 58.1764C54.3651 58.4659 53.2634 58.6246 52.1595 58.7903C51.8351 58.8393 51.7277 58.9093 51.9891 59.1987C53.0767 60.4077 53.5015 61.8711 53.5155 63.4559C53.5388 65.9392 53.5155 68.4202 53.5202 70.9036C53.5202 71.1673 53.5318 71.4357 53.5809 71.6948C53.7209 72.451 54.2087 72.8851 54.9112 72.8944C52.3485 73.6926 49.6248 74.1198 46.8007 74.1198C43.9766 74.1198 41.2482 73.6903 38.6832 72.8921C39.4954 72.9201 40.0649 72.43 40.1139 71.5197C40.1932 70.0703 40.1302 68.6139 40.1232 67.1599C40.1232 66.8588 39.9622 66.7538 39.6704 66.8214C39.0823 66.9568 38.4801 67.0082 37.8779 67.0385C35.824 67.1482 33.9312 66.7398 32.3698 65.2857C31.6392 64.6042 31.1771 63.757 30.792 62.849C30.1408 61.304 29.2563 59.9363 27.7882 59.0237C27.5361 58.8673 27.3051 58.6596 27.1067 58.4355C26.7426 58.0271 26.8406 57.7377 27.3821 57.6186C27.9679 57.4903 28.5444 57.5743 29.1069 57.775C30.3206 58.2114 31.2541 58.998 31.9637 60.0576C32.3394 60.6178 32.6895 61.1966 33.154 61.6891C35.0865 63.7383 37.7612 63.6263 39.9435 62.7067C40.1956 62.6016 40.2352 62.3776 40.2819 62.1465C40.485 61.1032 40.8607 60.1393 41.5586 59.3201C41.9134 58.9046 41.8947 58.865 41.3275 58.7786C40.0322 58.5779 38.7415 58.3655 37.4882 57.957C34.4027 56.9511 32.0407 55.1119 30.722 52.0825C29.9938 50.4043 29.7184 48.6282 29.569 46.8147C29.3146 43.7129 29.9635 40.8958 31.994 38.4731C32.2181 38.207 32.2951 37.9596 32.1807 37.6049C31.4875 35.4576 31.7303 33.3407 32.4398 31.2448C32.5332 30.9647 32.6942 30.855 32.9836 30.848C33.5368 30.8364 34.0782 30.904 34.6127 31.0418C36.3865 31.5039 37.9666 32.3768 39.4837 33.371C39.8151 33.5881 40.1232 33.6745 40.527 33.5718C44.7328 32.5098 48.9433 32.5098 53.1491 33.5741C53.5038 33.6628 53.7956 33.6278 54.1013 33.4247C54.9742 32.8482 55.8705 32.3044 56.8227 31.868C58.0201 31.3195 59.2361 30.834 60.5874 30.8504C60.8675 30.8527 61.0962 30.8737 61.2106 31.2075C61.8944 33.21 62.1815 35.2452 61.5654 37.3085C61.388 37.9036 61.4953 38.2817 61.8758 38.7345C62.8467 39.8945 63.4745 41.2365 63.8293 42.7069C64.3498 44.8565 64.1957 47.0107 63.8153 49.1463L63.813 49.1603Z" fill="#8C3EEF"/>
<path d="M74.0684 44.6768V49.1463C73.8373 50.472 73.709 51.8117 73.3962 53.1234C72.486 56.9371 70.8615 60.41 68.4692 63.5189C65.1947 67.7737 61.0332 70.8242 55.9825 72.654C55.7328 72.7451 55.4784 72.8384 55.2193 72.8781C55.1119 72.8944 55.0069 72.9014 54.9065 72.8991C54.204 72.8898 53.7162 72.4533 53.5762 71.6994C53.5295 71.4404 53.5155 71.172 53.5155 70.9082C53.5132 68.4249 53.5342 65.9439 53.5108 63.4605C53.4968 61.8758 53.072 60.4124 51.9844 59.2034C51.723 58.914 51.8327 58.844 52.1548 58.7949C53.2588 58.6292 54.3627 58.4705 55.4434 58.1811C60.1253 56.9254 62.9564 53.9496 63.8083 49.165C64.1887 47.0294 64.3428 44.8752 63.8223 42.7256C63.4675 41.2529 62.8374 39.9108 61.8688 38.7532C61.4883 38.3004 61.381 37.9223 61.5583 37.3271C62.1745 35.2639 61.8874 33.2287 61.2036 31.2261C61.0892 30.8924 60.8582 30.8714 60.5804 30.869C59.229 30.855 58.013 31.3382 56.8157 31.8867C55.8635 32.3231 54.9672 32.8669 54.0943 33.4434C53.7886 33.6465 53.4968 33.6838 53.1421 33.5928C48.9363 32.5285 44.7281 32.5285 40.52 33.5905C40.1162 33.6931 39.8058 33.6045 39.4767 33.3897C37.9573 32.3955 36.3795 31.5249 34.6057 31.0604C34.0689 30.9227 33.5297 30.855 32.9766 30.8667C32.6872 30.8714 32.5285 30.9834 32.4328 31.2635C31.7233 33.3594 31.4805 35.4763 32.1737 37.6235C32.2881 37.9783 32.2111 38.2257 31.987 38.4918C29.9564 40.9144 29.3076 43.7315 29.562 46.8334C29.7114 48.6492 29.9845 50.4253 30.715 52.1011C32.0337 55.1306 34.3956 56.9674 37.4812 57.9757C38.7345 58.3842 40.0252 58.5966 41.3205 58.7973C41.8877 58.8836 41.9064 58.9233 41.5516 59.3388C40.8514 60.158 40.478 61.1219 40.2749 62.1652C40.2282 62.3963 40.1909 62.618 39.9365 62.7253C37.7542 63.6449 35.0818 63.757 33.147 61.7077C32.6825 61.2153 32.3324 60.6364 31.9567 60.0763C31.2471 59.0167 30.3135 58.2301 29.0999 57.7937C28.5374 57.593 27.9609 57.5089 27.3751 57.6373C26.8336 57.7563 26.7356 58.0457 27.0997 58.4542C27.2981 58.6782 27.5291 58.886 27.7812 59.0423C29.2516 59.9549 30.1338 61.3226 30.785 62.8677C31.1678 63.7756 31.6322 64.6229 32.3628 65.3044C33.9219 66.7584 35.817 67.1669 37.8709 67.0572C38.4731 67.0268 39.0729 66.9755 39.6634 66.8401C39.9552 66.7724 40.1162 66.8751 40.1162 67.1786C40.1232 68.6326 40.1862 70.089 40.1069 71.5384C40.0555 72.4487 39.486 72.9364 38.6761 72.9108C38.4474 72.9038 38.2 72.8571 37.9409 72.7637C34.9185 71.7018 32.148 70.1847 29.6717 68.1472C25.3679 64.6089 22.3711 60.2747 20.8003 55.1563C19.9647 52.5399 19.5143 49.7508 19.5143 46.8544C19.5143 46.5953 19.519 46.3362 19.526 46.0795C19.624 40.0182 21.6942 34.4377 25.7576 29.464C30.3766 23.8065 36.3842 20.4549 43.6732 19.6637C52.9227 18.6577 60.7578 21.6826 67.0595 28.4931C70.9362 32.6825 73.1675 37.7052 73.8957 43.3791C73.9517 43.8179 74.0101 44.2543 74.0661 44.6931L74.0684 44.6768Z" fill="white"/>
</g>
<defs>
<clipPath id="clip0_269_74">
<rect width="93.585" height="93.585" fill="white"/>
</clipPath>
</defs>
</svg>
