<?xml version="1.0" encoding="utf-8"?>
<!-- Generator: Adobe Illustrator 28.1.0, SVG Export Plug-In . SVG Version: 6.00 Build 0)  -->
<svg version="1.1" id="Camada_1" xmlns="http://www.w3.org/2000/svg" xmlns:xlink="http://www.w3.org/1999/xlink" x="0px" y="0px"
	 viewBox="0 0 100 100" style="enable-background:new 0 0 100 100;" xml:space="preserve">
<style type="text/css">
	.st0{fill:#8C3EEF;}
</style>
<g>
	<g>
		<path class="st0" d="M58.1,50c-0.1,4.6-3.8,8.2-8.2,8.1c-4.6-0.1-8.2-3.8-8.1-8.2c0.2-4.6,3.8-8.1,8.2-8
			C54.6,41.9,58.2,45.6,58.1,50z"/>
		<path class="st0" d="M70.6,39.5c0-0.5,0-1.1-0.1-1.6c-0.7-4.8-4.9-8.6-9.7-8.6c-7.2,0-14.5,0-21.7,0c-1.3,0-2.6,0.3-3.7,0.9
			c-3.9,1.9-6,5-6,9.4c0,3.5,0,6.9,0,10.4v10.1c0,0.6,0,1.3,0.1,1.9c0.7,4.8,4.9,8.6,9.8,8.6c7.2,0,14.4,0,21.6,0
			c1.7,0,3.3-0.5,4.7-1.3c3.3-2,5.1-5,5.1-8.9C70.7,53.5,70.6,46.5,70.6,39.5z M49.9,63.4c-7.8-0.1-13.3-6.3-13.4-13.5
			c0.2-7.8,6.3-13.5,13.6-13.4c7.8,0.1,13.4,6.3,13.4,13.5C63.4,57.8,57.1,63.5,49.9,63.4z M63.4,39.9c-1.8,0-3.2-1.5-3.2-3.3
			c0-1.8,1.4-3.2,3.3-3.2c1.8,0,3.2,1.4,3.2,3.2C66.7,38.4,65.2,39.9,63.4,39.9z"/>
		<path class="st0" d="M50,0.2C22.5,0.2,0.2,22.5,0.2,50S22.5,99.8,50,99.8S99.8,77.5,99.8,50S77.5,0.2,50,0.2z M75.9,60.2
			c0,0.7,0,1.4-0.1,2.1c-1,7.7-7.5,13.5-15.2,13.6c-7.1,0.1-14.2,0-21.3,0c-6.5,0-12.2-4.1-14.4-10.3c-0.4-1.2-0.6-2.4-0.9-3.6V37.9
			c0.1-0.5,0.1-0.9,0.2-1.3c1.2-5.6,4.6-9.5,10-11.7c1.2-0.5,2.4-0.7,3.7-0.9H62c0.2,0,0.3,0.1,0.4,0.1c1.5,0.2,3,0.6,4.4,1.2
			c5.9,3,9,7.7,9.1,14.3C76,46.6,75.9,53.4,75.9,60.2z"/>
	</g>
</g>
</svg>
