<svg width="100" height="100" viewBox="0 0 100 100" fill="none" xmlns="http://www.w3.org/2000/svg">
<g clip-path="url(#clip0_269_87)">
<path d="M49.7913 99.5825C77.2902 99.5825 99.5825 77.2902 99.5825 49.7913C99.5825 22.2923 77.2902 0 49.7913 0C22.2923 0 0 22.2923 0 49.7913C0 77.2902 22.2923 99.5825 49.7913 99.5825Z" fill="#D8D8D8"/>
<path d="M37.7062 23.8227C45.7481 23.8227 53.79 23.8227 61.8294 23.8227C61.9784 23.855 62.125 23.8947 62.274 23.9146C63.789 24.1207 65.2692 24.4908 66.6377 25.1713C72.5462 28.1168 75.673 32.8804 75.7326 39.5091C75.7947 46.349 75.745 53.1888 75.745 60.0287C75.745 60.739 75.7276 61.4443 75.6382 62.1521C74.6671 69.8389 68.1849 75.6729 60.4436 75.7275C53.333 75.7772 46.2224 75.7697 39.1119 75.7275C32.6173 75.6903 26.8951 71.5749 24.6896 65.4677C24.2624 64.2831 24.0563 63.0562 23.8179 61.8317C23.8179 53.7898 23.8179 45.7479 23.8179 37.7085C23.8973 37.2615 23.957 36.8094 24.0563 36.3674C25.313 30.7172 28.6286 26.8254 34.0255 24.7118C35.2126 24.2474 36.4619 24.0562 37.7037 23.8227H37.7062ZM29.103 49.754H29.1005C29.1005 53.1317 29.1005 56.5119 29.1005 59.8896C29.1005 60.5303 29.1154 61.1686 29.2098 61.8094C29.9052 66.6127 34.1124 70.3927 38.9629 70.425C46.1753 70.4722 53.3901 70.4449 60.6025 70.43C62.2938 70.4275 63.8858 69.9631 65.3263 69.0913C68.6544 67.0796 70.4053 64.1117 70.4227 60.2124C70.455 53.2534 70.4301 46.2918 70.4301 39.3328C70.4301 38.7914 70.3978 38.2549 70.3184 37.7184C69.6304 32.9524 65.4083 29.1575 60.5951 29.1277C53.3479 29.0805 46.1008 29.1128 38.8536 29.1227C37.5522 29.1227 36.298 29.4282 35.1307 29.992C31.224 31.887 29.1775 35.0188 29.1104 39.3676C29.0583 42.8297 29.1005 46.2943 29.1005 49.7565L29.103 49.754Z" fill="white"/>
<path d="M36.2881 49.6968C36.4619 41.9058 42.6411 36.2307 49.8635 36.3127C57.6148 36.4021 63.2923 42.6111 63.2252 49.8384C63.1532 57.622 56.9045 63.3045 49.6722 63.2225C41.9085 63.1331 36.3278 56.9142 36.2881 49.6968ZM57.9128 49.8359C58.032 45.4226 54.3811 41.722 49.8188 41.6251C45.4079 41.5308 41.7843 45.0947 41.6229 49.6819C41.4689 54.0705 45.0974 57.7735 49.6896 57.9151C54.0906 58.0517 57.7886 54.4157 57.9128 49.8334V49.8359Z" fill="white"/>
<path d="M59.9766 36.4369C59.9815 34.6264 61.4195 33.2082 63.245 33.2157C65.0282 33.2256 66.4687 34.6611 66.4762 36.4394C66.4836 38.2251 65.0133 39.6929 63.2152 39.6979C61.4146 39.7004 59.9741 38.2474 59.9766 36.4369Z" fill="white"/>
</g>
<defs>
<clipPath id="clip0_269_87">
<rect width="99.585" height="99.585" fill="white"/>
</clipPath>
</defs>
</svg>
