<svg width="101" height="101" viewBox="0 0 101 101" fill="none" xmlns="http://www.w3.org/2000/svg">
<g clip-path="url(#clip0_269_87)">
<path d="M50.4238 100.34C77.9228 100.34 100.215 78.0479 100.215 50.549C100.215 23.05 77.9228 0.75769 50.4238 0.75769C22.9249 0.75769 0.632568 23.05 0.632568 50.549C0.632568 78.0479 22.9249 100.34 50.4238 100.34Z" fill="white"/>
<path d="M38.3387 24.5804C46.3807 24.5804 54.4226 24.5804 62.462 24.5804C62.611 24.6127 62.7575 24.6524 62.9065 24.6723C64.4215 24.8784 65.9018 25.2485 67.2702 25.929C73.1787 28.8746 76.3056 33.6381 76.3652 40.2668C76.4273 47.1067 76.3776 53.9465 76.3776 60.7864C76.3776 61.4967 76.3602 62.202 76.2708 62.9099C75.2997 70.5966 68.8175 76.4306 61.0761 76.4852C53.9656 76.5349 46.855 76.5274 39.7445 76.4852C33.2498 76.448 27.5276 72.3326 25.3222 66.2255C24.895 65.0408 24.6889 63.8139 24.4504 62.5895C24.4504 54.5476 24.4504 46.5057 24.4504 38.4662C24.5299 38.0192 24.5895 37.5672 24.6889 37.1251C25.9456 31.4749 29.2612 27.5831 34.658 25.4695C35.8452 25.0051 37.0945 24.8139 38.3363 24.5804H38.3387ZM29.7355 50.5117H29.7331C29.7331 53.8894 29.7331 57.2696 29.7331 60.6473C29.7331 61.2881 29.748 61.9263 29.8423 62.5671C30.5377 67.3704 34.745 71.1504 39.5954 71.1827C46.8078 71.2299 54.0227 71.2026 61.2351 71.1877C62.9264 71.1852 64.5184 70.7208 65.9589 69.849C69.2869 67.8373 71.0379 64.8694 71.0552 60.9702C71.0875 54.0111 71.0627 47.0496 71.0627 40.0905C71.0627 39.5491 71.0304 39.0126 70.9509 38.4762C70.263 33.7101 66.0408 29.9152 61.2276 29.8854C53.9805 29.8382 46.7333 29.8705 39.4862 29.8804C38.1848 29.8804 36.9305 30.1859 35.7632 30.7497C31.8565 32.6447 29.8101 35.7765 29.743 40.1253C29.6908 43.5874 29.7331 47.052 29.7331 50.5142L29.7355 50.5117Z" fill="#A3A3A3"/>
<path d="M36.9207 50.4546C37.0945 42.6635 43.2737 36.9885 50.496 37.0705C58.2474 37.1599 63.9249 43.3689 63.8578 50.5962C63.7858 58.3798 57.537 64.0623 50.3048 63.9803C42.541 63.8909 36.9604 57.6719 36.9207 50.4546ZM58.5454 50.5937C58.6646 46.1803 55.0137 42.4797 50.4513 42.3829C46.0404 42.2885 42.4169 45.8525 42.2554 50.4397C42.1014 54.8282 45.73 58.5313 50.3222 58.6728C54.7231 58.8094 58.4212 55.1734 58.5454 50.5912V50.5937Z" fill="#A3A3A3"/>
<path d="M60.6091 37.1946C60.6141 35.3841 62.0521 33.966 63.8776 33.9734C65.6608 33.9833 67.1013 35.4189 67.1087 37.1971C67.1162 38.9828 65.6459 40.4506 63.8478 40.4556C62.0471 40.4581 60.6067 39.0052 60.6091 37.1946Z" fill="#A3A3A3"/>
</g>
<defs>
<clipPath id="clip0_269_87">
<rect width="99.585" height="99.585" fill="white" transform="translate(0.632568 0.75769)"/>
</clipPath>
</defs>
</svg>
