<svg width="94" height="93" viewBox="0 0 94 93" fill="none" xmlns="http://www.w3.org/2000/svg">
<g clip-path="url(#clip0_269_67)">
<ellipse cx="43.2859" cy="48.8559" rx="35.6974" ry="35.6974" fill="white"/>
<path d="M54.8967 0.664773C53.4455 0.401132 51.9756 0.223815 50.5151 0.00683594H42.7109C40.1678 0.338138 37.6153 0.620444 35.1399 1.32738C17.1353 6.45789 5.7987 18.1024 1.10914 36.2191C0.563196 38.3259 0.362548 40.4957 0.0732422 42.6468V50.2667C0.444207 53.3581 0.859501 56.4471 1.82308 59.4172C7.65819 77.4125 19.7764 88.6837 38.3689 92.1951C63.4592 96.936 87.4576 80.2355 92.2545 55.2153C97.119 29.8473 80.2786 5.24934 54.8967 0.664773ZM32.8745 54.527C32.8745 59.4848 32.8745 64.4427 32.8745 69.4006C32.8745 70.7281 32.8465 70.7538 31.4863 70.7561C29.0062 70.7561 26.5284 70.7398 24.0506 70.7654C23.2784 70.7748 22.9821 70.5041 22.9821 69.7085C23.0007 59.5828 23.0007 49.4571 22.9844 39.3291C22.9821 38.5615 23.2877 38.3375 24.0133 38.3469C26.6124 38.3725 29.2115 38.3842 31.8106 38.3422C32.6738 38.3282 32.8908 38.6782 32.8861 39.4738C32.8628 44.4923 32.8745 49.5108 32.8745 54.527ZM27.8606 33.6923C24.7202 33.6736 22.0628 30.9929 22.1025 27.8805C22.1421 24.6795 24.7039 22.1644 27.9213 22.1644C31.141 22.1667 33.7354 24.7262 33.719 27.8899C33.705 31.0909 31.0593 33.7086 27.8606 33.6923ZM69.614 70.7538C67.1059 70.7608 64.5954 70.7608 62.0874 70.7538C60.9861 70.7514 60.9255 70.6838 60.9255 69.5476C60.9255 64.2864 60.9185 59.0252 60.9255 53.7641C60.9255 52.5812 60.8415 51.4099 60.5638 50.2574C59.9712 47.8006 58.6437 46.5781 56.2382 46.2724C53.7908 45.9645 51.5044 47.033 50.4475 48.9998C49.6262 50.5327 49.3789 52.2032 49.3719 53.9087C49.3532 59.0789 49.3649 64.2491 49.3602 69.4192C49.3602 70.7188 49.3299 70.7538 48.0537 70.7561C45.6949 70.7608 43.3361 70.7561 40.9797 70.7561C39.9936 70.7561 39.4997 70.2755 39.4982 69.3142C39.4982 64.3867 39.4982 59.4592 39.4982 54.5317C39.4982 49.6041 39.4982 44.5553 39.4982 39.5671C39.5005 38.3865 39.5308 38.3585 40.737 38.3562C43.1541 38.3539 45.5736 38.3749 47.993 38.3469C48.728 38.3375 49.0429 38.5825 49.0079 39.3431C48.9659 40.246 48.9939 41.1559 49.0056 42.0635C49.0103 42.2548 48.9286 42.5325 49.2086 42.5978C49.4139 42.6468 49.5095 42.4275 49.6005 42.2805C52.8996 37.052 59.8522 36.7393 64.4811 38.5218C67.5655 39.7094 69.2057 42.1638 70.0316 45.2412C70.4959 46.9677 70.7689 48.7339 70.7759 50.521C70.8039 56.8718 70.8109 63.2202 70.8179 69.5686C70.8179 70.6651 70.7292 70.7514 69.614 70.7538Z" fill="#8C3EEF"/>
</g>
<defs>
<clipPath id="clip0_269_67">
<rect width="93.0188" height="92.9932" fill="white" transform="translate(0.0732422 0.00683594)"/>
</clipPath>
</defs>
</svg>
