<svg width="100" height="99" viewBox="0 0 100 99" fill="none" xmlns="http://www.w3.org/2000/svg">
<g clip-path="url(#clip0_269_67)">
<path d="M35.0519 42.0126C35.0271 47.3549 35.0395 52.6971 35.0395 58.0368C35.0395 63.3766 35.0395 68.5921 35.0395 73.8698C35.0395 75.283 35.0097 75.3103 33.5618 75.3128C30.9217 75.3128 28.2841 75.2954 25.6465 75.3227C24.8244 75.3326 24.509 75.0445 24.509 74.1976C24.5289 63.4188 24.5289 52.64 24.5115 41.8586C24.509 41.0415 24.8344 40.8031 25.6068 40.813C28.3735 40.8404 31.1403 40.8528 33.907 40.8081C34.8259 40.7932 35.0569 41.1657 35.0519 42.0126Z" fill="#A3A3A3"/>
<path d="M35.9386 29.6815C35.9237 33.089 33.1073 35.8756 29.7023 35.8583C26.3593 35.8384 23.5305 32.9847 23.5727 29.6716C23.615 26.2641 26.3419 23.5868 29.7668 23.5868C33.1942 23.5893 35.956 26.3138 35.9386 29.6815Z" fill="#A3A3A3"/>
<path d="M75.4305 74.0486C75.4305 75.2159 75.3361 75.3078 74.1489 75.3103C71.479 75.3177 68.8067 75.3177 66.1368 75.3103C64.9646 75.3078 64.9 75.2358 64.9 74.0263C64.9 68.4257 64.8925 62.8252 64.9 57.2247C64.9 55.9655 64.8106 54.7187 64.515 53.4918C63.8842 50.8766 62.471 49.5752 59.9104 49.2498C57.3051 48.922 54.8712 50.0595 53.7461 52.1532C52.8719 53.7849 52.6086 55.5632 52.6012 57.3787C52.5813 62.8823 52.5937 68.386 52.5888 73.8897C52.5888 75.273 52.5565 75.3103 51.1979 75.3128C48.687 75.3177 46.1761 75.3128 43.6677 75.3128C42.6179 75.3128 42.0922 74.8012 42.0906 73.7779C42.0906 68.5325 42.0906 63.2872 42.0906 58.0418C42.0906 52.7964 42.0906 47.4219 42.0906 42.112C42.0931 40.8553 42.1253 40.8255 43.4094 40.823C45.9824 40.8205 48.5579 40.8428 51.1334 40.813C51.9157 40.8031 52.251 41.0639 52.2137 41.8735C52.169 42.8347 52.1988 43.8033 52.2113 44.7694C52.2162 44.9731 52.1293 45.2686 52.4273 45.3382C52.6459 45.3903 52.7477 45.1569 52.8446 45.0004C56.3564 39.4346 63.7575 39.1018 68.685 40.9993C71.9683 42.2635 73.7143 44.8762 74.5935 48.1521C75.0877 49.99 75.3783 51.87 75.3858 53.7725C75.4156 60.5329 75.423 67.2907 75.4305 74.0486Z" fill="#A3A3A3"/>
<path d="M58.4823 0.700376C56.9375 0.419729 55.3728 0.230975 53.818 0H45.5104C42.8033 0.352672 40.0862 0.653188 37.4511 1.40572C18.2851 6.86716 6.21732 19.2628 1.22528 38.548C0.644115 40.7907 0.430525 43.1004 0.122559 45.3903V53.5018C0.517451 56.7925 0.959533 60.0808 1.98526 63.2425C8.19675 82.3985 21.0966 94.3968 40.8884 98.1346C67.5971 103.181 93.1434 85.4037 98.2497 58.7695C103.428 31.7653 85.5014 5.58066 58.4823 0.700376ZM35.0395 58.0368C35.0395 63.3145 35.0395 68.5921 35.0395 73.8698C35.0395 75.283 35.0097 75.3103 33.5618 75.3128C30.9217 75.3128 28.2841 75.2954 25.6465 75.3227C24.8245 75.3326 24.5091 75.0445 24.5091 74.1976C24.5289 63.4188 24.5289 52.64 24.5115 41.8586C24.5091 41.0415 24.8344 40.8031 25.6068 40.813C28.3735 40.8404 31.1403 40.8528 33.907 40.8081C34.8259 40.7932 35.0569 41.1657 35.0519 42.0126C35.0271 47.3549 35.0395 52.6971 35.0395 58.0368ZM29.7023 35.8583C26.3593 35.8384 23.5305 32.9847 23.5727 29.6716C23.615 26.2641 26.342 23.5868 29.7668 23.5868C33.1942 23.5893 35.956 26.3138 35.9386 29.6815C35.9237 33.089 33.1073 35.8756 29.7023 35.8583ZM74.1488 75.3103C71.4789 75.3177 68.8066 75.3177 66.1367 75.3103C64.9645 75.3078 64.8999 75.2358 64.8999 74.0263C64.8999 68.4257 64.8924 62.8252 64.8999 57.2247C64.8999 55.9655 64.8105 54.7187 64.5149 53.4918C63.8841 50.8766 62.4709 49.5752 59.9103 49.2498C57.305 48.922 54.8711 50.0595 53.746 52.1532C52.8718 53.7849 52.6085 55.5632 52.6011 57.3787C52.5812 62.8823 52.5936 68.386 52.5887 73.8897C52.5887 75.273 52.5564 75.3103 51.1978 75.3128C48.6869 75.3177 46.176 75.3128 43.6676 75.3128C42.6178 75.3128 42.0921 74.8012 42.0905 73.7779C42.0905 68.5325 42.0905 63.2872 42.0905 58.0418C42.0905 52.7964 42.0905 47.4219 42.0905 42.112C42.093 40.8553 42.1252 40.8255 43.4093 40.823C45.9823 40.8205 48.5578 40.8429 51.1333 40.813C51.9156 40.8031 52.2509 41.0639 52.2136 41.8735C52.1689 42.8347 52.1987 43.8033 52.2112 44.7694C52.2161 44.9731 52.1292 45.2686 52.4272 45.3382C52.6458 45.3903 52.7476 45.1569 52.8445 45.0004C56.3563 39.4346 63.7574 39.1018 68.6849 40.9993C71.9682 42.2635 73.7142 44.8762 74.5934 48.1521C75.0876 49.99 75.3782 51.87 75.3857 53.7725C75.4155 60.5329 75.4229 67.2907 75.4304 74.0486C75.4304 75.2159 75.336 75.3078 74.1488 75.3103Z" fill="white"/>
</g>
<defs>
<clipPath id="clip0_269_67">
<rect width="99.0188" height="98.9914" fill="white" transform="translate(0.122559)"/>
</clipPath>
</defs>
</svg>
