<?xml version="1.0" encoding="utf-8"?>
<!-- Generator: Adobe Illustrator 28.1.0, SVG Export Plug-In . SVG Version: 6.00 Build 0)  -->
<svg version="1.1" id="Camada_1" xmlns="http://www.w3.org/2000/svg" xmlns:xlink="http://www.w3.org/1999/xlink" x="0px" y="0px"
	 viewBox="0 0 100 99" style="enable-background:new 0 0 100 99;" xml:space="preserve">
<style type="text/css">
	.st0{fill:#8C3EEF;}
</style>
<path class="st0" d="M50,0C22.7,0,0.5,22.2,0.5,49.5C0.5,76.8,22.7,99,50,99s49.5-22.2,49.5-49.5C99.5,22.2,77.3,0,50,0z M35.7,57.9
	v15.5c0,1.4,0,1.4-1.5,1.4c-2.6,0-5.2,0-7.8,0c-0.8,0-1.1-0.3-1.1-1.1c0-10.6,0-21.2,0-31.7c0-0.8,0.3-1,1.1-1c2.7,0,5.4,0,8.1,0
	c0.9,0,1.1,0.3,1.1,1.2C35.7,47.4,35.7,52.6,35.7,57.9z M30.5,36.1c-3.3,0-6-2.8-6-6.1c0-3.3,2.7-6,6.1-6c3.3,0,6.1,2.7,6,6
	C36.5,33.4,33.8,36.1,30.5,36.1z M74,74.8c-2.6,0-5.2,0-7.9,0c-1.2,0-1.2-0.1-1.2-1.3c0-5.5,0-11,0-16.5c0-1.2-0.1-2.5-0.4-3.7
	c-0.6-2.6-2-3.9-4.5-4.2c-2.5-0.3-4.9,0.8-6,2.8c-0.9,1.6-1.1,3.3-1.1,5.1c0,5.4,0,10.8,0,16.2c0,1.3,0,1.4-1.4,1.4
	c-2.5,0-4.9,0-7.4,0c-1,0-1.6-0.5-1.6-1.5V42.3c0-1.2,0-1.3,1.3-1.3c2.5,0,5,0,7.6,0c0.8,0,1.1,0.2,1.1,1c0,0.9,0,1.9,0,2.8
	c0,0.2-0.1,0.5,0.2,0.6c0.2,0,0.3-0.2,0.4-0.3c3.4-5.5,10.7-5.8,15.5-3.9c3.2,1.2,4.9,3.8,5.8,7c0.5,1.8,0.8,3.6,0.8,5.5
	c0,6.6,0,13.3,0,19.9C75.3,74.7,75.2,74.8,74,74.8z"/>
</svg>
