<svg width="100" height="99" viewBox="0 0 100 99" fill="none" xmlns="http://www.w3.org/2000/svg">
<g clip-path="url(#clip0_269_67)">
<path d="M58.3597 0.700376C56.8149 0.419729 55.2502 0.230975 53.6955 0H45.3878C42.6807 0.352672 39.9637 0.653188 37.3285 1.40572C18.1626 6.86716 6.09476 19.2628 1.10272 38.548C0.521557 40.7907 0.307967 43.1004 0 45.3903V53.5018C0.394893 56.7925 0.836974 60.0808 1.8627 63.2425C8.07419 82.3985 20.974 94.3968 40.7659 98.1346C67.4745 103.181 93.0209 85.4037 98.1271 58.7695C103.305 31.7653 85.3788 5.58066 58.3597 0.700376ZM34.917 58.0368C34.917 63.3145 34.917 68.5921 34.917 73.8698C34.917 75.283 34.8872 75.3103 33.4392 75.3128C30.7992 75.3128 28.1616 75.2954 25.524 75.3227C24.7019 75.3326 24.3865 75.0445 24.3865 74.1976C24.4064 63.4188 24.4064 52.64 24.389 41.8586C24.3865 41.0415 24.7118 40.8031 25.4842 40.813C28.251 40.8404 31.0177 40.8528 33.7844 40.8081C34.7034 40.7932 34.9344 41.1657 34.9294 42.0126C34.9046 47.3549 34.917 52.6971 34.917 58.0368ZM29.5797 35.8583C26.2368 35.8384 23.408 32.9847 23.4502 29.6716C23.4924 26.2641 26.2194 23.5868 29.6443 23.5868C33.0717 23.5893 35.8334 26.3138 35.816 29.6815C35.8011 33.089 32.9847 35.8756 29.5797 35.8583ZM74.0263 75.3103C71.3564 75.3177 68.684 75.3177 66.0142 75.3103C64.8419 75.3078 64.7773 75.2358 64.7773 74.0263C64.7773 68.4257 64.7699 62.8252 64.7773 57.2247C64.7773 55.9655 64.6879 54.7187 64.3924 53.4918C63.7615 50.8766 62.3484 49.5752 59.7878 49.2498C57.1825 48.922 54.7485 50.0595 53.6235 52.1532C52.7492 53.7849 52.486 55.5632 52.4785 57.3787C52.4587 62.8823 52.4711 68.386 52.4661 73.8897C52.4661 75.273 52.4338 75.3103 51.0753 75.3128C48.5644 75.3177 46.0534 75.3128 43.545 75.3128C42.4953 75.3128 41.9696 74.8012 41.9679 73.7779C41.9679 68.5325 41.9679 63.2872 41.9679 58.0418C41.9679 52.7964 41.9679 47.4219 41.9679 42.112C41.9704 40.8553 42.0027 40.8255 43.2867 40.823C45.8597 40.8205 48.4352 40.8428 51.0107 40.813C51.7931 40.8031 52.1283 41.0639 52.0911 41.8735C52.0464 42.8347 52.0762 43.8033 52.0886 44.7694C52.0936 44.9731 52.0066 45.2686 52.3047 45.3382C52.5232 45.3903 52.6251 45.1569 52.7219 45.0004C56.2337 39.4346 63.6349 39.1018 68.5623 40.9993C71.8457 42.2635 73.5916 44.8762 74.4708 48.1521C74.9651 49.99 75.2556 51.87 75.2631 53.7725C75.2929 60.5329 75.3004 67.2907 75.3078 74.0486C75.3078 75.2159 75.2134 75.3078 74.0263 75.3103Z" fill="#D8D8D8"/>
</g>
<defs>
<clipPath id="clip0_269_67">
<rect width="99.0188" height="98.9914" fill="white"/>
</clipPath>
</defs>
</svg>
