<svg width="50" height="50" viewBox="0 0 50 50" fill="none" xmlns="http://www.w3.org/2000/svg">
<g clip-path="url(#clip0_269_88)">
<path d="M24.9994 49.9988C38.8062 49.9988 49.9988 38.8062 49.9988 24.9994C49.9988 11.1926 38.8062 0 24.9994 0C11.1926 0 0 11.1926 0 24.9994C0 38.8062 11.1926 49.9988 24.9994 49.9988Z" fill="#A157FF"/>
<path d="M32.9625 11.961C33.889 12.1156 34.7569 12.4249 35.5412 12.9511C38.0601 14.6432 39.2061 18.4203 36.7196 21.4193C35.747 22.5927 34.581 23.5915 33.5161 24.6826C33.4114 24.7899 33.3303 24.7986 33.2194 24.6864C32.6994 24.1589 32.1769 23.6327 31.6457 23.1152C31.4885 22.9618 31.5708 22.8758 31.6831 22.7636C32.6121 21.837 33.5398 20.9093 34.4676 19.9815C35.1646 19.2832 35.4876 18.4453 35.4053 17.4589C35.3666 16.9851 35.1621 16.5598 35.0113 16.1172C34.6933 15.1832 33.9663 14.7842 33.0872 14.6021C31.91 14.3589 30.8601 14.6233 29.9909 15.4962C28.103 17.3916 26.2089 19.2807 24.3172 21.1724C23.3321 22.1588 22.9879 23.306 23.4568 24.6502C23.5902 25.033 23.8109 25.3685 24.0815 25.6678C24.195 25.7937 24.2062 25.8797 24.0765 26.0057C23.559 26.512 23.0465 27.0232 22.5402 27.542C22.4006 27.6841 22.3145 27.6529 22.1874 27.5282C20.4129 25.7887 20.055 22.8995 21.3569 20.7696C21.62 20.3382 21.9305 19.9466 22.2896 19.59C24.2199 17.6647 26.1515 15.7406 28.0718 13.8053C29.032 12.8376 30.1543 12.1979 31.511 11.9909C31.5359 11.9872 31.5584 11.9722 31.5821 11.9635C32.0422 11.9635 32.5023 11.9635 32.9625 11.9635V11.961Z" fill="#7923E5"/>
<path d="M11.8961 31.5959C12.0545 30.6793 12.355 29.8177 12.875 29.0396C13.0795 28.7341 13.3077 28.4485 13.5683 28.1891C14.521 27.2377 15.4749 26.2875 16.4214 25.3298C16.571 25.1789 16.6621 25.1764 16.8092 25.3298C17.2943 25.8323 17.7881 26.3274 18.2919 26.8125C18.454 26.9696 18.4465 27.0681 18.2919 27.2265C17.3591 28.1854 16.4376 29.1543 15.5086 30.117C14.5322 31.1307 14.309 32.2967 14.8103 33.601C14.9412 33.9414 15.1046 34.2719 15.2704 34.5973C15.435 34.9203 15.7617 35.0625 16.0623 35.2158C17.3928 35.8954 18.9341 35.6485 19.9952 34.5899C21.8769 32.7119 23.7536 30.829 25.6365 28.9523C26.3461 28.2452 26.7638 27.4235 26.7152 26.3997C26.6815 25.6827 26.4234 25.053 25.9533 24.5193C25.7737 24.3148 25.7824 24.1888 25.9633 23.9931C26.4596 23.4544 26.9371 22.8982 27.4122 22.3408C27.5519 22.1775 27.6467 22.1675 27.7901 22.3358C28.5844 23.2586 29.0894 24.316 29.2403 25.5218C29.4885 27.5033 28.8899 29.1929 27.4634 30.602C25.5605 32.4825 23.6751 34.3804 21.7859 36.2758C20.9118 37.1524 19.8743 37.7135 18.6585 37.9492C16.4326 38.3819 13.89 37.2247 12.6917 35.1996C12.2827 34.5076 12.0433 33.7594 11.8961 32.9763V31.5959Z" fill="#7923E5"/>
</g>
<defs>
<clipPath id="clip0_269_88">
<rect width="50" height="50" fill="white"/>
</clipPath>
</defs>
</svg>
