<svg width="101" height="104" viewBox="0 0 101 104" fill="none" xmlns="http://www.w3.org/2000/svg">
<path d="M50.5 103.574C78.3904 103.574 101 80.4838 101 52C101 23.5162 78.3904 0.425537 50.5 0.425537C22.6096 0.425537 0 23.5162 0 52C0 80.4838 22.6096 103.574 50.5 103.574Z" fill="#D8D8D8"/>
<path d="M48.1697 25.0591C49.6952 25.0591 51.2232 25.0591 52.7487 25.0591C53.4694 25.1594 54.1952 25.2186 54.9057 25.3678C65.9125 27.6752 73.0764 34.2555 76.275 45.1471C77.2224 48.3677 77.4057 51.6939 76.9219 55.0329C76.7079 56.5043 75.3506 57.4792 73.8989 57.2786C72.2971 57.0574 71.3726 55.7274 71.5713 53.8933C71.8158 51.6424 71.6553 49.4224 71.1587 47.2179C71.0645 46.7986 70.8887 46.6391 70.4584 46.6416C67.4762 46.6545 64.4915 46.6545 61.5093 46.6416C61.0865 46.6416 60.9414 46.7394 60.9719 47.2076C61.0738 48.7253 61.14 50.2482 61.1859 51.771C61.2113 52.6277 60.949 53.4071 60.2945 53.9885C59.4388 54.7473 58.4533 54.9634 57.3938 54.4978C56.3471 54.0373 55.7589 53.1936 55.741 52.036C55.7156 50.4591 55.6213 48.8874 55.5195 47.3156C55.4965 46.9658 55.4583 46.6494 54.9821 46.6494C51.9465 46.6545 48.9108 46.6545 45.8777 46.6494C45.5543 46.6494 45.4193 46.778 45.3913 47.1124C45.1111 50.2945 45.0908 53.474 45.3658 56.6586C45.4142 57.2066 45.6205 57.3197 46.1094 57.3095C47.584 57.2837 49.0585 57.2812 50.533 57.3095C52.3488 57.3455 53.6044 59.1513 53.0517 60.8877C52.6748 62.0684 51.651 62.799 50.3038 62.8196C49.1604 62.835 48.0144 62.835 46.8709 62.8196C46.4609 62.8144 46.3488 62.9585 46.4456 63.3521C47.2656 66.7013 48.4142 69.9194 50.1612 72.9009C50.3675 73.2533 50.6171 73.4102 51.0271 73.4514C51.8777 73.5388 52.7258 73.3742 53.5713 73.4977C54.8803 73.6854 55.8989 74.9382 55.8404 76.2836C55.7792 77.6804 54.7249 78.8869 53.4083 78.91C50.8463 78.9538 48.2741 79.0592 45.7376 78.5164C35.0059 76.209 28.033 69.7291 24.7325 59.1873C24.2359 57.5976 24.0373 55.9409 23.8208 54.292C23.8208 52.7511 23.8208 51.2077 23.8208 49.6668C23.9456 48.8205 24.022 47.9639 24.2028 47.1278C26.5228 36.3134 32.938 29.2727 43.3845 25.9749C44.9431 25.4835 46.5628 25.288 48.1748 25.0668L48.1697 25.0591ZM34.9015 57.294C36.3403 57.294 37.7792 57.294 39.2181 57.294C39.8981 57.294 39.9643 57.2271 39.9006 56.5352C39.7682 55.1049 39.7071 53.6746 39.702 52.2367C39.6994 50.6443 39.7427 49.052 39.8981 47.4674C39.9668 46.7625 39.8981 46.6494 39.3811 46.6494C36.3836 46.6442 33.3836 46.6494 30.3862 46.6416C30.0296 46.6416 29.8565 46.7754 29.775 47.1304C29.039 50.3382 29.0415 53.5434 29.7571 56.7538C29.8539 57.1911 30.0704 57.3069 30.4804 57.3017C31.9524 57.2837 33.4269 57.294 34.8989 57.294H34.9015ZM57.2461 31.7191C57.1952 31.8734 57.2843 31.9943 57.3378 32.1178C58.5093 34.8394 59.4134 37.6459 60.0017 40.5527C60.0959 41.0132 60.3225 41.1315 60.7529 41.129C63.213 41.1135 65.6757 41.1238 68.1358 41.1187C68.2988 41.1187 68.5203 41.2036 68.6044 41.0055C68.6782 40.8306 68.505 40.6839 68.4134 40.5424C65.8106 36.442 62.2555 33.5249 57.7376 31.8168C57.5823 31.7577 57.432 31.647 57.2461 31.7165V31.7191ZM36.4524 41.1212C37.6824 41.1212 38.915 41.1084 40.1451 41.129C40.5882 41.1367 40.7843 40.9798 40.8785 40.527C41.4745 37.6948 42.3123 34.9397 43.4482 32.2773C43.5118 32.1255 43.6824 31.948 43.5373 31.7988C43.3972 31.6548 43.2088 31.8091 43.056 31.8683C38.5661 33.5995 35.0313 36.5166 32.4541 40.6145C32.1689 41.0698 32.202 41.1187 32.7571 41.1212C33.9872 41.1264 35.2198 41.1212 36.4498 41.1212H36.4524ZM36.4575 62.817C35.2096 62.817 33.9617 62.8119 32.7138 62.817C32.2147 62.8196 32.1816 62.8813 32.4541 63.316C35.0288 67.4139 38.5636 70.3284 43.0509 72.0648C43.2037 72.124 43.3947 72.2732 43.5322 72.142C43.685 71.9954 43.5144 71.8153 43.4507 71.6661C42.3149 68.9882 41.4414 66.2229 40.8633 63.3701C40.7741 62.9302 40.5602 62.8067 40.1476 62.8119C38.9176 62.8273 37.6875 62.817 36.4549 62.817H36.4575ZM50.3701 41.1212C51.5645 41.1212 52.7614 41.1135 53.9558 41.1238C54.3684 41.1264 54.5135 41.0003 54.404 40.5579C53.5916 37.2652 52.438 34.1088 50.7419 31.1711C50.4439 30.6567 50.4184 30.6541 50.1281 31.1583C48.4244 34.114 47.2758 37.2909 46.466 40.6016C46.3667 41.0055 46.4889 41.1341 46.8913 41.1264C48.0526 41.1084 49.2113 41.1212 50.3726 41.1187L50.3701 41.1212Z" fill="white"/>
<path d="M58.7817 58.9841C59.0516 58.9738 59.2935 59.0742 59.5304 59.1822C64.4073 61.4202 69.2817 63.6608 74.1611 65.8988C74.7316 66.1586 75.111 66.5676 75.1289 67.2107C75.1467 67.877 74.7698 68.3117 74.1942 68.5998C72.8114 69.2918 71.4387 70.0069 70.0508 70.6835C69.5542 70.9253 69.2205 71.2726 68.9837 71.7716C68.3267 73.1427 67.6314 74.4958 66.9693 75.8643C66.6789 76.4611 66.2715 76.8881 65.5864 76.8856C64.8988 76.8804 64.4964 76.4483 64.2239 75.8412C62.0338 70.9613 59.8309 66.0866 57.6433 61.2067C57.1314 60.0645 57.6993 58.9893 58.7918 58.9841H58.7817Z" fill="white"/>
</svg>
