<svg width="47" height="48" viewBox="0 0 47 48" fill="none" xmlns="http://www.w3.org/2000/svg">
<path d="M23.5 48C36.4787 48 47 37.2548 47 24C47 10.7452 36.4787 0 23.5 0C10.5213 0 0 10.7452 0 24C0 37.2548 10.5213 48 23.5 48Z" fill="white"/>
<path d="M22.4156 11.4631C23.1255 11.4631 23.8366 11.4631 24.5464 11.4631C24.8818 11.5098 25.2196 11.5374 25.5502 11.6068C30.6722 12.6805 34.0059 15.7426 35.4943 20.811C35.9352 22.3097 36.0205 23.8575 35.7954 25.4113C35.6958 26.0961 35.0642 26.5497 34.3886 26.4564C33.6432 26.3534 33.213 25.7345 33.3055 24.881C33.4192 23.8336 33.3446 22.8005 33.1135 21.7746C33.0696 21.5795 32.9879 21.5053 32.7876 21.5065C31.3998 21.5125 30.0109 21.5125 28.6232 21.5065C28.4264 21.5065 28.3589 21.552 28.3731 21.7699C28.4205 22.4761 28.4513 23.1848 28.4727 23.8935C28.4845 24.2921 28.3624 24.6548 28.0579 24.9253C27.6597 25.2785 27.2011 25.379 26.7081 25.1623C26.221 24.9481 25.9472 24.5554 25.9389 24.0168C25.9271 23.283 25.8832 22.5515 25.8358 21.8201C25.8252 21.6573 25.8074 21.5101 25.5858 21.5101C24.1731 21.5125 22.7605 21.5125 21.3491 21.5101C21.1986 21.5101 21.1357 21.57 21.1227 21.7256C20.9923 23.2063 20.9829 24.6859 21.1109 26.1679C21.1334 26.4229 21.2294 26.4755 21.4569 26.4707C22.1431 26.4588 22.8292 26.4576 23.5154 26.4707C24.3604 26.4875 24.9446 27.3278 24.6875 28.1359C24.5121 28.6853 24.0357 29.0253 23.4088 29.0348C22.8766 29.042 22.3434 29.042 21.8112 29.0348C21.6204 29.0325 21.5683 29.0995 21.6133 29.2826C21.9949 30.8412 22.5294 32.3387 23.3424 33.7261C23.4384 33.8901 23.5545 33.9632 23.7453 33.9823C24.1411 34.023 24.5358 33.9464 24.9292 34.0039C25.5384 34.0912 26.0124 34.6742 25.9851 35.3003C25.9567 35.9503 25.4661 36.5117 24.8534 36.5225C23.6612 36.5428 22.4642 36.5919 21.2839 36.3393C16.2899 35.2656 13.0451 32.2502 11.5092 27.3446C11.2781 26.6048 11.1857 25.8339 11.085 25.0666C11.085 24.3495 11.085 23.6313 11.085 22.9143C11.143 22.5204 11.1786 22.1218 11.2627 21.7328C12.3423 16.7003 15.3276 13.4239 20.1889 11.8893C20.9141 11.6607 21.6678 11.5697 22.418 11.4667L22.4156 11.4631ZM16.2413 26.4636C16.9109 26.4636 17.5805 26.4636 18.25 26.4636C18.5665 26.4636 18.5973 26.4324 18.5676 26.1104C18.506 25.4448 18.4776 24.7793 18.4752 24.1101C18.474 23.3691 18.4942 22.6282 18.5665 21.8908C18.5985 21.5628 18.5665 21.5101 18.3259 21.5101C16.931 21.5077 15.535 21.5101 14.1401 21.5065C13.9742 21.5065 13.8936 21.5688 13.8557 21.7339C13.5132 23.2267 13.5144 24.7182 13.8474 26.2122C13.8924 26.4157 13.9932 26.4695 14.184 26.4671C14.869 26.4588 15.5551 26.4636 16.2401 26.4636H16.2413ZM26.6393 14.5623C26.6156 14.6342 26.6571 14.6904 26.682 14.7479C27.2271 16.0144 27.6478 17.3204 27.9216 18.6731C27.9654 18.8873 28.0709 18.9424 28.2712 18.9412C29.416 18.934 30.562 18.9388 31.7068 18.9364C31.7826 18.9364 31.8857 18.9759 31.9248 18.8837C31.9592 18.8023 31.8786 18.7341 31.836 18.6683C30.6248 16.7601 28.9704 15.4027 26.868 14.6078C26.7958 14.5803 26.7258 14.5288 26.6393 14.5611V14.5623ZM16.963 18.9376C17.5354 18.9376 18.109 18.9316 18.6814 18.9412C18.8876 18.9448 18.9789 18.8718 19.0227 18.6611C19.3 17.3431 19.6899 16.0611 20.2185 14.8221C20.2481 14.7515 20.3275 14.6689 20.26 14.5994C20.1948 14.5324 20.1071 14.6042 20.036 14.6318C17.9467 15.4374 16.3017 16.7949 15.1024 18.7018C14.9697 18.9137 14.9851 18.9364 15.2435 18.9376C15.8159 18.94 16.3894 18.9376 16.9618 18.9376H16.963ZM16.9654 29.0336C16.3847 29.0336 15.804 29.0313 15.2233 29.0336C14.991 29.0348 14.9756 29.0636 15.1024 29.2659C16.3006 31.1728 17.9455 32.5291 20.0336 33.3371C20.1047 33.3646 20.1936 33.4341 20.2576 33.373C20.3287 33.3048 20.2493 33.221 20.2197 33.1516C19.6911 31.9054 19.2846 30.6186 19.0156 29.291C18.9741 29.0863 18.8746 29.0289 18.6826 29.0313C18.1102 29.0384 17.5378 29.0336 16.9642 29.0336H16.9654ZM23.4396 18.9376C23.9954 18.9376 24.5524 18.934 25.1082 18.9388C25.3002 18.94 25.3677 18.8813 25.3168 18.6754C24.9387 17.1432 24.4019 15.6744 23.6126 14.3074C23.4739 14.0679 23.4621 14.0668 23.327 14.3014C22.5342 15.6768 21.9997 17.1552 21.6228 18.6958C21.5766 18.8837 21.6335 18.9436 21.8207 18.94C22.3611 18.9316 22.9003 18.9376 23.4408 18.9364L23.4396 18.9376Z" fill="#A3A3A3"/>
<path d="M27.3539 27.25C27.4796 27.2452 27.5922 27.2919 27.7024 27.3421C29.9718 28.3836 32.2401 29.4262 34.5107 30.4677C34.7762 30.5886 34.9528 30.7789 34.9611 31.0782C34.9694 31.3882 34.794 31.5905 34.5261 31.7246C33.8826 32.0466 33.2439 32.3794 32.598 32.6942C32.3669 32.8067 32.2116 32.9684 32.1014 33.2006C31.7957 33.8386 31.4721 34.4683 31.164 35.1051C31.0289 35.3828 30.8393 35.5815 30.5205 35.5803C30.2005 35.578 30.0133 35.3768 29.8865 35.0943C28.8673 32.8235 27.8422 30.5551 26.8242 28.2842C26.586 27.7527 26.8503 27.2524 27.3587 27.25H27.3539Z" fill="#A3A3A3"/>
</svg>
