<?xml version="1.0" encoding="utf-8"?>
<!-- Generator: Adobe Illustrator 28.1.0, SVG Export Plug-In . SVG Version: 6.00 Build 0)  -->
<svg version="1.1" id="Camada_1" xmlns="http://www.w3.org/2000/svg" xmlns:xlink="http://www.w3.org/1999/xlink" x="0px" y="0px"
	 viewBox="0 0 98 99" style="enable-background:new 0 0 98 99;" xml:space="preserve">
<style type="text/css">
	.st0{fill:#8C3EEF;}
</style>
<g>
	<path class="st0" d="M49,0C21.9,0,0,22.2,0,49.5C0,76.8,21.9,99,49,99s49-22.2,49-49.5C98,22.2,76.1,0,49,0z M72.2,44.8
		c-2.1-0.1-4.2-0.4-6.2-1.1c-2.3-0.7-4.4-1.8-6.3-3.2c-0.1-0.1-0.2-0.3-0.4-0.2c-0.2,0.1-0.1,0.3-0.1,0.5c0,6.3,0,12.7,0,19
		c0,7.9-5.4,14.8-13,16.6c-0.9,0.2-1.8,0.3-2.7,0.5h-2.6c-1.4-0.2-2.7-0.4-4-0.8c-6.4-2.3-10.4-6.9-11.5-13.7
		c-1.5-9.4,5.2-17.9,14.2-19.3c1.6-0.2,3.1-0.2,4.7-0.1c0.4,0,0.5,0.2,0.5,0.6c0,2.7,0,5.4,0,8.1c0,0.5-0.2,0.5-0.6,0.4
		c-4.6-1.2-9,1.7-9.9,6.3c-0.9,4.6,2.6,9.1,7.2,9.4c4.2,0.3,8.1-2.7,8.6-7.1c0.1-0.4,0-0.9,0-1.3c0-12.1,0-24.2,0-36.3
		c0-0.2,0-0.4,0-0.6c0-0.4,0.1-0.5,0.5-0.5c0.9,0,1.8,0,2.8,0c1.7,0,3.4,0,5.1,0c0.5,0,0.7,0.2,0.7,0.6c0.2,3.5,1.4,6.4,3.8,8.9
		c2.2,2.3,5,3.7,8.1,4.1c0.4,0,0.9,0.1,1.3,0.1c0.4,0,0.5,0.2,0.5,0.5c0,2.7,0,5.3,0,8C72.9,44.8,72.6,44.8,72.2,44.8z"/>
</g>
</svg>
