<svg width="101" height="104" viewBox="0 0 101 104" fill="none" xmlns="http://www.w3.org/2000/svg">
<path d="M50.5 103.149C78.3904 103.149 101 80.0583 101 51.5745C101 23.0907 78.3904 0 50.5 0C22.6096 0 0 23.0907 0 51.5745C0 80.0583 22.6096 103.149 50.5 103.149Z" fill="#D8D8D8"/>
<path d="M50.9066 78.9505C46.5441 78.912 42.4077 77.9348 38.5247 75.9266C38.1442 75.73 37.809 75.6958 37.3978 75.8052C33.0345 76.9662 28.667 78.1118 24.2994 79.2582C23.6391 79.4318 23.6016 79.3942 23.7833 78.7273C24.9434 74.4716 26.1019 70.2166 27.2757 65.9643C27.3942 65.536 27.3721 65.1846 27.1537 64.7828C25.2011 61.1853 24.0998 57.3476 23.9027 53.2449C23.5521 45.9541 25.7538 39.5346 30.5027 34.0298C34.8916 28.9422 40.4568 25.9098 47.1037 24.942C61.4109 22.8586 74.9436 32.5209 77.5087 46.786C79.126 55.7805 76.7367 63.7201 70.5359 70.4338C66.443 74.8648 61.341 77.5125 55.4192 78.5657C53.9315 78.8308 52.425 78.9735 50.9066 78.9496V78.9505ZM50.858 74.2211C52.1674 74.2356 53.4614 74.1074 54.7478 73.8825C66.5181 71.8333 74.6382 60.7861 73.0908 48.9515C72.445 44.0101 70.4421 39.7141 66.9403 36.1893C61.2318 30.4426 54.3162 28.3454 46.3966 29.8552C41.3824 30.811 37.2059 33.3698 33.9046 37.281C29.7879 42.1575 28.0664 47.8204 28.6695 54.1613C29.0082 57.7246 30.2067 61.0229 32.1678 64.0245C32.4297 64.4254 32.4852 64.7837 32.3555 65.2419C31.7072 67.5373 31.0845 69.8396 30.4592 72.1411C30.2946 72.7463 30.3338 72.7857 30.9309 72.6309C33.3084 72.0137 35.6875 71.4041 38.0564 70.7578C38.5239 70.6304 38.877 70.7031 39.2771 70.9459C42.8343 73.1063 46.6994 74.1911 50.858 74.2194V74.2211Z" fill="white"/>
<path d="M57.968 64.8435C55.9728 64.9401 54.201 64.1228 52.4053 63.4397C48.338 61.8932 45.1025 59.1968 42.3088 55.9319C40.6581 54.0032 39.0937 52.0027 38.0453 49.6576C37.1018 47.5468 36.7947 45.3848 37.5437 43.1406C37.9941 41.7898 38.8181 40.6938 39.8733 39.7697C40.5336 39.1918 41.3576 39.2131 42.1808 39.1883C43.2983 39.1558 43.9602 39.6286 44.3526 40.687C44.9387 42.266 45.6143 43.8117 46.278 45.3608C46.5501 45.996 46.5288 46.5714 46.1125 47.1245C45.5998 47.805 45.0973 48.4932 44.5642 49.1566C44.223 49.5807 44.1769 49.9799 44.4567 50.4553C46.6405 54.1588 49.7012 56.8321 53.7011 58.4162C54.1984 58.6129 54.6087 58.5376 54.9696 58.1153C55.658 57.3091 56.3413 56.4995 56.9717 55.6455C57.4758 54.9624 57.7846 54.8512 58.5771 55.177C60.4853 55.9609 62.3143 56.915 64.15 57.8511C64.7002 58.1315 64.7437 58.6488 64.6832 59.1763C64.2848 62.6455 61.8255 64.8272 58.3092 64.8426C58.1958 64.8426 58.0823 64.8426 57.9689 64.8426L57.968 64.8435Z" fill="white"/>
</svg>
