<svg width="27" height="28" viewBox="0 0 27 28" fill="none" xmlns="http://www.w3.org/2000/svg">
<path d="M0.722168 3.91981C0.816227 3.50677 0.930734 3.10122 1.14271 2.72975C1.72138 1.7176 2.60199 1.13688 3.73206 0.909912C10.4328 0.909912 17.1335 0.909912 23.8342 0.909912C23.8751 0.921499 23.9153 0.934449 23.9568 0.94331C25.7181 1.31887 26.8638 2.73044 26.8638 4.53256C26.8645 10.8584 26.8659 17.1849 26.8625 23.5107C26.8618 25.4614 25.273 27.0495 23.323 27.0509C16.9631 27.0536 10.6032 27.0509 4.24326 27.0529C3.43898 27.0529 2.72468 26.7953 2.0908 26.3107C1.33219 25.7307 0.906197 24.9482 0.722168 24.0226V3.91981ZM5.63983 13.8587C5.63983 15.423 5.64256 16.9865 5.6371 18.5508C5.63642 18.7594 5.68686 18.8623 5.92065 18.8609C7.56123 18.8527 9.20181 18.8664 10.8417 18.8466C11.6733 18.8364 12.4223 18.5481 13.0766 18.0307C13.4536 17.7329 13.7282 17.3601 13.8543 16.8918C14.0118 16.3063 14.0145 15.7113 13.8802 15.1251C13.7085 14.3747 13.1727 13.9323 12.5177 13.6031C12.4135 13.5507 12.2335 13.5384 12.2226 13.4341C12.2083 13.2964 12.3964 13.276 12.4966 13.2092C13.2879 12.681 13.5606 11.9094 13.5047 11.0049C13.4542 10.187 13.0139 9.6138 12.2894 9.24983C11.8259 9.01741 11.3331 8.89268 10.8165 8.89064C9.20181 8.8845 7.58645 8.88791 5.97176 8.88859C5.64801 8.88859 5.64119 8.89541 5.64119 9.21848C5.64119 10.7657 5.64119 12.3122 5.64119 13.8594L5.63983 13.8587ZM19.2416 15.7379C20.0241 15.7379 20.8059 15.7297 21.5883 15.7426C21.8392 15.7467 21.925 15.6404 21.925 15.4134C21.925 14.9949 21.8814 14.5819 21.773 14.1777C21.1262 11.7724 18.4128 10.6505 16.3919 11.9769C15.0989 12.8254 14.5468 14.0653 14.6607 15.6009C14.7397 16.6696 15.1746 17.5679 16.0054 18.2529C16.8895 18.9829 17.9221 19.1683 19.0283 18.9945C20.2715 18.7996 21.1835 18.165 21.6449 16.9552C21.7206 16.7562 21.6851 16.6717 21.4595 16.6771C21.1194 16.686 20.7786 16.6907 20.4399 16.6751C20.1972 16.6635 20.0398 16.7453 19.8803 16.9382C19.3677 17.5591 18.6991 17.7806 17.9166 17.5707C17.1859 17.3744 16.7695 16.8789 16.6502 16.1325C16.595 15.7883 16.6325 15.7392 16.9726 15.7386C17.7292 15.7372 18.4857 15.7386 19.2423 15.7386L19.2416 15.7379ZM18.2676 10.4944C18.7352 10.4944 19.2028 10.4965 19.6703 10.4944C20.3819 10.491 20.2776 10.5653 20.2981 9.86599C20.3056 9.61653 20.217 9.54292 19.9736 9.54496C18.9451 9.55519 17.9159 9.54564 16.8874 9.55041C16.1622 9.55382 16.2624 9.44749 16.2481 10.2129C16.244 10.4249 16.3271 10.4992 16.5337 10.4965C17.1117 10.489 17.6896 10.4937 18.2683 10.4944H18.2676Z" fill="#171717"/>
<path d="M7.79842 15.8258C7.79842 15.4353 7.79979 15.0447 7.79842 14.6542C7.79842 14.5178 7.83591 14.417 7.9954 14.4197C8.8767 14.4374 9.76344 14.3358 10.6393 14.4722C11.5383 14.6119 11.9963 15.3092 11.8062 16.17C11.6855 16.7173 11.2132 17.1215 10.548 17.191C9.71096 17.2783 8.86852 17.2231 8.0288 17.2265C7.85568 17.2271 7.79297 17.1406 7.7957 16.9716C7.80251 16.5899 7.79774 16.2075 7.79842 15.8258Z" fill="#171717"/>
<path d="M9.14115 12.9175C8.78468 12.9175 8.42821 12.9113 8.07242 12.9202C7.88226 12.925 7.79297 12.8636 7.7957 12.6598C7.80319 12.0409 7.80183 11.4214 7.7957 10.8018C7.79433 10.6266 7.87135 10.5537 8.03834 10.5558C8.8099 10.566 9.5835 10.5046 10.3523 10.5912C11.188 10.6853 11.646 11.3812 11.3904 12.1377C11.2364 12.5951 10.7811 12.8943 10.1847 12.9134C9.83705 12.925 9.48876 12.9154 9.14115 12.9154V12.9175Z" fill="#171717"/>
<path d="M18.2751 14.4994C17.8089 14.4994 17.342 14.4947 16.8758 14.5022C16.685 14.5056 16.6454 14.4272 16.6754 14.2541C16.8104 13.4736 17.5267 12.8704 18.3126 12.8841C19.0753 12.897 19.7842 13.5336 19.8939 14.2922C19.9191 14.4654 19.8428 14.5001 19.6996 14.4994C19.2246 14.4981 18.7495 14.4994 18.2744 14.4994H18.2751Z" fill="#171717"/>
</svg>
