<svg width="35" height="35" viewBox="0 0 35 35" fill="none" xmlns="http://www.w3.org/2000/svg">
<path d="M0 4.02962C0.125928 3.47664 0.279232 2.9337 0.563026 2.43639C1.33776 1.08132 2.51674 0.303864 4.0297 0C13.0007 0 21.9717 0 30.9427 0C30.9975 0.0155126 31.0513 0.0328501 31.107 0.0447127C33.4649 0.547502 34.9989 2.4373 34.9989 4.84996C34.9998 13.3189 35.0016 21.7888 34.997 30.2577C34.9961 32.8693 32.869 34.9954 30.2583 34.9973C21.7436 35.0009 13.2288 34.9973 4.71409 35C3.63731 35 2.68099 34.6551 1.83234 34.0063C0.816707 33.2297 0.246381 32.1822 0 30.943V4.02962ZM6.58384 17.3358C6.58384 19.4299 6.58749 21.5232 6.58019 23.6174C6.57928 23.8967 6.64681 24.0344 6.9598 24.0326C9.15624 24.0217 11.3527 24.0399 13.5482 24.0135C14.6615 23.9998 15.6643 23.6138 16.5404 22.9212C17.045 22.5224 17.4127 22.0233 17.5816 21.3964C17.7923 20.6126 17.796 19.8159 17.6162 19.0312C17.3863 18.0265 16.669 17.4343 15.7921 16.9936C15.6525 16.9233 15.4116 16.9069 15.397 16.7673C15.3778 16.5829 15.6297 16.5556 15.7638 16.4661C16.8233 15.7589 17.1883 14.726 17.1134 13.5151C17.0459 12.4201 16.4564 11.6527 15.4864 11.1654C14.8659 10.8542 14.2061 10.6872 13.5144 10.6845C11.3527 10.6763 9.19001 10.6809 7.02824 10.6818C6.59479 10.6818 6.58567 10.6909 6.58567 11.1234C6.58567 13.1948 6.58567 15.2653 6.58567 17.3367L6.58384 17.3358ZM24.7941 19.8515C25.8417 19.8515 26.8884 19.8406 27.9359 19.8579C28.2718 19.8634 28.3867 19.721 28.3867 19.4172C28.3867 18.8569 28.3283 18.3039 28.1832 17.7628C27.3173 14.5426 23.6845 13.0406 20.9789 14.8163C19.2478 15.9524 18.5087 17.6122 18.6611 19.6681C18.7669 21.0989 19.3491 22.3016 20.4615 23.2187C21.645 24.196 23.0275 24.4442 24.5085 24.2115C26.1729 23.9505 27.3939 23.101 28.0117 21.4813C28.113 21.2148 28.0655 21.1017 27.7635 21.109C27.3081 21.1208 26.8519 21.1272 26.3983 21.1062C26.0735 21.0907 25.8627 21.2002 25.6492 21.4584C24.9629 22.2897 24.0678 22.5863 23.0202 22.3052C22.042 22.0424 21.4844 21.3791 21.3247 20.3799C21.2508 19.919 21.301 19.8533 21.7563 19.8524C22.7692 19.8506 23.7821 19.8524 24.795 19.8524L24.7941 19.8515ZM23.4901 12.8316C24.1161 12.8316 24.7421 12.8344 25.3681 12.8316C26.3208 12.8271 26.1812 12.9265 26.2085 11.9903C26.2186 11.6563 26.0999 11.5578 25.7742 11.5605C24.3972 11.5742 23.0193 11.5614 21.6423 11.5678C20.6714 11.5724 20.8055 11.43 20.7863 12.4548C20.7809 12.7386 20.8922 12.838 21.1687 12.8344C21.9425 12.8243 22.7163 12.8307 23.491 12.8316H23.4901Z" fill="#111111"/>
<path d="M9.4738 19.9692C9.4738 19.4464 9.47563 18.9235 9.4738 18.4006C9.4738 18.2181 9.52399 18.0831 9.73752 18.0867C10.9174 18.1105 12.1046 17.9745 13.2772 18.157C14.4808 18.3441 15.094 19.2776 14.8394 20.4301C14.6779 21.1628 14.0455 21.7039 13.1549 21.797C12.0343 21.9138 10.9065 21.8399 9.78223 21.8444C9.55045 21.8453 9.4665 21.7295 9.47015 21.5032C9.47928 20.9922 9.47289 20.4802 9.4738 19.9692Z" fill="#111111"/>
<path d="M11.2715 16.0756C10.7942 16.0756 10.317 16.0674 9.84063 16.0792C9.58604 16.0856 9.4665 16.0035 9.47015 15.7307C9.48019 14.9021 9.47836 14.0726 9.47015 13.2432C9.46833 13.0087 9.57144 12.911 9.79501 12.9138C10.828 12.9274 11.8637 12.8453 12.893 12.9612C14.0118 13.0871 14.625 14.0188 14.2828 15.0317C14.0766 15.644 13.467 16.0446 12.6685 16.0701C12.2032 16.0856 11.7369 16.0728 11.2715 16.0728V16.0756Z" fill="#111111"/>
<path d="M23.5002 18.1935C22.876 18.1935 22.2509 18.1871 21.6268 18.1972C21.3713 18.2017 21.3183 18.0968 21.3585 17.865C21.5392 16.8202 22.4982 16.0126 23.5504 16.0309C24.5715 16.0482 25.5205 16.9005 25.6674 17.9161C25.7012 18.1479 25.599 18.1944 25.4073 18.1935C24.7713 18.1917 24.1353 18.1935 23.4993 18.1935H23.5002Z" fill="#111111"/>
</svg>
