<svg width="27" height="28" viewBox="0 0 27 28" fill="none" xmlns="http://www.w3.org/2000/svg">
<path d="M4.5536 0.909912C10.4375 0.909912 16.3214 0.909912 22.206 0.909912C22.2388 0.919604 22.2701 0.933024 22.3037 0.937497C23.4442 1.10226 24.3812 1.64204 25.1632 2.47482C25.8729 3.23005 26.2829 4.1262 26.4402 5.14462V22.7984C26.429 22.8476 26.4163 22.8968 26.4066 22.9468C26.0511 24.8151 24.9582 26.0729 23.2124 26.7767C22.7286 26.972 22.2149 27.0525 21.6909 27.0518C20.2969 27.051 18.9021 27.0548 17.5081 27.0488C16.8492 27.0458 16.6233 26.8199 16.5897 26.1616C16.5838 26.0513 16.5868 25.9409 16.5868 25.8298C16.5845 24.4863 16.5942 23.1429 16.5741 21.7994C16.5636 21.1135 16.3758 20.4738 15.9076 19.9422C15.8562 19.8833 15.7436 19.8371 15.7936 19.7394C15.8353 19.6574 15.9434 19.6768 16.0262 19.6664C16.6166 19.5888 17.2055 19.4986 17.7705 19.3078C18.8507 18.9432 19.8601 18.4377 20.528 17.4767C21.6074 15.923 21.8266 14.165 21.5925 12.3339C21.4784 11.4452 21.0848 10.6646 20.4989 9.98471C20.399 9.8684 20.3401 9.76105 20.399 9.59553C20.7166 8.70386 20.6599 7.8092 20.4057 6.9138C20.2313 6.29947 20.1157 6.22492 19.4851 6.35166C19.4687 6.35464 19.4523 6.35986 19.4359 6.36433C18.5279 6.5962 17.7057 7.01818 16.9237 7.52217C16.7388 7.64146 16.5704 7.67575 16.3512 7.62133C14.369 7.1233 12.3831 7.12405 10.4002 7.62282C10.1915 7.67501 10.026 7.65115 9.85081 7.53037C9.16723 7.05844 8.40985 6.73338 7.6301 6.45827C7.34683 6.35837 7.0561 6.30916 6.75419 6.32109C6.61032 6.32631 6.51639 6.38223 6.46644 6.52388C6.12801 7.48415 6.00426 8.45932 6.31512 9.44792C6.39339 9.69618 6.37177 9.86617 6.19957 10.0652C5.70235 10.6415 5.38628 11.3133 5.21557 12.0566C5.04411 12.8044 5.05604 13.5559 5.12909 14.3119C5.2178 15.2267 5.44964 16.0997 5.87082 16.9183C6.44855 18.0411 7.41615 18.6987 8.5485 19.1579C9.25519 19.4442 9.9999 19.571 10.7513 19.6709C10.8669 19.6865 11.0696 19.688 10.8952 19.8833C10.5195 20.3038 10.3167 20.7974 10.2243 21.3454C10.2056 21.4557 10.1415 21.5258 10.0387 21.569C9.41174 21.8322 8.75425 21.9254 8.09079 21.8091C7.34906 21.6794 6.82873 21.2022 6.45079 20.5737C6.13173 20.0436 5.72844 19.6112 5.17233 19.3279C4.8242 19.1505 4.46042 19.0409 4.06757 19.1087C3.81113 19.1527 3.77237 19.266 3.92071 19.477C4.03029 19.6328 4.17342 19.7544 4.33668 19.8476C4.65424 20.0287 4.89353 20.2882 5.10971 20.5767C5.39299 20.9547 5.6032 21.3707 5.77615 21.8061C6.10788 22.6411 6.74972 23.0981 7.59879 23.2756C8.3353 23.4299 9.08299 23.4426 9.82994 23.3307C10.1468 23.283 10.1669 23.2957 10.1691 23.6141C10.1751 24.464 10.1796 25.3146 10.1766 26.1646C10.1743 26.7573 9.88883 27.0458 9.30067 27.0473C7.84703 27.051 6.39339 27.0503 4.93975 27.0473C4.78768 27.0473 4.6356 27.0234 4.48428 27.0033C2.15547 26.6976 0.30674 24.6183 0.303013 22.2646C0.294813 16.7379 0.297795 11.2111 0.302267 5.68439C0.303758 4.30737 0.860614 3.16668 1.84536 2.22207C2.60722 1.49218 3.51667 1.06946 4.5536 0.909912Z" fill="#111111"/>
</svg>
