<svg width="12" height="12" viewBox="0 0 12 12" fill="none" xmlns="http://www.w3.org/2000/svg">
<path d="M11.4331 3.2594V8.16124C11.4066 8.37726 11.3893 8.59393 11.3521 8.80884C11.1301 10.0934 10.2229 11.0341 8.95124 11.2985C8.38922 11.4154 7.81918 11.4234 7.24959 11.4272C6.25715 11.4339 5.2647 11.4323 4.27226 11.4277C3.78394 11.4252 3.29607 11.4097 2.81065 11.3425C1.47262 11.1572 0.493535 10.2609 0.202281 8.94729C0.0827071 8.40592 0.0751363 7.855 0.0709055 7.30475C0.0642254 6.48092 0.0680108 5.65687 0.0675654 4.83282C0.0673428 4.19745 0.0613307 3.56141 0.138152 2.92915C0.208739 2.34823 0.385985 1.8042 0.742926 1.33017C1.34948 0.524568 2.19296 0.182103 3.1687 0.102765C3.3602 0.0872088 3.55214 0.0776526 3.74364 0.0654297C5.08456 0.0654297 6.42526 0.0654297 7.76618 0.0654297C7.81005 0.0700966 7.85392 0.0783193 7.89778 0.0792083C8.22021 0.0847642 8.54153 0.106988 8.85772 0.171214C10.1107 0.425007 10.9375 1.1466 11.2888 2.38712C11.3697 2.6727 11.3997 2.96627 11.4331 3.2594ZM5.76482 10.3912C6.42793 10.4018 7.0906 10.38 7.75327 10.3676C8.06679 10.3616 8.38209 10.3485 8.69183 10.2838C9.51415 10.1122 10.0539 9.63889 10.2761 8.82017C10.381 8.43437 10.3935 8.03812 10.3993 7.6441C10.4128 6.71649 10.4129 5.78844 10.41 4.86083C10.408 4.22945 10.4213 3.59675 10.3365 2.96849C10.21 2.03088 9.63707 1.41507 8.71409 1.22016C8.26898 1.12616 7.81562 1.12549 7.36538 1.12038C6.30257 1.10838 5.23932 1.10949 4.17651 1.11994C3.75188 1.12416 3.32546 1.13216 2.90372 1.20327C2.01816 1.35284 1.4341 1.90332 1.23547 2.77959C1.14663 3.17184 1.13728 3.57208 1.13371 3.96966C1.12325 5.15618 1.12392 6.34291 1.13371 7.5292C1.13661 7.89745 1.1473 8.26792 1.21766 8.6326C1.37976 9.47443 1.85606 10.028 2.69775 10.2503C3.05536 10.3447 3.42255 10.3605 3.78795 10.3674C4.44683 10.38 5.10549 10.402 5.76482 10.3912Z" fill="#6233FA"/>
<path d="M5.75787 8.67692C4.14507 8.67425 2.8253 7.35195 2.82686 5.73985C2.82819 4.13065 4.15375 2.8099 5.76678 2.81079C7.38381 2.81168 8.71004 4.14065 8.70448 5.75408C8.69869 7.36439 7.3729 8.6798 5.75787 8.67692ZM5.75943 7.62174C6.80086 7.62263 7.64612 6.78614 7.64768 5.75296C7.64924 4.71512 6.8091 3.86774 5.77658 3.86574C4.72869 3.86374 3.88477 4.70046 3.88432 5.74141C3.88388 6.7808 4.72134 7.62085 5.75943 7.62174Z" fill="#6233FA"/>
<path d="M8.80051 3.40106C8.41284 3.40061 8.11313 3.09993 8.11335 2.71146C8.11357 2.32899 8.41975 2.01964 8.80163 2.01586C9.17416 2.01208 9.4977 2.33188 9.50126 2.70679C9.5046 3.08881 9.18907 3.4015 8.80051 3.40106Z" fill="#6233FA"/>
</svg>
