<svg width="16" height="16" viewBox="0 0 16 16" fill="none" xmlns="http://www.w3.org/2000/svg">
<path d="M15.5921 4.27511V10.8362C15.5572 11.1253 15.5343 11.4154 15.4854 11.703C15.1932 13.4223 13.9991 14.6815 12.3252 15.0355C11.5855 15.1919 10.8351 15.2026 10.0854 15.2077C8.77909 15.2166 7.47276 15.2145 6.16644 15.2083C5.52368 15.205 4.88151 15.1842 4.24256 15.0944C2.48136 14.8463 1.19262 13.6466 0.809248 11.8883C0.651856 11.1637 0.641891 10.4263 0.636322 9.68979C0.627529 8.58711 0.632512 7.48412 0.631926 6.38113C0.631632 5.53069 0.623719 4.67936 0.724837 3.83308C0.817748 3.05552 1.05105 2.32734 1.52088 1.69285C2.31927 0.614555 3.42952 0.156167 4.71386 0.0499735C4.96592 0.0291512 5.21857 0.0163604 5.47063 0C7.23565 0 9.00037 0 10.7654 0C10.8231 0.00624668 10.8809 0.0172527 10.9386 0.0184426C11.363 0.0258791 11.786 0.0556252 12.2021 0.141591C13.8514 0.481292 14.9397 1.44715 15.4022 3.10758C15.5085 3.48981 15.5481 3.88276 15.5921 4.27511ZM8.13105 13.8209C9.00389 13.8352 9.87614 13.8061 10.7484 13.7894C11.1611 13.7814 11.5761 13.7638 11.9838 13.6773C13.0662 13.4476 13.7767 12.814 14.0692 11.7182C14.2072 11.2018 14.2236 10.6714 14.2312 10.144C14.2491 8.90241 14.2491 7.66022 14.2453 6.41861C14.2427 5.57353 14.2603 4.72666 14.1486 3.88573C13.9821 2.63075 13.228 1.80648 12.0131 1.54561C11.4272 1.41978 10.8305 1.41889 10.2378 1.41205C8.83888 1.39598 7.43935 1.39747 6.04041 1.41145C5.48148 1.4171 4.9202 1.42781 4.36508 1.523C3.19944 1.72319 2.43065 2.46 2.16921 3.63289C2.05226 4.15791 2.03995 4.69364 2.03526 5.2258C2.02149 6.81394 2.02237 8.40238 2.03526 9.99023C2.03907 10.4831 2.05314 10.979 2.14576 11.4671C2.35913 12.5939 2.98606 13.3349 4.09396 13.6323C4.56467 13.7588 5.04799 13.7799 5.52896 13.7891C6.39623 13.8061 7.26379 13.8349 8.13164 13.8203L8.13105 13.8209Z" fill="#6233FA"/>
<path d="M8.12191 11.5264C5.99902 11.5229 4.26185 9.75297 4.2639 7.59519C4.26566 5.44127 6.01045 3.67346 8.13363 3.67465C10.2621 3.67584 12.0078 5.45466 12.0004 7.61423C11.9928 9.76963 10.2477 11.5303 8.12191 11.5264ZM8.12396 10.1141C9.49477 10.1153 10.6074 8.99564 10.6094 7.61274C10.6115 6.2236 9.50561 5.08938 8.14653 5.0867C6.76722 5.08402 5.65639 6.20396 5.65581 7.59727C5.65522 8.9885 6.75755 10.1129 8.12396 10.1141Z" fill="#6233FA"/>
<path d="M12.1268 4.46472C11.6166 4.46412 11.2221 4.06166 11.2224 3.5417C11.2227 3.02977 11.6257 2.6157 12.1283 2.61065C12.6187 2.60559 13.0445 3.03363 13.0492 3.53545C13.0536 4.04679 12.6383 4.46531 12.1268 4.46472Z" fill="#6233FA"/>
</svg>
