<svg width="27" height="28" viewBox="0 0 27 28" fill="none" xmlns="http://www.w3.org/2000/svg">
<path d="M26.3694 3.92041V24.0213C26.3463 24.1119 26.3231 24.2019 26.3006 24.2926C25.8807 25.9638 24.4944 27.0502 22.772 27.0509C16.4291 27.0522 10.0863 27.0536 3.74342 27.0495C1.82679 27.0482 0.231191 25.4519 0.229828 23.5353C0.22642 17.1586 0.229146 10.7818 0.227783 4.40501C0.227783 3.78546 0.390001 3.21089 0.699443 2.67995C1.2747 1.69304 2.15054 1.1321 3.25813 0.909912H23.3595C23.945 1.03259 24.4937 1.23979 24.9749 1.60716C25.7444 2.19535 26.1827 2.9812 26.3701 3.91973L26.3694 3.92041ZM10.7263 16.676C10.7263 18.2654 10.7249 19.8549 10.727 21.4443C10.727 21.9248 10.913 22.1115 11.3902 22.1136C12.0704 22.1163 12.7499 22.1156 13.4302 22.1136C13.9529 22.1122 14.1117 21.9527 14.1117 21.4272C14.1124 19.7867 14.1063 18.1462 14.1152 16.5063C14.1186 15.8854 14.2569 15.2904 14.5998 14.7615C14.9883 14.1617 15.5601 13.9163 16.2588 13.9722C16.9969 14.0315 17.4842 14.4261 17.7194 15.1288C17.8557 15.5357 17.9136 15.9549 17.9143 16.3823C17.9164 18.0821 17.9143 19.7819 17.9157 21.4818C17.9157 21.9296 18.0636 22.0822 18.51 22.085C19.2496 22.0897 19.9891 22.0884 20.7286 22.0863C21.2391 22.085 21.3959 21.9282 21.3979 21.4143C21.4047 19.4173 21.4034 17.4196 21.3461 15.4233C21.3236 14.6313 21.1819 13.8523 20.8649 13.1162C20.4205 12.0829 19.6524 11.4395 18.5557 11.1825C18.0363 11.0605 17.5101 11.0565 16.984 11.081C15.9166 11.1307 14.9917 11.4831 14.3292 12.3712C14.3142 12.3917 14.2985 12.4121 14.2815 12.4312C14.2535 12.4619 14.2263 12.5028 14.1779 12.4884C14.1301 12.4741 14.1233 12.4251 14.1227 12.3835C14.1186 12.2219 14.1172 12.0604 14.1165 11.8989C14.1131 11.3611 13.9877 11.2323 13.4588 11.2316C12.7786 11.2309 12.099 11.2309 11.4188 11.2316C10.8837 11.2316 10.727 11.3897 10.7263 11.9336C10.7256 13.5149 10.7263 15.0954 10.7263 16.6767V16.676ZM9.11297 16.6753C9.11297 15.077 9.11434 13.4788 9.11229 11.8805C9.11229 11.4 8.94462 11.2323 8.47092 11.2309C7.79069 11.2282 7.11047 11.2289 6.43024 11.2309C5.90746 11.2323 5.72616 11.4129 5.72548 11.9364C5.7248 15.0907 5.7248 18.245 5.72548 21.3993C5.72548 21.9112 5.9245 22.1122 6.43297 22.1149C7.09615 22.1177 7.75934 22.1177 8.42252 22.1149C8.92554 22.1129 9.11161 21.9255 9.11229 21.4211C9.11366 19.8399 9.11229 18.2586 9.11229 16.6767L9.11297 16.6753ZM9.61871 8.02074C9.61735 6.82049 8.62019 5.82608 7.42195 5.83085C6.22099 5.83494 5.24428 6.8239 5.24496 8.03505C5.24496 9.25575 6.21213 10.2297 7.42332 10.229C8.64472 10.229 9.62076 9.24757 9.61939 8.02074H9.61871Z" fill="#111111"/>
</svg>
