<svg width="35" height="35" viewBox="0 0 35 35" fill="none" xmlns="http://www.w3.org/2000/svg">
<path d="M34.4095 4.02954V30.9345C34.379 31.0558 34.3485 31.1762 34.3189 31.2976C33.7662 33.5345 31.9414 34.9887 29.6743 34.9896C21.3254 34.9914 12.9765 34.9932 4.62753 34.9877C2.10473 34.9859 0.00448578 32.8494 0.00269147 30.284C-0.00179431 21.7487 0.00179431 13.2135 0 4.67817C0 3.8489 0.213523 3.07985 0.620831 2.36919C1.37803 1.04821 2.53087 0.297403 3.98875 0H30.4477C31.2183 0.16421 31.9405 0.441542 32.5739 0.93326C33.5868 1.72056 34.1637 2.77242 34.4104 4.02862L34.4095 4.02954ZM13.8189 21.1029C13.8189 23.2303 13.8171 25.3577 13.8198 27.4852C13.8198 28.1283 14.0647 28.3783 14.6927 28.381C15.5881 28.3847 16.4825 28.3838 17.3779 28.381C18.066 28.3792 18.2751 28.1657 18.2751 27.4624C18.276 25.2665 18.2679 23.0706 18.2795 20.8757C18.284 20.0446 18.4661 19.2482 18.9174 18.5403C19.4288 17.7375 20.1815 17.409 21.1011 17.4838C22.0727 17.5632 22.7142 18.0914 23.0237 19.032C23.2031 19.5766 23.2794 20.1377 23.2803 20.7097C23.283 22.9849 23.2803 25.2601 23.2821 27.5353C23.2821 28.1347 23.4768 28.3391 24.0644 28.3427C25.0378 28.3491 26.0112 28.3473 26.9846 28.3445C27.6566 28.3427 27.863 28.1329 27.8656 27.445C27.8746 24.772 27.8728 22.0981 27.7975 19.4261C27.7679 18.366 27.5812 17.3233 27.1641 16.338C26.5791 14.955 25.568 14.0938 24.1245 13.7499C23.4409 13.5866 22.7483 13.5811 22.0557 13.6139C20.6507 13.6805 19.4333 14.1522 18.5612 15.3409C18.5415 15.3683 18.5209 15.3956 18.4984 15.4212C18.4617 15.4622 18.4258 15.517 18.3621 15.4978C18.2993 15.4786 18.2903 15.413 18.2894 15.3573C18.284 15.1411 18.2822 14.9249 18.2813 14.7087C18.2768 13.9889 18.1118 13.8165 17.4156 13.8156C16.5202 13.8147 15.6258 13.8147 14.7304 13.8156C14.0261 13.8156 13.8198 14.0272 13.8189 14.7552C13.818 16.8717 13.8189 18.9873 13.8189 21.1038V21.1029ZM11.6953 21.1019C11.6953 18.9626 11.6971 16.8233 11.6944 14.684C11.6944 14.0409 11.4737 13.8165 10.8502 13.8146C9.95484 13.811 9.05947 13.8119 8.16411 13.8146C7.47599 13.8165 7.23735 14.0582 7.23646 14.7589C7.23556 18.9809 7.23556 23.2029 7.23646 27.4249C7.23646 28.1101 7.49842 28.3792 8.1677 28.3828C9.04063 28.3865 9.91357 28.3865 10.7865 28.3828C11.4486 28.3801 11.6935 28.1292 11.6944 27.4541C11.6962 25.3377 11.6944 23.2212 11.6944 21.1038L11.6953 21.1019ZM12.361 9.51781C12.3592 7.91128 11.0467 6.58027 9.46947 6.58665C7.88869 6.59213 6.60306 7.91585 6.60396 9.53697C6.60396 11.1709 7.87702 12.4745 9.47127 12.4736C11.079 12.4736 12.3637 11.1599 12.3619 9.51781H12.361Z" fill="#111111"/>
</svg>
