<?xml version="1.0" encoding="utf-8"?>
<!-- Generator: Adobe Illustrator 28.1.0, SVG Export Plug-In . SVG Version: 6.00 Build 0)  -->
<svg version="1.1" id="Camada_1" xmlns="http://www.w3.org/2000/svg" xmlns:xlink="http://www.w3.org/1999/xlink" x="0px" y="0px"
	 viewBox="0 0 250 250" style="enable-background:new 0 0 250 250;" xml:space="preserve">
<style type="text/css">
	.st0{fill:url(#SVGID_1_);}
</style>
<g>
	<linearGradient id="SVGID_1_" gradientUnits="userSpaceOnUse" x1="63.8003" y1="122.8333" x2="206.8663" y2="122.8333">
		<stop  offset="1.385225e-07" style="stop-color:#8C3FF0"/>
		<stop  offset="0.4583" style="stop-color:#903CF4"/>
		<stop  offset="0.957" style="stop-color:#9E34FE"/>
		<stop  offset="1" style="stop-color:#9F33FF"/>
	</linearGradient>
	<path class="st0" d="M206.87,16.11v47.99c0,2.38-1.93,4.32-4.32,4.32h-73.83c-4.55,0-8.25,3.69-8.25,8.25v152.89
		c0,2.38-1.94,4.32-4.32,4.32H68.12c-2.39,0-4.32-1.94-4.32-4.32V72.74c0-2.38,1.93-4.31,4.32-4.31h47.31
		c3.13,0,5.93-1.73,7.38-4.44l26.44-49.89c0.75-1.41,2.21-2.3,3.82-2.3h49.48C204.94,11.79,206.87,13.72,206.87,16.11z"/>
</g>
</svg>
