<svg width="200" height="200" viewBox="0 0 200 200" fill="none" xmlns="http://www.w3.org/2000/svg">
<rect width="199.296" height="199.296" fill="#111111"/>
<path d="M87.6137 100.98C84.2816 100.98 81.0675 100.977 77.8534 100.984C77.3743 100.984 77.36 100.798 77.478 100.406C79.1083 95.0286 80.7278 89.6442 82.4261 84.01C84.1922 89.7869 85.8904 95.3354 87.6137 100.977V100.98Z" fill="#A3A3A3"/>
<path d="M125.718 97.9797C125.332 95.8067 124.102 94.2973 121.975 93.6444C118.217 92.4918 114.574 94.9253 114.077 98.8218C113.995 99.4534 114.349 99.3249 114.667 99.3249C116.308 99.3321 117.949 99.3249 119.594 99.3249V99.3106C121.271 99.3106 122.944 99.3285 124.617 99.3035C125.686 99.2857 125.908 99.0288 125.718 97.9761V97.9797ZM125.718 97.9797C125.332 95.8067 124.102 94.2973 121.975 93.6444C118.217 92.4918 114.574 94.9253 114.077 98.8218C113.995 99.4534 114.349 99.3249 114.667 99.3249C116.308 99.3321 117.949 99.3249 119.594 99.3249V99.3106C121.271 99.3106 122.944 99.3285 124.617 99.3035C125.686 99.2857 125.908 99.0288 125.718 97.9761V97.9797ZM148.203 68.7348C148.203 67.4788 148.174 66.2086 147.838 64.9847C147.048 62.1016 145.621 59.5539 143.53 57.413C139.801 53.595 135.16 52.0107 129.912 52.0072C110.406 52 90.9029 52.0036 71.3967 52C69.6913 52 67.9859 51.9929 66.2877 52.2106C60.2921 52.9777 55.8088 55.9786 52.8057 61.2167C51.7153 63.1185 51.1968 65.1631 51.0038 67.3183V131.874C51.0503 131.956 51.0967 132.035 51.0967 132.134C51.0967 132.181 51.0967 132.227 51.1003 132.27C51.2076 136.059 52.963 139.146 55.4728 141.822C59.1195 145.715 63.7672 147.363 69.0228 147.367C89.3799 147.388 109.737 147.385 130.094 147.363C132.536 147.363 134.939 146.996 137.248 146.122C143.047 143.927 148.249 137.904 148.231 130.646C148.17 110.012 148.213 89.3768 148.199 68.742L148.203 68.7348ZM94.5317 119.071C93.7166 119.118 93.3698 118.789 93.1231 118.04C92.2079 115.26 91.214 112.506 90.2951 109.723C90.1057 109.155 89.8697 108.945 89.244 108.952C84.7572 108.98 80.2703 108.988 75.7834 108.948C75.0934 108.945 74.8789 109.205 74.7002 109.79C73.8385 112.556 72.9197 115.303 72.0617 118.072C71.84 118.786 71.4718 119.086 70.7067 119.068C68.5258 119.028 66.3449 119.057 64.1676 119.053C62.8734 119.053 62.8341 118.996 63.2667 117.765C66.3557 108.909 69.4518 100.049 72.5479 91.193C73.6884 87.921 76.7881 77.0273 76.9025 76.9024C77.0383 76.7561 77.26 76.7097 77.5853 76.7097C80.778 76.7311 83.967 76.7383 87.1597 76.7026C87.8426 76.6955 88.0714 76.9988 88.2787 77.5732C90.4739 83.7747 92.6941 89.9691 94.9071 96.1671C97.4813 103.371 100.055 110.579 102.626 117.783C103.066 119.021 103.041 119.053 101.746 119.057H98.1427C96.945 119.057 95.7402 119.007 94.5389 119.071H94.5317ZM113.462 118.333C108.847 116.363 106.308 112.556 105.336 107.728C104.242 102.279 104.964 97.1091 108.189 92.4633C110.874 88.5882 114.696 86.7114 119.351 86.4402C122.879 86.2368 126.233 86.8184 129.14 88.97C132.075 91.1431 133.455 94.2438 134.08 97.7299C134.481 99.9529 134.309 102.19 134.088 104.424C134.023 105.045 133.651 105.134 133.119 105.202C129.805 105.623 126.483 105.13 123.652 105.287C120.388 105.287 117.61 105.312 114.828 105.273C114.102 105.262 114.009 105.484 114.145 106.137C114.86 109.587 117.47 111.767 121.453 112.188C124.585 112.52 127.627 112.028 130.598 111.093C131.281 110.879 131.539 110.879 131.517 111.696C131.471 113.494 131.492 115.293 131.506 117.091C131.51 117.676 131.399 118.136 130.763 118.347C124.992 120.259 119.168 120.77 113.462 118.333ZM114.671 99.3285C116.312 99.3356 117.953 99.3285 119.597 99.3285V99.3142C121.274 99.3142 122.947 99.3321 124.621 99.3071C125.69 99.2892 125.911 99.0323 125.722 97.9797C125.336 95.8067 124.106 94.2973 121.978 93.6444C118.221 92.4918 114.578 94.9253 114.081 98.8218C113.999 99.4534 114.353 99.3249 114.671 99.3249V99.3285ZM125.722 97.9797C125.336 95.8067 124.106 94.2973 121.978 93.6444C118.221 92.4918 114.578 94.9253 114.081 98.8218C113.999 99.4534 114.353 99.3249 114.671 99.3249C116.312 99.3321 117.953 99.3249 119.597 99.3249V99.3106C121.274 99.3106 122.947 99.3285 124.621 99.3035C125.69 99.2857 125.911 99.0288 125.722 97.9761V97.9797ZM125.722 97.9797C125.336 95.8067 124.106 94.2973 121.978 93.6444C118.221 92.4918 114.578 94.9253 114.081 98.8218C113.999 99.4534 114.353 99.3249 114.671 99.3249C116.312 99.3321 117.953 99.3249 119.597 99.3249V99.3106C121.274 99.3106 122.947 99.3285 124.621 99.3035C125.69 99.2857 125.911 99.0288 125.722 97.9761V97.9797Z" fill="#A3A3A3"/>
<path d="M148.234 130.643C148.256 137.901 143.05 143.924 137.251 146.118C134.942 146.992 132.539 147.356 130.098 147.36C109.74 147.381 89.3833 147.385 69.0261 147.363C63.7706 147.36 59.1228 145.708 55.4761 141.818C52.9664 139.142 51.2109 136.056 51.1037 132.266C51.286 133.005 51.4576 133.751 51.665 134.479C53.8029 141.897 60.3992 146.917 68.3075 146.935C89.1401 146.982 109.969 146.992 130.802 146.935C140.673 146.907 148.106 139.321 148.109 129.448C148.12 109.601 148.12 89.755 148.109 69.9088C148.109 61.0597 142.157 54.0553 133.426 52.6245C132.404 52.4568 131.349 52.4318 130.305 52.4282C109.823 52.4175 89.3368 52.4211 68.8545 52.4211C59.7628 52.4211 52.9807 57.9732 51.2109 66.8437C51.1788 67.015 51.2503 67.2362 51 67.3183C51.1931 65.1666 51.7115 63.1185 52.8019 61.2167C55.805 55.9786 60.2883 52.9777 66.2839 52.2106C67.9857 51.9929 69.6911 52 71.3965 52C90.9027 52.0036 110.405 52 129.912 52.0072C135.16 52.0072 139.801 53.595 143.526 57.413C145.621 59.5575 147.044 62.1016 147.834 64.9847C148.17 66.205 148.195 67.4788 148.199 68.7348C148.213 89.3697 148.17 110.004 148.231 130.639L148.234 130.643Z" fill="#A3A3A3"/>
<path d="M87.6137 100.98C84.2816 100.98 81.0675 100.977 77.8534 100.984C77.3743 100.984 77.36 100.798 77.478 100.406C79.1083 95.0286 80.7278 89.6442 82.4261 84.01C84.1922 89.7869 85.8904 95.3354 87.6137 100.977V100.98Z" fill="#A3A3A3"/>
<path d="M124.617 99.3105C122.944 99.3355 121.271 99.3176 119.594 99.3176V99.3319C117.953 99.3319 116.312 99.3355 114.667 99.3319C114.349 99.3319 113.995 99.4568 114.077 98.8288C114.574 94.9323 118.221 92.4988 121.975 93.6513C124.099 94.3043 125.332 95.8137 125.718 97.9867C125.904 99.0393 125.682 99.2962 124.617 99.314V99.3105Z" fill="#A3A3A3"/>
<path d="M87.6137 100.98C84.2816 100.98 81.0675 100.977 77.8534 100.984C77.3743 100.984 77.36 100.798 77.478 100.406C79.1083 95.0286 80.7278 89.6442 82.4261 84.01C84.1922 89.7869 85.8904 95.3354 87.6137 100.977V100.98Z" fill="#A3A3A3"/>
<path d="M124.617 99.3105C122.944 99.3355 121.271 99.3176 119.594 99.3176V99.3319C117.953 99.3319 116.312 99.3355 114.667 99.3319C114.349 99.3319 113.995 99.4568 114.077 98.8288C114.574 94.9323 118.221 92.4988 121.975 93.6513C124.099 94.3043 125.332 95.8137 125.718 97.9867C125.904 99.0393 125.682 99.2962 124.617 99.314V99.3105Z" fill="#A3A3A3"/>
</svg>
