<svg width="157" height="158" viewBox="0 0 157 158" fill="none" xmlns="http://www.w3.org/2000/svg">
<rect y="0.954346" width="156.383" height="156.383" fill="#111111"/>
<mask id="path-2-inside-1_47_341" fill="white">
<path d="M68.7485 80.1917C66.1339 80.1917 63.6119 80.1889 61.0898 80.1945C60.7139 80.1945 60.7027 80.0489 60.7953 79.7409C62.0745 75.5215 63.3454 71.2964 64.6779 66.8754C66.0638 71.4084 67.3963 75.7622 68.7485 80.1889V80.1917Z"/>
<path d="M98.6482 77.8368C98.3452 76.1317 97.3802 74.9474 95.711 74.435C92.7626 73.5306 89.9039 75.4402 89.5139 78.4976C89.4494 78.9932 89.7271 78.8924 89.9768 78.8924C91.2645 78.898 92.5522 78.8924 93.8426 78.8924V78.8812C95.1583 78.8812 96.4713 78.8952 97.7842 78.8756C98.623 78.8616 98.7969 78.66 98.6482 77.8341V77.8368ZM98.6482 77.8368C98.3452 76.1317 97.3802 74.9474 95.711 74.435C92.7626 73.5306 89.9039 75.4402 89.5139 78.4976C89.4494 78.9932 89.7271 78.8924 89.9768 78.8924C91.2645 78.898 92.5522 78.8924 93.8426 78.8924V78.8812C95.1583 78.8812 96.4713 78.8952 97.7842 78.8756C98.623 78.8616 98.7969 78.66 98.6482 77.8341V77.8368ZM116.291 54.889C116.291 53.9035 116.269 52.9067 116.005 51.9464C115.385 49.6841 114.266 47.6849 112.625 46.005C109.699 43.0091 106.057 41.766 101.939 41.7632C86.6328 41.7576 71.3295 41.7604 56.0234 41.7576C54.6852 41.7576 53.347 41.752 52.0145 41.9228C47.3099 42.5248 43.7919 44.8795 41.4354 48.9897C40.5798 50.482 40.173 52.0863 40.0215 53.7775V104.433C40.058 104.497 40.0944 104.559 40.0944 104.637C40.0944 104.674 40.0944 104.71 40.0972 104.744C40.1814 107.717 41.5588 110.139 43.5282 112.239C46.3897 115.294 50.0367 116.587 54.1606 116.59C70.1344 116.607 86.1082 116.604 102.082 116.587C103.998 116.587 105.883 116.299 107.696 115.613C112.246 113.891 116.328 109.165 116.314 103.47C116.266 87.278 116.3 71.0863 116.288 54.8946L116.291 54.889ZM74.1769 94.3869C73.5373 94.4233 73.2652 94.1658 73.0716 93.5778C72.3534 91.3967 71.5736 89.2352 70.8526 87.0513C70.7039 86.6061 70.5187 86.4409 70.0278 86.4465C66.507 86.4689 62.9863 86.4745 59.4655 86.4437C58.9241 86.4409 58.7558 86.6453 58.6155 87.1045C57.9394 89.2744 57.2184 91.4303 56.5452 93.603C56.3712 94.163 56.0823 94.3981 55.4819 94.3841C53.7706 94.3533 52.0594 94.3757 50.3509 94.3729C49.3353 94.3729 49.3045 94.3281 49.6439 93.3622C52.0678 86.4129 54.4972 79.4608 56.9267 72.5115C57.8216 69.944 60.2539 61.396 60.3436 61.298C60.4502 61.1832 60.6242 61.1468 60.8795 61.1468C63.3847 61.1636 65.8871 61.1692 68.3923 61.1412C68.9281 61.1356 69.1076 61.3736 69.2703 61.8243C70.9928 66.6905 72.735 71.5511 74.4715 76.4145C76.4914 82.0675 78.5112 87.7232 80.5283 93.3762C80.8734 94.3477 80.8537 94.3729 79.8382 94.3757H77.0104C76.0706 94.3757 75.1252 94.3365 74.1826 94.3869H74.1769ZM89.0314 93.8074C85.4097 92.2618 83.4178 89.2744 82.6548 85.4861C81.7963 81.2107 82.363 77.1537 84.8935 73.5082C87.0003 70.4676 89.9992 68.9948 93.6518 68.782C96.4208 68.6224 99.0522 69.0788 101.333 70.7672C103.636 72.4723 104.719 74.9054 105.21 77.6409C105.524 79.3852 105.39 81.1407 105.216 82.8934C105.165 83.3806 104.873 83.4506 104.455 83.5038C101.855 83.8342 99.2486 83.4478 97.0267 83.571C94.4654 83.571 92.2856 83.5906 90.1031 83.5598C89.5336 83.5514 89.4606 83.725 89.5672 84.2374C90.1283 86.9449 92.1762 88.6556 95.3014 88.986C97.7589 89.2464 100.146 88.86 102.478 88.1264C103.013 87.9584 103.215 87.9584 103.199 88.5996C103.162 90.0107 103.179 91.4219 103.19 92.833C103.193 93.2922 103.106 93.6534 102.607 93.8186C98.0787 95.3193 93.5088 95.7197 89.0314 93.8074ZM89.9796 78.8952C91.2673 78.9008 92.5549 78.8952 93.8454 78.8952V78.884C95.1611 78.884 96.4741 78.898 97.787 78.8784C98.6258 78.8644 98.7997 78.6628 98.651 77.8368C98.348 76.1317 97.383 74.9474 95.7138 74.435C92.7654 73.5306 89.9067 75.4402 89.5167 78.4976C89.4522 78.9932 89.7299 78.8924 89.9796 78.8924V78.8952ZM98.651 77.8368C98.348 76.1317 97.383 74.9474 95.7138 74.435C92.7654 73.5306 89.9067 75.4402 89.5167 78.4976C89.4522 78.9932 89.7299 78.8924 89.9796 78.8924C91.2673 78.898 92.5549 78.8924 93.8454 78.8924V78.8812C95.1611 78.8812 96.4741 78.8952 97.787 78.8756C98.6258 78.8616 98.7997 78.66 98.651 77.8341V77.8368ZM98.651 77.8368C98.348 76.1317 97.383 74.9474 95.7138 74.435C92.7654 73.5306 89.9067 75.4402 89.5167 78.4976C89.4522 78.9932 89.7299 78.8924 89.9796 78.8924C91.2673 78.898 92.5549 78.8924 93.8454 78.8924V78.8812C95.1611 78.8812 96.4741 78.8952 97.787 78.8756C98.6258 78.8616 98.7997 78.66 98.651 77.8341V77.8368Z"/>
<path d="M116.316 103.467C116.333 109.162 112.249 113.888 107.698 115.61C105.886 116.296 104.001 116.582 102.085 116.585C86.1109 116.601 70.1371 116.604 54.1633 116.587C50.0394 116.585 46.3924 115.288 43.5309 112.236C41.5615 110.136 40.1841 107.714 40.0999 104.741C40.243 105.321 40.3776 105.906 40.5404 106.477C42.218 112.298 47.3939 116.237 53.5994 116.251C69.9463 116.288 86.2904 116.296 102.637 116.251C110.383 116.229 116.215 110.276 116.218 102.529C116.227 86.9562 116.227 71.3832 116.218 55.8103C116.218 48.8666 111.547 43.3704 104.696 42.2477C103.894 42.1161 103.067 42.0965 102.247 42.0937C86.1754 42.0853 70.1006 42.0881 54.0286 42.0881C46.8945 42.0881 41.5727 46.4447 40.1841 53.4052C40.1588 53.5396 40.2149 53.7132 40.0186 53.7776C40.17 52.0893 40.5768 50.4821 41.4325 48.9898C43.789 44.8796 47.3069 42.5249 52.0115 41.9229C53.3469 41.7521 54.6852 41.7576 56.0234 41.7576C71.3295 41.7604 86.6328 41.7576 101.939 41.7632C106.057 41.7632 109.698 43.0092 112.622 46.0051C114.266 47.6878 115.382 49.6842 116.002 51.9465C116.266 52.904 116.285 53.9036 116.288 54.8891C116.3 71.0809 116.266 87.2726 116.314 103.464L116.316 103.467Z"/>
<path d="M68.7485 80.1917C66.1339 80.1917 63.6119 80.1889 61.0898 80.1945C60.7139 80.1945 60.7027 80.0489 60.7953 79.7409C62.0745 75.5215 63.3454 71.2964 64.6779 66.8754C66.0638 71.4084 67.3963 75.7622 68.7485 80.1889V80.1917Z"/>
<path d="M97.7842 78.8811C96.4713 78.9007 95.1584 78.8867 93.8426 78.8867V78.8979C92.555 78.8979 91.2673 78.9007 89.9768 78.8979C89.7271 78.8979 89.4494 78.9959 89.5139 78.5031C89.9039 75.4456 92.7654 73.5361 95.711 74.4405C97.3774 74.9529 98.3452 76.1372 98.6482 77.8423C98.7941 78.6683 98.6202 78.8699 97.7842 78.8839V78.8811Z"/>
<path d="M68.7485 80.1917C66.1339 80.1917 63.6119 80.1889 61.0898 80.1945C60.7139 80.1945 60.7027 80.0489 60.7953 79.7409C62.0745 75.5215 63.3454 71.2964 64.6779 66.8754C66.0638 71.4084 67.3963 75.7622 68.7485 80.1889V80.1917Z"/>
<path d="M97.7842 78.8811C96.4713 78.9007 95.1584 78.8867 93.8426 78.8867V78.8979C92.555 78.8979 91.2673 78.9007 89.9768 78.8979C89.7271 78.8979 89.4494 78.9959 89.5139 78.5031C89.9039 75.4456 92.7654 73.5361 95.711 74.4405C97.3774 74.9529 98.3452 76.1372 98.6482 77.8423C98.7941 78.6683 98.6202 78.8699 97.7842 78.8839V78.8811Z"/>
</mask>
<path d="M68.7485 80.1917C66.1339 80.1917 63.6119 80.1889 61.0898 80.1945C60.7139 80.1945 60.7027 80.0489 60.7953 79.7409C62.0745 75.5215 63.3454 71.2964 64.6779 66.8754C66.0638 71.4084 67.3963 75.7622 68.7485 80.1889V80.1917Z" fill="#A3A3A3"/>
<path d="M98.6482 77.8368C98.3452 76.1317 97.3802 74.9474 95.711 74.435C92.7626 73.5306 89.9039 75.4402 89.5139 78.4976C89.4494 78.9932 89.7271 78.8924 89.9768 78.8924C91.2645 78.898 92.5522 78.8924 93.8426 78.8924V78.8812C95.1583 78.8812 96.4713 78.8952 97.7842 78.8756C98.623 78.8616 98.7969 78.66 98.6482 77.8341V77.8368ZM98.6482 77.8368C98.3452 76.1317 97.3802 74.9474 95.711 74.435C92.7626 73.5306 89.9039 75.4402 89.5139 78.4976C89.4494 78.9932 89.7271 78.8924 89.9768 78.8924C91.2645 78.898 92.5522 78.8924 93.8426 78.8924V78.8812C95.1583 78.8812 96.4713 78.8952 97.7842 78.8756C98.623 78.8616 98.7969 78.66 98.6482 77.8341V77.8368ZM116.291 54.889C116.291 53.9035 116.269 52.9067 116.005 51.9464C115.385 49.6841 114.266 47.6849 112.625 46.005C109.699 43.0091 106.057 41.766 101.939 41.7632C86.6328 41.7576 71.3295 41.7604 56.0234 41.7576C54.6852 41.7576 53.347 41.752 52.0145 41.9228C47.3099 42.5248 43.7919 44.8795 41.4354 48.9897C40.5798 50.482 40.173 52.0863 40.0215 53.7775V104.433C40.058 104.497 40.0944 104.559 40.0944 104.637C40.0944 104.674 40.0944 104.71 40.0972 104.744C40.1814 107.717 41.5588 110.139 43.5282 112.239C46.3897 115.294 50.0367 116.587 54.1606 116.59C70.1344 116.607 86.1082 116.604 102.082 116.587C103.998 116.587 105.883 116.299 107.696 115.613C112.246 113.891 116.328 109.165 116.314 103.47C116.266 87.278 116.3 71.0863 116.288 54.8946L116.291 54.889ZM74.1769 94.3869C73.5373 94.4233 73.2652 94.1658 73.0716 93.5778C72.3534 91.3967 71.5736 89.2352 70.8526 87.0513C70.7039 86.6061 70.5187 86.4409 70.0278 86.4465C66.507 86.4689 62.9863 86.4745 59.4655 86.4437C58.9241 86.4409 58.7558 86.6453 58.6155 87.1045C57.9394 89.2744 57.2184 91.4303 56.5452 93.603C56.3712 94.163 56.0823 94.3981 55.4819 94.3841C53.7706 94.3533 52.0594 94.3757 50.3509 94.3729C49.3353 94.3729 49.3045 94.3281 49.6439 93.3622C52.0678 86.4129 54.4972 79.4608 56.9267 72.5115C57.8216 69.944 60.2539 61.396 60.3436 61.298C60.4502 61.1832 60.6242 61.1468 60.8795 61.1468C63.3847 61.1636 65.8871 61.1692 68.3923 61.1412C68.9281 61.1356 69.1076 61.3736 69.2703 61.8243C70.9928 66.6905 72.735 71.5511 74.4715 76.4145C76.4914 82.0675 78.5112 87.7232 80.5283 93.3762C80.8734 94.3477 80.8537 94.3729 79.8382 94.3757H77.0104C76.0706 94.3757 75.1252 94.3365 74.1826 94.3869H74.1769ZM89.0314 93.8074C85.4097 92.2618 83.4178 89.2744 82.6548 85.4861C81.7963 81.2107 82.363 77.1537 84.8935 73.5082C87.0003 70.4676 89.9992 68.9948 93.6518 68.782C96.4208 68.6224 99.0522 69.0788 101.333 70.7672C103.636 72.4723 104.719 74.9054 105.21 77.6409C105.524 79.3852 105.39 81.1407 105.216 82.8934C105.165 83.3806 104.873 83.4506 104.455 83.5038C101.855 83.8342 99.2486 83.4478 97.0267 83.571C94.4654 83.571 92.2856 83.5906 90.1031 83.5598C89.5336 83.5514 89.4606 83.725 89.5672 84.2374C90.1283 86.9449 92.1762 88.6556 95.3014 88.986C97.7589 89.2464 100.146 88.86 102.478 88.1264C103.013 87.9584 103.215 87.9584 103.199 88.5996C103.162 90.0107 103.179 91.4219 103.19 92.833C103.193 93.2922 103.106 93.6534 102.607 93.8186C98.0787 95.3193 93.5088 95.7197 89.0314 93.8074ZM89.9796 78.8952C91.2673 78.9008 92.5549 78.8952 93.8454 78.8952V78.884C95.1611 78.884 96.4741 78.898 97.787 78.8784C98.6258 78.8644 98.7997 78.6628 98.651 77.8368C98.348 76.1317 97.383 74.9474 95.7138 74.435C92.7654 73.5306 89.9067 75.4402 89.5167 78.4976C89.4522 78.9932 89.7299 78.8924 89.9796 78.8924V78.8952ZM98.651 77.8368C98.348 76.1317 97.383 74.9474 95.7138 74.435C92.7654 73.5306 89.9067 75.4402 89.5167 78.4976C89.4522 78.9932 89.7299 78.8924 89.9796 78.8924C91.2673 78.898 92.5549 78.8924 93.8454 78.8924V78.8812C95.1611 78.8812 96.4741 78.8952 97.787 78.8756C98.6258 78.8616 98.7997 78.66 98.651 77.8341V77.8368ZM98.651 77.8368C98.348 76.1317 97.383 74.9474 95.7138 74.435C92.7654 73.5306 89.9067 75.4402 89.5167 78.4976C89.4522 78.9932 89.7299 78.8924 89.9796 78.8924C91.2673 78.898 92.5549 78.8924 93.8454 78.8924V78.8812C95.1611 78.8812 96.4741 78.8952 97.787 78.8756C98.6258 78.8616 98.7997 78.66 98.651 77.8341V77.8368Z" fill="#A3A3A3"/>
<path d="M116.316 103.467C116.333 109.162 112.249 113.888 107.698 115.61C105.886 116.296 104.001 116.582 102.085 116.585C86.1109 116.601 70.1371 116.604 54.1633 116.587C50.0394 116.585 46.3924 115.288 43.5309 112.236C41.5615 110.136 40.1841 107.714 40.0999 104.741C40.243 105.321 40.3776 105.906 40.5404 106.477C42.218 112.298 47.3939 116.237 53.5994 116.251C69.9463 116.288 86.2904 116.296 102.637 116.251C110.383 116.229 116.215 110.276 116.218 102.529C116.227 86.9562 116.227 71.3832 116.218 55.8103C116.218 48.8666 111.547 43.3704 104.696 42.2477C103.894 42.1161 103.067 42.0965 102.247 42.0937C86.1754 42.0853 70.1006 42.0881 54.0286 42.0881C46.8945 42.0881 41.5727 46.4447 40.1841 53.4052C40.1588 53.5396 40.2149 53.7132 40.0186 53.7776C40.17 52.0893 40.5768 50.4821 41.4325 48.9898C43.789 44.8796 47.3069 42.5249 52.0115 41.9229C53.3469 41.7521 54.6852 41.7576 56.0234 41.7576C71.3295 41.7604 86.6328 41.7576 101.939 41.7632C106.057 41.7632 109.698 43.0092 112.622 46.0051C114.266 47.6878 115.382 49.6842 116.002 51.9465C116.266 52.904 116.285 53.9036 116.288 54.8891C116.3 71.0809 116.266 87.2726 116.314 103.464L116.316 103.467Z" fill="#A3A3A3"/>
<path d="M68.7485 80.1917C66.1339 80.1917 63.6119 80.1889 61.0898 80.1945C60.7139 80.1945 60.7027 80.0489 60.7953 79.7409C62.0745 75.5215 63.3454 71.2964 64.6779 66.8754C66.0638 71.4084 67.3963 75.7622 68.7485 80.1889V80.1917Z" fill="#A3A3A3"/>
<path d="M97.7842 78.8811C96.4713 78.9007 95.1584 78.8867 93.8426 78.8867V78.8979C92.555 78.8979 91.2673 78.9007 89.9768 78.8979C89.7271 78.8979 89.4494 78.9959 89.5139 78.5031C89.9039 75.4456 92.7654 73.5361 95.711 74.4405C97.3774 74.9529 98.3452 76.1372 98.6482 77.8423C98.7941 78.6683 98.6202 78.8699 97.7842 78.8839V78.8811Z" fill="#A3A3A3"/>
<path d="M68.7485 80.1917C66.1339 80.1917 63.6119 80.1889 61.0898 80.1945C60.7139 80.1945 60.7027 80.0489 60.7953 79.7409C62.0745 75.5215 63.3454 71.2964 64.6779 66.8754C66.0638 71.4084 67.3963 75.7622 68.7485 80.1889V80.1917Z" fill="#A3A3A3"/>
<path d="M97.7842 78.8811C96.4713 78.9007 95.1584 78.8867 93.8426 78.8867V78.8979C92.555 78.8979 91.2673 78.9007 89.9768 78.8979C89.7271 78.8979 89.4494 78.9959 89.5139 78.5031C89.9039 75.4456 92.7654 73.5361 95.711 74.4405C97.3774 74.9529 98.3452 76.1372 98.6482 77.8423C98.7941 78.6683 98.6202 78.8699 97.7842 78.8839V78.8811Z" fill="#A3A3A3"/>
<path d="M68.7485 80.1917V80.6917H69.2485V80.1917H68.7485ZM61.0898 80.1945V80.6945H61.0909L61.0898 80.1945ZM60.7953 79.7409L60.3168 79.5958L60.3164 79.5969L60.7953 79.7409ZM64.6779 66.8754L65.1561 66.7292L64.6745 65.1541L64.1992 66.7311L64.6779 66.8754ZM68.7485 80.1889H69.2485V80.1142L69.2267 80.0428L68.7485 80.1889ZM98.6482 77.8368L98.1559 77.9243L99.1482 77.8368H98.6482ZM95.711 74.435L95.8577 73.957L95.8576 73.957L95.711 74.435ZM89.5139 78.4976L90.0097 78.5622L90.0099 78.5609L89.5139 78.4976ZM89.9768 78.8924L89.979 78.3924H89.9768V78.8924ZM93.8426 78.8924V79.3924H94.3426V78.8924H93.8426ZM93.8426 78.8812V78.3812H93.3426V78.8812H93.8426ZM97.7842 78.8756L97.7916 79.3756L97.7925 79.3755L97.7842 78.8756ZM98.6482 77.8341L99.1403 77.7455L98.1482 77.8341H98.6482ZM98.651 77.8368L98.1587 77.9243L99.151 77.8368H98.651ZM95.7138 74.435L95.8605 73.957L95.8604 73.957L95.7138 74.435ZM89.5167 78.4976L90.0126 78.5622L90.0127 78.5609L89.5167 78.4976ZM89.9796 78.8924L89.9818 78.3924H89.9796V78.8924ZM93.8454 78.8924V79.3924H94.3454V78.8924H93.8454ZM93.8454 78.8812V78.3812H93.3454V78.8812H93.8454ZM97.787 78.8756L97.7944 79.3756L97.7953 79.3755L97.787 78.8756ZM98.651 77.8341L99.1431 77.7455L98.151 77.8341H98.651ZM97.7842 78.8811H98.2842V78.3736L97.7767 78.3811L97.7842 78.8811ZM93.8426 78.8867V78.3867H93.3426V78.8867H93.8426ZM93.8426 78.8979V79.3979H94.3426V78.8979H93.8426ZM89.9768 78.8979L89.9779 78.3979H89.9768V78.8979ZM89.5139 78.5031L90.0097 78.568L90.0099 78.5664L89.5139 78.5031ZM95.711 74.4405L95.858 73.9626L95.8578 73.9625L95.711 74.4405ZM98.6482 77.8423L99.1406 77.7554L99.1405 77.7549L98.6482 77.8423ZM97.7842 78.8839H97.2842V79.3923L97.7926 79.3838L97.7842 78.8839ZM68.7485 79.6917C66.1346 79.6917 63.6115 79.6889 61.0887 79.6945L61.0909 80.6945C63.6122 80.6889 66.1332 80.6917 68.7485 80.6917V79.6917ZM61.0898 79.6945C61.0197 79.6945 61.0134 79.6865 61.0382 79.6952C61.054 79.7008 61.0849 79.7141 61.1199 79.7421C61.1567 79.7716 61.1891 79.8105 61.2122 79.8559C61.256 79.9416 61.2453 80.0066 61.2465 79.9949C61.2475 79.9855 61.2531 79.9548 61.2741 79.8848L60.3164 79.5969C60.2912 79.681 60.2634 79.7839 60.2522 79.8885C60.2413 79.9907 60.2396 80.1498 60.3215 80.3104C60.4121 80.488 60.5631 80.5882 60.7062 80.6386C60.836 80.6842 60.972 80.6945 61.0898 80.6945V79.6945ZM61.2738 79.8859C62.5532 75.666 63.8242 71.4404 65.1566 67.0197L64.1992 66.7311C62.8665 71.1525 61.5959 75.3769 60.3168 79.5958L61.2738 79.8859ZM64.1998 67.0216C65.5857 71.5548 66.9182 75.9084 68.2703 80.3349L69.2267 80.0428C67.8745 75.6161 66.5419 71.262 65.1561 66.7292L64.1998 67.0216ZM68.2485 80.1889V80.1917H69.2485V80.1889H68.2485ZM99.1405 77.7494C98.8074 75.8747 97.7205 74.5288 95.8577 73.957L95.5643 74.913C97.0399 75.3659 97.8831 76.3887 98.1559 77.9243L99.1405 77.7494ZM95.8576 73.957C92.603 72.9587 89.4458 75.0794 89.0179 78.4344L90.0099 78.5609C90.3619 75.8009 92.9221 74.1026 95.5644 74.913L95.8576 73.957ZM89.0181 78.4331C88.9979 78.5885 88.9936 78.765 89.0515 78.932C89.12 79.13 89.2618 79.2736 89.4431 79.3456C89.5903 79.404 89.7341 79.4022 89.8043 79.4002C89.8436 79.3991 89.8851 79.3964 89.9111 79.395C89.9414 79.3932 89.9609 79.3924 89.9768 79.3924V78.3924C89.9303 78.3924 89.8865 78.3947 89.8541 78.3966C89.8173 78.3987 89.7967 78.4 89.7759 78.4006C89.7565 78.4012 89.7515 78.4005 89.7547 78.4008C89.7579 78.4011 89.7802 78.4035 89.812 78.4161C89.8466 78.4299 89.8889 78.4544 89.9274 78.4946C89.9657 78.5346 89.9863 78.5756 89.9964 78.6047C90.0056 78.6314 90.005 78.6448 90.0046 78.6356C90.0042 78.6266 90.0043 78.6036 90.0097 78.5622L89.0181 78.4331ZM89.9746 79.3924C91.2636 79.398 92.5552 79.3924 93.8426 79.3924V78.3924C92.5491 78.3924 91.2654 78.398 89.979 78.3924L89.9746 79.3924ZM94.3426 78.8924V78.8812H93.3426V78.8924H94.3426ZM93.8426 79.3812C95.1511 79.3812 96.4739 79.3952 97.7916 79.3755L97.7767 78.3757C96.4687 78.3952 95.1656 78.3812 93.8426 78.3812V79.3812ZM97.7925 79.3755C98.0151 79.3718 98.2293 79.3558 98.418 79.3075C98.6111 79.258 98.8156 79.165 98.9703 78.9798C99.1256 78.7938 99.1803 78.5753 99.1929 78.3746C99.2052 78.1793 99.1799 77.9653 99.1403 77.7455L98.1561 77.9226C98.1909 78.1158 98.1996 78.2367 98.1949 78.3119C98.1905 78.3818 98.1772 78.3694 98.2027 78.3389C98.2277 78.309 98.2407 78.3206 98.17 78.3387C98.0948 78.358 97.9727 78.3724 97.7758 78.3757L97.7925 79.3755ZM98.1482 77.8341V77.8368H99.1482V77.8341H98.1482ZM101.939 41.2632C86.633 41.2576 71.3293 41.2604 56.0234 41.2576L56.0233 42.2576C71.3297 42.2604 86.6326 42.2576 101.939 42.2632L101.939 41.2632ZM99.1433 77.7494C98.8102 75.8747 97.7233 74.5288 95.8605 73.957L95.5671 74.913C97.0427 75.3659 97.8859 76.3887 98.1587 77.9243L99.1433 77.7494ZM95.8604 73.957C92.6058 72.9587 89.4486 75.0794 89.0208 78.4344L90.0127 78.5609C90.3647 75.8009 92.9249 74.1026 95.5672 74.913L95.8604 73.957ZM89.0209 78.4331C89.0007 78.5885 88.9964 78.765 89.0543 78.932C89.1229 79.13 89.2647 79.2736 89.4459 79.3456C89.5931 79.404 89.7369 79.4022 89.8071 79.4002C89.8464 79.3991 89.8879 79.3964 89.9139 79.395C89.9442 79.3932 89.9637 79.3924 89.9796 79.3924V78.3924C89.9331 78.3924 89.8893 78.3947 89.8569 78.3966C89.8201 78.3987 89.7995 78.4 89.7787 78.4006C89.7593 78.4012 89.7543 78.4005 89.7575 78.4008C89.7607 78.4011 89.783 78.4035 89.8148 78.4161C89.8494 78.4299 89.8917 78.4544 89.9302 78.4946C89.9685 78.5346 89.9891 78.5756 89.9992 78.6047C90.0084 78.6314 90.0078 78.6448 90.0074 78.6356C90.007 78.6266 90.0072 78.6036 90.0126 78.5622L89.0209 78.4331ZM89.9774 79.3924C91.2664 79.398 92.558 79.3924 93.8454 79.3924V78.3924C92.5519 78.3924 91.2682 78.398 89.9818 78.3924L89.9774 79.3924ZM94.3454 78.8924V78.8812H93.3454V78.8924H94.3454ZM93.8454 79.3812C95.1539 79.3812 96.4767 79.3952 97.7944 79.3755L97.7795 78.3757C96.4715 78.3952 95.1684 78.3812 93.8454 78.3812V79.3812ZM97.7953 79.3755C98.0179 79.3718 98.2321 79.3558 98.4208 79.3075C98.6139 79.258 98.8184 79.165 98.9731 78.9798C99.1284 78.7938 99.1831 78.5753 99.1957 78.3746C99.208 78.1793 99.1827 77.9653 99.1431 77.7455L98.1589 77.9226C98.1937 78.1158 98.2024 78.2367 98.1977 78.3119C98.1933 78.3818 98.18 78.3694 98.2055 78.3389C98.2305 78.309 98.2435 78.3206 98.1728 78.3387C98.0976 78.358 97.9755 78.3724 97.7786 78.3757L97.7953 79.3755ZM98.151 77.8341V77.8368H99.151V77.8341H98.151ZM97.7767 78.3811C96.4687 78.4007 95.1656 78.3867 93.8426 78.3867V79.3867C95.1511 79.3867 96.4739 79.4007 97.7916 79.381L97.7767 78.3811ZM93.3426 78.8867V78.8979H94.3426V78.8867H93.3426ZM93.8426 78.3979C92.5534 78.3979 91.2677 78.4007 89.9779 78.3979L89.9757 79.3979C91.2668 79.4007 92.5565 79.3979 93.8426 79.3979V78.3979ZM89.9768 78.3979C89.9308 78.3979 89.8873 78.4001 89.8553 78.4019C89.8189 78.4039 89.7982 78.4051 89.7777 78.4057C89.7585 78.4061 89.7536 78.4054 89.7567 78.4057C89.76 78.4061 89.782 78.4086 89.8135 78.4212C89.8477 78.4349 89.8895 78.4592 89.9276 78.4991C89.9656 78.5388 89.9862 78.5796 89.9963 78.6087C90.0056 78.6355 90.005 78.649 90.0046 78.6401C90.0042 78.6315 90.0043 78.609 90.0097 78.568L89.0182 78.4382C88.9979 78.5933 88.9936 78.7696 89.0516 78.9366C89.1202 79.1342 89.2615 79.2773 89.4416 79.3494C89.5883 79.4082 89.7318 79.4071 89.8025 79.4053C89.8421 79.4044 89.8835 79.4018 89.9099 79.4004C89.9406 79.3987 89.9604 79.3979 89.9768 79.3979V78.3979ZM90.0099 78.5664C90.3619 75.8064 92.9248 74.1081 95.5643 74.9185L95.8578 73.9625C92.6059 72.9641 89.4458 75.0849 89.018 78.4399L90.0099 78.5664ZM95.5641 74.9184C97.0374 75.3714 97.8831 76.3946 98.1559 77.9298L99.1405 77.7549C98.8073 75.8798 97.7174 74.5343 95.858 73.9626L95.5641 74.9184ZM98.1558 77.9293C98.19 78.1224 98.1983 78.2435 98.1934 78.3189C98.1888 78.3891 98.1755 78.3772 98.2006 78.3471C98.2253 78.3176 98.2382 78.3291 98.1681 78.3471C98.0934 78.3663 97.9719 78.3807 97.7758 78.384L97.7926 79.3838C98.0145 79.3801 98.2282 79.3641 98.4167 79.3157C98.6097 79.2662 98.8138 79.173 98.9682 78.9881C99.1231 78.8026 99.1781 78.5846 99.1913 78.3842C99.204 78.1891 99.1794 77.9752 99.1406 77.7554L98.1558 77.9293ZM98.2842 78.8839V78.8811H97.2842V78.8839H98.2842ZM116.291 54.889L117.185 55.3373L117.291 55.1257V54.889H116.291ZM116.005 51.9464L115.041 52.2107L115.041 52.2111L116.005 51.9464ZM112.625 46.005L111.909 46.7037L111.909 46.7038L112.625 46.005ZM101.939 41.7632V40.7632L101.938 42.7632L101.939 41.7632ZM52.0145 41.9228L52.1414 42.9147L52.1416 42.9147L52.0145 41.9228ZM41.4354 48.9897L42.3029 49.4871L42.3029 49.4871L41.4354 48.9897ZM40.0215 53.7775L39.0255 53.6883L39.0215 53.7328V53.7775H40.0215ZM40.0215 104.433H39.0215V104.696L39.1513 104.926L40.0215 104.433ZM40.0972 104.744L41.0968 104.715L41.0961 104.688L41.0938 104.66L40.0972 104.744ZM43.5282 112.239L44.258 111.555L44.2576 111.555L43.5282 112.239ZM54.1606 116.59L54.1616 115.59H54.1613L54.1606 116.59ZM102.082 116.587V115.587H102.081L102.082 116.587ZM107.696 115.613L107.342 114.678L107.342 114.678L107.696 115.613ZM116.314 103.47L117.314 103.467L117.314 103.467L116.314 103.47ZM116.288 54.8946L115.395 54.4464L115.288 54.6583L115.288 54.8953L116.288 54.8946ZM74.1769 94.3869V93.3869H74.1485L74.1201 93.3886L74.1769 94.3869ZM73.0716 93.5778L74.0215 93.2651L74.0215 93.265L73.0716 93.5778ZM70.8526 87.0513L71.8022 86.7378L71.8011 86.7345L70.8526 87.0513ZM70.0278 86.4465L70.0342 87.4465L70.0392 87.4464L70.0278 86.4465ZM59.4655 86.4437L59.4743 85.4437L59.4707 85.4437L59.4655 86.4437ZM58.6155 87.1045L59.5703 87.4019L59.5719 87.3966L58.6155 87.1045ZM56.5452 93.603L57.5001 93.8996L57.5003 93.899L56.5452 93.603ZM55.4819 94.3841L55.5052 93.3844L55.4999 93.3843L55.4819 94.3841ZM50.3509 94.3729L50.3525 93.3729H50.3509V94.3729ZM49.6439 93.3622L50.5874 93.6937L50.5881 93.6915L49.6439 93.3622ZM56.9267 72.5115L57.8707 72.8415L57.871 72.8406L56.9267 72.5115ZM60.3436 61.298L59.6108 60.6175L59.6063 60.6225L60.3436 61.298ZM60.8795 61.1468L60.8862 60.1468H60.8795V61.1468ZM68.3923 61.1412L68.3818 60.1412L68.3811 60.1412L68.3923 61.1412ZM69.2703 61.8243L70.213 61.4906L70.2109 61.4848L69.2703 61.8243ZM74.4715 76.4145L73.5297 76.7508L73.5298 76.751L74.4715 76.4145ZM80.5283 93.3762L81.4706 93.0415L81.4701 93.0401L80.5283 93.3762ZM79.8382 94.3757V95.3757L79.8409 95.3757L79.8382 94.3757ZM74.1826 94.3869V95.3869H74.2093L74.2359 95.3855L74.1826 94.3869ZM89.0314 93.8074L89.4242 92.8877L89.4239 92.8876L89.0314 93.8074ZM82.6548 85.4861L81.6744 85.683L81.6745 85.6836L82.6548 85.4861ZM84.8935 73.5082L85.715 74.0785L85.7154 74.0778L84.8935 73.5082ZM93.6518 68.782L93.5943 67.7837L93.5937 67.7837L93.6518 68.782ZM101.333 70.7672L101.928 69.9634L101.928 69.9634L101.333 70.7672ZM105.21 77.6409L104.226 77.8175L104.226 77.8181L105.21 77.6409ZM105.216 82.8934L106.21 82.9965L106.211 82.9922L105.216 82.8934ZM104.455 83.5038L104.581 84.4958L104.582 84.4958L104.455 83.5038ZM97.0267 83.571V84.571H97.0544L97.0821 84.5695L97.0267 83.571ZM90.1031 83.5598L90.0883 84.5597L90.0889 84.5597L90.1031 83.5598ZM89.5672 84.2374L90.5464 84.0345L90.5463 84.0337L89.5672 84.2374ZM95.3014 88.986L95.4068 87.9915L95.4065 87.9915L95.3014 88.986ZM102.478 88.1264L102.178 87.1722L102.177 87.1725L102.478 88.1264ZM103.199 88.5996L102.199 88.5733L102.199 88.5738L103.199 88.5996ZM103.19 92.833L104.19 92.8269L104.19 92.8251L103.19 92.833ZM102.607 93.8186L102.293 92.8692L102.292 92.8694L102.607 93.8186ZM89.9796 78.8952H88.9796V79.8909L89.9753 79.8952L89.9796 78.8952ZM93.8454 78.8952V79.8952H94.8454V78.8952H93.8454ZM93.8454 78.884V77.884H92.8454V78.884H93.8454ZM97.787 78.8784L97.8019 79.8783L97.8037 79.8783L97.787 78.8784ZM116.316 103.467L117.316 103.464L117.315 103.051L117.022 102.759L116.316 103.467ZM107.698 115.61L107.344 114.675L107.344 114.675L107.698 115.61ZM102.085 116.585L102.086 117.585H102.086L102.085 116.585ZM54.1633 116.587L54.1643 115.587H54.1639L54.1633 116.587ZM43.5309 112.236L44.2604 111.552L44.2603 111.552L43.5309 112.236ZM40.0999 104.741L41.0708 104.501L39.1003 104.769L40.0999 104.741ZM40.5404 106.477L39.5786 106.751L39.5795 106.754L40.5404 106.477ZM53.5994 116.251L53.5971 117.251H53.5972L53.5994 116.251ZM102.637 116.251L102.64 117.251L102.64 117.251L102.637 116.251ZM116.218 102.529L115.218 102.529V102.529L116.218 102.529ZM116.218 55.8103H115.218V55.8108L116.218 55.8103ZM104.696 42.2477L104.535 43.2345L104.535 43.2345L104.696 42.2477ZM102.247 42.0937L102.251 41.0937L102.248 41.0937L102.247 42.0937ZM40.1841 53.4052L39.2033 53.2095L39.2013 53.2206L40.1841 53.4052ZM40.0186 53.7776L39.0226 53.6882L38.8868 55.2011L40.3302 54.7278L40.0186 53.7776ZM41.4325 48.9898L42.3 49.4872L42.3 49.4872L41.4325 48.9898ZM52.0115 41.9229L51.8847 40.931L51.8846 40.931L52.0115 41.9229ZM112.622 46.0051L111.906 46.7035L111.906 46.7039L112.622 46.0051ZM116.002 51.9465L115.038 52.2108L115.038 52.212L116.002 51.9465ZM116.288 54.8891L117.288 54.8884L117.288 54.8863L116.288 54.8891ZM116.314 103.464L115.314 103.467L115.315 103.881L115.607 104.172L116.314 103.464ZM117.291 54.889C117.291 53.9046 117.273 52.7856 116.969 51.6816L115.041 52.2111C115.265 53.0278 115.291 53.9023 115.291 54.889H117.291ZM116.97 51.682C116.307 49.2629 115.104 47.1124 113.34 45.3062L111.909 46.7038C113.427 48.2575 114.464 50.1052 115.041 52.2107L116.97 51.682ZM113.34 45.3063C110.194 42.0848 106.277 40.7661 101.94 40.7632L101.938 42.7632C105.838 42.7658 109.204 43.9334 111.909 46.7037L113.34 45.3063ZM56.0234 40.7576C54.7 40.7576 53.295 40.7505 51.8873 40.9309L52.1416 42.9147C53.399 42.7535 54.6704 42.7576 56.0234 42.7576V40.7576ZM51.8875 40.9309C46.8716 41.5727 43.0799 44.1109 40.5679 48.4923L42.3029 49.4871C44.504 45.648 47.7481 43.4768 52.1414 42.9147L51.8875 40.9309ZM40.5679 48.4923C39.623 50.1403 39.1863 51.8931 39.0255 53.6883L41.0175 53.8667C41.1597 52.2796 41.5365 50.8237 42.3029 49.4871L40.5679 48.4923ZM39.0215 53.7775V104.433H41.0215V53.7775H39.0215ZM39.1513 104.926C39.1574 104.936 39.1598 104.941 39.1629 104.946C39.1655 104.951 39.166 104.952 39.1656 104.951C39.1649 104.95 39.1568 104.935 39.1468 104.91C39.1248 104.857 39.0944 104.761 39.0944 104.637H41.0944C41.0944 104.25 40.9007 103.956 40.8916 103.94L39.1513 104.926ZM39.0944 104.637C39.0944 104.664 39.0938 104.744 39.1007 104.827L41.0938 104.66C41.0943 104.667 41.0945 104.671 41.0946 104.673C41.0947 104.674 41.0946 104.674 41.0946 104.672C41.0945 104.669 41.0945 104.666 41.0945 104.66C41.0944 104.653 41.0944 104.647 41.0944 104.637H39.0944ZM39.0976 104.772C39.191 108.069 40.7261 110.713 42.7988 112.923L44.2576 111.555C42.3916 109.565 41.1718 107.365 41.0968 104.715L39.0976 104.772ZM42.7984 112.923C45.8802 116.213 49.8093 117.587 54.1599 117.59L54.1613 115.59C50.264 115.587 46.8991 114.375 44.258 111.555L42.7984 112.923ZM54.1595 117.59C70.1342 117.607 86.1087 117.604 102.083 117.587L102.081 115.587C86.1077 115.604 70.1346 115.607 54.1616 115.59L54.1595 117.59ZM102.082 117.587C104.099 117.587 106.107 117.283 108.05 116.548L107.342 114.678C105.66 115.314 103.897 115.587 102.082 115.587V117.587ZM108.049 116.548C112.924 114.704 117.329 109.645 117.314 103.467L115.314 103.472C115.327 108.684 111.568 113.078 107.342 114.678L108.049 116.548ZM117.314 103.467C117.266 87.2762 117.3 71.0897 117.288 54.8939L115.288 54.8953C115.3 71.0829 115.266 87.2799 115.314 103.473L117.314 103.467ZM117.182 55.3429L117.185 55.3373L115.397 54.4408L115.395 54.4464L117.182 55.3429ZM74.1201 93.3886C74.0278 93.3938 73.9925 93.3856 73.9933 93.3858C73.9949 93.3861 74.0051 93.3888 74.0207 93.3961C74.0367 93.4036 74.0535 93.4137 74.0693 93.4259C74.1024 93.4515 74.1091 93.4692 74.0972 93.4491C74.0829 93.4249 74.0562 93.3706 74.0215 93.2651L72.1218 93.8905C72.2406 94.2514 72.4369 94.6913 72.8447 95.0071C73.2764 95.3415 73.7773 95.4113 74.2337 95.3853L74.1201 93.3886ZM74.0215 93.265C73.6598 92.1666 73.283 91.0743 72.9084 89.9893C72.5331 88.902 72.1602 87.8222 71.8022 86.7378L69.903 87.3647C70.266 88.4642 70.6434 89.5571 71.0179 90.6419C71.3931 91.7288 71.7653 92.8078 72.1218 93.8905L74.0215 93.265ZM71.8011 86.7345C71.708 86.4557 71.5446 86.0665 71.1748 85.7846C70.7916 85.4924 70.358 85.4427 70.0164 85.4465L70.0392 87.4464C70.1097 87.4456 70.1241 87.452 70.1057 87.4475C70.0947 87.4448 70.074 87.4387 70.0472 87.4264C70.0198 87.4138 69.9907 87.3968 69.9622 87.3751C69.9027 87.3297 69.8743 87.2857 69.8683 87.2756C69.8657 87.2712 69.8791 87.2933 69.9041 87.368L71.8011 86.7345ZM70.0214 85.4465C66.5037 85.4689 62.9883 85.4745 59.4743 85.4437L59.4568 87.4436C62.9843 87.4745 66.5104 87.4689 70.0342 87.4465L70.0214 85.4465ZM59.4707 85.4437C59.0879 85.4417 58.6298 85.5098 58.2426 85.8387C57.8834 86.1439 57.7389 86.5512 57.6591 86.8123L59.5719 87.3966C59.5845 87.3553 59.5949 87.3254 59.6032 87.3037C59.6116 87.282 59.6163 87.2728 59.6166 87.2722C59.6168 87.2719 59.6112 87.2826 59.5981 87.2998C59.5846 87.3175 59.5646 87.3399 59.5376 87.3629C59.5102 87.3862 59.4811 87.4053 59.4525 87.42C59.4245 87.4344 59.4022 87.4418 59.3898 87.4452C59.3687 87.451 59.3835 87.4433 59.4604 87.4437L59.4707 85.4437ZM57.6608 86.807C57.3245 87.8863 56.9769 88.9627 56.6276 90.0457C56.2788 91.127 55.9286 92.2143 55.59 93.307L57.5003 93.899C57.835 92.8189 58.1819 91.742 58.531 90.6596C58.8795 89.579 59.2304 88.4925 59.5702 87.4019L57.6608 86.807ZM55.5902 93.3064C55.5631 93.3934 55.542 93.4331 55.5348 93.4451C55.5299 93.4531 55.5408 93.4334 55.5726 93.4094C55.5873 93.3984 55.6019 93.3899 55.6144 93.3841C55.6266 93.3784 55.6334 93.3768 55.6322 93.3771C55.6275 93.3783 55.591 93.3864 55.5052 93.3844L55.4586 95.3839C55.8859 95.3938 56.3607 95.319 56.7743 95.0082C57.1802 94.703 57.3826 94.278 57.5001 93.8996L55.5902 93.3064ZM55.4999 93.3843C53.7786 93.3533 52.0405 93.3757 50.3525 93.3729L50.3492 95.3729C52.0782 95.3758 53.7627 95.3534 55.4639 95.384L55.4999 93.3843ZM50.3509 93.3729C50.2253 93.3729 50.1273 93.3722 50.0469 93.3696C49.9648 93.367 49.9209 93.363 49.9004 93.3602C49.8754 93.3567 49.9171 93.3592 49.9876 93.3897C50.0684 93.4245 50.201 93.5025 50.3089 93.6569C50.4163 93.8106 50.4435 93.9603 50.4488 94.0447C50.4533 94.1187 50.4422 94.1565 50.4476 94.1302C50.4521 94.1084 50.4634 94.0643 50.4885 93.9848C50.5132 93.9071 50.5454 93.8133 50.5874 93.6937L48.7005 93.0306C48.6208 93.2573 48.5342 93.507 48.4891 93.725C48.4526 93.9017 48.3681 94.3712 48.6697 94.8027C48.9738 95.2378 49.4474 95.3167 49.6281 95.3415C49.8489 95.3719 50.1129 95.3729 50.3509 95.3729V93.3729ZM50.5881 93.6915C53.0119 86.7426 55.4412 79.7907 57.8707 72.8415L55.9827 72.1815C53.5532 79.1308 51.1237 86.0832 48.6997 93.0329L50.5881 93.6915ZM57.871 72.8406C58.3282 71.5288 59.168 68.722 59.896 66.2625C60.2624 65.0243 60.6017 63.8703 60.8561 63.0157C60.9833 62.5884 61.0879 62.241 61.163 61.9985C61.2008 61.8762 61.2293 61.7868 61.2486 61.7292C61.2533 61.7153 61.2569 61.7046 61.2597 61.6967C61.2626 61.6884 61.2637 61.6854 61.2633 61.6864C61.2631 61.6871 61.262 61.6901 61.26 61.6949C61.2582 61.6993 61.2545 61.7084 61.249 61.7205C61.2443 61.7308 61.2335 61.7544 61.2171 61.784C61.2095 61.798 61.1639 61.8829 61.081 61.9734L59.6063 60.6225C59.5219 60.7145 59.4747 60.8021 59.4651 60.8196C59.4467 60.8528 59.4336 60.881 59.4265 60.8969C59.4117 60.9295 59.4003 60.9588 59.3936 60.9765C59.3792 61.0143 59.3649 61.056 59.352 61.0945C59.3253 61.1741 59.2915 61.2809 59.2525 61.4068C59.1739 61.6605 59.0667 62.017 58.9393 62.445C58.6844 63.301 58.3429 64.4628 57.9782 65.6948C57.2439 68.1757 56.4201 70.9267 55.9824 72.1823L57.871 72.8406ZM61.0764 61.9784C60.9704 62.0926 60.8568 62.1341 60.8113 62.1461C60.7916 62.1513 60.7854 62.1509 60.7992 62.1496C60.8128 62.1483 60.8382 62.1468 60.8795 62.1468V60.1468C60.6064 60.1468 60.0309 60.1652 59.6109 60.6175L61.0764 61.9784ZM60.8727 62.1467C63.3806 62.1636 65.8897 62.1692 68.4034 62.1411L68.3811 60.1412C65.8844 60.1691 63.3888 60.1636 60.8862 60.1468L60.8727 62.1467ZM68.4027 62.1411C68.4649 62.1405 68.4709 62.1477 68.4439 62.1396C68.4293 62.1352 68.4081 62.1272 68.3834 62.1137C68.3584 62.1 68.335 62.0836 68.3144 62.0657C68.2732 62.0298 68.2604 62.0028 68.268 62.0163C68.2718 62.0233 68.2794 62.0378 68.2904 62.0632C68.3015 62.0886 68.3144 62.1213 68.3297 62.1638L70.2109 61.4848C70.1202 61.2335 69.9647 60.8508 69.628 60.5575C69.2515 60.2296 68.8022 60.1368 68.3818 60.1412L68.4027 62.1411ZM68.3277 62.158C70.0508 67.0259 71.7938 71.8889 73.5297 76.7508L75.4133 76.0782C73.6762 71.2133 71.9349 66.3551 70.213 61.4906L68.3277 62.158ZM73.5298 76.751C75.5496 82.4039 77.5695 88.0595 79.5865 93.7122L81.4701 93.0401C79.453 87.387 77.4331 81.7311 75.4132 76.078L73.5298 76.751ZM79.586 93.7109C79.6292 93.8326 79.6626 93.9279 79.6885 94.0076C79.715 94.0889 79.7273 94.1346 79.7326 94.1582C79.7389 94.1868 79.7271 94.1492 79.7303 94.0747C79.7341 93.9898 79.7589 93.8322 79.8714 93.6699C79.9845 93.5066 80.1252 93.4265 80.2078 93.3919C80.2798 93.3618 80.3222 93.3597 80.2952 93.3632C80.2733 93.366 80.2281 93.3698 80.1442 93.3723C80.062 93.3747 79.9629 93.3754 79.8354 93.3757L79.8409 95.3757C80.0747 95.3751 80.336 95.3745 80.5507 95.3468C80.7174 95.3253 81.2066 95.2546 81.5156 94.8086C81.821 94.3677 81.7212 93.8879 81.6852 93.7255C81.6382 93.5136 81.5505 93.2663 81.4706 93.0415L79.586 93.7109ZM79.8382 93.3757H77.0104V95.3757H79.8382V93.3757ZM77.0104 93.3757C76.1273 93.3757 75.106 93.3361 74.1292 93.3884L74.2359 95.3855C75.1444 95.3369 76.0138 95.3757 77.0104 95.3757V93.3757ZM74.1826 93.3869H74.1769V95.3869H74.1826V93.3869ZM89.4239 92.8876C86.1661 91.4974 84.3474 88.825 83.6351 85.2887L81.6745 85.6836C82.4883 89.7237 84.6533 93.0263 88.6389 94.7271L89.4239 92.8876ZM83.6352 85.2893C82.8211 81.2347 83.3644 77.4648 85.715 74.0785L84.072 72.938C81.3617 76.8426 80.7716 81.1867 81.6744 85.683L83.6352 85.2893ZM85.7154 74.0778C87.6255 71.3211 90.3244 69.9776 93.71 69.7803L93.5937 67.7837C89.6741 68.0121 86.3751 69.6141 84.0715 72.9387L85.7154 74.0778ZM93.7094 69.7804C96.3323 69.6292 98.7054 70.0663 100.738 71.5709L101.928 69.9634C99.399 68.0913 96.5092 67.6157 93.5943 67.7837L93.7094 69.7804ZM100.738 71.5709C102.767 73.0727 103.762 75.2323 104.226 77.8175L106.194 77.4642C105.676 74.5784 104.506 71.8718 101.928 69.9634L100.738 71.5709ZM104.226 77.8181C104.513 79.4105 104.395 81.0401 104.221 82.7947L106.211 82.9922C106.384 81.2413 106.536 79.3598 106.194 77.4636L104.226 77.8181ZM104.221 82.7903C104.218 82.8193 104.217 82.7802 104.254 82.7117C104.273 82.6767 104.299 82.6397 104.332 82.6042C104.365 82.5689 104.399 82.5417 104.43 82.5217C104.489 82.4839 104.526 82.4782 104.502 82.4842C104.475 82.4907 104.428 82.4992 104.329 82.5118L104.582 84.4958C104.762 84.4729 105.166 84.4278 105.516 84.2011C105.966 83.91 106.163 83.4561 106.21 82.9965L104.221 82.7903ZM104.329 82.5118C103.112 82.6664 101.877 82.6553 100.631 82.6156C99.4123 82.5769 98.1392 82.5078 96.9714 82.5725L97.0821 84.5695C98.1361 84.511 99.277 84.5736 100.567 84.6146C101.829 84.6548 103.198 84.6716 104.581 84.4958L104.329 82.5118ZM97.0267 82.571C94.4535 82.571 92.2904 82.5906 90.1172 82.5599L90.0889 84.5597C92.2809 84.5906 94.4774 84.571 97.0267 84.571V82.571ZM90.1178 82.5599C89.9391 82.5573 89.7199 82.566 89.5026 82.6249C89.2698 82.688 88.9797 82.8259 88.7682 83.1216C88.5656 83.4049 88.5276 83.7055 88.5259 83.9057C88.5243 84.1025 88.5574 84.293 88.5882 84.4411L90.5463 84.0337C90.5238 83.9256 90.526 83.9022 90.5259 83.9226C90.5257 83.9465 90.5215 84.1081 90.395 84.285C90.2596 84.4743 90.0879 84.5384 90.0256 84.5553C89.9788 84.568 89.9823 84.5581 90.0883 84.5597L90.1178 82.5599ZM88.588 84.4403C88.9112 85.9996 89.6744 87.31 90.8341 88.2726C91.9872 89.2297 93.478 89.7988 95.1963 89.9804L95.4065 87.9915C93.9996 87.8428 92.9039 87.3913 92.1115 86.7336C91.3256 86.0813 90.7844 85.1826 90.5464 84.0345L88.588 84.4403ZM95.196 89.9804C97.8277 90.2592 100.357 89.842 102.778 89.0803L102.177 87.1725C99.9355 87.878 97.6902 88.2335 95.4068 87.9915L95.196 89.9804ZM102.777 89.0806C102.837 89.0618 102.881 89.0488 102.916 89.0398C102.951 89.0305 102.964 89.0287 102.962 89.029C102.961 89.0291 102.924 89.0348 102.864 89.0299C102.802 89.0249 102.702 89.0071 102.589 88.9494C102.325 88.814 102.231 88.5902 102.207 88.5056C102.19 88.4461 102.202 88.4456 102.199 88.5733L104.198 88.6258C104.203 88.433 104.197 88.192 104.13 87.9575C104.056 87.6978 103.881 87.3643 103.502 87.1697C103.169 86.999 102.844 87.0253 102.675 87.0496C102.495 87.0757 102.315 87.1294 102.178 87.1722L102.777 89.0806ZM102.199 88.5738C102.162 90.0058 102.179 91.4368 102.19 92.841L104.19 92.8251C104.179 91.407 104.162 90.0157 104.198 88.6254L102.199 88.5738ZM102.19 92.8391C102.191 92.9252 102.187 92.9761 102.182 93.0052C102.178 93.0327 102.176 93.0213 102.191 92.9904C102.199 92.9744 102.211 92.9554 102.226 92.9358C102.242 92.9161 102.259 92.8995 102.275 92.8864C102.307 92.8595 102.322 92.8594 102.293 92.8692L102.921 94.768C103.385 94.6143 103.762 94.3226 103.982 93.8817C104.174 93.4955 104.192 93.0942 104.19 92.8269L102.19 92.8391ZM102.292 92.8694C97.903 94.3241 93.6013 94.6718 89.4242 92.8877L88.6386 94.727C93.4162 96.7676 98.2545 96.3145 102.921 94.7678L102.292 92.8694ZM89.9753 79.8952C91.2655 79.9008 92.5611 79.8952 93.8454 79.8952V77.8952C92.5488 77.8952 91.2691 77.9008 89.984 77.8952L89.9753 79.8952ZM94.8454 78.8952V78.884H92.8454V78.8952H94.8454ZM93.8454 79.884C95.1467 79.884 96.4793 79.898 97.8019 79.8783L97.7721 77.8785C96.4689 77.898 95.1756 77.884 93.8454 77.884V79.884ZM97.8037 79.8783C98.0391 79.8743 98.2993 79.8575 98.5448 79.7947C98.7991 79.7296 99.1124 79.5959 99.3569 79.303C99.6026 79.0088 99.678 78.6749 99.6947 78.4088C99.7108 78.1535 99.6772 77.8929 99.6352 77.6597L97.6669 78.014C97.682 78.0984 97.6908 78.1623 97.6953 78.2104C97.6998 78.2592 97.6988 78.281 97.6987 78.2833C97.6985 78.2855 97.7 78.2552 97.7166 78.206C97.7345 78.1531 97.7671 78.0866 97.8217 78.0212C97.8762 77.9559 97.935 77.9128 97.9819 77.8867C98.0254 77.8625 98.0528 77.8561 98.0488 77.8571C98.0446 77.8582 98.0217 77.8635 97.9716 77.8685C97.9223 77.8734 97.8568 77.8771 97.7703 77.8785L97.8037 79.8783ZM88.9796 78.8924V78.8952H90.9796V78.8924H88.9796ZM115.316 103.47C115.332 108.682 111.571 113.075 107.344 114.675L108.052 116.545C112.926 114.701 117.335 109.643 117.316 103.464L115.316 103.47ZM107.344 114.675C105.663 115.311 103.9 115.582 102.083 115.585L102.086 117.585C104.101 117.582 106.109 117.281 108.052 116.545L107.344 114.675ZM102.084 115.585C86.1104 115.601 70.1373 115.604 54.1643 115.587L54.1622 117.587C70.1368 117.604 86.1113 117.601 102.086 117.585L102.084 115.585ZM54.1639 115.587C50.2672 115.585 46.9019 114.37 44.2604 111.552L42.8014 112.92C45.8828 116.207 49.8115 117.584 54.1626 117.587L54.1639 115.587ZM44.2603 111.552C42.3942 109.562 41.1745 107.362 41.0995 104.713L39.1003 104.769C39.1936 108.067 40.7288 110.71 42.8015 112.92L44.2603 111.552ZM39.129 104.981C39.267 105.539 39.4094 106.157 39.5786 106.751L41.5021 106.203C41.3459 105.655 41.219 105.102 41.0708 104.501L39.129 104.981ZM39.5795 106.754C41.3809 113.004 46.9492 117.236 53.5971 117.251L53.6016 115.251C47.8386 115.238 43.055 111.591 41.5012 106.2L39.5795 106.754ZM53.5972 117.251C69.9452 117.288 86.291 117.296 102.64 117.251L102.635 115.251C86.2898 115.296 69.9474 115.288 53.6016 115.251L53.5972 117.251ZM102.64 117.251C110.947 117.227 117.215 110.818 117.218 102.529L115.218 102.529C115.216 109.735 109.819 115.231 102.634 115.251L102.64 117.251ZM117.218 102.53C117.227 86.9564 117.227 71.3831 117.218 55.8098L115.218 55.8108C115.227 71.3834 115.227 86.956 115.218 102.529L117.218 102.53ZM117.218 55.8103C117.218 48.3766 112.192 42.4628 104.858 41.2608L104.535 43.2345C110.902 44.2781 115.218 49.3566 115.218 55.8103H117.218ZM104.858 41.2609C103.971 41.1154 103.075 41.0965 102.251 41.0937L102.244 43.0937C103.058 43.0965 103.817 43.1168 104.535 43.2345L104.858 41.2609ZM102.248 41.0937C86.1756 41.0853 70.1004 41.0881 54.0286 41.0881V43.0881C70.1008 43.0881 86.1752 43.0853 102.247 43.0937L102.248 41.0937ZM54.0286 41.0881C46.4202 41.0881 40.6858 45.779 39.2034 53.2096L41.1647 53.6009C42.4596 47.1104 47.3689 43.0881 54.0286 43.0881V41.0881ZM39.2013 53.2206C39.1786 53.3413 39.1765 53.4565 39.1759 53.4735C39.174 53.5223 39.1735 53.4786 39.185 53.4212C39.1994 53.3491 39.2395 53.2108 39.354 53.0728C39.4723 52.9301 39.6106 52.859 39.707 52.8274L40.3302 54.7278C40.5247 54.664 40.7297 54.547 40.8934 54.3495C41.0534 54.1566 41.1179 53.9544 41.146 53.8141C41.1712 53.6885 41.1736 53.5722 41.1745 53.5486C41.1765 53.4932 41.1769 53.5363 41.1669 53.5898L39.2013 53.2206ZM41.0146 53.867C41.1567 52.2823 41.5337 50.8237 42.3 49.4872L40.5649 48.4924C39.6199 50.1406 39.1834 51.8962 39.0226 53.6882L41.0146 53.867ZM42.3 49.4872C44.501 45.6481 47.7452 43.4769 52.1385 42.9148L51.8846 40.931C46.8687 41.5728 43.0769 44.111 40.5649 48.4924L42.3 49.4872ZM52.1384 42.9148C53.3988 42.7536 54.6706 42.7576 56.0234 42.7576V40.7576C54.6998 40.7576 53.295 40.7506 51.8847 40.931L52.1384 42.9148ZM101.939 42.7632C105.837 42.7632 109.203 43.9333 111.906 46.7035L113.337 45.3067C110.194 42.0852 106.277 40.7632 101.939 40.7632V42.7632ZM111.906 46.7039C113.427 48.2603 114.461 50.1052 115.038 52.2108L116.967 51.6822C116.304 49.2631 115.104 47.1154 113.337 45.3063L111.906 46.7039ZM115.038 52.212C115.262 53.0248 115.285 53.8996 115.288 54.892L117.288 54.8863C117.285 53.9076 117.27 52.7832 116.966 51.681L115.038 52.212ZM115.288 54.8898C115.299 71.0774 115.266 87.2744 115.314 103.467L117.314 103.461C117.266 87.2707 117.3 71.0843 117.288 54.8884L115.288 54.8898ZM115.607 104.172L115.61 104.175L117.022 102.759L117.02 102.756L115.607 104.172Z" fill="#A3A3A3" mask="url(#path-2-inside-1_47_341)"/>
</svg>
