<?xml version="1.0" encoding="utf-8"?>
<!-- Generator: Adobe Illustrator 25.2.1, SVG Export Plug-In . SVG Version: 6.00 Build 0)  -->
<svg version="1.1" id="Camada_1" xmlns="http://www.w3.org/2000/svg" xmlns:xlink="http://www.w3.org/1999/xlink" x="0px" y="0px"
	 viewBox="0 0 157 158" style="enable-background:new 0 0 157 158;" xml:space="preserve">
<style type="text/css">
	.st0{fill:#A3A3A3;}
	.st1{fill:#FFFFFF;filter:url(#Adobe_OpacityMaskFilter);}
	.st2{fill:#FFFFFF;}
	.st3{mask:url(#path-2-inside-1_47_341_1_);fill:#A3A3A3;}
</style>
<path class="st0" d="M68.7,80.2c-2.6,0-5.1,0-7.7,0c-0.4,0-0.4-0.1-0.3-0.5c1.3-4.2,2.6-8.4,3.9-12.9C66.1,71.4,67.4,75.8,68.7,80.2
	L68.7,80.2z"/>
<path class="st0" d="M98.6,77.8c-0.3-1.7-1.3-2.9-2.9-3.4c-2.9-0.9-5.8,1-6.2,4.1c-0.1,0.5,0.2,0.4,0.5,0.4c1.3,0,2.6,0,3.9,0v0
	c1.3,0,2.6,0,3.9,0C98.6,78.9,98.8,78.7,98.6,77.8L98.6,77.8z M98.6,77.8c-0.3-1.7-1.3-2.9-2.9-3.4c-2.9-0.9-5.8,1-6.2,4.1
	c-0.1,0.5,0.2,0.4,0.5,0.4c1.3,0,2.6,0,3.9,0v0c1.3,0,2.6,0,3.9,0C98.6,78.9,98.8,78.7,98.6,77.8L98.6,77.8z M116.3,54.9
	c0-1,0-2-0.3-2.9c-0.6-2.3-1.7-4.3-3.4-5.9c-2.9-3-6.6-4.2-10.7-4.2c-15.3,0-30.6,0-45.9,0c-1.3,0-2.7,0-4,0.2
	c-4.7,0.6-8.2,3-10.6,7.1c-0.9,1.5-1.3,3.1-1.4,4.8v50.7c0,0.1,0.1,0.1,0.1,0.2c0,0,0,0.1,0,0.1c0.1,3,1.5,5.4,3.4,7.5
	c2.9,3.1,6.5,4.3,10.6,4.4c16,0,31.9,0,47.9,0c1.9,0,3.8-0.3,5.6-1c4.6-1.7,8.6-6.4,8.6-12.1C116.3,87.3,116.3,71.1,116.3,54.9
	L116.3,54.9z M74.2,94.4c-0.6,0-0.9-0.2-1.1-0.8c-0.7-2.2-1.5-4.3-2.2-6.5c-0.1-0.4-0.3-0.6-0.8-0.6c-3.5,0-7,0-10.6,0
	c-0.5,0-0.7,0.2-0.8,0.7c-0.7,2.2-1.4,4.3-2.1,6.5c-0.2,0.6-0.5,0.8-1.1,0.8c-1.7,0-3.4,0-5.1,0c-1,0-1,0-0.7-1
	c2.4-6.9,4.9-13.9,7.3-20.9c0.9-2.6,3.3-11.1,3.4-11.2c0.1-0.1,0.3-0.2,0.5-0.2c2.5,0,5,0,7.5,0c0.5,0,0.7,0.2,0.9,0.7
	c1.7,4.9,3.5,9.7,5.2,14.6c2,5.7,4,11.3,6.1,17c0.3,1,0.3,1-0.7,1H77C76.1,94.4,75.1,94.3,74.2,94.4L74.2,94.4z M89,93.8
	c-3.6-1.5-5.6-4.5-6.4-8.3c-0.9-4.3-0.3-8.3,2.2-12c2.1-3,5.1-4.5,8.8-4.7c2.8-0.2,5.4,0.3,7.7,2c2.3,1.7,3.4,4.1,3.9,6.9
	c0.3,1.7,0.2,3.5,0,5.3c-0.1,0.5-0.3,0.6-0.8,0.6c-2.6,0.3-5.2-0.1-7.4,0.1c-2.6,0-4.7,0-6.9,0c-0.6,0-0.6,0.2-0.5,0.7
	c0.6,2.7,2.6,4.4,5.7,4.7c2.5,0.3,4.8-0.1,7.2-0.9c0.5-0.2,0.7-0.2,0.7,0.5c0,1.4,0,2.8,0,4.2c0,0.5-0.1,0.8-0.6,1
	C98.1,95.3,93.5,95.7,89,93.8z M90,78.9c1.3,0,2.6,0,3.9,0v0c1.3,0,2.6,0,3.9,0c0.8,0,1-0.2,0.9-1c-0.3-1.7-1.3-2.9-2.9-3.4
	c-2.9-0.9-5.8,1-6.2,4.1C89.5,79,89.7,78.9,90,78.9L90,78.9z M98.7,77.8c-0.3-1.7-1.3-2.9-2.9-3.4c-2.9-0.9-5.8,1-6.2,4.1
	c-0.1,0.5,0.2,0.4,0.5,0.4c1.3,0,2.6,0,3.9,0v0c1.3,0,2.6,0,3.9,0C98.6,78.9,98.8,78.7,98.7,77.8L98.7,77.8z M98.7,77.8
	c-0.3-1.7-1.3-2.9-2.9-3.4c-2.9-0.9-5.8,1-6.2,4.1c-0.1,0.5,0.2,0.4,0.5,0.4c1.3,0,2.6,0,3.9,0v0c1.3,0,2.6,0,3.9,0
	C98.6,78.9,98.8,78.7,98.7,77.8L98.7,77.8z"/>
<path class="st0" d="M116.3,103.5c0,5.7-4.1,10.4-8.6,12.1c-1.8,0.7-3.7,1-5.6,1c-16,0-31.9,0-47.9,0c-4.1,0-7.8-1.3-10.6-4.4
	c-2-2.1-3.3-4.5-3.4-7.5c0.1,0.6,0.3,1.2,0.4,1.7c1.7,5.8,6.9,9.8,13.1,9.8c16.3,0,32.7,0,49,0c7.7,0,13.6-6,13.6-13.7
	c0-15.6,0-31.1,0-46.7c0-6.9-4.7-12.4-11.5-13.6c-0.8-0.1-1.6-0.2-2.4-0.2c-16.1,0-32.1,0-48.2,0c-7.1,0-12.5,4.4-13.8,11.3
	c0,0.1,0,0.3-0.2,0.4c0.2-1.7,0.6-3.3,1.4-4.8c2.4-4.1,5.9-6.5,10.6-7.1c1.3-0.2,2.7-0.2,4-0.2c15.3,0,30.6,0,45.9,0
	c4.1,0,7.8,1.2,10.7,4.2c1.6,1.7,2.8,3.7,3.4,5.9c0.3,1,0.3,2,0.3,2.9C116.3,71.1,116.3,87.3,116.3,103.5L116.3,103.5z"/>
<path class="st0" d="M68.7,80.2c-2.6,0-5.1,0-7.7,0c-0.4,0-0.4-0.1-0.3-0.5c1.3-4.2,2.6-8.4,3.9-12.9C66.1,71.4,67.4,75.8,68.7,80.2
	L68.7,80.2z"/>
<path class="st0" d="M97.8,78.9c-1.3,0-2.6,0-3.9,0v0c-1.3,0-2.6,0-3.9,0c-0.2,0-0.5,0.1-0.5-0.4c0.4-3.1,3.3-5,6.2-4.1
	c1.7,0.5,2.6,1.7,2.9,3.4C98.8,78.7,98.6,78.9,97.8,78.9L97.8,78.9z"/>
<path class="st0" d="M68.7,80.2c-2.6,0-5.1,0-7.7,0c-0.4,0-0.4-0.1-0.3-0.5c1.3-4.2,2.6-8.4,3.9-12.9C66.1,71.4,67.4,75.8,68.7,80.2
	L68.7,80.2z"/>
<path class="st0" d="M97.8,78.9c-1.3,0-2.6,0-3.9,0v0c-1.3,0-2.6,0-3.9,0c-0.2,0-0.5,0.1-0.5-0.4c0.4-3.1,3.3-5,6.2-4.1
	c1.7,0.5,2.6,1.7,2.9,3.4C98.8,78.7,98.6,78.9,97.8,78.9L97.8,78.9z"/>
<defs>
	<filter id="Adobe_OpacityMaskFilter" filterUnits="userSpaceOnUse" x="38.9" y="40.8" width="78.4" height="76.8">
		<feColorMatrix  type="matrix" values="1 0 0 0 0  0 1 0 0 0  0 0 1 0 0  0 0 0 1 0"/>
	</filter>
</defs>
<mask maskUnits="userSpaceOnUse" x="38.9" y="40.8" width="78.4" height="76.8" id="path-2-inside-1_47_341_1_">
	<path class="st1" d="M68.7,80.2c-2.6,0-5.1,0-7.7,0c-0.4,0-0.4-0.1-0.3-0.5c1.3-4.2,2.6-8.4,3.9-12.9
		C66.1,71.4,67.4,75.8,68.7,80.2L68.7,80.2z"/>
	<path class="st2" d="M98.6,77.8c-0.3-1.7-1.3-2.9-2.9-3.4c-2.9-0.9-5.8,1-6.2,4.1c-0.1,0.5,0.2,0.4,0.5,0.4c1.3,0,2.6,0,3.9,0v0
		c1.3,0,2.6,0,3.9,0C98.6,78.9,98.8,78.7,98.6,77.8L98.6,77.8z M98.6,77.8c-0.3-1.7-1.3-2.9-2.9-3.4c-2.9-0.9-5.8,1-6.2,4.1
		c-0.1,0.5,0.2,0.4,0.5,0.4c1.3,0,2.6,0,3.9,0v0c1.3,0,2.6,0,3.9,0C98.6,78.9,98.8,78.7,98.6,77.8L98.6,77.8z M116.3,54.9
		c0-1,0-2-0.3-2.9c-0.6-2.3-1.7-4.3-3.4-5.9c-2.9-3-6.6-4.2-10.7-4.2c-15.3,0-30.6,0-45.9,0c-1.3,0-2.7,0-4,0.2
		c-4.7,0.6-8.2,3-10.6,7.1c-0.9,1.5-1.3,3.1-1.4,4.8v50.7c0,0.1,0.1,0.1,0.1,0.2c0,0,0,0.1,0,0.1c0.1,3,1.5,5.4,3.4,7.5
		c2.9,3.1,6.5,4.3,10.6,4.4c16,0,31.9,0,47.9,0c1.9,0,3.8-0.3,5.6-1c4.6-1.7,8.6-6.4,8.6-12.1C116.3,87.3,116.3,71.1,116.3,54.9
		L116.3,54.9z M74.2,94.4c-0.6,0-0.9-0.2-1.1-0.8c-0.7-2.2-1.5-4.3-2.2-6.5c-0.1-0.4-0.3-0.6-0.8-0.6c-3.5,0-7,0-10.6,0
		c-0.5,0-0.7,0.2-0.8,0.7c-0.7,2.2-1.4,4.3-2.1,6.5c-0.2,0.6-0.5,0.8-1.1,0.8c-1.7,0-3.4,0-5.1,0c-1,0-1,0-0.7-1
		c2.4-6.9,4.9-13.9,7.3-20.9c0.9-2.6,3.3-11.1,3.4-11.2c0.1-0.1,0.3-0.2,0.5-0.2c2.5,0,5,0,7.5,0c0.5,0,0.7,0.2,0.9,0.7
		c1.7,4.9,3.5,9.7,5.2,14.6c2,5.7,4,11.3,6.1,17c0.3,1,0.3,1-0.7,1H77C76.1,94.4,75.1,94.3,74.2,94.4L74.2,94.4z M89,93.8
		c-3.6-1.5-5.6-4.5-6.4-8.3c-0.9-4.3-0.3-8.3,2.2-12c2.1-3,5.1-4.5,8.8-4.7c2.8-0.2,5.4,0.3,7.7,2c2.3,1.7,3.4,4.1,3.9,6.9
		c0.3,1.7,0.2,3.5,0,5.3c-0.1,0.5-0.3,0.6-0.8,0.6c-2.6,0.3-5.2-0.1-7.4,0.1c-2.6,0-4.7,0-6.9,0c-0.6,0-0.6,0.2-0.5,0.7
		c0.6,2.7,2.6,4.4,5.7,4.7c2.5,0.3,4.8-0.1,7.2-0.9c0.5-0.2,0.7-0.2,0.7,0.5c0,1.4,0,2.8,0,4.2c0,0.5-0.1,0.8-0.6,1
		C98.1,95.3,93.5,95.7,89,93.8z M90,78.9c1.3,0,2.6,0,3.9,0v0c1.3,0,2.6,0,3.9,0c0.8,0,1-0.2,0.9-1c-0.3-1.7-1.3-2.9-2.9-3.4
		c-2.9-0.9-5.8,1-6.2,4.1C89.5,79,89.7,78.9,90,78.9L90,78.9z M98.7,77.8c-0.3-1.7-1.3-2.9-2.9-3.4c-2.9-0.9-5.8,1-6.2,4.1
		c-0.1,0.5,0.2,0.4,0.5,0.4c1.3,0,2.6,0,3.9,0v0c1.3,0,2.6,0,3.9,0C98.6,78.9,98.8,78.7,98.7,77.8L98.7,77.8z M98.7,77.8
		c-0.3-1.7-1.3-2.9-2.9-3.4c-2.9-0.9-5.8,1-6.2,4.1c-0.1,0.5,0.2,0.4,0.5,0.4c1.3,0,2.6,0,3.9,0v0c1.3,0,2.6,0,3.9,0
		C98.6,78.9,98.8,78.7,98.7,77.8L98.7,77.8z"/>
	<path class="st2" d="M116.3,103.5c0,5.7-4.1,10.4-8.6,12.1c-1.8,0.7-3.7,1-5.6,1c-16,0-31.9,0-47.9,0c-4.1,0-7.8-1.3-10.6-4.4
		c-2-2.1-3.3-4.5-3.4-7.5c0.1,0.6,0.3,1.2,0.4,1.7c1.7,5.8,6.9,9.8,13.1,9.8c16.3,0,32.7,0,49,0c7.7,0,13.6-6,13.6-13.7
		c0-15.6,0-31.1,0-46.7c0-6.9-4.7-12.4-11.5-13.6c-0.8-0.1-1.6-0.2-2.4-0.2c-16.1,0-32.1,0-48.2,0c-7.1,0-12.5,4.4-13.8,11.3
		c0,0.1,0,0.3-0.2,0.4c0.2-1.7,0.6-3.3,1.4-4.8c2.4-4.1,5.9-6.5,10.6-7.1c1.3-0.2,2.7-0.2,4-0.2c15.3,0,30.6,0,45.9,0
		c4.1,0,7.8,1.2,10.7,4.2c1.6,1.7,2.8,3.7,3.4,5.9c0.3,1,0.3,2,0.3,2.9C116.3,71.1,116.3,87.3,116.3,103.5L116.3,103.5z"/>
	<path class="st2" d="M68.7,80.2c-2.6,0-5.1,0-7.7,0c-0.4,0-0.4-0.1-0.3-0.5c1.3-4.2,2.6-8.4,3.9-12.9
		C66.1,71.4,67.4,75.8,68.7,80.2L68.7,80.2z"/>
	<path class="st2" d="M97.8,78.9c-1.3,0-2.6,0-3.9,0v0c-1.3,0-2.6,0-3.9,0c-0.2,0-0.5,0.1-0.5-0.4c0.4-3.1,3.3-5,6.2-4.1
		c1.7,0.5,2.6,1.7,2.9,3.4C98.8,78.7,98.6,78.9,97.8,78.9L97.8,78.9z"/>
	<path class="st2" d="M68.7,80.2c-2.6,0-5.1,0-7.7,0c-0.4,0-0.4-0.1-0.3-0.5c1.3-4.2,2.6-8.4,3.9-12.9
		C66.1,71.4,67.4,75.8,68.7,80.2L68.7,80.2z"/>
	<path class="st2" d="M97.8,78.9c-1.3,0-2.6,0-3.9,0v0c-1.3,0-2.6,0-3.9,0c-0.2,0-0.5,0.1-0.5-0.4c0.4-3.1,3.3-5,6.2-4.1
		c1.7,0.5,2.6,1.7,2.9,3.4C98.8,78.7,98.6,78.9,97.8,78.9L97.8,78.9z"/>
</mask>
<path class="st3" d="M68.7,80.2v0.5h0.5v-0.5H68.7z M61.1,80.2v0.5h0L61.1,80.2z M60.8,79.7l-0.5-0.1l0,0L60.8,79.7z M64.7,66.9
	l0.5-0.1l-0.5-1.6l-0.5,1.6L64.7,66.9z M68.7,80.2h0.5v-0.1l0-0.1L68.7,80.2z M98.6,77.8l-0.5,0.1l1-0.1H98.6z M95.7,74.4l0.1-0.5h0
	L95.7,74.4z M89.5,78.5l0.5,0.1l0,0L89.5,78.5z M90,78.9l0-0.5h0V78.9z M93.8,78.9v0.5h0.5v-0.5H93.8z M93.8,78.9v-0.5h-0.5v0.5
	H93.8z M97.8,78.9l0,0.5l0,0L97.8,78.9z M98.6,77.8l0.5-0.1l-1,0.1H98.6z M98.7,77.8l-0.5,0.1l1-0.1H98.7z M95.7,74.4l0.1-0.5h0
	L95.7,74.4z M89.5,78.5l0.5,0.1l0,0L89.5,78.5z M90,78.9l0-0.5h0V78.9z M93.8,78.9v0.5h0.5v-0.5H93.8z M93.8,78.9v-0.5h-0.5v0.5
	H93.8z M97.8,78.9l0,0.5l0,0L97.8,78.9z M98.7,77.8l0.5-0.1l-1,0.1H98.7z M97.8,78.9h0.5v-0.5l-0.5,0L97.8,78.9z M93.8,78.9v-0.5
	h-0.5v0.5H93.8z M93.8,78.9v0.5h0.5v-0.5H93.8z M90,78.9l0-0.5h0V78.9z M89.5,78.5l0.5,0.1l0,0L89.5,78.5z M95.7,74.4l0.1-0.5l0,0
	L95.7,74.4z M98.6,77.8l0.5-0.1l0,0L98.6,77.8z M97.8,78.9h-0.5v0.5l0.5,0L97.8,78.9z M68.7,79.7c-2.6,0-5.1,0-7.7,0l0,1
	c2.5,0,5,0,7.7,0V79.7z M61.1,79.7C61,79.7,61,79.7,61.1,79.7C61.1,79.7,61.1,79.7,61.1,79.7c0.1,0.1,0.1,0.1,0.1,0.2
	c0,0.1,0,0.2,0,0.1c0,0,0,0,0-0.1l-1-0.3c0,0.1-0.1,0.2-0.1,0.3c0,0.1,0,0.3,0.1,0.4c0.1,0.2,0.2,0.3,0.4,0.3c0.1,0,0.3,0.1,0.4,0.1
	V79.7z M61.3,79.9c1.3-4.2,2.6-8.4,3.9-12.9l-1-0.3c-1.3,4.4-2.6,8.6-3.9,12.9L61.3,79.9z M64.2,67c1.4,4.5,2.7,8.9,4.1,13.3l1-0.3
	c-1.4-4.4-2.7-8.8-4.1-13.3L64.2,67z M68.2,80.2L68.2,80.2l1,0v0H68.2z M99.1,77.7c-0.3-1.9-1.4-3.2-3.3-3.8l-0.3,1
	c1.5,0.5,2.3,1.5,2.6,3L99.1,77.7z M95.9,74c-3.3-1-6.4,1.1-6.8,4.5l1,0.1c0.4-2.8,2.9-4.5,5.6-3.6L95.9,74z M89,78.4
	c0,0.2,0,0.3,0,0.5c0.1,0.2,0.2,0.3,0.4,0.4c0.1,0.1,0.3,0.1,0.4,0.1c0,0,0.1,0,0.1,0c0,0,0,0,0.1,0v-1c0,0-0.1,0-0.1,0
	c0,0-0.1,0-0.1,0c0,0,0,0,0,0c0,0,0,0,0.1,0c0,0,0.1,0,0.1,0.1c0,0,0.1,0.1,0.1,0.1c0,0,0,0,0,0c0,0,0,0,0-0.1L89,78.4z M90,79.4
	c1.3,0,2.6,0,3.9,0v-1c-1.3,0-2.6,0-3.9,0L90,79.4z M94.3,78.9L94.3,78.9l-1,0v0H94.3z M93.8,79.4c1.3,0,2.6,0,3.9,0l0-1
	c-1.3,0-2.6,0-3.9,0V79.4z M97.8,79.4c0.2,0,0.4,0,0.6-0.1c0.2,0,0.4-0.1,0.6-0.3c0.2-0.2,0.2-0.4,0.2-0.6c0-0.2,0-0.4-0.1-0.6
	l-1,0.2c0,0.2,0,0.3,0,0.4c0,0.1,0,0.1,0,0c0,0,0,0,0,0c-0.1,0-0.2,0-0.4,0L97.8,79.4z M98.1,77.8L98.1,77.8l1,0v0H98.1z
	 M101.9,41.3c-15.3,0-30.6,0-45.9,0l0,1c15.3,0,30.6,0,45.9,0V41.3z M99.1,77.7c-0.3-1.9-1.4-3.2-3.3-3.8l-0.3,1
	c1.5,0.5,2.3,1.5,2.6,3L99.1,77.7z M95.9,74c-3.3-1-6.4,1.1-6.8,4.5l1,0.1c0.4-2.8,2.9-4.5,5.6-3.6L95.9,74z M89,78.4
	c0,0.2,0,0.3,0,0.5c0.1,0.2,0.2,0.3,0.4,0.4c0.1,0.1,0.3,0.1,0.4,0.1c0,0,0.1,0,0.1,0c0,0,0,0,0.1,0v-1c0,0-0.1,0-0.1,0
	c0,0-0.1,0-0.1,0c0,0,0,0,0,0c0,0,0,0,0.1,0c0,0,0.1,0,0.1,0.1c0,0,0.1,0.1,0.1,0.1c0,0,0,0,0,0c0,0,0,0,0-0.1L89,78.4z M90,79.4
	c1.3,0,2.6,0,3.9,0v-1c-1.3,0-2.6,0-3.9,0L90,79.4z M94.3,78.9L94.3,78.9l-1,0v0H94.3z M93.8,79.4c1.3,0,2.6,0,3.9,0l0-1
	c-1.3,0-2.6,0-3.9,0V79.4z M97.8,79.4c0.2,0,0.4,0,0.6-0.1c0.2,0,0.4-0.1,0.6-0.3c0.2-0.2,0.2-0.4,0.2-0.6c0-0.2,0-0.4-0.1-0.6
	l-1,0.2c0,0.2,0,0.3,0,0.4c0,0.1,0,0.1,0,0c0,0,0,0,0,0c-0.1,0-0.2,0-0.4,0L97.8,79.4z M98.2,77.8L98.2,77.8l1,0v0H98.2z M97.8,78.4
	c-1.3,0-2.6,0-3.9,0v1c1.3,0,2.6,0,3.9,0L97.8,78.4z M93.3,78.9L93.3,78.9l1,0v0H93.3z M93.8,78.4c-1.3,0-2.6,0-3.9,0l0,1
	c1.3,0,2.6,0,3.9,0V78.4z M90,78.4c0,0-0.1,0-0.1,0c0,0-0.1,0-0.1,0c0,0,0,0,0,0c0,0,0,0,0.1,0c0,0,0.1,0,0.1,0.1
	c0,0,0.1,0.1,0.1,0.1c0,0,0,0,0,0c0,0,0,0,0-0.1l-1-0.1c0,0.2,0,0.3,0,0.5c0.1,0.2,0.2,0.3,0.4,0.4c0.1,0.1,0.3,0.1,0.4,0.1
	c0,0,0.1,0,0.1,0c0,0,0.1,0,0.1,0V78.4z M90,78.6c0.4-2.8,2.9-4.5,5.6-3.6l0.3-1c-3.3-1-6.4,1.1-6.8,4.5L90,78.6z M95.6,74.9
	c1.5,0.5,2.3,1.5,2.6,3l1-0.2c-0.3-1.9-1.4-3.2-3.3-3.8L95.6,74.9z M98.2,77.9c0,0.2,0,0.3,0,0.4c0,0.1,0,0.1,0,0c0,0,0,0,0,0
	c-0.1,0-0.2,0-0.4,0l0,1c0.2,0,0.4,0,0.6-0.1c0.2,0,0.4-0.1,0.6-0.3c0.2-0.2,0.2-0.4,0.2-0.6c0-0.2,0-0.4-0.1-0.6L98.2,77.9z
	 M98.3,78.9L98.3,78.9l-1,0v0H98.3z M116.3,54.9l0.9,0.4l0.1-0.2v-0.2H116.3z M116,51.9l-1,0.3v0L116,51.9z M112.6,46l-0.7,0.7v0
	L112.6,46z M101.9,41.8v-1l0,2L101.9,41.8z M52,41.9l0.1,1h0L52,41.9z M41.4,49l0.9,0.5l0,0L41.4,49z M40,53.8l-1-0.1l0,0v0H40z
	 M40,104.4h-1v0.3l0.1,0.2L40,104.4z M40.1,104.7l1,0l0,0l0,0L40.1,104.7z M43.5,112.2l0.7-0.7h0L43.5,112.2z M54.2,116.6l0-1h0
	L54.2,116.6z M102.1,116.6v-1h0L102.1,116.6z M107.7,115.6l-0.4-0.9l0,0L107.7,115.6z M116.3,103.5l1,0l0,0L116.3,103.5z
	 M116.3,54.9l-0.9-0.4l-0.1,0.2v0.2L116.3,54.9z M74.2,94.4v-1h0l0,0L74.2,94.4z M73.1,93.6l0.9-0.3v0L73.1,93.6z M70.9,87.1
	l0.9-0.3l0,0L70.9,87.1z M70,86.4l0,1l0,0L70,86.4z M59.5,86.4l0-1h0L59.5,86.4z M58.6,87.1l1,0.3l0,0L58.6,87.1z M56.5,93.6l1,0.3
	l0,0L56.5,93.6z M55.5,94.4l0-1l0,0L55.5,94.4z M50.4,94.4l0-1h0V94.4z M49.6,93.4l0.9,0.3l0,0L49.6,93.4z M56.9,72.5l0.9,0.3l0,0
	L56.9,72.5z M60.3,61.3l-0.7-0.7l0,0L60.3,61.3z M60.9,61.1l0-1h0V61.1z M68.4,61.1l0-1h0L68.4,61.1z M69.3,61.8l0.9-0.3l0,0
	L69.3,61.8z M74.5,76.4l-0.9,0.3l0,0L74.5,76.4z M80.5,93.4l0.9-0.3l0,0L80.5,93.4z M79.8,94.4v1h0L79.8,94.4z M74.2,94.4v1h0l0,0
	L74.2,94.4z M89,93.8l0.4-0.9l0,0L89,93.8z M82.7,85.5l-1,0.2l0,0L82.7,85.5z M84.9,73.5l0.8,0.6l0,0L84.9,73.5z M93.7,68.8l-0.1-1
	h0L93.7,68.8z M101.3,70.8l0.6-0.8l0,0L101.3,70.8z M105.2,77.6l-1,0.2v0L105.2,77.6z M105.2,82.9l1,0.1l0,0L105.2,82.9z
	 M104.5,83.5l0.1,1h0L104.5,83.5z M97,83.6v1h0l0,0L97,83.6z M90.1,83.6l0,1h0L90.1,83.6z M89.6,84.2l1-0.2l0,0L89.6,84.2z M95.3,89
	l0.1-1h0L95.3,89z M102.5,88.1l-0.3-1l0,0L102.5,88.1z M103.2,88.6l-1,0v0L103.2,88.6z M103.2,92.8l1,0v0L103.2,92.8z M102.6,93.8
	l-0.3-0.9l0,0L102.6,93.8z M90,78.9h-1v1l1,0L90,78.9z M93.8,78.9v1h1v-1H93.8z M93.8,78.9v-1h-1v1H93.8z M97.8,78.9l0,1h0
	L97.8,78.9z M116.3,103.5l1,0l0-0.4l-0.3-0.3L116.3,103.5z M107.7,115.6l-0.4-0.9l0,0L107.7,115.6z M102.1,116.6l0,1l0,0
	L102.1,116.6z M54.2,116.6l0-1h0L54.2,116.6z M43.5,112.2l0.7-0.7h0L43.5,112.2z M40.1,104.7l1-0.2l-2,0.3L40.1,104.7z M40.5,106.5
	l-1,0.3l0,0L40.5,106.5z M53.6,116.3l0,1h0L53.6,116.3z M102.6,116.3l0,1l0,0L102.6,116.3z M116.2,102.5h-1l0,0H116.2z M116.2,55.8
	h-1v0L116.2,55.8z M104.7,42.2l-0.2,1l0,0L104.7,42.2z M102.2,42.1l0-1h0L102.2,42.1z M40.2,53.4l-1-0.2l0,0L40.2,53.4z M40,53.8
	l-1-0.1l-0.1,1.5l1.4-0.5L40,53.8z M41.4,49l0.9,0.5l0,0L41.4,49z M52,41.9l-0.1-1h0L52,41.9z M112.6,46l-0.7,0.7v0L112.6,46z
	 M116,51.9l-1,0.3v0L116,51.9z M116.3,54.9l1,0v0L116.3,54.9z M116.3,103.5l-1,0l0,0.4l0.3,0.3L116.3,103.5z M117.3,54.9
	c0-1,0-2.1-0.3-3.2l-1.9,0.5c0.2,0.8,0.2,1.7,0.2,2.7H117.3z M117,51.7c-0.7-2.4-1.9-4.6-3.6-6.4l-1.4,1.4c1.5,1.6,2.6,3.4,3.1,5.5
	L117,51.7z M113.3,45.3c-3.1-3.2-7.1-4.5-11.4-4.5l0,2c3.9,0,7.3,1.2,10,3.9L113.3,45.3z M56,40.8c-1.3,0-2.7,0-4.1,0.2l0.3,2
	c1.3-0.2,2.5-0.2,3.9-0.2V40.8z M51.9,40.9c-5,0.6-8.8,3.2-11.3,7.6l1.7,1c2.2-3.8,5.4-6,9.8-6.6L51.9,40.9z M40.6,48.5
	c-0.9,1.6-1.4,3.4-1.5,5.2l2,0.2c0.1-1.6,0.5-3,1.3-4.4L40.6,48.5z M39,53.8v50.7h2V53.8H39z M39.2,104.9
	C39.2,104.9,39.2,104.9,39.2,104.9C39.2,105,39.2,105,39.2,104.9C39.2,104.9,39.2,104.9,39.2,104.9c0-0.1-0.1-0.2-0.1-0.3h2
	c0-0.4-0.2-0.7-0.2-0.7L39.2,104.9z M39.1,104.6c0,0,0,0.1,0,0.2l2-0.2c0,0,0,0,0,0c0,0,0,0,0,0c0,0,0,0,0,0c0,0,0,0,0,0H39.1z
	 M39.1,104.8c0.1,3.3,1.6,5.9,3.7,8.2l1.5-1.4c-1.9-2-3.1-4.2-3.2-6.8L39.1,104.8z M42.8,112.9c3.1,3.3,7,4.7,11.4,4.7l0-2
	c-3.9,0-7.3-1.2-9.9-4L42.8,112.9z M54.2,117.6c16,0,31.9,0,47.9,0l0-2c-16,0-31.9,0-47.9,0L54.2,117.6z M102.1,117.6c2,0,4-0.3,6-1
	l-0.7-1.9c-1.7,0.6-3.4,0.9-5.3,0.9V117.6z M108,116.5c4.9-1.8,9.3-6.9,9.3-13.1l-2,0c0,5.2-3.7,9.6-8,11.2L108,116.5z M117.3,103.5
	c0-16.2,0-32.4,0-48.6l-2,0c0,16.2,0,32.4,0,48.6L117.3,103.5z M117.2,55.3L117.2,55.3l-1.8-0.9l0,0L117.2,55.3z M74.1,93.4
	c-0.1,0-0.1,0-0.1,0C74,93.4,74,93.4,74.1,93.4C74,93.4,74.1,93.4,74.1,93.4C74.1,93.5,74.1,93.5,74.1,93.4c0,0-0.1,0-0.1-0.1
	l-1.9,0.6c0.1,0.4,0.3,0.8,0.7,1.1c0.4,0.3,0.9,0.4,1.4,0.4L74.1,93.4z M74,93.3c-0.4-1.1-0.7-2.2-1.1-3.3c-0.4-1.1-0.7-2.2-1.1-3.3
	l-1.9,0.6c0.4,1.1,0.7,2.2,1.1,3.3c0.4,1.1,0.7,2.2,1.1,3.2L74,93.3z M71.8,86.7c-0.1-0.3-0.3-0.7-0.6-0.9c-0.4-0.3-0.8-0.3-1.2-0.3
	l0,2c0.1,0,0.1,0,0.1,0c0,0,0,0-0.1,0c0,0-0.1,0-0.1-0.1c-0.1,0-0.1-0.1-0.1-0.1c0,0,0,0,0,0.1L71.8,86.7z M70,85.4
	c-3.5,0-7,0-10.5,0l0,2c3.5,0,7.1,0,10.6,0L70,85.4z M59.5,85.4c-0.4,0-0.8,0.1-1.2,0.4c-0.4,0.3-0.5,0.7-0.6,1l1.9,0.6
	c0,0,0-0.1,0-0.1c0,0,0,0,0,0c0,0,0,0,0,0c0,0,0,0-0.1,0.1c0,0-0.1,0-0.1,0.1c0,0-0.1,0-0.1,0c0,0,0,0,0.1,0L59.5,85.4z M57.7,86.8
	c-0.3,1.1-0.7,2.2-1,3.2c-0.3,1.1-0.7,2.2-1,3.3l1.9,0.6c0.3-1.1,0.7-2.2,1-3.2c0.3-1.1,0.7-2.2,1-3.3L57.7,86.8z M55.6,93.3
	c0,0.1,0,0.1-0.1,0.1c0,0,0,0,0,0C55.6,93.4,55.6,93.4,55.6,93.3C55.6,93.4,55.6,93.4,55.6,93.3C55.6,93.4,55.6,93.4,55.6,93.3
	l-0.1,2.1c0.4,0,0.9-0.1,1.3-0.4c0.4-0.3,0.6-0.7,0.7-1.1L55.6,93.3z M55.5,93.4c-1.7,0-3.5,0-5.1,0l0,2c1.7,0,3.4,0,5.1,0
	L55.5,93.4z M50.4,93.4c-0.1,0-0.2,0-0.3,0c-0.1,0-0.1,0-0.1,0c0,0,0,0,0.1,0c0.1,0,0.2,0.1,0.3,0.3c0.1,0.2,0.1,0.3,0.1,0.4
	c0,0.1,0,0.1,0,0.1c0,0,0-0.1,0-0.1c0-0.1,0.1-0.2,0.1-0.3L48.7,93c-0.1,0.2-0.2,0.5-0.2,0.7c0,0.2-0.1,0.6,0.2,1.1
	c0.3,0.4,0.8,0.5,1,0.5c0.2,0,0.5,0,0.7,0V93.4z M50.6,93.7c2.4-6.9,4.9-13.9,7.3-20.8L56,72.2c-2.4,6.9-4.9,13.9-7.3,20.9
	L50.6,93.7z M57.9,72.8c0.5-1.3,1.3-4.1,2-6.6c0.4-1.2,0.7-2.4,1-3.2c0.1-0.4,0.2-0.8,0.3-1c0-0.1,0.1-0.2,0.1-0.3c0,0,0,0,0,0
	c0,0,0,0,0,0c0,0,0,0,0,0c0,0,0,0,0,0c0,0,0,0,0,0.1c0,0-0.1,0.1-0.1,0.2l-1.5-1.4c-0.1,0.1-0.1,0.2-0.1,0.2c0,0,0,0.1,0,0.1
	c0,0,0,0.1,0,0.1c0,0,0,0.1,0,0.1c0,0.1-0.1,0.2-0.1,0.3c-0.1,0.3-0.2,0.6-0.3,1c-0.3,0.9-0.6,2-1,3.2c-0.7,2.5-1.6,5.2-2,6.5
	L57.9,72.8z M61.1,62c-0.1,0.1-0.2,0.2-0.3,0.2c0,0,0,0,0,0c0,0,0,0,0.1,0v-2c-0.3,0-0.8,0-1.3,0.5L61.1,62z M60.9,62.1
	c2.5,0,5,0,7.5,0l0-2c-2.5,0-5,0-7.5,0L60.9,62.1z M68.4,62.1C68.5,62.1,68.5,62.1,68.4,62.1C68.4,62.1,68.4,62.1,68.4,62.1
	C68.4,62.1,68.3,62.1,68.4,62.1C68.3,62,68.3,62,68.3,62c0,0,0,0,0,0C68.3,62.1,68.3,62.1,68.4,62.1l1.8-0.7
	c-0.1-0.3-0.2-0.6-0.6-0.9c-0.4-0.3-0.8-0.4-1.2-0.4L68.4,62.1z M68.3,62.2c1.7,4.9,3.5,9.7,5.2,14.6l1.9-0.7
	c-1.7-4.9-3.5-9.7-5.2-14.6L68.3,62.2z M73.5,76.8c2,5.7,4,11.3,6.1,17l1.9-0.7c-2-5.7-4-11.3-6.1-17L73.5,76.8z M79.6,93.7
	c0,0.1,0.1,0.2,0.1,0.3c0,0.1,0,0.1,0,0.2c0,0,0,0,0-0.1c0-0.1,0-0.2,0.1-0.4c0.1-0.2,0.3-0.2,0.3-0.3c0.1,0,0.1,0,0.1,0
	c0,0-0.1,0-0.2,0c-0.1,0-0.2,0-0.3,0l0,2c0.2,0,0.5,0,0.7,0c0.2,0,0.7-0.1,1-0.5c0.3-0.4,0.2-0.9,0.2-1.1c0-0.2-0.1-0.5-0.2-0.7
	L79.6,93.7z M79.8,93.4H77v2h2.8V93.4z M77,93.4c-0.9,0-1.9,0-2.9,0l0.1,2c0.9,0,1.8,0,2.8,0V93.4z M74.2,93.4L74.2,93.4l0,2h0V93.4
	z M89.4,92.9c-3.3-1.4-5.1-4.1-5.8-7.6l-2,0.4c0.8,4,3,7.3,7,9L89.4,92.9z M83.6,85.3c-0.8-4.1-0.3-7.8,2.1-11.2l-1.6-1.1
	c-2.7,3.9-3.3,8.2-2.4,12.7L83.6,85.3z M85.7,74.1c1.9-2.8,4.6-4.1,8-4.3l-0.1-2c-3.9,0.2-7.2,1.8-9.5,5.2L85.7,74.1z M93.7,69.8
	c2.6-0.2,5,0.3,7,1.8l1.2-1.6c-2.5-1.9-5.4-2.3-8.3-2.2L93.7,69.8z M100.7,71.6c2,1.5,3,3.7,3.5,6.2l2-0.4c-0.5-2.9-1.7-5.6-4.3-7.5
	L100.7,71.6z M104.2,77.8c0.3,1.6,0.2,3.2,0,5l2,0.2c0.2-1.8,0.3-3.6,0-5.5L104.2,77.8z M104.2,82.8
	C104.2,82.8,104.2,82.8,104.2,82.8c0.1-0.1,0.1-0.2,0.1-0.2c0,0,0.1-0.1,0.1-0.1c0.1,0,0.1,0,0.1,0c0,0-0.1,0-0.2,0l0.3,2
	c0.2,0,0.6-0.1,0.9-0.3c0.5-0.3,0.6-0.7,0.7-1.2L104.2,82.8z M104.3,82.5c-1.2,0.2-2.5,0.1-3.7,0.1c-1.2,0-2.5-0.1-3.7,0l0.1,2
	c1.1-0.1,2.2,0,3.5,0c1.3,0,2.6,0.1,4-0.1L104.3,82.5z M97,82.6c-2.6,0-4.7,0-6.9,0l0,2c2.2,0,4.4,0,6.9,0V82.6z M90.1,82.6
	c-0.2,0-0.4,0-0.6,0.1c-0.2,0.1-0.5,0.2-0.7,0.5c-0.2,0.3-0.2,0.6-0.2,0.8c0,0.2,0,0.4,0.1,0.5l2-0.4c0-0.1,0-0.1,0-0.1
	c0,0,0,0.2-0.1,0.4c-0.1,0.2-0.3,0.3-0.4,0.3c0,0,0,0,0.1,0L90.1,82.6z M88.6,84.4c0.3,1.6,1.1,2.9,2.2,3.8c1.2,1,2.6,1.5,4.4,1.7
	l0.2-2c-1.4-0.1-2.5-0.6-3.3-1.3c-0.8-0.7-1.3-1.6-1.6-2.7L88.6,84.4z M95.2,90c2.6,0.3,5.2-0.1,7.6-0.9l-0.6-1.9
	c-2.2,0.7-4.5,1.1-6.8,0.8L95.2,90z M102.8,89.1c0.1,0,0.1,0,0.1,0c0,0,0,0,0,0C103,89,102.9,89,102.8,89.1c0-0.1-0.1-0.1-0.2-0.1
	c-0.3-0.1-0.4-0.4-0.4-0.4c0-0.1,0-0.1,0,0.1l2,0.1c0-0.2,0-0.4-0.1-0.7c-0.1-0.3-0.2-0.6-0.6-0.8c-0.3-0.2-0.7-0.1-0.8-0.1
	c-0.2,0-0.4,0.1-0.5,0.1L102.8,89.1z M102.2,88.6c0,1.4,0,2.9,0,4.3l2,0c0-1.4,0-2.8,0-4.2L102.2,88.6z M102.2,92.8
	c0,0.1,0,0.1,0,0.2c0,0,0,0,0,0C102.2,93,102.2,93,102.2,92.8C102.2,92.9,102.3,92.9,102.2,92.8c0.1,0,0.1,0,0.1,0l0.6,1.9
	c0.5-0.2,0.8-0.4,1.1-0.9c0.2-0.4,0.2-0.8,0.2-1.1L102.2,92.8z M102.3,92.9c-4.4,1.5-8.7,1.8-12.9,0l-0.8,1.8c4.8,2,9.6,1.6,14.3,0
	L102.3,92.9z M90,79.9c1.3,0,2.6,0,3.9,0v-2c-1.3,0-2.6,0-3.9,0L90,79.9z M94.8,78.9L94.8,78.9l-2,0v0H94.8z M93.8,79.9
	c1.3,0,2.6,0,4,0l0-2c-1.3,0-2.6,0-3.9,0V79.9z M97.8,79.9c0.2,0,0.5,0,0.7-0.1c0.3-0.1,0.6-0.2,0.8-0.5c0.2-0.3,0.3-0.6,0.3-0.9
	c0-0.3,0-0.5-0.1-0.7l-2,0.4c0,0.1,0,0.1,0,0.2c0,0,0,0.1,0,0.1c0,0,0,0,0-0.1c0-0.1,0.1-0.1,0.1-0.2c0.1-0.1,0.1-0.1,0.2-0.1
	c0,0,0.1,0,0.1,0c0,0,0,0-0.1,0c0,0-0.1,0-0.2,0L97.8,79.9z M89,78.9L89,78.9l2,0v0H89z M115.3,103.5c0,5.2-3.7,9.6-8,11.2l0.7,1.9
	c4.9-1.8,9.3-6.9,9.3-13.1L115.3,103.5z M107.3,114.7c-1.7,0.6-3.4,0.9-5.3,0.9l0,2c2,0,4-0.3,6-1L107.3,114.7z M102.1,115.6
	c-16,0-31.9,0-47.9,0l0,2c16,0,31.9,0,47.9,0L102.1,115.6z M54.2,115.6c-3.9,0-7.3-1.2-9.9-4l-1.5,1.4c3.1,3.3,7,4.7,11.4,4.7
	L54.2,115.6z M44.3,111.6c-1.9-2-3.1-4.2-3.2-6.8l-2,0.1c0.1,3.3,1.6,5.9,3.7,8.2L44.3,111.6z M39.1,105c0.1,0.6,0.3,1.2,0.4,1.8
	l1.9-0.5c-0.2-0.5-0.3-1.1-0.4-1.7L39.1,105z M39.6,106.8c1.8,6.2,7.4,10.5,14,10.5l0-2c-5.8,0-10.5-3.7-12.1-9.1L39.6,106.8z
	 M53.6,117.3c16.3,0,32.7,0,49,0l0-2c-16.3,0-32.7,0-49,0L53.6,117.3z M102.6,117.3c8.3,0,14.6-6.4,14.6-14.7h-2
	c0,7.2-5.4,12.7-12.6,12.7L102.6,117.3z M117.2,102.5c0-15.6,0-31.1,0-46.7l-2,0c0,15.6,0,31.1,0,46.7L117.2,102.5z M117.2,55.8
	c0-7.4-5-13.3-12.4-14.5l-0.3,2c6.4,1,10.7,6.1,10.7,12.6H117.2z M104.9,41.3c-0.9-0.1-1.8-0.2-2.6-0.2l0,2c0.8,0,1.6,0,2.3,0.1
	L104.9,41.3z M102.2,41.1c-16.1,0-32.1,0-48.2,0v2c16.1,0,32.1,0,48.2,0L102.2,41.1z M54,41.1c-7.6,0-13.3,4.7-14.8,12.1l2,0.4
	c1.3-6.5,6.2-10.5,12.9-10.5V41.1z M39.2,53.2c0,0.1,0,0.2,0,0.3c0,0,0,0,0-0.1c0-0.1,0.1-0.2,0.2-0.3c0.1-0.1,0.3-0.2,0.4-0.2
	l0.6,1.9c0.2-0.1,0.4-0.2,0.6-0.4c0.2-0.2,0.2-0.4,0.3-0.5c0-0.1,0-0.2,0-0.3c0-0.1,0,0,0,0L39.2,53.2z M41,53.9
	c0.1-1.6,0.5-3,1.3-4.4l-1.7-1c-0.9,1.6-1.4,3.4-1.5,5.2L41,53.9z M42.3,49.5c2.2-3.8,5.4-6,9.8-6.6l-0.3-2c-5,0.6-8.8,3.2-11.3,7.6
	L42.3,49.5z M52.1,42.9c1.3-0.2,2.5-0.2,3.9-0.2v-2c-1.3,0-2.7,0-4.1,0.2L52.1,42.9z M101.9,42.8c3.9,0,7.3,1.2,10,3.9l1.4-1.4
	c-3.1-3.2-7.1-4.5-11.4-4.5V42.8z M111.9,46.7c1.5,1.6,2.6,3.4,3.1,5.5l1.9-0.5c-0.7-2.4-1.9-4.6-3.6-6.4L111.9,46.7z M115,52.2
	c0.2,0.8,0.2,1.7,0.2,2.7l2,0c0-1,0-2.1-0.3-3.2L115,52.2z M115.3,54.9c0,16.2,0,32.4,0,48.6l2,0c0-16.2,0-32.4,0-48.6L115.3,54.9z
	 M115.6,104.2L115.6,104.2l1.4-1.4l0,0L115.6,104.2z"/>
</svg>
