<svg width="200" height="200" viewBox="0 0 200 200" fill="none" xmlns="http://www.w3.org/2000/svg">
<rect width="199.296" height="199.296" fill="#111111"/>
<path d="M146.922 67.2476C146.922 67.2476 146.919 67.237 146.919 67.2298C146.912 67.2121 146.912 67.1907 146.912 67.1694C146.877 64.0063 145.578 61.3052 143.719 58.8814C140.077 54.1402 135.124 52.0291 129.273 52.0185C109.141 51.9865 89.0112 52.0043 68.8818 52.0114C66.4614 52.0114 64.1009 52.3916 61.8216 53.2624C55.8621 55.5512 50.9824 61.6571 51 68.7012C51.0494 89.2295 51.0142 109.761 51.0247 130.293C51.0247 131.452 51.0389 132.628 51.3317 133.755C52.3832 137.785 54.5249 141.08 57.8839 143.564C61.25 146.055 65.0677 146.99 69.1571 146.99C88.4749 147.004 107.796 146.994 127.114 147.001C128.737 147.001 130.36 147.001 131.973 146.787C137.847 146.009 142.251 143.027 145.197 137.835C146.266 135.944 146.813 133.915 147 131.764V67.4289C146.972 67.372 146.937 67.3116 146.922 67.2476ZM109.433 118.952C106.907 118.92 104.377 118.924 101.851 118.952C101.205 118.963 100.912 118.7 100.711 118.106C99.7692 115.281 98.7778 112.469 97.8392 109.648C97.6593 109.118 97.437 108.912 96.8583 108.912C92.3949 108.94 87.9315 108.944 83.4681 108.912C82.8401 108.908 82.6143 109.157 82.4449 109.708C81.6087 112.402 80.709 115.075 79.8904 117.776C79.6328 118.622 79.2517 118.998 78.3132 118.963C76.2597 118.888 74.1956 118.941 72.1385 118.941C70.8189 118.938 70.7448 118.849 71.1718 117.616C74.6225 107.597 78.0803 97.5815 81.5311 87.5662C82.3391 85.2205 83.1329 82.8784 83.9374 80.5362C84.2797 79.5482 84.4843 78.5246 84.4384 77.4869C84.3996 76.6588 84.7525 76.474 85.4934 76.4917C87.0177 76.5344 88.549 76.5059 90.0768 76.5059C91.6046 76.5059 93.1359 76.5344 94.6672 76.4917C95.2882 76.4775 95.6163 76.673 95.8316 77.2878C100.581 90.8359 105.344 104.384 110.118 117.921C110.376 118.65 110.277 118.963 109.433 118.952ZM122.277 118.988C120.033 118.927 117.782 118.938 115.538 118.98C114.712 118.995 114.447 118.675 114.447 117.875C114.465 107.853 114.465 97.8303 114.447 87.8078C114.444 87.0117 114.73 86.7772 115.492 86.7914C117.796 86.8269 120.107 86.8269 122.414 86.7914C123.191 86.7772 123.434 87.0437 123.431 87.8221C123.402 92.8511 123.416 97.8765 123.416 102.905C123.416 107.934 123.399 112.836 123.434 117.797C123.441 118.693 123.194 119.009 122.277 118.988ZM119.017 83.4221C116.039 83.3937 114.024 81.3075 114.038 78.2616C114.052 75.3971 116.24 73.2646 119.133 73.2895C122.054 73.3215 123.984 75.3367 123.977 78.3398C123.967 81.3146 121.885 83.447 119.017 83.4221Z" fill="#A3A3A3"/>
<path d="M94.2756 100.781C91.4706 100.741 88.6655 100.759 85.8569 100.773C85.363 100.773 84.9995 100.791 85.2148 100.08C86.8096 94.8382 88.3797 89.5888 89.9569 84.3395C90.0275 84.3288 90.098 84.3181 90.1686 84.311C90.719 86.1236 91.2695 87.9397 91.8234 89.7523C92.8537 93.1358 93.8734 96.5299 94.939 99.9027C95.1754 100.645 95.0131 100.791 94.2756 100.781Z" fill="#A3A3A3"/>
</svg>
