<svg width="200" height="200" viewBox="0 0 200 200" fill="none" xmlns="http://www.w3.org/2000/svg">
<rect width="199.296" height="199.296" fill="#111111"/>
<path d="M59.0249 54.0071H139.745C139.849 54.4836 139.788 54.9601 139.745 55.4366C139.464 58.5943 139.179 61.7556 138.897 64.9133C138.573 68.551 138.253 72.1888 137.928 75.823C137.593 79.5781 137.255 83.3332 136.92 87.0883C136.596 90.7545 136.279 94.4243 135.951 98.0905C135.559 102.471 135.157 106.852 134.765 111.233C134.437 114.932 134.127 118.626 133.799 122.324C133.4 126.826 132.976 131.325 132.609 135.83C132.545 136.641 132.275 137.05 131.469 137.27C121.092 140.14 110.721 143.038 100.351 145.94C99.6915 146.125 99.0716 146.121 98.4125 145.94C88.0419 143.038 77.6713 140.14 67.2936 137.267C66.492 137.046 66.2106 136.651 66.15 135.83C65.9434 132.847 65.6548 129.867 65.3912 126.883C65.0528 123.068 64.7036 119.252 64.3652 115.436C64.041 111.799 63.7275 108.161 63.4033 104.527C63.0649 100.711 62.7193 96.8957 62.3808 93.0801C62.0567 89.4423 61.7396 85.8081 61.4154 82.1704C61.0805 78.3833 60.7385 74.5997 60.4001 70.8126C60.0652 67.086 59.6982 63.3629 59.4097 59.6327C59.2636 57.7551 58.918 55.8918 59.0178 54L59.0249 54.0071ZM99.3708 71.0971C91.3836 71.0971 83.3964 71.0971 75.4091 71.0971C74.0304 71.0971 73.9734 71.1255 74.0518 72.523C74.1729 74.6744 74.3261 76.8258 74.5185 78.9736C74.6467 80.4102 74.6859 80.4066 76.1145 80.4066C88.3661 80.396 100.618 80.3853 112.869 80.3746C113.992 80.3746 114.073 80.4813 113.988 81.5339C113.764 84.2791 113.503 87.0207 113.354 89.773C113.304 90.7083 112.93 90.9216 112.086 90.9287C107.312 90.9607 102.538 91.0354 97.7641 91.0888C90.7673 91.1634 83.774 91.2274 76.7771 91.2986C76.656 91.2986 76.5384 91.3057 76.4173 91.2986C75.8152 91.2772 75.6264 91.5866 75.6905 92.1484C75.9613 94.5594 76.2 96.9703 76.4886 99.3777C76.6489 100.725 76.6845 100.722 78.0953 100.718C89.1463 100.711 100.197 100.701 111.248 100.697C112.41 100.697 112.417 100.729 112.292 101.856C111.847 105.874 111.398 109.889 110.992 113.911C110.917 114.643 110.668 115.028 109.927 115.22C106.646 116.069 103.375 116.966 100.105 117.855C99.5953 117.993 99.1072 117.99 98.6013 117.851C95.3594 116.966 92.121 116.073 88.8684 115.23C88.131 115.038 87.8495 114.668 87.7961 113.929C87.6465 111.749 87.4292 109.573 87.251 107.396C87.2083 106.863 86.9838 106.557 86.4174 106.557C83.5638 106.557 80.7137 106.557 77.8601 106.554C77.2866 106.554 77.1512 106.824 77.2153 107.354C77.3258 108.246 77.3792 109.142 77.4576 110.039C77.8031 113.854 78.1843 117.666 78.4658 121.489C78.537 122.477 78.993 122.787 79.8445 123.018C84.6539 124.312 89.5097 125.475 94.2301 127.036C97.7178 128.188 101.027 128.469 104.419 126.997C104.472 126.972 104.537 126.972 104.594 126.954C109.424 125.624 114.252 124.284 119.09 122.979C119.848 122.772 120.24 122.463 120.301 121.603C120.454 119.273 120.732 116.955 120.939 114.629C121.327 110.245 121.69 105.86 122.082 101.476C122.531 96.4654 123.005 91.4586 123.461 86.4518C123.878 81.861 124.273 77.2667 124.701 72.6795C124.836 71.2251 124.754 71.0971 123.247 71.0971C115.288 71.0971 107.333 71.0971 99.3744 71.0971H99.3708Z" fill="#A3A3A3"/>
</svg>
