<svg width="157" height="157" viewBox="0 0 157 157" fill="none" xmlns="http://www.w3.org/2000/svg">
<path d="M0 0H156.383V156.383H0V0Z" fill="#111111"/>
<path d="M46 42L51.8626 107.635L78.0814 115L104.3 107.635L110 42H46ZM97.9491 57.0583L95.9949 78.8273L94.5293 94.5404V95.8498L78.0814 100.433L61.6336 95.8498L60.4936 83.2466H68.4733L69.1247 89.63L78.0814 92.0852L87.0382 89.63L88.0153 79.1547H69.2875L69.1247 77.3543L68.6361 73.2623L68.4733 71.1345H88.6667L89.3181 62.9507H58.7023L58.5394 61.1502L58.2137 57.0583L58.0509 54.9305H98.112L97.9491 57.0583Z" fill="#A3A3A3"/>
</svg>
