<svg width="157" height="157" viewBox="0 0 157 157" fill="none" xmlns="http://www.w3.org/2000/svg">
<rect width="156.383" height="156.383" fill="#111111"/>
<g clip-path="url(#clip0_195_7)">
<path d="M91.85 41.5C93.74 41.88 95.53 42.49 97.14 43.58C103.17 47.67 104.31 56.18 99.56 61.69C97.53 64.05 94.96 65.43 91.87 65.94C95.22 66.45 97.96 67.99 100.06 70.64C102.2 73.33 102.97 76.43 102.56 79.79C101.88 85.32 97.21 89.82 91.87 90.37C85.89 90.99 79.88 87.36 78.25 80.5C78.25 80.75 78.25 81 78.25 81.25C78.25 88.34 78.26 95.43 78.25 102.52C78.24 107.75 75.09 112.3 70.22 114.15C62.38 117.12 53.82 111.21 53.69 102.85C53.6 96.95 57.92 91.58 63.74 90.57C63.94 90.54 64.14 90.49 64.42 90.43C56.98 89.3 53.31 82.65 53.69 77.37C54.01 72.95 57.27 67.17 64.36 65.97C62.75 65.68 61.34 65.31 60.06 64.6C56.24 62.48 54.02 59.26 53.57 54.9C52.88 48.28 57.63 42.59 63.78 41.6C63.87 41.59 63.96 41.54 64.05 41.5C73.31 41.5 82.58 41.5 91.85 41.5ZM78.24 75.86C79.63 70.6 82.93 67.32 88.4 66.02C85.06 66.02 81.9 66.02 78.74 66.02C78.37 66.02 78.24 66.23 78.24 66.57C78.24 69.67 78.24 72.77 78.24 75.86Z" fill="#A3A3A3" stroke="#A3A3A3"/>
</g>
<defs>
<clipPath id="clip0_195_7">
<rect width="50.16" height="74.42" fill="white" transform="translate(53 41)"/>
</clipPath>
</defs>
</svg>
