<?xml version="1.0" encoding="utf-8"?>
<!-- Generator: Adobe Illustrator 25.2.1, SVG Export Plug-In . SVG Version: 6.00 Build 0)  -->
<svg version="1.1" id="Camada_1" xmlns="http://www.w3.org/2000/svg" xmlns:xlink="http://www.w3.org/1999/xlink" x="0px" y="0px"
	 viewBox="0 0 157 157" style="enable-background:new 0 0 157 157;" xml:space="preserve">
<style type="text/css">
	.st0{clip-path:url(#SVGID_2_);}
	.st1{fill:#A3A3A3;stroke:#A3A3A3;}
</style>
<g>
	<defs>
		<rect id="SVGID_1_" x="53" y="41" width="50.2" height="74.4"/>
	</defs>
	<clipPath id="SVGID_2_">
		<use xlink:href="#SVGID_1_"  style="overflow:visible;"/>
	</clipPath>
	<g class="st0">
		<path class="st1" d="M91.8,41.5c1.9,0.4,3.7,1,5.3,2.1c6,4.1,7.2,12.6,2.4,18.1c-2,2.4-4.6,3.7-7.7,4.3c3.3,0.5,6.1,2,8.2,4.7
			c2.1,2.7,2.9,5.8,2.5,9.2c-0.7,5.5-5.3,10-10.7,10.6c-6,0.6-12-3-13.6-9.9c0,0.2,0,0.5,0,0.8c0,7.1,0,14.2,0,21.3
			c0,5.2-3.2,9.8-8,11.6c-7.8,3-16.4-2.9-16.5-11.3c-0.1-5.9,4.2-11.3,10.1-12.3c0.2,0,0.4-0.1,0.7-0.1c-7.4-1.1-11.1-7.8-10.7-13.1
			C54,72.9,57.3,67.2,64.4,66c-1.6-0.3-3-0.7-4.3-1.4c-3.8-2.1-6-5.3-6.5-9.7c-0.7-6.6,4.1-12.3,10.2-13.3c0.1,0,0.2-0.1,0.3-0.1
			C73.3,41.5,82.6,41.5,91.8,41.5z M78.2,75.9c1.4-5.3,4.7-8.5,10.2-9.8c-3.3,0-6.5,0-9.7,0c-0.4,0-0.5,0.2-0.5,0.6
			C78.2,69.7,78.2,72.8,78.2,75.9z"/>
	</g>
</g>
</svg>
