<svg width="157" height="157" viewBox="0 0 157 157" fill="none" xmlns="http://www.w3.org/2000/svg">
<rect width="156.383" height="156.383" fill="#111111"/>
<mask id="path-2-inside-1_47_337" fill="white">
<path d="M58.363 111.674C56.663 111.422 54.9657 111.161 53.3526 110.531C50.0675 109.246 47.7643 107.079 47.2229 103.464C46.5131 98.7243 48.4685 95.384 52.9122 93.5585C53.1759 93.4493 53.4396 93.3457 53.8464 93.1805C52.0846 91.9122 51.3327 90.193 51.3215 88.1575C51.3103 86.164 51.8293 84.3693 53.5798 83.1345C53.3694 82.8433 53.0384 82.8098 52.7803 82.6642C51.1869 81.7654 50.0984 80.4047 49.2091 78.8563C46.3027 73.7941 47.1668 67.5504 51.3159 63.6474C54.8451 60.3295 60.5288 59.3551 65.0763 61.4691C66.507 62.1354 67.8508 62.1382 69.3012 61.903C70.9199 61.6426 72.4825 61.1863 74.0086 60.6011C74.5304 60.3995 74.7128 60.4751 74.7071 61.0659C74.6847 63.2218 74.6903 65.3805 74.7071 67.5392C74.71 67.9564 74.5837 68.1972 74.1629 68.3008C73.585 68.4408 73.0239 68.648 72.4432 68.7767C71.9971 68.8775 71.84 69.0035 71.9831 69.5243C73.3802 74.6117 71.0461 80.3095 66.4986 82.9805C65.253 83.7141 63.9093 84.1929 62.4981 84.5009C62.0268 84.6045 61.5555 84.7361 61.1039 84.9069C59.9621 85.338 59.4403 86.234 59.3617 87.4044C59.2944 88.4487 59.6872 89.2971 60.5624 89.899C61.6369 90.6382 62.8713 90.977 64.1056 91.313C65.8702 91.7918 67.6572 92.2006 69.3517 92.9061C71.4164 93.7657 73.1109 95.0228 73.9497 97.1955C74.4631 98.5227 74.4995 99.9086 74.4098 101.297C74.2667 103.529 73.7449 105.648 72.3478 107.466C70.6253 109.708 68.2267 110.769 65.542 111.315C64.8322 111.458 64.1112 111.559 63.3959 111.677H58.3658L58.363 111.674ZM55.611 72.761C55.6053 75.9584 56.865 77.504 59.8751 77.756C61.8136 77.9184 63.3846 77.2408 64.0691 75.4573C64.7817 73.6009 64.7957 71.6942 63.9682 69.8659C63.25 68.284 62.0072 67.346 60.2061 67.2984C58.349 67.248 57.0613 68.1524 56.2365 69.7567C55.754 70.6947 55.5885 71.7138 55.6137 72.7638L55.611 72.761ZM61.0618 105.041C62.2064 105.088 63.3706 105.004 64.4759 104.562C66.0049 103.952 66.7258 102.857 66.7371 101.183C66.7455 99.6734 66.0357 98.5815 64.4619 98.0551C62.0353 97.2431 59.5553 97.2179 57.1258 98.0383C55.5352 98.5759 54.8002 99.7658 54.8198 101.437C54.8367 102.904 55.6194 103.924 57.1904 104.503C58.4303 104.962 59.7208 105.072 61.0618 105.038V105.041Z"/>
<path d="M93.4555 75.8802C93.4555 72.8983 93.4358 70.7396 93.4695 68.5837C93.4779 68.0881 93.3096 67.9482 92.8551 67.8866C92.0948 67.783 91.357 67.9258 90.6192 68.0153C90.1535 68.0713 89.9684 67.9677 89.9712 67.4862C89.9824 65.4619 89.9852 63.4347 89.9712 61.4104C89.9684 60.9205 90.1704 60.7469 90.6445 60.7609C91.3065 60.7833 91.9686 60.7665 92.6307 60.7665C93.5537 60.7665 93.5677 60.7665 93.5536 59.8761C93.5312 58.3362 93.6546 56.7934 93.4218 55.2619C93.3376 54.7103 93.5284 54.5367 94.0895 54.5451C96.4712 54.5731 98.853 54.5647 101.235 54.5507C101.768 54.5479 101.959 54.6711 101.897 55.2731C101.731 56.9138 101.684 58.5658 101.703 60.2177C101.709 60.7329 101.978 60.7749 102.377 60.7749C104.427 60.7665 106.478 60.7889 108.529 60.7609C109.138 60.7525 109.398 60.912 109.384 61.57C109.351 63.4851 109.354 65.4003 109.384 67.3154C109.393 67.9202 109.194 68.1525 108.582 68.0993C106.537 67.9201 104.483 68.0013 102.435 67.9593C101.9 67.9481 101.703 68.1077 101.706 68.6677C101.726 72.9151 101.7 77.1654 101.729 81.4128C101.737 82.4627 101.793 83.5267 102.172 84.5346C102.702 85.943 103.821 86.6626 105.319 86.5114C106.554 86.3854 107.768 86.1614 108.851 85.509C109.289 85.2458 109.379 85.4362 109.379 85.8478C109.373 87.9841 109.365 90.1176 109.384 92.2539C109.387 92.7187 109.138 92.9147 108.773 93.0799C107.101 93.8359 105.328 94.1522 103.513 94.2586C102.233 94.3342 100.954 94.2782 99.703 93.9618C97.066 93.2955 95.38 91.5987 94.4822 89.0845C93.8707 87.3709 93.6434 85.5818 93.5564 83.7731C93.419 80.8696 93.4723 77.9633 93.4639 75.8858L93.4555 75.8802Z"/>
<path d="M82.3686 93.749C81.2436 93.749 80.1187 93.7154 78.9937 93.7602C78.3345 93.7882 78.1605 93.539 78.1942 92.9174C78.4186 88.8716 78.3204 84.8201 78.3316 80.7715C78.3513 74.917 78.3176 69.0596 78.3008 63.2051C78.3008 62.5891 78.2419 61.9759 78.1998 61.3599C78.1717 60.9512 78.3204 60.7524 78.7609 60.7552C81.1875 60.7664 83.6142 60.7692 86.0408 60.7552C86.5514 60.7524 86.6075 61.024 86.5963 61.4271C86.5486 63.0315 86.4784 64.6386 86.4756 66.2429C86.4644 73.5086 86.4644 80.7715 86.4756 88.0372C86.4784 89.6219 86.5542 91.2039 86.5879 92.7886C86.6075 93.7462 86.5991 93.749 85.606 93.749C84.5259 93.749 83.443 93.749 82.3629 93.749H82.3686Z"/>
<path d="M77.2432 49.5417C77.2375 47.9738 77.7622 46.6102 78.8675 45.4875C80.9126 43.41 84.0013 43.4184 85.9763 45.5659C87.5557 47.2878 87.9653 49.3261 87.1854 51.5212C86.4644 53.5539 85.0113 54.7915 82.8287 55.0883C80.5311 55.4019 78.0567 53.5511 77.4059 51.0452C77.2768 50.5497 77.2263 50.0513 77.2432 49.5389V49.5417Z"/>
</mask>
<path d="M58.363 111.674C56.663 111.422 54.9657 111.161 53.3526 110.531C50.0675 109.246 47.7643 107.079 47.2229 103.464C46.5131 98.7243 48.4685 95.384 52.9122 93.5585C53.1759 93.4493 53.4396 93.3457 53.8464 93.1805C52.0846 91.9122 51.3327 90.193 51.3215 88.1575C51.3103 86.164 51.8293 84.3693 53.5798 83.1345C53.3694 82.8433 53.0384 82.8098 52.7803 82.6642C51.1869 81.7654 50.0984 80.4047 49.2091 78.8563C46.3027 73.7941 47.1668 67.5504 51.3159 63.6474C54.8451 60.3295 60.5288 59.3551 65.0763 61.4691C66.507 62.1354 67.8508 62.1382 69.3012 61.903C70.9199 61.6426 72.4825 61.1863 74.0086 60.6011C74.5304 60.3995 74.7128 60.4751 74.7071 61.0659C74.6847 63.2218 74.6903 65.3805 74.7071 67.5392C74.71 67.9564 74.5837 68.1972 74.1629 68.3008C73.585 68.4408 73.0239 68.648 72.4432 68.7767C71.9971 68.8775 71.84 69.0035 71.9831 69.5243C73.3802 74.6117 71.0461 80.3095 66.4986 82.9805C65.253 83.7141 63.9093 84.1929 62.4981 84.5009C62.0268 84.6045 61.5555 84.7361 61.1039 84.9069C59.9621 85.338 59.4403 86.234 59.3617 87.4044C59.2944 88.4487 59.6872 89.2971 60.5624 89.899C61.6369 90.6382 62.8713 90.977 64.1056 91.313C65.8702 91.7918 67.6572 92.2006 69.3517 92.9061C71.4164 93.7657 73.1109 95.0228 73.9497 97.1955C74.4631 98.5227 74.4995 99.9086 74.4098 101.297C74.2667 103.529 73.7449 105.648 72.3478 107.466C70.6253 109.708 68.2267 110.769 65.542 111.315C64.8322 111.458 64.1112 111.559 63.3959 111.677H58.3658L58.363 111.674ZM55.611 72.761C55.6053 75.9584 56.865 77.504 59.8751 77.756C61.8136 77.9184 63.3846 77.2408 64.0691 75.4573C64.7817 73.6009 64.7957 71.6942 63.9682 69.8659C63.25 68.284 62.0072 67.346 60.2061 67.2984C58.349 67.248 57.0613 68.1524 56.2365 69.7567C55.754 70.6947 55.5885 71.7138 55.6137 72.7638L55.611 72.761ZM61.0618 105.041C62.2064 105.088 63.3706 105.004 64.4759 104.562C66.0049 103.952 66.7258 102.857 66.7371 101.183C66.7455 99.6734 66.0357 98.5815 64.4619 98.0551C62.0353 97.2431 59.5553 97.2179 57.1258 98.0383C55.5352 98.5759 54.8002 99.7658 54.8198 101.437C54.8367 102.904 55.6194 103.924 57.1904 104.503C58.4303 104.962 59.7208 105.072 61.0618 105.038V105.041Z" fill="#A3A3A3"/>
<path d="M93.4555 75.8802C93.4555 72.8983 93.4358 70.7396 93.4695 68.5837C93.4779 68.0881 93.3096 67.9482 92.8551 67.8866C92.0948 67.783 91.357 67.9258 90.6192 68.0153C90.1535 68.0713 89.9684 67.9677 89.9712 67.4862C89.9824 65.4619 89.9852 63.4347 89.9712 61.4104C89.9684 60.9205 90.1704 60.7469 90.6445 60.7609C91.3065 60.7833 91.9686 60.7665 92.6307 60.7665C93.5537 60.7665 93.5677 60.7665 93.5536 59.8761C93.5312 58.3362 93.6546 56.7934 93.4218 55.2619C93.3376 54.7103 93.5284 54.5367 94.0895 54.5451C96.4712 54.5731 98.853 54.5647 101.235 54.5507C101.768 54.5479 101.959 54.6711 101.897 55.2731C101.731 56.9138 101.684 58.5658 101.703 60.2177C101.709 60.7329 101.978 60.7749 102.377 60.7749C104.427 60.7665 106.478 60.7889 108.529 60.7609C109.138 60.7525 109.398 60.912 109.384 61.57C109.351 63.4851 109.354 65.4003 109.384 67.3154C109.393 67.9202 109.194 68.1525 108.582 68.0993C106.537 67.9201 104.483 68.0013 102.435 67.9593C101.9 67.9481 101.703 68.1077 101.706 68.6677C101.726 72.9151 101.7 77.1654 101.729 81.4128C101.737 82.4627 101.793 83.5267 102.172 84.5346C102.702 85.943 103.821 86.6626 105.319 86.5114C106.554 86.3854 107.768 86.1614 108.851 85.509C109.289 85.2458 109.379 85.4362 109.379 85.8478C109.373 87.9841 109.365 90.1176 109.384 92.2539C109.387 92.7187 109.138 92.9147 108.773 93.0799C107.101 93.8359 105.328 94.1522 103.513 94.2586C102.233 94.3342 100.954 94.2782 99.703 93.9618C97.066 93.2955 95.38 91.5987 94.4822 89.0845C93.8707 87.3709 93.6434 85.5818 93.5564 83.7731C93.419 80.8696 93.4723 77.9633 93.4639 75.8858L93.4555 75.8802Z" fill="#A3A3A3"/>
<path d="M82.3686 93.749C81.2436 93.749 80.1187 93.7154 78.9937 93.7602C78.3345 93.7882 78.1605 93.539 78.1942 92.9174C78.4186 88.8716 78.3204 84.8201 78.3316 80.7715C78.3513 74.917 78.3176 69.0596 78.3008 63.2051C78.3008 62.5891 78.2419 61.9759 78.1998 61.3599C78.1717 60.9512 78.3204 60.7524 78.7609 60.7552C81.1875 60.7664 83.6142 60.7692 86.0408 60.7552C86.5514 60.7524 86.6075 61.024 86.5963 61.4271C86.5486 63.0315 86.4784 64.6386 86.4756 66.2429C86.4644 73.5086 86.4644 80.7715 86.4756 88.0372C86.4784 89.6219 86.5542 91.2039 86.5879 92.7886C86.6075 93.7462 86.5991 93.749 85.606 93.749C84.5259 93.749 83.443 93.749 82.3629 93.749H82.3686Z" fill="#A3A3A3"/>
<path d="M77.2432 49.5417C77.2375 47.9738 77.7622 46.6102 78.8675 45.4875C80.9126 43.41 84.0013 43.4184 85.9763 45.5659C87.5557 47.2878 87.9653 49.3261 87.1854 51.5212C86.4644 53.5539 85.0113 54.7915 82.8287 55.0883C80.5311 55.4019 78.0567 53.5511 77.4059 51.0452C77.2768 50.5497 77.2263 50.0513 77.2432 49.5389V49.5417Z" fill="#A3A3A3"/>
<path d="M58.363 111.674C56.663 111.422 54.9657 111.161 53.3526 110.531C50.0675 109.246 47.7643 107.079 47.2229 103.464C46.5131 98.7243 48.4685 95.384 52.9122 93.5585C53.1759 93.4493 53.4396 93.3457 53.8464 93.1805C52.0846 91.9122 51.3327 90.193 51.3215 88.1575C51.3103 86.164 51.8293 84.3693 53.5798 83.1345C53.3694 82.8433 53.0384 82.8098 52.7803 82.6642C51.1869 81.7654 50.0984 80.4047 49.2091 78.8563C46.3027 73.7941 47.1668 67.5504 51.3159 63.6474C54.8451 60.3295 60.5288 59.3551 65.0763 61.4691C66.507 62.1354 67.8508 62.1382 69.3012 61.903C70.9199 61.6426 72.4825 61.1863 74.0086 60.6011C74.5304 60.3995 74.7128 60.4751 74.7071 61.0659C74.6847 63.2218 74.6903 65.3805 74.7071 67.5392C74.71 67.9564 74.5837 68.1972 74.1629 68.3008C73.585 68.4408 73.0239 68.648 72.4432 68.7767C71.9971 68.8775 71.84 69.0035 71.9831 69.5243C73.3802 74.6117 71.0461 80.3095 66.4986 82.9805C65.253 83.7141 63.9093 84.1929 62.4981 84.5009C62.0268 84.6045 61.5555 84.7361 61.1039 84.9069C59.9621 85.338 59.4403 86.234 59.3617 87.4044C59.2944 88.4487 59.6872 89.2971 60.5624 89.899C61.6369 90.6382 62.8713 90.977 64.1056 91.313C65.8702 91.7918 67.6572 92.2006 69.3517 92.9061C71.4164 93.7657 73.1109 95.0228 73.9497 97.1955C74.4631 98.5227 74.4995 99.9086 74.4098 101.297C74.2667 103.529 73.7449 105.648 72.3478 107.466C70.6253 109.708 68.2267 110.769 65.542 111.315C64.8322 111.458 64.1112 111.559 63.3959 111.677H58.3658L58.363 111.674ZM55.611 72.761C55.6053 75.9584 56.865 77.504 59.8751 77.756C61.8136 77.9184 63.3846 77.2408 64.0691 75.4573C64.7817 73.6009 64.7957 71.6942 63.9682 69.8659C63.25 68.284 62.0072 67.346 60.2061 67.2984C58.349 67.248 57.0613 68.1524 56.2365 69.7567C55.754 70.6947 55.5885 71.7138 55.6137 72.7638L55.611 72.761ZM61.0618 105.041C62.2064 105.088 63.3706 105.004 64.4759 104.562C66.0049 103.952 66.7258 102.857 66.7371 101.183C66.7455 99.6734 66.0357 98.5815 64.4619 98.0551C62.0353 97.2431 59.5553 97.2179 57.1258 98.0383C55.5352 98.5759 54.8002 99.7658 54.8198 101.437C54.8367 102.904 55.6194 103.924 57.1904 104.503C58.4303 104.962 59.7208 105.072 61.0618 105.038V105.041Z" stroke="#A3A3A3" stroke-width="2" mask="url(#path-2-inside-1_47_337)"/>
<path d="M93.4555 75.8802C93.4555 72.8983 93.4358 70.7396 93.4695 68.5837C93.4779 68.0881 93.3096 67.9482 92.8551 67.8866C92.0948 67.783 91.357 67.9258 90.6192 68.0153C90.1535 68.0713 89.9684 67.9677 89.9712 67.4862C89.9824 65.4619 89.9852 63.4347 89.9712 61.4104C89.9684 60.9205 90.1704 60.7469 90.6445 60.7609C91.3065 60.7833 91.9686 60.7665 92.6307 60.7665C93.5537 60.7665 93.5677 60.7665 93.5536 59.8761C93.5312 58.3362 93.6546 56.7934 93.4218 55.2619C93.3376 54.7103 93.5284 54.5367 94.0895 54.5451C96.4712 54.5731 98.853 54.5647 101.235 54.5507C101.768 54.5479 101.959 54.6711 101.897 55.2731C101.731 56.9138 101.684 58.5658 101.703 60.2177C101.709 60.7329 101.978 60.7749 102.377 60.7749C104.427 60.7665 106.478 60.7889 108.529 60.7609C109.138 60.7525 109.398 60.912 109.384 61.57C109.351 63.4851 109.354 65.4003 109.384 67.3154C109.393 67.9202 109.194 68.1525 108.582 68.0993C106.537 67.9201 104.483 68.0013 102.435 67.9593C101.9 67.9481 101.703 68.1077 101.706 68.6677C101.726 72.9151 101.7 77.1654 101.729 81.4128C101.737 82.4627 101.793 83.5267 102.172 84.5346C102.702 85.943 103.821 86.6626 105.319 86.5114C106.554 86.3854 107.768 86.1614 108.851 85.509C109.289 85.2458 109.379 85.4362 109.379 85.8478C109.373 87.9841 109.365 90.1176 109.384 92.2539C109.387 92.7187 109.138 92.9147 108.773 93.0799C107.101 93.8359 105.328 94.1522 103.513 94.2586C102.233 94.3342 100.954 94.2782 99.703 93.9618C97.066 93.2955 95.38 91.5987 94.4822 89.0845C93.8707 87.3709 93.6434 85.5818 93.5564 83.7731C93.419 80.8696 93.4723 77.9633 93.4639 75.8858L93.4555 75.8802Z" stroke="#A3A3A3" stroke-width="2" mask="url(#path-2-inside-1_47_337)"/>
<path d="M82.3686 93.749C81.2436 93.749 80.1187 93.7154 78.9937 93.7602C78.3345 93.7882 78.1605 93.539 78.1942 92.9174C78.4186 88.8716 78.3204 84.8201 78.3316 80.7715C78.3513 74.917 78.3176 69.0596 78.3008 63.2051C78.3008 62.5891 78.2419 61.9759 78.1998 61.3599C78.1717 60.9512 78.3204 60.7524 78.7609 60.7552C81.1875 60.7664 83.6142 60.7692 86.0408 60.7552C86.5514 60.7524 86.6075 61.024 86.5963 61.4271C86.5486 63.0315 86.4784 64.6386 86.4756 66.2429C86.4644 73.5086 86.4644 80.7715 86.4756 88.0372C86.4784 89.6219 86.5542 91.2039 86.5879 92.7886C86.6075 93.7462 86.5991 93.749 85.606 93.749C84.5259 93.749 83.443 93.749 82.3629 93.749H82.3686Z" stroke="#A3A3A3" stroke-width="2" mask="url(#path-2-inside-1_47_337)"/>
<path d="M77.2432 49.5417C77.2375 47.9738 77.7622 46.6102 78.8675 45.4875C80.9126 43.41 84.0013 43.4184 85.9763 45.5659C87.5557 47.2878 87.9653 49.3261 87.1854 51.5212C86.4644 53.5539 85.0113 54.7915 82.8287 55.0883C80.5311 55.4019 78.0567 53.5511 77.4059 51.0452C77.2768 50.5497 77.2263 50.0513 77.2432 49.5389V49.5417Z" stroke="#A3A3A3" stroke-width="2" mask="url(#path-2-inside-1_47_337)"/>
</svg>
