<?xml version="1.0" encoding="utf-8"?>
<!-- Generator: Adobe Illustrator 25.2.1, SVG Export Plug-In . SVG Version: 6.00 Build 0)  -->
<svg version="1.1" id="Camada_1" xmlns="http://www.w3.org/2000/svg" xmlns:xlink="http://www.w3.org/1999/xlink" x="0px" y="0px"
	 viewBox="0 0 157 157" style="enable-background:new 0 0 157 157;" xml:space="preserve">
<style type="text/css">
	.st0{fill:#A3A3A3;}
	.st1{fill:#FFFFFF;filter:url(#Adobe_OpacityMaskFilter);}
	.st2{fill:#FFFFFF;}
	.st3{mask:url(#path-2-inside-1_47_337_1_);fill:none;stroke:#A3A3A3;stroke-width:2;}
	.st4{fill:#FFFFFF;filter:url(#Adobe_OpacityMaskFilter_1_);}
	.st5{mask:url(#path-2-inside-1_47_337_2_);fill:none;stroke:#A3A3A3;stroke-width:2;}
	.st6{fill:#FFFFFF;filter:url(#Adobe_OpacityMaskFilter_2_);}
	.st7{mask:url(#path-2-inside-1_47_337_3_);fill:none;stroke:#A3A3A3;stroke-width:2;}
	.st8{fill:#FFFFFF;filter:url(#Adobe_OpacityMaskFilter_3_);}
	.st9{mask:url(#path-2-inside-1_47_337_4_);fill:none;stroke:#A3A3A3;stroke-width:2;}
</style>
<path class="st0" d="M58.4,111.7c-1.7-0.3-3.4-0.5-5-1.1c-3.3-1.3-5.6-3.5-6.1-7.1c-0.7-4.7,1.2-8.1,5.7-9.9
	c0.3-0.1,0.5-0.2,0.9-0.4c-1.8-1.3-2.5-3-2.5-5c0-2,0.5-3.8,2.3-5c-0.2-0.3-0.5-0.3-0.8-0.5c-1.6-0.9-2.7-2.3-3.6-3.8
	c-2.9-5.1-2-11.3,2.1-15.2c3.5-3.3,9.2-4.3,13.8-2.2c1.4,0.7,2.8,0.7,4.2,0.4c1.6-0.3,3.2-0.7,4.7-1.3c0.5-0.2,0.7-0.1,0.7,0.5
	c0,2.2,0,4.3,0,6.5c0,0.4-0.1,0.7-0.5,0.8c-0.6,0.1-1.1,0.3-1.7,0.5C72,68.9,71.8,69,72,69.5c1.4,5.1-0.9,10.8-5.5,13.5
	c-1.2,0.7-2.6,1.2-4,1.5c-0.5,0.1-0.9,0.2-1.4,0.4c-1.1,0.4-1.7,1.3-1.7,2.5c-0.1,1,0.3,1.9,1.2,2.5c1.1,0.7,2.3,1.1,3.5,1.4
	c1.8,0.5,3.6,0.9,5.2,1.6c2.1,0.9,3.8,2.1,4.6,4.3c0.5,1.3,0.5,2.7,0.5,4.1c-0.1,2.2-0.7,4.4-2.1,6.2c-1.7,2.2-4.1,3.3-6.8,3.8
	c-0.7,0.1-1.4,0.2-2.1,0.4L58.4,111.7L58.4,111.7z M55.6,72.8c0,3.2,1.3,4.7,4.3,5c1.9,0.2,3.5-0.5,4.2-2.3c0.7-1.9,0.7-3.8-0.1-5.6
	c-0.7-1.6-2-2.5-3.8-2.6c-1.9-0.1-3.1,0.9-4,2.5C55.8,70.7,55.6,71.7,55.6,72.8L55.6,72.8z M61.1,105c1.1,0,2.3,0,3.4-0.5
	c1.5-0.6,2.2-1.7,2.3-3.4c0-1.5-0.7-2.6-2.3-3.1c-2.4-0.8-4.9-0.8-7.3,0c-1.6,0.5-2.3,1.7-2.3,3.4c0,1.5,0.8,2.5,2.4,3.1
	C58.4,105,59.7,105.1,61.1,105L61.1,105z"/>
<path class="st0" d="M93.5,75.9c0-3,0-5.1,0-7.3c0-0.5-0.2-0.6-0.6-0.7c-0.8-0.1-1.5,0-2.2,0.1c-0.5,0.1-0.7,0-0.6-0.5
	c0-2,0-4.1,0-6.1c0-0.5,0.2-0.7,0.7-0.6c0.7,0,1.3,0,2,0c0.9,0,0.9,0,0.9-0.9c0-1.5,0.1-3.1-0.1-4.6c-0.1-0.6,0.1-0.7,0.7-0.7
	c2.4,0,4.8,0,7.1,0c0.5,0,0.7,0.1,0.7,0.7c-0.2,1.6-0.2,3.3-0.2,4.9c0,0.5,0.3,0.6,0.7,0.6c2.1,0,4.1,0,6.2,0c0.6,0,0.9,0.2,0.9,0.8
	c0,1.9,0,3.8,0,5.7c0,0.6-0.2,0.8-0.8,0.8c-2-0.2-4.1-0.1-6.1-0.1c-0.5,0-0.7,0.1-0.7,0.7c0,4.2,0,8.5,0,12.7c0,1,0.1,2.1,0.4,3.1
	c0.5,1.4,1.6,2.1,3.1,2c1.2-0.1,2.4-0.3,3.5-1c0.4-0.3,0.5-0.1,0.5,0.3c0,2.1,0,4.3,0,6.4c0,0.5-0.2,0.7-0.6,0.8
	c-1.7,0.8-3.4,1.1-5.3,1.2c-1.3,0.1-2.6,0-3.8-0.3c-2.6-0.7-4.3-2.4-5.2-4.9c-0.6-1.7-0.8-3.5-0.9-5.3C93.4,80.9,93.5,78,93.5,75.9
	L93.5,75.9z"/>
<path class="st0" d="M82.4,93.7c-1.1,0-2.2,0-3.4,0c-0.7,0-0.8-0.2-0.8-0.8c0.2-4,0.1-8.1,0.1-12.1c0-5.9,0-11.7,0-17.6
	c0-0.6-0.1-1.2-0.1-1.8c0-0.4,0.1-0.6,0.6-0.6c2.4,0,4.9,0,7.3,0c0.5,0,0.6,0.3,0.6,0.7c0,1.6-0.1,3.2-0.1,4.8c0,7.3,0,14.5,0,21.8
	c0,1.6,0.1,3.2,0.1,4.8c0,1,0,1-1,1C84.5,93.7,83.4,93.7,82.4,93.7L82.4,93.7z"/>
<path class="st0" d="M77.2,49.5c0-1.6,0.5-2.9,1.6-4.1c2-2.1,5.1-2.1,7.1,0.1c1.6,1.7,2,3.8,1.2,6c-0.7,2-2.2,3.3-4.4,3.6
	c-2.3,0.3-4.8-1.5-5.4-4C77.3,50.5,77.2,50.1,77.2,49.5L77.2,49.5z"/>
<defs>
	<filter id="Adobe_OpacityMaskFilter" filterUnits="userSpaceOnUse" x="46.1" y="59.4" width="29.6" height="53.3">
		<feColorMatrix  type="matrix" values="1 0 0 0 0  0 1 0 0 0  0 0 1 0 0  0 0 0 1 0"/>
	</filter>
</defs>
<mask maskUnits="userSpaceOnUse" x="46.1" y="59.4" width="29.6" height="53.3" id="path-2-inside-1_47_337_1_">
	<path class="st1" d="M58.4,111.7c-1.7-0.3-3.4-0.5-5-1.1c-3.3-1.3-5.6-3.5-6.1-7.1c-0.7-4.7,1.2-8.1,5.7-9.9
		c0.3-0.1,0.5-0.2,0.9-0.4c-1.8-1.3-2.5-3-2.5-5c0-2,0.5-3.8,2.3-5c-0.2-0.3-0.5-0.3-0.8-0.5c-1.6-0.9-2.7-2.3-3.6-3.8
		c-2.9-5.1-2-11.3,2.1-15.2c3.5-3.3,9.2-4.3,13.8-2.2c1.4,0.7,2.8,0.7,4.2,0.4c1.6-0.3,3.2-0.7,4.7-1.3c0.5-0.2,0.7-0.1,0.7,0.5
		c0,2.2,0,4.3,0,6.5c0,0.4-0.1,0.7-0.5,0.8c-0.6,0.1-1.1,0.3-1.7,0.5C72,68.9,71.8,69,72,69.5c1.4,5.1-0.9,10.8-5.5,13.5
		c-1.2,0.7-2.6,1.2-4,1.5c-0.5,0.1-0.9,0.2-1.4,0.4c-1.1,0.4-1.7,1.3-1.7,2.5c-0.1,1,0.3,1.9,1.2,2.5c1.1,0.7,2.3,1.1,3.5,1.4
		c1.8,0.5,3.6,0.9,5.2,1.6c2.1,0.9,3.8,2.1,4.6,4.3c0.5,1.3,0.5,2.7,0.5,4.1c-0.1,2.2-0.7,4.4-2.1,6.2c-1.7,2.2-4.1,3.3-6.8,3.8
		c-0.7,0.1-1.4,0.2-2.1,0.4L58.4,111.7L58.4,111.7z M55.6,72.8c0,3.2,1.3,4.7,4.3,5c1.9,0.2,3.5-0.5,4.2-2.3
		c0.7-1.9,0.7-3.8-0.1-5.6c-0.7-1.6-2-2.5-3.8-2.6c-1.9-0.1-3.1,0.9-4,2.5C55.8,70.7,55.6,71.7,55.6,72.8L55.6,72.8z M61.1,105
		c1.1,0,2.3,0,3.4-0.5c1.5-0.6,2.2-1.7,2.3-3.4c0-1.5-0.7-2.6-2.3-3.1c-2.4-0.8-4.9-0.8-7.3,0c-1.6,0.5-2.3,1.7-2.3,3.4
		c0,1.5,0.8,2.5,2.4,3.1C58.4,105,59.7,105.1,61.1,105L61.1,105z"/>
	<path class="st2" d="M93.5,75.9c0-3,0-5.1,0-7.3c0-0.5-0.2-0.6-0.6-0.7c-0.8-0.1-1.5,0-2.2,0.1c-0.5,0.1-0.7,0-0.6-0.5
		c0-2,0-4.1,0-6.1c0-0.5,0.2-0.7,0.7-0.6c0.7,0,1.3,0,2,0c0.9,0,0.9,0,0.9-0.9c0-1.5,0.1-3.1-0.1-4.6c-0.1-0.6,0.1-0.7,0.7-0.7
		c2.4,0,4.8,0,7.1,0c0.5,0,0.7,0.1,0.7,0.7c-0.2,1.6-0.2,3.3-0.2,4.9c0,0.5,0.3,0.6,0.7,0.6c2.1,0,4.1,0,6.2,0
		c0.6,0,0.9,0.2,0.9,0.8c0,1.9,0,3.8,0,5.7c0,0.6-0.2,0.8-0.8,0.8c-2-0.2-4.1-0.1-6.1-0.1c-0.5,0-0.7,0.1-0.7,0.7
		c0,4.2,0,8.5,0,12.7c0,1,0.1,2.1,0.4,3.1c0.5,1.4,1.6,2.1,3.1,2c1.2-0.1,2.4-0.3,3.5-1c0.4-0.3,0.5-0.1,0.5,0.3c0,2.1,0,4.3,0,6.4
		c0,0.5-0.2,0.7-0.6,0.8c-1.7,0.8-3.4,1.1-5.3,1.2c-1.3,0.1-2.6,0-3.8-0.3c-2.6-0.7-4.3-2.4-5.2-4.9c-0.6-1.7-0.8-3.5-0.9-5.3
		C93.4,80.9,93.5,78,93.5,75.9L93.5,75.9z"/>
	<path class="st2" d="M82.4,93.7c-1.1,0-2.2,0-3.4,0c-0.7,0-0.8-0.2-0.8-0.8c0.2-4,0.1-8.1,0.1-12.1c0-5.9,0-11.7,0-17.6
		c0-0.6-0.1-1.2-0.1-1.8c0-0.4,0.1-0.6,0.6-0.6c2.4,0,4.9,0,7.3,0c0.5,0,0.6,0.3,0.6,0.7c0,1.6-0.1,3.2-0.1,4.8c0,7.3,0,14.5,0,21.8
		c0,1.6,0.1,3.2,0.1,4.8c0,1,0,1-1,1C84.5,93.7,83.4,93.7,82.4,93.7L82.4,93.7z"/>
	<path class="st2" d="M77.2,49.5c0-1.6,0.5-2.9,1.6-4.1c2-2.1,5.1-2.1,7.1,0.1c1.6,1.7,2,3.8,1.2,6c-0.7,2-2.2,3.3-4.4,3.6
		c-2.3,0.3-4.8-1.5-5.4-4C77.3,50.5,77.2,50.1,77.2,49.5L77.2,49.5z"/>
</mask>
<path class="st3" d="M58.4,111.7c-1.7-0.3-3.4-0.5-5-1.1c-3.3-1.3-5.6-3.5-6.1-7.1c-0.7-4.7,1.2-8.1,5.7-9.9
	c0.3-0.1,0.5-0.2,0.9-0.4c-1.8-1.3-2.5-3-2.5-5c0-2,0.5-3.8,2.3-5c-0.2-0.3-0.5-0.3-0.8-0.5c-1.6-0.9-2.7-2.3-3.6-3.8
	c-2.9-5.1-2-11.3,2.1-15.2c3.5-3.3,9.2-4.3,13.8-2.2c1.4,0.7,2.8,0.7,4.2,0.4c1.6-0.3,3.2-0.7,4.7-1.3c0.5-0.2,0.7-0.1,0.7,0.5
	c0,2.2,0,4.3,0,6.5c0,0.4-0.1,0.7-0.5,0.8c-0.6,0.1-1.1,0.3-1.7,0.5C72,68.9,71.8,69,72,69.5c1.4,5.1-0.9,10.8-5.5,13.5
	c-1.2,0.7-2.6,1.2-4,1.5c-0.5,0.1-0.9,0.2-1.4,0.4c-1.1,0.4-1.7,1.3-1.7,2.5c-0.1,1,0.3,1.9,1.2,2.5c1.1,0.7,2.3,1.1,3.5,1.4
	c1.8,0.5,3.6,0.9,5.2,1.6c2.1,0.9,3.8,2.1,4.6,4.3c0.5,1.3,0.5,2.7,0.5,4.1c-0.1,2.2-0.7,4.4-2.1,6.2c-1.7,2.2-4.1,3.3-6.8,3.8
	c-0.7,0.1-1.4,0.2-2.1,0.4L58.4,111.7L58.4,111.7z M55.6,72.8c0,3.2,1.3,4.7,4.3,5c1.9,0.2,3.5-0.5,4.2-2.3c0.7-1.9,0.7-3.8-0.1-5.6
	c-0.7-1.6-2-2.5-3.8-2.6c-1.9-0.1-3.1,0.9-4,2.5C55.8,70.7,55.6,71.7,55.6,72.8L55.6,72.8z M61.1,105c1.1,0,2.3,0,3.4-0.5
	c1.5-0.6,2.2-1.7,2.3-3.4c0-1.5-0.7-2.6-2.3-3.1c-2.4-0.8-4.9-0.8-7.3,0c-1.6,0.5-2.3,1.7-2.3,3.4c0,1.5,0.8,2.5,2.4,3.1
	C58.4,105,59.7,105.1,61.1,105L61.1,105z"/>
<defs>
	<filter id="Adobe_OpacityMaskFilter_1_" filterUnits="userSpaceOnUse" x="89" y="53.5" width="21.4" height="41.7">
		<feColorMatrix  type="matrix" values="1 0 0 0 0  0 1 0 0 0  0 0 1 0 0  0 0 0 1 0"/>
	</filter>
</defs>
<mask maskUnits="userSpaceOnUse" x="89" y="53.5" width="21.4" height="41.7" id="path-2-inside-1_47_337_2_">
	<path class="st4" d="M58.4,111.7c-1.7-0.3-3.4-0.5-5-1.1c-3.3-1.3-5.6-3.5-6.1-7.1c-0.7-4.7,1.2-8.1,5.7-9.9
		c0.3-0.1,0.5-0.2,0.9-0.4c-1.8-1.3-2.5-3-2.5-5c0-2,0.5-3.8,2.3-5c-0.2-0.3-0.5-0.3-0.8-0.5c-1.6-0.9-2.7-2.3-3.6-3.8
		c-2.9-5.1-2-11.3,2.1-15.2c3.5-3.3,9.2-4.3,13.8-2.2c1.4,0.7,2.8,0.7,4.2,0.4c1.6-0.3,3.2-0.7,4.7-1.3c0.5-0.2,0.7-0.1,0.7,0.5
		c0,2.2,0,4.3,0,6.5c0,0.4-0.1,0.7-0.5,0.8c-0.6,0.1-1.1,0.3-1.7,0.5C72,68.9,71.8,69,72,69.5c1.4,5.1-0.9,10.8-5.5,13.5
		c-1.2,0.7-2.6,1.2-4,1.5c-0.5,0.1-0.9,0.2-1.4,0.4c-1.1,0.4-1.7,1.3-1.7,2.5c-0.1,1,0.3,1.9,1.2,2.5c1.1,0.7,2.3,1.1,3.5,1.4
		c1.8,0.5,3.6,0.9,5.2,1.6c2.1,0.9,3.8,2.1,4.6,4.3c0.5,1.3,0.5,2.7,0.5,4.1c-0.1,2.2-0.7,4.4-2.1,6.2c-1.7,2.2-4.1,3.3-6.8,3.8
		c-0.7,0.1-1.4,0.2-2.1,0.4L58.4,111.7L58.4,111.7z M55.6,72.8c0,3.2,1.3,4.7,4.3,5c1.9,0.2,3.5-0.5,4.2-2.3
		c0.7-1.9,0.7-3.8-0.1-5.6c-0.7-1.6-2-2.5-3.8-2.6c-1.9-0.1-3.1,0.9-4,2.5C55.8,70.7,55.6,71.7,55.6,72.8L55.6,72.8z M61.1,105
		c1.1,0,2.3,0,3.4-0.5c1.5-0.6,2.2-1.7,2.3-3.4c0-1.5-0.7-2.6-2.3-3.1c-2.4-0.8-4.9-0.8-7.3,0c-1.6,0.5-2.3,1.7-2.3,3.4
		c0,1.5,0.8,2.5,2.4,3.1C58.4,105,59.7,105.1,61.1,105L61.1,105z"/>
	<path class="st2" d="M93.5,75.9c0-3,0-5.1,0-7.3c0-0.5-0.2-0.6-0.6-0.7c-0.8-0.1-1.5,0-2.2,0.1c-0.5,0.1-0.7,0-0.6-0.5
		c0-2,0-4.1,0-6.1c0-0.5,0.2-0.7,0.7-0.6c0.7,0,1.3,0,2,0c0.9,0,0.9,0,0.9-0.9c0-1.5,0.1-3.1-0.1-4.6c-0.1-0.6,0.1-0.7,0.7-0.7
		c2.4,0,4.8,0,7.1,0c0.5,0,0.7,0.1,0.7,0.7c-0.2,1.6-0.2,3.3-0.2,4.9c0,0.5,0.3,0.6,0.7,0.6c2.1,0,4.1,0,6.2,0
		c0.6,0,0.9,0.2,0.9,0.8c0,1.9,0,3.8,0,5.7c0,0.6-0.2,0.8-0.8,0.8c-2-0.2-4.1-0.1-6.1-0.1c-0.5,0-0.7,0.1-0.7,0.7
		c0,4.2,0,8.5,0,12.7c0,1,0.1,2.1,0.4,3.1c0.5,1.4,1.6,2.1,3.1,2c1.2-0.1,2.4-0.3,3.5-1c0.4-0.3,0.5-0.1,0.5,0.3c0,2.1,0,4.3,0,6.4
		c0,0.5-0.2,0.7-0.6,0.8c-1.7,0.8-3.4,1.1-5.3,1.2c-1.3,0.1-2.6,0-3.8-0.3c-2.6-0.7-4.3-2.4-5.2-4.9c-0.6-1.7-0.8-3.5-0.9-5.3
		C93.4,80.9,93.5,78,93.5,75.9L93.5,75.9z"/>
	<path class="st2" d="M82.4,93.7c-1.1,0-2.2,0-3.4,0c-0.7,0-0.8-0.2-0.8-0.8c0.2-4,0.1-8.1,0.1-12.1c0-5.9,0-11.7,0-17.6
		c0-0.6-0.1-1.2-0.1-1.8c0-0.4,0.1-0.6,0.6-0.6c2.4,0,4.9,0,7.3,0c0.5,0,0.6,0.3,0.6,0.7c0,1.6-0.1,3.2-0.1,4.8c0,7.3,0,14.5,0,21.8
		c0,1.6,0.1,3.2,0.1,4.8c0,1,0,1-1,1C84.5,93.7,83.4,93.7,82.4,93.7L82.4,93.7z"/>
	<path class="st2" d="M77.2,49.5c0-1.6,0.5-2.9,1.6-4.1c2-2.1,5.1-2.1,7.1,0.1c1.6,1.7,2,3.8,1.2,6c-0.7,2-2.2,3.3-4.4,3.6
		c-2.3,0.3-4.8-1.5-5.4-4C77.3,50.5,77.2,50.1,77.2,49.5L77.2,49.5z"/>
</mask>
<path class="st5" d="M93.5,75.9c0-3,0-5.1,0-7.3c0-0.5-0.2-0.6-0.6-0.7c-0.8-0.1-1.5,0-2.2,0.1c-0.5,0.1-0.7,0-0.6-0.5
	c0-2,0-4.1,0-6.1c0-0.5,0.2-0.7,0.7-0.6c0.7,0,1.3,0,2,0c0.9,0,0.9,0,0.9-0.9c0-1.5,0.1-3.1-0.1-4.6c-0.1-0.6,0.1-0.7,0.7-0.7
	c2.4,0,4.8,0,7.1,0c0.5,0,0.7,0.1,0.7,0.7c-0.2,1.6-0.2,3.3-0.2,4.9c0,0.5,0.3,0.6,0.7,0.6c2.1,0,4.1,0,6.2,0c0.6,0,0.9,0.2,0.9,0.8
	c0,1.9,0,3.8,0,5.7c0,0.6-0.2,0.8-0.8,0.8c-2-0.2-4.1-0.1-6.1-0.1c-0.5,0-0.7,0.1-0.7,0.7c0,4.2,0,8.5,0,12.7c0,1,0.1,2.1,0.4,3.1
	c0.5,1.4,1.6,2.1,3.1,2c1.2-0.1,2.4-0.3,3.5-1c0.4-0.3,0.5-0.1,0.5,0.3c0,2.1,0,4.3,0,6.4c0,0.5-0.2,0.7-0.6,0.8
	c-1.7,0.8-3.4,1.1-5.3,1.2c-1.3,0.1-2.6,0-3.8-0.3c-2.6-0.7-4.3-2.4-5.2-4.9c-0.6-1.7-0.8-3.5-0.9-5.3C93.4,80.9,93.5,78,93.5,75.9
	L93.5,75.9z"/>
<defs>
	<filter id="Adobe_OpacityMaskFilter_2_" filterUnits="userSpaceOnUse" x="77.2" y="59.8" width="10.4" height="35">
		<feColorMatrix  type="matrix" values="1 0 0 0 0  0 1 0 0 0  0 0 1 0 0  0 0 0 1 0"/>
	</filter>
</defs>
<mask maskUnits="userSpaceOnUse" x="77.2" y="59.8" width="10.4" height="35" id="path-2-inside-1_47_337_3_">
	<path class="st6" d="M58.4,111.7c-1.7-0.3-3.4-0.5-5-1.1c-3.3-1.3-5.6-3.5-6.1-7.1c-0.7-4.7,1.2-8.1,5.7-9.9
		c0.3-0.1,0.5-0.2,0.9-0.4c-1.8-1.3-2.5-3-2.5-5c0-2,0.5-3.8,2.3-5c-0.2-0.3-0.5-0.3-0.8-0.5c-1.6-0.9-2.7-2.3-3.6-3.8
		c-2.9-5.1-2-11.3,2.1-15.2c3.5-3.3,9.2-4.3,13.8-2.2c1.4,0.7,2.8,0.7,4.2,0.4c1.6-0.3,3.2-0.7,4.7-1.3c0.5-0.2,0.7-0.1,0.7,0.5
		c0,2.2,0,4.3,0,6.5c0,0.4-0.1,0.7-0.5,0.8c-0.6,0.1-1.1,0.3-1.7,0.5C72,68.9,71.8,69,72,69.5c1.4,5.1-0.9,10.8-5.5,13.5
		c-1.2,0.7-2.6,1.2-4,1.5c-0.5,0.1-0.9,0.2-1.4,0.4c-1.1,0.4-1.7,1.3-1.7,2.5c-0.1,1,0.3,1.9,1.2,2.5c1.1,0.7,2.3,1.1,3.5,1.4
		c1.8,0.5,3.6,0.9,5.2,1.6c2.1,0.9,3.8,2.1,4.6,4.3c0.5,1.3,0.5,2.7,0.5,4.1c-0.1,2.2-0.7,4.4-2.1,6.2c-1.7,2.2-4.1,3.3-6.8,3.8
		c-0.7,0.1-1.4,0.2-2.1,0.4L58.4,111.7L58.4,111.7z M55.6,72.8c0,3.2,1.3,4.7,4.3,5c1.9,0.2,3.5-0.5,4.2-2.3
		c0.7-1.9,0.7-3.8-0.1-5.6c-0.7-1.6-2-2.5-3.8-2.6c-1.9-0.1-3.1,0.9-4,2.5C55.8,70.7,55.6,71.7,55.6,72.8L55.6,72.8z M61.1,105
		c1.1,0,2.3,0,3.4-0.5c1.5-0.6,2.2-1.7,2.3-3.4c0-1.5-0.7-2.6-2.3-3.1c-2.4-0.8-4.9-0.8-7.3,0c-1.6,0.5-2.3,1.7-2.3,3.4
		c0,1.5,0.8,2.5,2.4,3.1C58.4,105,59.7,105.1,61.1,105L61.1,105z"/>
	<path class="st2" d="M93.5,75.9c0-3,0-5.1,0-7.3c0-0.5-0.2-0.6-0.6-0.7c-0.8-0.1-1.5,0-2.2,0.1c-0.5,0.1-0.7,0-0.6-0.5
		c0-2,0-4.1,0-6.1c0-0.5,0.2-0.7,0.7-0.6c0.7,0,1.3,0,2,0c0.9,0,0.9,0,0.9-0.9c0-1.5,0.1-3.1-0.1-4.6c-0.1-0.6,0.1-0.7,0.7-0.7
		c2.4,0,4.8,0,7.1,0c0.5,0,0.7,0.1,0.7,0.7c-0.2,1.6-0.2,3.3-0.2,4.9c0,0.5,0.3,0.6,0.7,0.6c2.1,0,4.1,0,6.2,0
		c0.6,0,0.9,0.2,0.9,0.8c0,1.9,0,3.8,0,5.7c0,0.6-0.2,0.8-0.8,0.8c-2-0.2-4.1-0.1-6.1-0.1c-0.5,0-0.7,0.1-0.7,0.7
		c0,4.2,0,8.5,0,12.7c0,1,0.1,2.1,0.4,3.1c0.5,1.4,1.6,2.1,3.1,2c1.2-0.1,2.4-0.3,3.5-1c0.4-0.3,0.5-0.1,0.5,0.3c0,2.1,0,4.3,0,6.4
		c0,0.5-0.2,0.7-0.6,0.8c-1.7,0.8-3.4,1.1-5.3,1.2c-1.3,0.1-2.6,0-3.8-0.3c-2.6-0.7-4.3-2.4-5.2-4.9c-0.6-1.7-0.8-3.5-0.9-5.3
		C93.4,80.9,93.5,78,93.5,75.9L93.5,75.9z"/>
	<path class="st2" d="M82.4,93.7c-1.1,0-2.2,0-3.4,0c-0.7,0-0.8-0.2-0.8-0.8c0.2-4,0.1-8.1,0.1-12.1c0-5.9,0-11.7,0-17.6
		c0-0.6-0.1-1.2-0.1-1.8c0-0.4,0.1-0.6,0.6-0.6c2.4,0,4.9,0,7.3,0c0.5,0,0.6,0.3,0.6,0.7c0,1.6-0.1,3.2-0.1,4.8c0,7.3,0,14.5,0,21.8
		c0,1.6,0.1,3.2,0.1,4.8c0,1,0,1-1,1C84.5,93.7,83.4,93.7,82.4,93.7L82.4,93.7z"/>
	<path class="st2" d="M77.2,49.5c0-1.6,0.5-2.9,1.6-4.1c2-2.1,5.1-2.1,7.1,0.1c1.6,1.7,2,3.8,1.2,6c-0.7,2-2.2,3.3-4.4,3.6
		c-2.3,0.3-4.8-1.5-5.4-4C77.3,50.5,77.2,50.1,77.2,49.5L77.2,49.5z"/>
</mask>
<path class="st7" d="M82.4,93.7c-1.1,0-2.2,0-3.4,0c-0.7,0-0.8-0.2-0.8-0.8c0.2-4,0.1-8.1,0.1-12.1c0-5.9,0-11.7,0-17.6
	c0-0.6-0.1-1.2-0.1-1.8c0-0.4,0.1-0.6,0.6-0.6c2.4,0,4.9,0,7.3,0c0.5,0,0.6,0.3,0.6,0.7c0,1.6-0.1,3.2-0.1,4.8c0,7.3,0,14.5,0,21.8
	c0,1.6,0.1,3.2,0.1,4.8c0,1,0,1-1,1C84.5,93.7,83.4,93.7,82.4,93.7L82.4,93.7z"/>
<defs>
	<filter id="Adobe_OpacityMaskFilter_3_" filterUnits="userSpaceOnUse" x="76.2" y="42.9" width="12.3" height="13.2">
		<feColorMatrix  type="matrix" values="1 0 0 0 0  0 1 0 0 0  0 0 1 0 0  0 0 0 1 0"/>
	</filter>
</defs>
<mask maskUnits="userSpaceOnUse" x="76.2" y="42.9" width="12.3" height="13.2" id="path-2-inside-1_47_337_4_">
	<path class="st8" d="M58.4,111.7c-1.7-0.3-3.4-0.5-5-1.1c-3.3-1.3-5.6-3.5-6.1-7.1c-0.7-4.7,1.2-8.1,5.7-9.9
		c0.3-0.1,0.5-0.2,0.9-0.4c-1.8-1.3-2.5-3-2.5-5c0-2,0.5-3.8,2.3-5c-0.2-0.3-0.5-0.3-0.8-0.5c-1.6-0.9-2.7-2.3-3.6-3.8
		c-2.9-5.1-2-11.3,2.1-15.2c3.5-3.3,9.2-4.3,13.8-2.2c1.4,0.7,2.8,0.7,4.2,0.4c1.6-0.3,3.2-0.7,4.7-1.3c0.5-0.2,0.7-0.1,0.7,0.5
		c0,2.2,0,4.3,0,6.5c0,0.4-0.1,0.7-0.5,0.8c-0.6,0.1-1.1,0.3-1.7,0.5C72,68.9,71.8,69,72,69.5c1.4,5.1-0.9,10.8-5.5,13.5
		c-1.2,0.7-2.6,1.2-4,1.5c-0.5,0.1-0.9,0.2-1.4,0.4c-1.1,0.4-1.7,1.3-1.7,2.5c-0.1,1,0.3,1.9,1.2,2.5c1.1,0.7,2.3,1.1,3.5,1.4
		c1.8,0.5,3.6,0.9,5.2,1.6c2.1,0.9,3.8,2.1,4.6,4.3c0.5,1.3,0.5,2.7,0.5,4.1c-0.1,2.2-0.7,4.4-2.1,6.2c-1.7,2.2-4.1,3.3-6.8,3.8
		c-0.7,0.1-1.4,0.2-2.1,0.4L58.4,111.7L58.4,111.7z M55.6,72.8c0,3.2,1.3,4.7,4.3,5c1.9,0.2,3.5-0.5,4.2-2.3
		c0.7-1.9,0.7-3.8-0.1-5.6c-0.7-1.6-2-2.5-3.8-2.6c-1.9-0.1-3.1,0.9-4,2.5C55.8,70.7,55.6,71.7,55.6,72.8L55.6,72.8z M61.1,105
		c1.1,0,2.3,0,3.4-0.5c1.5-0.6,2.2-1.7,2.3-3.4c0-1.5-0.7-2.6-2.3-3.1c-2.4-0.8-4.9-0.8-7.3,0c-1.6,0.5-2.3,1.7-2.3,3.4
		c0,1.5,0.8,2.5,2.4,3.1C58.4,105,59.7,105.1,61.1,105L61.1,105z"/>
	<path class="st2" d="M93.5,75.9c0-3,0-5.1,0-7.3c0-0.5-0.2-0.6-0.6-0.7c-0.8-0.1-1.5,0-2.2,0.1c-0.5,0.1-0.7,0-0.6-0.5
		c0-2,0-4.1,0-6.1c0-0.5,0.2-0.7,0.7-0.6c0.7,0,1.3,0,2,0c0.9,0,0.9,0,0.9-0.9c0-1.5,0.1-3.1-0.1-4.6c-0.1-0.6,0.1-0.7,0.7-0.7
		c2.4,0,4.8,0,7.1,0c0.5,0,0.7,0.1,0.7,0.7c-0.2,1.6-0.2,3.3-0.2,4.9c0,0.5,0.3,0.6,0.7,0.6c2.1,0,4.1,0,6.2,0
		c0.6,0,0.9,0.2,0.9,0.8c0,1.9,0,3.8,0,5.7c0,0.6-0.2,0.8-0.8,0.8c-2-0.2-4.1-0.1-6.1-0.1c-0.5,0-0.7,0.1-0.7,0.7
		c0,4.2,0,8.5,0,12.7c0,1,0.1,2.1,0.4,3.1c0.5,1.4,1.6,2.1,3.1,2c1.2-0.1,2.4-0.3,3.5-1c0.4-0.3,0.5-0.1,0.5,0.3c0,2.1,0,4.3,0,6.4
		c0,0.5-0.2,0.7-0.6,0.8c-1.7,0.8-3.4,1.1-5.3,1.2c-1.3,0.1-2.6,0-3.8-0.3c-2.6-0.7-4.3-2.4-5.2-4.9c-0.6-1.7-0.8-3.5-0.9-5.3
		C93.4,80.9,93.5,78,93.5,75.9L93.5,75.9z"/>
	<path class="st2" d="M82.4,93.7c-1.1,0-2.2,0-3.4,0c-0.7,0-0.8-0.2-0.8-0.8c0.2-4,0.1-8.1,0.1-12.1c0-5.9,0-11.7,0-17.6
		c0-0.6-0.1-1.2-0.1-1.8c0-0.4,0.1-0.6,0.6-0.6c2.4,0,4.9,0,7.3,0c0.5,0,0.6,0.3,0.6,0.7c0,1.6-0.1,3.2-0.1,4.8c0,7.3,0,14.5,0,21.8
		c0,1.6,0.1,3.2,0.1,4.8c0,1,0,1-1,1C84.5,93.7,83.4,93.7,82.4,93.7L82.4,93.7z"/>
	<path class="st2" d="M77.2,49.5c0-1.6,0.5-2.9,1.6-4.1c2-2.1,5.1-2.1,7.1,0.1c1.6,1.7,2,3.8,1.2,6c-0.7,2-2.2,3.3-4.4,3.6
		c-2.3,0.3-4.8-1.5-5.4-4C77.3,50.5,77.2,50.1,77.2,49.5L77.2,49.5z"/>
</mask>
<path class="st9" d="M77.2,49.5c0-1.6,0.5-2.9,1.6-4.1c2-2.1,5.1-2.1,7.1,0.1c1.6,1.7,2,3.8,1.2,6c-0.7,2-2.2,3.3-4.4,3.6
	c-2.3,0.3-4.8-1.5-5.4-4C77.3,50.5,77.2,50.1,77.2,49.5L77.2,49.5z"/>
</svg>
