<svg width="200" height="200" viewBox="0 0 200 200" fill="none" xmlns="http://www.w3.org/2000/svg">
<rect width="199.296" height="199.296" fill="#111111"/>
<path d="M119.283 142.144C107.922 142.244 96.5645 142.34 85.2035 142.44C85.2035 142.368 85.1963 142.297 85.1927 142.226C85.595 142.112 86.0045 142.019 86.3996 141.884C87.3838 141.552 87.9225 140.871 87.9225 139.827C87.9225 136.88 87.8974 133.929 87.9153 130.981C87.9189 130.122 87.4089 130.332 86.9276 130.414C83.7416 130.953 80.5557 131.092 77.4056 130.222C73.2427 129.067 70.222 126.583 68.5626 122.57C67.1258 119.095 65.1 116.098 61.7812 114.109C61.246 113.788 60.7539 113.389 60.366 112.89C59.7302 112.07 59.9278 111.414 60.9192 111.086C62.1296 110.687 63.3329 110.833 64.5253 111.168C67.6502 112.042 69.8915 114.048 71.5905 116.7C72.923 118.785 74.4891 120.61 76.795 121.668C80.4084 123.329 83.9895 122.855 87.5562 121.479C88.0015 121.308 88.0734 120.952 88.1452 120.549C88.5403 118.382 89.388 116.415 90.8211 114.711C90.9971 114.501 91.3743 114.294 91.2162 113.988C91.0833 113.735 90.699 113.756 90.4045 113.72C87.4484 113.36 84.5498 112.758 81.7266 111.799C72.6321 108.713 67.6071 102.287 66.1093 93.0094C65.4844 89.1495 65.2006 85.2718 66.0375 81.3905C66.8241 77.7552 68.4404 74.5368 70.8865 71.7319C71.3067 71.2507 71.4001 70.8551 71.1918 70.2421C69.6329 65.6872 70.1825 61.2108 71.7701 56.777C72.0107 56.107 72.5172 56.0108 73.099 56.0036C75.2865 55.9716 77.3338 56.5846 79.3488 57.3437C82.0786 58.3702 84.6145 59.7744 87.0497 61.3569C87.646 61.7418 88.1811 61.8452 88.8887 61.667C97.66 59.4715 106.453 59.4572 115.238 61.5707C116.176 61.7953 116.887 61.7204 117.717 61.1894C121.089 59.0367 124.602 57.1655 128.575 56.3173C129.512 56.1177 130.453 55.9751 131.42 56.0036C132.098 56.025 132.497 56.303 132.727 56.9624C134.225 61.2072 134.699 65.5055 133.409 69.8857C133.162 70.7304 133.287 71.3185 133.873 72.0099C137.163 75.8876 138.804 80.4069 138.912 85.4607C139.009 90.1154 138.478 94.6845 136.735 99.0505C133.97 105.983 128.639 110.014 121.625 112.12C119.06 112.89 116.431 113.36 113.78 113.706C113.561 113.735 113.274 113.642 113.166 113.909C113.08 114.119 113.299 114.255 113.425 114.397C115.633 116.928 116.47 119.965 116.517 123.211C116.589 128.094 116.531 132.977 116.524 137.86C116.522 139.889 117.438 141.32 119.272 142.154L119.283 142.144Z" fill="#A3A3A3"/>
</svg>
