<svg width="200" height="200" viewBox="0 0 200 200" fill="none" xmlns="http://www.w3.org/2000/svg">
<rect width="199.296" height="199.296" fill="#111111"/>
<path d="M74.3783 142.318C72.2117 141.996 70.0487 141.665 67.993 140.862C63.8064 139.224 60.8712 136.462 60.1812 131.856C59.2767 125.815 61.7686 121.558 67.4317 119.231C67.7678 119.092 68.1038 118.96 68.6222 118.75C66.377 117.133 65.4189 114.942 65.4046 112.348C65.3902 109.808 66.0517 107.521 68.2826 105.947C68.0144 105.576 67.5926 105.533 67.2637 105.348C65.2329 104.202 63.8458 102.468 62.7124 100.495C59.0085 94.0436 60.1097 86.0865 65.3974 81.1125C69.895 76.8842 77.1383 75.6425 82.9337 78.3364C84.757 79.1857 86.4696 79.1892 88.318 78.8895C90.3808 78.5577 92.3722 77.976 94.3171 77.2303C94.9821 76.9734 95.2145 77.0697 95.2074 77.8226C95.1788 80.5701 95.1859 83.3212 95.2074 86.0723C95.2109 86.6039 95.05 86.9108 94.5137 87.0428C93.7773 87.2212 93.0622 87.4853 92.3222 87.6494C91.7537 87.7779 91.5535 87.9384 91.7358 88.6021C93.5163 95.0855 90.5417 102.347 84.7463 105.751C83.159 106.686 81.4464 107.296 79.6481 107.688C79.0475 107.82 78.4469 107.988 77.8713 108.206C76.4162 108.755 75.7511 109.897 75.651 111.389C75.5652 112.72 76.0658 113.801 77.1812 114.568C78.5505 115.51 80.1236 115.942 81.6967 116.37C83.9455 116.98 86.2229 117.501 88.3823 118.4C91.0136 119.496 93.173 121.098 94.242 123.867C94.8963 125.558 94.9428 127.324 94.8284 129.094C94.646 131.938 93.9811 134.639 92.2006 136.955C90.0054 139.813 86.9487 141.165 83.5272 141.861C82.6227 142.043 81.7038 142.171 80.7922 142.321H74.3819L74.3783 142.318ZM70.871 92.7269C70.8639 96.8018 72.4691 98.7715 76.3053 99.0926C78.7758 99.2995 80.7779 98.436 81.6502 96.1631C82.5583 93.7974 82.5762 91.3675 81.5215 89.0374C80.6063 87.0214 79.0224 85.8261 76.7272 85.7654C74.3604 85.7012 72.7194 86.8537 71.6683 88.8983C71.0534 90.0936 70.8424 91.3924 70.8746 92.7305L70.871 92.7269ZM77.8176 133.865C79.2763 133.925 80.76 133.818 82.1686 133.254C84.1171 132.477 85.0359 131.081 85.0502 128.948C85.061 127.024 84.1564 125.633 82.1508 124.962C79.0582 123.927 75.8977 123.895 72.8016 124.941C70.7745 125.626 69.8378 127.142 69.8628 129.272C69.8843 131.142 70.8817 132.441 72.8838 133.179C74.4641 133.765 76.1087 133.904 77.8176 133.861V133.865Z" fill="#A3A3A3"/>
<path d="M119.1 96.7021C119.1 92.902 119.075 90.1509 119.118 87.4034C119.129 86.7718 118.914 86.5934 118.335 86.5149C117.366 86.3829 116.426 86.5649 115.486 86.6791C114.892 86.7504 114.656 86.6184 114.66 86.0047C114.674 83.4249 114.678 80.8415 114.66 78.2617C114.656 77.6373 114.914 77.4161 115.518 77.4339C116.362 77.4624 117.206 77.441 118.049 77.441C119.225 77.441 119.243 77.441 119.225 76.3064C119.197 74.3438 119.354 72.3778 119.057 70.426C118.95 69.723 119.193 69.5018 119.908 69.5125C122.944 69.5482 125.979 69.5375 129.014 69.5197C129.694 69.5161 129.937 69.6731 129.858 70.4402C129.647 72.5312 129.586 74.6364 129.611 76.7417C129.619 77.3982 129.962 77.4517 130.469 77.4517C133.083 77.441 135.696 77.4696 138.31 77.4339C139.086 77.4232 139.418 77.6266 139.4 78.4651C139.357 80.9057 139.361 83.3464 139.4 85.787C139.411 86.5578 139.157 86.8539 138.378 86.7861C135.771 86.5578 133.154 86.6612 130.545 86.6077C129.862 86.5934 129.611 86.7968 129.615 87.5105C129.64 92.9234 129.608 98.3399 129.644 103.753C129.654 105.091 129.726 106.447 130.208 107.731C130.884 109.526 132.311 110.443 134.22 110.251C135.793 110.09 137.341 109.805 138.721 108.973C139.279 108.638 139.393 108.88 139.393 109.405C139.386 112.127 139.375 114.846 139.4 117.569C139.404 118.161 139.086 118.411 138.621 118.622C136.49 119.585 134.231 119.988 131.917 120.124C130.287 120.22 128.657 120.149 127.062 119.745C123.702 118.896 121.553 116.734 120.409 113.53C119.629 111.346 119.34 109.066 119.229 106.761C119.054 103.061 119.122 99.3568 119.111 96.7093L119.1 96.7021Z" fill="#A3A3A3"/>
<path d="M104.971 119.474C103.537 119.474 102.104 119.431 100.67 119.488C99.83 119.524 99.6083 119.207 99.6512 118.414C99.9373 113.258 99.8121 108.095 99.8264 102.936C99.8514 95.4746 99.8086 88.0099 99.7871 80.5488C99.7871 79.7638 99.712 78.9824 99.6584 78.1974C99.6226 77.6764 99.8121 77.4231 100.373 77.4267C103.466 77.4409 106.559 77.4445 109.651 77.4267C110.302 77.4231 110.373 77.7692 110.359 78.283C110.298 80.3276 110.209 82.3757 110.205 84.4203C110.191 93.6797 110.191 102.936 110.205 112.195C110.209 114.215 110.305 116.231 110.348 118.25C110.373 119.471 110.363 119.474 109.097 119.474C107.72 119.474 106.34 119.474 104.964 119.474H104.971Z" fill="#A3A3A3"/>
<path d="M98.4393 63.1361C98.4321 61.138 99.1007 59.4003 100.509 57.9694C103.116 55.3218 107.052 55.3325 109.569 58.0693C111.582 60.2638 112.104 62.8614 111.11 65.6589C110.191 68.2494 108.339 69.8265 105.557 70.2047C102.629 70.6044 99.4761 68.2458 98.6467 65.0523C98.4822 64.4207 98.4178 63.7856 98.4393 63.1326V63.1361Z" fill="#A3A3A3"/>
</svg>
