<svg width="200" height="200" viewBox="0 0 200 200" fill="none" xmlns="http://www.w3.org/2000/svg">
<rect width="199.296" height="199.296" fill="#111111"/>
<path d="M138.609 53C140.375 53.831 140.836 55.2587 140.639 57.0948C140.354 59.7975 140.165 62.5108 139.954 65.2205C139.554 70.3381 139.18 75.4558 138.776 80.5698C138.32 86.3871 137.834 92.2008 137.374 98.0181C136.971 103.136 136.603 108.253 136.2 113.367C135.675 120.065 135.122 126.763 134.601 133.465C134.455 135.358 133.813 136.285 132.043 136.842C121.594 140.145 111.142 143.437 100.693 146.74C99.7796 147.028 98.8946 147.028 97.9811 146.74C87.5324 143.437 77.0802 140.149 66.6315 136.846C64.8901 136.296 64.2049 135.369 64.08 133.557C63.9551 131.76 63.8124 129.963 63.6696 128.166C63.1986 122.289 62.7168 116.415 62.2565 110.537C61.8568 105.451 61.4928 100.362 61.0896 95.2764C60.565 88.6387 60.019 82.0011 59.4909 75.3634C59.002 69.2443 58.5524 63.1181 58.0278 57.0025C57.8708 55.1877 58.3561 53.8133 60.069 53H138.609ZM99.3657 70.2849C91.0403 70.2849 82.7149 70.2849 74.3895 70.2849C73.244 70.2849 73.1334 70.3666 73.2119 71.4853C73.451 74.9302 73.7222 78.3715 73.9898 81.8128C74.4644 87.9036 74.9533 93.9943 75.4244 100.085C75.5314 101.463 75.5992 101.559 77.0159 101.559C88.5066 101.559 99.9973 101.559 111.484 101.559C112.694 101.559 112.733 101.566 112.655 102.784C112.419 106.442 112.137 110.097 111.898 113.758C111.852 114.458 111.431 114.674 110.853 114.827C107.413 115.743 103.969 116.663 100.536 117.601C99.9224 117.768 99.3407 117.764 98.7304 117.597C95.2939 116.663 91.8575 115.733 88.4067 114.845C87.643 114.649 87.354 114.262 87.3647 113.499C87.3932 111.574 87.3469 109.645 87.379 107.721C87.3932 106.847 87.04 106.531 86.1764 106.538C83.136 106.566 80.092 106.538 77.0516 106.552C76.0667 106.556 75.9489 106.733 76.031 107.71C76.2094 109.809 76.3665 111.911 76.5271 114.014C76.7269 116.571 76.9267 119.131 77.1194 121.688C77.173 122.416 77.4013 122.899 78.2114 123.152C85.013 125.265 91.8003 127.42 98.5913 129.573C99.0409 129.715 99.4727 129.768 99.9402 129.619C106.845 127.428 113.754 125.243 120.666 123.07C121.173 122.91 121.448 122.633 121.491 122.107C121.587 120.921 121.694 119.735 121.787 118.545C122.136 114.159 122.49 109.777 122.836 105.391C123.164 101.218 123.503 97.045 123.803 92.872C123.906 91.4337 123.849 91.4124 122.436 91.4124C118.564 91.4124 114.692 91.4124 110.824 91.4124C103.052 91.4124 95.2797 91.4124 87.5074 91.4124C86.1335 91.4124 86.0978 91.4124 85.9337 90.0273C85.584 87.0832 85.2878 84.1355 84.9452 81.1913C84.8631 80.474 85.1379 80.1579 85.8481 80.1756C86.2156 80.1863 86.5867 80.1685 86.9543 80.1685C98.9053 80.1685 110.856 80.1685 122.807 80.1685C123.146 80.1685 123.485 80.1508 123.821 80.1685C124.563 80.2005 124.859 79.8205 124.909 79.1173C125.084 76.6491 125.302 74.1843 125.466 71.7161C125.559 70.3204 125.491 70.2778 124.071 70.2778C115.838 70.2778 107.602 70.2778 99.3692 70.2778L99.3657 70.2849Z" fill="#A3A3A3"/>
</svg>
