<?xml version="1.0" encoding="utf-8"?>
<!-- Generator: Adobe Illustrator 25.2.1, SVG Export Plug-In . SVG Version: 6.00 Build 0)  -->
<svg version="1.1" id="Camada_1" xmlns="http://www.w3.org/2000/svg" xmlns:xlink="http://www.w3.org/1999/xlink" x="0px" y="0px"
	 viewBox="0 0 157 157" style="enable-background:new 0 0 157 157;" xml:space="preserve">
<style type="text/css">
	.st0{fill:#A3A3A3;}
</style>
<path class="st0" d="M70.9,66.6c1.2,4.4,2.6,8.7,4,13H67c0-0.1,0-0.1,0-0.2c0.9-2.5,1.6-5.1,2.4-7.7c0.5-1.6,1-3.3,1.4-4.9
	C70.8,66.8,70.8,66.7,70.9,66.6z"/>
<path class="st0" d="M115.7,55c-0.1-0.1,0-0.2,0-0.3v-0.1v-0.5c0-0.5,0-1-0.1-1.4c-0.6-2.8-2-5.3-4.2-7.2c-2.2-2-4.7-3.1-7.7-3.4
	h-0.9c-0.1,0-0.2,0-0.4,0h-49c-0.1,0.1-0.2,0-0.4,0h-0.9c-1.1,0-2.2,0.3-3.2,0.7c-1.9,0.7-3.6,1.8-5,3.2c-1.2,1.2-2.1,2.6-2.8,4.2
	c-0.5,1.2-0.9,2.5-1,3.8v0.3c0,0.3,0,0.5-0.1,0.7v47.5c0.1,0.2,0.1,0.3,0.1,0.5v0.1c0,0.1,0,0.1,0,0.2v0.5c0,0.1,0,0.2,0,0.3
	c0.2,1.9,0.9,3.7,1.9,5.4c1.3,2,2.9,3.5,5,4.6c1.5,0.8,3.1,1.4,4.8,1.5h0.8c0.1,0,0.2,0,0.4,0h49.6c0.1-0.1,0.2,0,0.4,0h0.8
	c0.4,0,0.7,0,1.1-0.1c4.3-1,7.4-3.4,9.4-7.4c0.7-1.4,1.2-2.9,1.2-4.4v-0.9c0-0.1,0-0.2,0-0.3V55H115.7z M86.5,93.9
	c-0.1,0-0.2,0-0.3,0c-1,0-2.1,0-3.1,0h-2.9c-0.7,0-0.7,0-0.9-0.6c-0.8-2.3-1.6-4.6-2.4-6.8c-0.1-0.4,0-0.3-0.5-0.3
	c-3.6,0-7.3,0-10.9,0c-0.4,0-0.4,0-0.5,0.4c-0.7,2.3-1.5,4.6-2.2,6.9v0.1c-0.1,0.4-0.3,0.5-0.7,0.5c-1.9,0-3.8,0-5.7,0
	c-0.5,0-0.6-0.2-0.5-0.6c0.2-0.6,0.4-1.1,0.6-1.7c2.7-7.9,5.5-15.8,8.2-23.7c0.5-1.4,1-2.8,1.5-4.2c0.2-0.7,0.3-1.5,0.3-2.2
	c0-0.1,0-0.2,0-0.3c0-0.2,0.1-0.3,0.3-0.3c0.1,0,0.2,0,0.3,0c2.5,0,5.1,0,7.6,0c0.1,0,0.1,0,0.2,0c0.3,0,0.4,0,0.5,0.4
	c0.3,0.8,0.6,1.7,0.9,2.5c3.5,9.8,6.9,19.6,10.4,29.4c0.1,0.1,0.1,0.3,0.1,0.4C86.8,93.7,86.7,93.8,86.5,93.9z M97.3,93.3
	c0,0.1,0,0.1,0,0.2c0,0.4-0.1,0.5-0.5,0.5c-2,0-3.9,0-5.9,0c-0.4,0-0.6-0.1-0.6-0.6c0-0.6,0-1.2,0-1.8v-22c0-0.7,0-0.7,0.7-0.7h5.6
	c0.1,0,0.2,0,0.3,0c0.3,0,0.4,0.1,0.4,0.4c0,0.1,0,0.2,0,0.3C97.3,77.5,97.3,85.4,97.3,93.3z M97.3,64.1c-0.7,1.5-1.9,2.1-3.8,2.1
	c-0.3,0-0.8-0.1-1.3-0.3c-1.5-0.6-2.2-1.8-2.4-3.3c-0.1-1,0.1-1.9,0.7-2.7c0.9-1.2,2.1-1.7,3.5-1.6c0.3,0,0.6,0.1,1,0.1
	c1.1,0.3,1.8,0.9,2.3,2C97.9,61.7,97.9,62.9,97.3,64.1z"/>
<path class="st0" d="M52.4,42.1c-0.9,0.2-1.7,0.3-2.5,0.5c-4.8,1.4-8.4,5.5-9.3,10.4c-0.1,0.3-0.1,0.6-0.1,0.9c0,0.1,0,0.1,0,0.2
	c0,0,0,0-0.1,0c0,0,0,0,0.1,0c0-0.1,0-0.1,0-0.2v-0.1c0.1-1.3,0.5-2.6,1-3.8c0.7-1.6,1.6-3,2.8-4.2c1.4-1.4,3.1-2.5,5-3.2
	C50.2,42.4,51.2,42.1,52.4,42.1C52.3,42.1,52.3,42,52.4,42.1z"/>
<path class="st0" d="M52.1,115.6c-1.8-0.1-3.4-0.7-4.9-1.5c-2.1-1.1-3.7-2.7-5-4.6c-1-1.7-1.7-3.4-1.9-5.4c0-0.1,0-0.2,0-0.3v-0.1
	c0-0.1,0-0.1-0.1-0.1h0.1c0.1,0.1,0,0.2,0.1,0.3c0.3,2.7,1.3,5,3.1,7.1c2.1,2.5,4.8,4,8,4.6C51.7,115.5,51.9,115.5,52.1,115.6z"/>
<path class="st0" d="M115.7,54.1c-0.3-2.9-1.4-5.4-3.3-7.5c-2-2.3-4.6-3.7-7.6-4.3c-0.4-0.1-0.7-0.1-1.1-0.2c3,0.2,5.5,1.4,7.7,3.4
	c2.2,2,3.5,4.4,4.2,7.2C115.7,53.1,115.7,53.6,115.7,54.1z"/>
<path class="st0" d="M115.7,103.6c0,1.6-0.5,3.1-1.2,4.5c-2,3.9-5.1,6.4-9.4,7.4c-0.4,0.1-0.7,0.1-1.1,0.1c1.1-0.2,2.3-0.4,3.4-0.9
	c4.4-1.9,7.2-5.2,8.1-10C115.6,104.3,115.6,103.9,115.7,103.6z"/>
<path class="st0" d="M40.3,102.4c0.2,0.3,0.1,0.6,0.1,1c-0.1,0-0.1-0.1-0.1-0.1c0-0.1,0-0.1,0-0.2s0-0.2,0-0.3
	C40.3,102.7,40.3,102.5,40.3,102.4z"/>
<path class="st0" d="M40.4,54.2c0,0.3,0,0.5-0.1,0.8c0-0.1,0-0.2,0-0.4c0.1-0.1,0-0.1,0-0.2C40.3,54.3,40.3,54.2,40.4,54.2
	C40.4,54.1,40.4,54.1,40.4,54.2z"/>
<path class="st0" d="M40.4,103.8l-0.1-0.1c0-0.1,0-0.1-0.1-0.1v-0.3c0,0.1,0,0.1,0.1,0.2C40.4,103.5,40.4,103.7,40.4,103.8z"/>
<path class="st0" d="M102.9,115.6c0.1-0.1,0.2-0.1,0.4-0.1C103.1,115.6,103,115.6,102.9,115.6z"/>
<path class="st0" d="M102.9,42.1c-0.1,0-0.3,0-0.4-0.1C102.6,42,102.8,42,102.9,42.1z"/>
<path class="st0" d="M52.9,115.5c0.1,0,0.3,0,0.4,0.1C53.1,115.6,53,115.6,52.9,115.5z"/>
<path class="st0" d="M53.6,42c-0.1,0.1-0.2,0.1-0.4,0.1C53.3,42,53.4,42,53.6,42z"/>
<path class="st0" d="M52.9,115.5c-0.1,0.1-0.2,0.1-0.3,0.1C52.7,115.5,52.8,115.5,52.9,115.5z"/>
<path class="st0" d="M104,115.5h-0.3C103.8,115.5,103.9,115.5,104,115.5z"/>
<path class="st0" d="M53.2,42c-0.1,0.1-0.2,0.1-0.3,0.1C53,42,53.1,42,53.2,42z"/>
<path class="st0" d="M102.9,42.1c0.1-0.1,0.2-0.1,0.3-0.1C103.1,42.1,103,42.1,102.9,42.1z"/>
<path class="st0" d="M40.4,54.2c0,0.1,0,0.2,0,0.3V54.2z"/>
<path class="st0" d="M115.7,55c-0.1-0.1-0.1-0.2-0.1-0.3c0,0,0,0,0.1,0C115.7,54.8,115.7,54.9,115.7,55z"/>
<path class="st0" d="M40.3,102.8c0.1,0.1,0.1,0.2,0.1,0.3c0,0,0,0-0.1,0C40.3,103,40.3,102.9,40.3,102.8z"/>
<path class="st0" d="M52.6,42.1c-0.1,0-0.2,0-0.2,0H52.6z"/>
<path class="st0" d="M52.5,42.1C52.6,42.1,52.6,42,52.5,42.1c0.1-0.1,0.1-0.1,0.2-0.1C52.7,42.1,52.6,42.1,52.5,42.1z"/>
<path class="st0" d="M115.7,103.1c0-0.1,0-0.1,0-0.2c0,0,0,0,0.1,0C115.7,102.9,115.7,103,115.7,103.1z"/>
<path class="st0" d="M115.7,103.4c0-0.1,0-0.1,0-0.2c0,0,0,0,0.1,0C115.7,103.3,115.7,103.4,115.7,103.4
	C115.7,103.5,115.7,103.5,115.7,103.4z"/>
<path class="st0" d="M103.7,42.1c-0.1,0-0.1,0-0.2,0H103.7z"/>
<path class="st0" d="M103.5,42c-0.1,0.1-0.1,0.1-0.2,0.1C103.4,42,103.4,42,103.5,42z"/>
<path class="st0" d="M52.4,115.6h-0.2C52.2,115.5,52.3,115.5,52.4,115.6C52.4,115.5,52.3,115.5,52.4,115.6
	C52.4,115.5,52.4,115.5,52.4,115.6z"/>
<path class="st0" d="M103.2,115.6c0.1-0.1,0.1-0.1,0.2-0.1C103.4,115.6,103.3,115.6,103.2,115.6z"/>
<path class="st0" d="M115.7,54.7c-0.1-0.1-0.1-0.1-0.1-0.1s0,0,0.1,0V54.7z"/>
<path class="st0" d="M115.7,102.9C115.6,102.9,115.6,102.8,115.7,102.9C115.6,102.8,115.6,102.8,115.7,102.9
	C115.7,102.8,115.7,102.8,115.7,102.9z"/>
<path class="st0" d="M40.3,54.5C40.3,54.4,40.3,54.4,40.3,54.5C40.4,54.6,40.4,54.6,40.3,54.5C40.3,54.5,40.3,54.5,40.3,54.5z"/>
<path class="st0" d="M40.3,103.1c0.1,0,0.1,0.1,0.1,0.1S40.4,103.2,40.3,103.1L40.3,103.1z"/>
<path class="st0" d="M115.7,103.2C115.6,103.2,115.6,103.1,115.7,103.2C115.6,103.1,115.6,103.1,115.7,103.2L115.7,103.2z"/>
<path class="st0" d="M115.7,54.6C115.6,54.5,115.6,54.5,115.7,54.6C115.6,54.5,115.6,54.5,115.7,54.6
	C115.7,54.5,115.7,54.5,115.7,54.6z"/>
<path class="st0" d="M52.3,115.6c0-0.1,0.1-0.1,0.1-0.1C52.4,115.6,52.4,115.6,52.3,115.6z"/>
<path class="st0" d="M52.5,115.6C52.5,115.5,52.6,115.5,52.5,115.6C52.6,115.5,52.6,115.5,52.5,115.6L52.5,115.6z"/>
<path class="st0" d="M115.7,54.5C115.6,54.4,115.6,54.4,115.7,54.5C115.6,54.4,115.6,54.4,115.7,54.5
	C115.7,54.4,115.7,54.4,115.7,54.5z"/>
<path class="st0" d="M103.3,42c0,0.1-0.1,0.1-0.1,0.1s0,0,0-0.1H103.3z"/>
<path class="st0" d="M52.8,42.1c0.1-0.1,0.1-0.1,0.1-0.1s0,0,0,0.1H52.8z"/>
<path class="st0" d="M103.4,115.6C103.5,115.5,103.5,115.5,103.4,115.6C103.5,115.6,103.5,115.6,103.4,115.6z"/>
<path class="st0" d="M103.6,115.6C103.7,115.5,103.7,115.5,103.6,115.6C103.7,115.5,103.7,115.5,103.6,115.6L103.6,115.6z"/>
<path class="st0" d="M115.7,103.4L115.7,103.4C115.7,103.5,115.7,103.5,115.7,103.4z"/>
<path class="st0" d="M74.9,79.6H67c0-0.1,0-0.1,0-0.2c0.9-2.5,1.6-5.1,2.4-7.7c0.5-1.6,1-3.3,1.4-4.9c0-0.1,0-0.1,0.1-0.2H71
	C72.1,71,73.5,75.3,74.9,79.6z"/>
<path class="st0" d="M40.4,54.2C40.3,54.2,40.3,54.2,40.4,54.2c-0.1-0.1-0.1-0.1-0.1-0.2c0,0,0-0.1,0.1-0.1
	C40.4,54,40.4,54.1,40.4,54.2z"/>
<path class="st0" d="M74.9,79.6H67c0-0.1,0-0.1,0-0.2c0.9-2.5,1.6-5.1,2.4-7.7c0.5-1.6,1-3.3,1.4-4.9c0-0.1,0-0.1,0.1-0.2H71
	C72.1,71,73.5,75.3,74.9,79.6z"/>
</svg>
