<svg width="157" height="157" viewBox="0 0 157 157" fill="none" xmlns="http://www.w3.org/2000/svg">
<path d="M0 0H156.383V156.383H0V0Z" fill="#111111"/>
<path d="M70.9 66.6C72.1 71 73.5 75.3 74.9 79.6H67C67 79.5 67 79.5 67 79.4C67.9 76.9 68.6 74.3 69.4 71.7C69.9 70.1 70.4 68.4 70.8 66.8C70.8 66.8 70.8 66.7 70.9 66.6Z" fill="#A3A3A3"/>
<path d="M115.7 55C115.6 54.9 115.7 54.8 115.7 54.7V54.6V54.1C115.7 53.6 115.7 53.1 115.6 52.7C115 49.9 113.6 47.4 111.4 45.5C109.2 43.5 106.7 42.4 103.7 42.1H102.8C102.7 42.1 102.6 42.1 102.4 42.1H53.4C53.3 42.2 53.2 42.1 53 42.1H52.1C51 42.1 49.9 42.4 48.9 42.8C47 43.5 45.3 44.6 43.9 46C42.7 47.2 41.8 48.6 41.1 50.2C40.6 51.4 40.2 52.7 40.1 54V54.3C40.1 54.6 40.1 54.8 40 55V102.5C40.1 102.7 40.1 102.8 40.1 103V103.1C40.1 103.2 40.1 103.2 40.1 103.3V103.8C40.1 103.9 40.1 104 40.1 104.1C40.3 106 41 107.8 42 109.5C43.3 111.5 44.9 113 47 114.1C48.5 114.9 50.1 115.5 51.8 115.6H52.6C52.7 115.6 52.8 115.6 53 115.6H102.6C102.7 115.5 102.8 115.6 103 115.6H103.8C104.2 115.6 104.5 115.6 104.9 115.5C109.2 114.5 112.3 112.1 114.3 108.1C115 106.7 115.5 105.2 115.5 103.7V102.8C115.5 102.7 115.5 102.6 115.5 102.5V55H115.7ZM86.5 93.9C86.4 93.9 86.3 93.9 86.2 93.9C85.2 93.9 84.1 93.9 83.1 93.9H80.2C79.5 93.9 79.5 93.9 79.3 93.3C78.5 91 77.7 88.7 76.9 86.5C76.8 86.1 76.9 86.2 76.4 86.2C72.8 86.2 69.1 86.2 65.5 86.2C65.1 86.2 65.1 86.2 65 86.6C64.3 88.9 63.5 91.2 62.8 93.5V93.6C62.7 94 62.5 94.1 62.1 94.1C60.2 94.1 58.3 94.1 56.4 94.1C55.9 94.1 55.8 93.9 55.9 93.5C56.1 92.9 56.3 92.4 56.5 91.8C59.2 83.9 62 76 64.7 68.1C65.2 66.7 65.7 65.3 66.2 63.9C66.4 63.2 66.5 62.4 66.5 61.7C66.5 61.6 66.5 61.5 66.5 61.4C66.5 61.2 66.6 61.1 66.8 61.1C66.9 61.1 67 61.1 67.1 61.1C69.6 61.1 72.2 61.1 74.7 61.1C74.8 61.1 74.8 61.1 74.9 61.1C75.2 61.1 75.3 61.1 75.4 61.5C75.7 62.3 76 63.2 76.3 64C79.8 73.8 83.2 83.6 86.7 93.4C86.8 93.5 86.8 93.7 86.8 93.8C86.8 93.7 86.7 93.8 86.5 93.9ZM97.3 93.3C97.3 93.4 97.3 93.4 97.3 93.5C97.3 93.9 97.2 94 96.8 94C94.8 94 92.9 94 90.9 94C90.5 94 90.3 93.9 90.3 93.4C90.3 92.8 90.3 92.2 90.3 91.6V69.6C90.3 68.9 90.3 68.9 91 68.9H96.6C96.7 68.9 96.8 68.9 96.9 68.9C97.2 68.9 97.3 69 97.3 69.3C97.3 69.4 97.3 69.5 97.3 69.6C97.3 77.5 97.3 85.4 97.3 93.3ZM97.3 64.1C96.6 65.6 95.4 66.2 93.5 66.2C93.2 66.2 92.7 66.1 92.2 65.9C90.7 65.3 90 64.1 89.8 62.6C89.7 61.6 89.9 60.7 90.5 59.9C91.4 58.7 92.6 58.2 94 58.3C94.3 58.3 94.6 58.4 95 58.4C96.1 58.7 96.8 59.3 97.3 60.4C97.9 61.7 97.9 62.9 97.3 64.1Z" fill="#A3A3A3"/>
<path d="M52.4 42.1C51.5 42.3 50.7 42.4 49.9 42.6C45.1 44 41.5 48.1 40.6 53C40.5 53.3 40.5 53.6 40.5 53.9C40.5 54 40.5 54 40.5 54.1C40.5 54.1 40.5 54.1 40.4 54.1C40.4 54.1 40.4 54.1 40.5 54.1C40.5 54 40.5 54 40.5 53.9V53.8C40.6 52.5 41 51.2 41.5 50C42.2 48.4 43.1 47 44.3 45.8C45.7 44.4 47.4 43.3 49.3 42.6C50.2 42.4 51.2 42.1 52.4 42.1C52.3 42.1 52.3 42 52.4 42.1Z" fill="#A3A3A3"/>
<path d="M52.1 115.6C50.3 115.5 48.7 114.9 47.2 114.1C45.1 113 43.5 111.4 42.2 109.5C41.2 107.8 40.5 106.1 40.3 104.1C40.3 104 40.3 103.9 40.3 103.8V103.7C40.3 103.6 40.3 103.6 40.2 103.6H40.3C40.4 103.7 40.3 103.8 40.4 103.9C40.7 106.6 41.7 108.9 43.5 111C45.6 113.5 48.3 115 51.5 115.6C51.7 115.5 51.9 115.5 52.1 115.6Z" fill="#A3A3A3"/>
<path d="M115.7 54.1C115.4 51.2 114.3 48.7 112.4 46.6C110.4 44.3 107.8 42.9 104.8 42.3C104.4 42.2 104.1 42.2 103.7 42.1C106.7 42.3 109.2 43.5 111.4 45.5C113.6 47.5 114.9 49.9 115.6 52.7C115.7 53.1 115.7 53.6 115.7 54.1Z" fill="#A3A3A3"/>
<path d="M115.7 103.6C115.7 105.2 115.2 106.7 114.5 108.1C112.5 112 109.4 114.5 105.1 115.5C104.7 115.6 104.4 115.6 104 115.6C105.1 115.4 106.3 115.2 107.4 114.7C111.8 112.8 114.6 109.5 115.5 104.7C115.6 104.3 115.6 103.9 115.7 103.6Z" fill="#A3A3A3"/>
<path d="M40.3 102.4C40.5 102.7 40.4 103 40.4 103.4C40.3 103.4 40.3 103.3 40.3 103.3C40.3 103.2 40.3 103.2 40.3 103.1C40.3 103 40.3 102.9 40.3 102.8C40.3 102.7 40.3 102.5 40.3 102.4Z" fill="#A3A3A3"/>
<path d="M40.4 54.2C40.4 54.5 40.4 54.7 40.3 55C40.3 54.9 40.3 54.8 40.3 54.6C40.4 54.5 40.3 54.5 40.3 54.4C40.3 54.3 40.3 54.2 40.4 54.2C40.4 54.1 40.4 54.1 40.4 54.2Z" fill="#A3A3A3"/>
<path d="M40.4 103.8L40.3 103.7C40.3 103.6 40.3 103.6 40.2 103.6V103.3C40.2 103.4 40.2 103.4 40.3 103.5C40.4 103.5 40.4 103.7 40.4 103.8Z" fill="#A3A3A3"/>
<path d="M102.9 115.6C103 115.5 103.1 115.5 103.3 115.5C103.1 115.6 103 115.6 102.9 115.6Z" fill="#A3A3A3"/>
<path d="M102.9 42.1C102.8 42.1 102.6 42.1 102.5 42C102.6 42 102.8 42 102.9 42.1Z" fill="#A3A3A3"/>
<path d="M52.9 115.5C53 115.5 53.2 115.5 53.3 115.6C53.1 115.6 53 115.6 52.9 115.5Z" fill="#A3A3A3"/>
<path d="M53.6 42C53.5 42.1 53.4 42.1 53.2 42.1C53.3 42 53.4 42 53.6 42Z" fill="#A3A3A3"/>
<path d="M52.9 115.5C52.8 115.6 52.7 115.6 52.6 115.6C52.7 115.5 52.8 115.5 52.9 115.5Z" fill="#A3A3A3"/>
<path d="M104 115.5H103.7C103.8 115.5 103.9 115.5 104 115.5Z" fill="#A3A3A3"/>
<path d="M53.2 42C53.1 42.1 53 42.1 52.9 42.1C53 42 53.1 42 53.2 42Z" fill="#A3A3A3"/>
<path d="M102.9 42.1C103 42 103.1 42 103.2 42C103.1 42.1 103 42.1 102.9 42.1Z" fill="#A3A3A3"/>
<path d="M40.4 54.2C40.4 54.3 40.4 54.4 40.4 54.5V54.2Z" fill="#A3A3A3"/>
<path d="M115.7 55C115.6 54.9 115.6 54.8 115.6 54.7C115.6 54.7 115.6 54.7 115.7 54.7C115.7 54.8 115.7 54.9 115.7 55Z" fill="#A3A3A3"/>
<path d="M40.3 102.8C40.4 102.9 40.4 103 40.4 103.1C40.4 103.1 40.4 103.1 40.3 103.1C40.3 103 40.3 102.9 40.3 102.8Z" fill="#A3A3A3"/>
<path d="M52.6 42.1C52.5 42.1 52.4 42.1 52.4 42.1H52.6Z" fill="#A3A3A3"/>
<path d="M52.5 42.1C52.6 42.1 52.6 42 52.5 42.1C52.6 42 52.6 42 52.7 42C52.7 42.1 52.6 42.1 52.5 42.1Z" fill="#A3A3A3"/>
<path d="M115.7 103.1C115.7 103 115.7 103 115.7 102.9C115.7 102.9 115.7 102.9 115.8 102.9C115.7 102.9 115.7 103 115.7 103.1Z" fill="#A3A3A3"/>
<path d="M115.7 103.4C115.7 103.3 115.7 103.3 115.7 103.2C115.7 103.2 115.7 103.2 115.8 103.2C115.7 103.3 115.7 103.4 115.7 103.4C115.7 103.5 115.7 103.5 115.7 103.4Z" fill="#A3A3A3"/>
<path d="M103.7 42.1C103.6 42.1 103.6 42.1 103.5 42.1H103.7Z" fill="#A3A3A3"/>
<path d="M103.5 42C103.4 42.1 103.4 42.1 103.3 42.1C103.4 42 103.4 42 103.5 42Z" fill="#A3A3A3"/>
<path d="M52.4 115.6H52.2C52.2 115.5 52.3 115.5 52.4 115.6C52.4 115.5 52.3 115.5 52.4 115.6C52.4 115.5 52.4 115.5 52.4 115.6Z" fill="#A3A3A3"/>
<path d="M103.2 115.6C103.3 115.5 103.3 115.5 103.4 115.5C103.4 115.6 103.3 115.6 103.2 115.6Z" fill="#A3A3A3"/>
<path d="M115.7 54.7C115.6 54.6 115.6 54.6 115.6 54.6C115.6 54.6 115.6 54.6 115.7 54.6V54.7Z" fill="#A3A3A3"/>
<path d="M115.7 102.9C115.6 102.9 115.6 102.8 115.6 102.8C115.6 102.8 115.6 102.8 115.7 102.8C115.7 102.8 115.7 102.8 115.7 102.9Z" fill="#A3A3A3"/>
<path d="M40.3 54.5C40.3 54.4 40.3 54.4 40.3 54.5C40.4 54.6 40.4 54.6 40.3 54.6C40.3 54.5 40.3 54.5 40.3 54.5Z" fill="#A3A3A3"/>
<path d="M40.3 103.1C40.4 103.1 40.4 103.2 40.4 103.2C40.4 103.2 40.4 103.2 40.3 103.2V103.1Z" fill="#A3A3A3"/>
<path d="M115.7 103.2C115.6 103.2 115.6 103.1 115.6 103.1C115.6 103.1 115.6 103.1 115.7 103.1V103.2Z" fill="#A3A3A3"/>
<path d="M115.7 54.6C115.6 54.5 115.6 54.5 115.6 54.5C115.6 54.5 115.6 54.5 115.7 54.5C115.7 54.5 115.7 54.5 115.7 54.6Z" fill="#A3A3A3"/>
<path d="M52.3 115.6C52.3 115.5 52.4 115.5 52.4 115.5C52.4 115.6 52.4 115.6 52.3 115.6Z" fill="#A3A3A3"/>
<path d="M52.5 115.6C52.5 115.5 52.6 115.5 52.6 115.5C52.6 115.5 52.6 115.5 52.6 115.6H52.5Z" fill="#A3A3A3"/>
<path d="M115.7 54.5C115.6 54.4 115.6 54.4 115.6 54.4C115.6 54.4 115.6 54.4 115.7 54.4C115.7 54.4 115.7 54.4 115.7 54.5Z" fill="#A3A3A3"/>
<path d="M103.3 42C103.3 42.1 103.2 42.1 103.2 42.1C103.2 42.1 103.2 42.1 103.2 42C103.2 42 103.3 42 103.3 42Z" fill="#A3A3A3"/>
<path d="M52.8 42.1C52.9 42 52.9 42 52.9 42C52.9 42 52.9 42 52.9 42.1H52.8Z" fill="#A3A3A3"/>
<path d="M103.4 115.6C103.5 115.5 103.5 115.5 103.5 115.5C103.5 115.6 103.5 115.6 103.4 115.6Z" fill="#A3A3A3"/>
<path d="M103.6 115.6C103.7 115.5 103.7 115.5 103.7 115.5C103.7 115.5 103.7 115.5 103.7 115.6H103.6Z" fill="#A3A3A3"/>
<path d="M115.7 103.4V103.5C115.7 103.5 115.7 103.5 115.7 103.4Z" fill="#A3A3A3"/>
<path d="M74.9 79.6H67C67 79.5 67 79.5 67 79.4C67.9 76.9 68.6 74.3 69.4 71.7C69.9 70.1 70.4 68.4 70.8 66.8C70.8 66.7 70.8 66.7 70.9 66.6H71C72.1 71 73.5 75.3 74.9 79.6Z" fill="#A3A3A3"/>
<path d="M40.4 54.2C40.3 54.2 40.3 54.2 40.4 54.2C40.3 54.1 40.3 54.1 40.3 54C40.3 54 40.3 53.9 40.4 53.9C40.4 54 40.4 54.1 40.4 54.2Z" fill="#A3A3A3"/>
<path d="M74.9 79.6H67C67 79.5 67 79.5 67 79.4C67.9 76.9 68.6 74.3 69.4 71.7C69.9 70.1 70.4 68.4 70.8 66.8C70.8 66.7 70.8 66.7 70.9 66.6H71C72.1 71 73.5 75.3 74.9 79.6Z" fill="#A3A3A3"/>
</svg>
