<svg width="200" height="200" viewBox="0 0 200 200" fill="none" xmlns="http://www.w3.org/2000/svg">
<rect width="199.296" height="199.296" fill="#111111"/>
<path d="M53.0886 55.8835C53.0886 55.2861 52.8514 54.4539 53.1533 54.1517C53.4551 53.8529 54.296 54.0877 54.9033 54.0877C85.2721 54.0877 115.644 54.0877 146.013 54.0877C146.056 56.545 145.654 58.9703 145.453 61.4098C145.043 66.3244 144.54 71.232 144.087 76.143C143.692 80.4282 143.329 84.717 142.934 89.0057C142.481 93.9168 141.999 98.8243 141.55 103.735C141.097 108.678 140.677 113.622 140.221 118.561C139.646 124.813 139.027 131.057 138.488 137.313C138.413 138.198 138.111 138.554 137.252 138.721C124.952 141.129 112.658 143.565 100.361 145.997C99.8151 146.104 99.2904 146.104 98.7478 145.997C89.1495 144.094 79.5476 142.202 69.9493 140.307C67.1931 139.763 64.4405 139.215 61.6843 138.668C61.1668 138.565 60.6996 138.454 60.6565 137.761C60.5703 136.388 60.4157 135.023 60.2936 133.653C59.9702 130.112 59.6503 126.57 59.3233 123.028C58.9244 118.71 58.5148 114.397 58.1195 110.08C57.7925 106.509 57.4799 102.935 57.1528 99.3613C56.7504 94.9552 56.3371 90.5526 55.9346 86.1465C55.6112 82.633 55.295 79.1196 54.9716 75.6096C54.5691 71.2355 54.1702 66.8579 53.757 62.4838C53.5485 60.2825 53.315 58.0848 53.0958 55.8835H53.0886ZM103.57 86.7049C103.57 92.0036 103.57 97.3023 103.57 102.601C103.57 103.728 103.628 103.782 104.742 103.785C108.824 103.789 112.91 103.785 116.992 103.785C118.156 103.785 118.21 103.796 118.11 104.927C117.722 109.333 117.262 113.735 116.909 118.145C116.834 119.102 116.435 119.393 115.569 119.553C111.918 120.232 108.281 120.99 104.63 121.683C103.825 121.836 103.527 122.195 103.552 123.01C103.603 124.806 103.563 126.602 103.57 128.397C103.574 129.432 103.631 129.486 104.673 129.283C110.75 128.088 116.823 126.883 122.9 125.691C123.478 125.577 123.802 125.346 123.848 124.71C123.989 122.921 124.186 121.139 124.352 119.354C124.697 115.663 125.034 111.971 125.372 108.28C125.699 104.738 126.037 101.196 126.335 97.6508C126.439 96.3919 126.364 96.3563 125.049 96.3563C120.783 96.3563 116.518 96.335 112.256 96.3705C111.336 96.3777 111.07 96.0754 111.074 95.1792C111.109 89.5214 111.092 83.8635 111.092 78.2056C111.092 77.0179 111.099 77.0107 112.299 77.0107C117.229 77.0107 122.16 76.993 127.09 77.025C127.977 77.0321 128.319 76.7476 128.362 75.8514C128.445 74.18 128.621 72.5122 128.804 70.8479C128.933 69.6566 128.887 69.5641 127.643 69.5641C120.05 69.5641 112.461 69.5641 104.868 69.5641C103.599 69.5641 103.563 69.5997 103.563 70.9012C103.563 76.1679 103.563 81.4382 103.563 86.7049H103.57ZM95.5316 99.5284C95.5316 97.2525 95.5316 94.9801 95.5316 92.7041C95.5316 85.3997 95.5316 78.0954 95.5316 70.791C95.5316 69.6281 95.4669 69.5677 94.3026 69.5606C92.6676 69.5535 91.0361 69.557 89.401 69.5606C88.4739 69.5606 88.0092 70.0312 88.0068 70.9724C88.0068 86.808 88.0068 102.644 88.0068 118.479C88.0068 118.81 87.9816 119.141 88.0104 119.468C88.0714 120.144 87.8199 120.4 87.1192 120.25C85.7608 119.962 84.3953 119.706 83.0297 119.447C82.5159 119.347 82.2751 119.084 82.232 118.536C82.0811 116.57 81.8726 114.607 81.7001 112.64C81.6534 112.082 81.5492 111.627 80.8377 111.63C78.811 111.637 76.7842 111.634 74.7575 111.63C74.2652 111.63 74.0496 111.804 74.0999 112.334C74.4916 116.41 74.8796 120.489 75.2282 124.571C75.2929 125.321 75.6343 125.577 76.3278 125.713C82.2859 126.875 88.2403 128.067 94.1984 129.247C95.4992 129.507 95.528 129.482 95.528 128.173C95.528 118.625 95.528 109.077 95.528 99.5249L95.5316 99.5284Z" fill="#A3A3A3"/>
</svg>
