<svg width="157" height="157" viewBox="0 0 157 157" fill="none" xmlns="http://www.w3.org/2000/svg">
<rect width="156.383" height="156.383" fill="#111111"/>
<g clip-path="url(#clip0_195_8)">
<path d="M116 54.2566C115.918 54.1975 115.925 54.1133 115.936 54.0292V53.811C115.936 53.7633 115.939 53.7133 115.939 53.6656V53.3723C115.697 50.4423 114.574 47.8783 112.649 45.6734C110.579 43.3026 107.974 41.8433 104.885 41.2432C104.514 41.1705 104.139 41.1273 103.766 41.0682C103.693 41.0682 103.62 41.0659 103.548 41.0636C103.475 41.0636 103.402 41.0614 103.329 41.0614C103.282 41.0614 103.231 41.0636 103.184 41.0659C103.054 41.0705 102.922 41.1 102.813 41H52.2599C52.1507 41.1 52.0187 41.0705 51.8891 41.0659C51.8413 41.0636 51.7912 41.0614 51.7435 41.0614C51.6707 41.0614 51.5979 41.0636 51.5251 41.0636C51.4523 41.0659 51.3795 41.0682 51.3067 41.0705C51.2794 41.0727 51.2544 41.0773 51.2271 41.0818C50.4104 41.2046 49.5961 41.3432 48.8022 41.5774C43.8999 43.0208 40.1852 47.1509 39.2821 52.179C39.2275 52.479 39.1843 52.7813 39.1365 53.0836C39.1433 53.1314 39.1456 53.1814 39.1456 53.2314C39.1433 53.3791 39.1092 53.5246 39.0728 53.6701C39.0955 53.8019 39.0864 53.927 39 54.0361V102.743C39.2389 103.012 39.1297 103.334 39.1365 103.637C39.1365 103.78 39.1388 103.921 39.141 104.062C39.3094 105.16 39.53 106.249 39.9577 107.278C41.8776 111.92 45.2921 114.77 50.2216 115.789C50.506 115.848 50.7972 115.886 51.0861 115.934C51.1589 115.936 51.2316 115.939 51.3022 115.941C51.3522 115.939 51.4023 115.939 51.45 115.939C51.4978 115.936 51.5478 115.934 51.5956 115.934C51.6934 115.932 51.7912 115.932 51.8891 115.932C52.0392 115.941 52.2007 115.877 52.3327 116H102.959C103.093 115.88 103.252 115.939 103.402 115.932C103.452 115.934 103.502 115.936 103.552 115.939H103.771C103.866 115.936 103.962 115.934 104.06 115.932C105.231 115.755 106.389 115.507 107.481 115.036C112.01 113.081 114.794 109.697 115.791 104.857C115.87 104.476 115.92 104.089 115.939 103.698C115.939 103.6 115.939 103.503 115.941 103.405C115.939 103.357 115.936 103.309 115.936 103.259C115.936 103.189 115.936 103.116 115.939 103.043C115.925 102.937 115.907 102.828 116 102.743V54.2566ZM80.5676 72.7412C80.472 73.9163 80.2719 75.0643 79.8465 76.1667C78.8569 78.7375 77.0553 80.5674 74.6167 81.7948C73.3428 82.4381 71.9756 82.7995 70.5743 83.0359C68.4315 83.3996 66.2727 83.3928 64.1116 83.3019C63.916 83.2928 63.7203 83.295 63.5247 83.2905C63.3905 83.2859 63.32 83.3428 63.3268 83.4837C63.3314 83.5814 63.3291 83.6792 63.3291 83.7769V93.3352C63.3291 93.4329 63.3336 93.5307 63.3245 93.6284C63.3041 93.8716 63.1767 94.0012 62.9333 94.0262C62.8491 94.0353 62.7627 94.0285 62.6762 94.0285H57.0006C56.4319 94.0285 56.3682 93.9671 56.3682 93.4011V60.9598C56.3682 60.2938 56.3886 60.2847 57.0392 60.2711C59.4301 60.2211 61.8232 60.1597 64.2163 60.112C65.4856 60.087 66.7549 60.0688 68.0243 60.1211C70.0739 60.2075 72.0757 60.5507 73.9752 61.3622C76.6481 62.5078 78.6476 64.3467 79.7555 67.0699C80.4948 68.8883 80.7291 70.7863 80.5676 72.7412ZM98.1996 93.517C96.8256 94.1649 95.3675 94.4854 93.8616 94.6195C92.5444 94.7377 91.2251 94.7331 89.9125 94.6058C88.0972 94.4308 86.3137 94.1149 84.6281 93.3693C84.2186 93.1897 84.0253 92.9397 84.0412 92.476C84.0708 91.6213 84.0503 90.7666 84.0503 89.912V87.3866C84.0503 87.3252 84.048 87.2638 84.0503 87.2024C84.0594 86.7478 84.1891 86.6637 84.5781 86.8865C85.4288 87.3707 86.3183 87.773 87.251 88.0639C88.8206 88.5549 90.4221 88.8573 92.069 88.8709C92.7651 88.8777 93.4612 88.8436 94.1414 88.6822C94.3688 88.6277 94.585 88.5458 94.8011 88.464C95.6223 88.148 96.2001 86.9729 95.2765 86.0636C95.0035 85.7954 94.6987 85.5749 94.3643 85.3954C93.4362 84.8998 92.458 84.5202 91.4753 84.152C89.9944 83.5974 88.5863 82.895 87.2987 81.9789C85.7814 80.8969 84.6691 79.5036 84.2755 77.6374C83.659 74.7006 84.735 71.6592 87.3693 69.8521C88.6159 68.9951 90.0012 68.4814 91.4935 68.2428C93.2178 67.9677 94.9444 67.9927 96.6755 68.1496C97.7583 68.2473 98.8366 68.3701 99.883 68.6815C100.233 68.786 100.577 68.911 100.92 69.0383C101.196 69.1406 101.33 69.3316 101.348 69.6157C101.355 69.7248 101.357 69.8339 101.357 69.9453V74.7028C101.357 75.3302 101.07 75.5007 100.49 75.2097C99.6919 74.8074 98.8593 74.5028 97.9903 74.2914C96.5845 73.9459 95.1582 73.7709 93.7137 73.7663C93.1018 73.7641 92.4967 73.8573 91.9098 74.0345C91.5094 74.155 91.1796 74.3755 90.9771 74.7506C90.6655 75.3234 90.736 75.9189 91.1682 76.4145C91.4685 76.7577 91.8347 77.0236 92.2419 77.2282C93.145 77.6851 94.0595 78.1147 95.0149 78.4557C96.5595 79.008 98.029 79.724 99.4098 80.6105C100.97 81.6084 102.103 82.9541 102.492 84.7998C103.266 88.4526 101.71 91.8645 98.1996 93.517Z" fill="#A3A3A3"/>
<path d="M52.2599 41C52.1507 41.1 52.0187 41.0705 51.8891 41.0659C51.8413 41.0636 51.7912 41.0614 51.7435 41.0614C51.6707 41.0614 51.5979 41.0636 51.5251 41.0636C51.4523 41.0659 51.3795 41.0682 51.3067 41.0705C51.2794 41.0727 51.2544 41.0773 51.2271 41.0818C50.4104 41.2046 49.5961 41.3432 48.8022 41.5774C43.8999 43.0208 40.1852 47.1509 39.2821 52.179C39.2275 52.479 39.1843 52.7813 39.1365 53.0836C39.1433 53.1314 39.1456 53.1814 39.1456 53.2314C39.1433 53.3791 39.1092 53.5246 39.0728 53.6701C39.0955 53.8019 39.0864 53.927 39 54.0361C39.066 53.9292 39.0296 53.811 39.0341 53.6997C39.0341 53.6883 39.0341 53.6792 39.0364 53.6701V53.6565C39.0523 53.5564 39.0637 53.4564 39.0705 53.3564C39.0705 53.3382 39.0728 53.3223 39.0728 53.3041C39.0751 53.2678 39.0751 53.2337 39.0751 53.1973C39.0751 53.1632 39.0751 53.1314 39.0728 53.0973C39.1137 51.7471 39.5232 50.4833 40.0328 49.2535C40.7038 47.6374 41.6729 46.2008 42.9058 44.9642C44.3617 43.5072 46.0587 42.4025 48.0173 41.716C49.0729 41.3455 50.1443 41.0682 51.2703 41.0364H51.8959C52.0165 41.0205 52.1461 41.075 52.2599 41Z" fill="#001E36"/>
<path d="M52.3327 116C52.1962 115.923 52.046 115.982 51.9027 115.964H51.0747C49.2912 115.898 47.6579 115.307 46.1133 114.468C44.0273 113.334 42.3303 111.761 41.0655 109.744C39.9668 107.994 39.2434 106.11 39.0728 104.035V103.621C39.0705 103.596 39.0705 103.571 39.0705 103.546C39.0682 103.544 39.0682 103.539 39.0705 103.534C39.0705 103.516 39.0682 103.496 39.0682 103.475C39.0682 103.457 39.0705 103.439 39.0705 103.419C39.0705 103.419 39.0705 103.419 39.0705 103.416C39.0773 103.189 39.1001 102.962 39 102.743C39.2389 103.012 39.1297 103.334 39.1365 103.637C39.1365 103.78 39.1388 103.921 39.141 104.062C39.3094 105.16 39.53 106.248 39.9577 107.278C41.8776 111.92 45.2921 114.77 50.2216 115.789C50.506 115.848 50.7972 115.886 51.0861 115.934C51.1589 115.936 51.2316 115.939 51.3022 115.941C51.3522 115.939 51.4023 115.939 51.45 115.939C51.4978 115.936 51.5478 115.934 51.5956 115.934C51.6934 115.932 51.7913 115.932 51.8891 115.932C52.0392 115.941 52.2007 115.877 52.3327 116Z" fill="#001E36"/>
<path d="M115.939 53.6656V53.3723C115.697 50.4423 114.574 47.8783 112.649 45.6734C110.579 43.3026 107.974 41.8433 104.885 41.2432C104.515 41.1705 104.139 41.1273 103.766 41.0682C103.693 41.0682 103.621 41.0659 103.548 41.0636C103.475 41.0636 103.402 41.0614 103.329 41.0614C103.282 41.0614 103.232 41.0636 103.184 41.0659C103.054 41.0705 102.922 41.1 102.813 41C102.924 41.075 103.052 41.0205 103.172 41.0364H103.773C106.792 41.2364 109.367 42.4548 111.598 44.4528C113.805 46.4281 115.195 48.883 115.832 51.7698C115.948 52.2926 115.964 52.8313 115.964 53.3678V54.0315C115.968 54.1088 115.941 54.1884 116 54.2566C115.918 54.1975 115.925 54.1133 115.936 54.0292V53.811C115.936 53.7633 115.939 53.7133 115.939 53.6656Z" fill="#001E36"/>
<path d="M115.964 103.041V103.7C115.98 105.557 115.381 107.253 114.524 108.86C113.125 111.481 111.073 113.45 108.402 114.757C107.035 115.427 105.602 115.898 104.062 115.964H103.388C103.247 115.982 103.097 115.923 102.959 116C103.093 115.879 103.252 115.939 103.402 115.932C103.452 115.934 103.502 115.936 103.552 115.939H103.771C103.866 115.936 103.962 115.934 104.06 115.932C105.231 115.754 106.389 115.507 107.481 115.036C112.01 113.081 114.794 109.697 115.791 104.857C115.87 104.475 115.92 104.089 115.939 103.698C115.939 103.6 115.939 103.503 115.941 103.405C115.939 103.357 115.936 103.309 115.936 103.259C115.936 103.189 115.936 103.116 115.939 103.043C115.925 102.937 115.907 102.828 116 102.743C115.929 102.834 115.975 102.941 115.964 103.041Z" fill="#001E36"/>
<path d="M39.0728 53.3041L39.1137 53.2632C39.1137 53.2996 39.1046 53.3336 39.0705 53.3564C39.0546 53.3655 39.0318 53.3746 39 53.3768L39.025 53.3518L39.0728 53.3041Z" fill="white"/>
<path d="M39.1456 53.2315L39.1137 53.2633C39.1137 53.2065 39.0955 53.1428 39.1228 53.0997C39.1251 53.0928 39.1297 53.0883 39.1365 53.0837C39.1433 53.1315 39.1456 53.1815 39.1456 53.2315Z" fill="white"/>
<path d="M51.3386 41.0364C51.3386 41.0409 51.3363 41.0432 51.334 41.0455C51.3249 41.0614 51.3158 41.0705 51.3067 41.0705C51.2794 41.0727 51.2544 41.0773 51.2271 41.0818L51.2703 41.0364L51.309 41C51.3295 41.0114 51.3386 41.025 51.3386 41.0364Z" fill="white"/>
<path d="M51.1179 115.964C51.1202 115.968 51.1179 115.973 51.1156 115.977C51.1065 115.993 51.0974 116 51.0883 116C51.0861 115.986 51.0861 115.975 51.0861 115.964H51.0747C49.2912 115.898 47.6579 115.307 46.1133 114.468C44.0273 113.334 42.3303 111.761 41.0655 109.744C39.9668 107.994 39.2434 106.11 39.0728 104.035V103.925C39.0637 103.866 39.0569 103.805 39 103.769C39.0318 103.771 39.0569 103.78 39.0728 103.791C39.1615 103.85 39.0614 103.998 39.141 104.062C39.3094 105.16 39.53 106.248 39.9577 107.278C41.8776 111.92 45.2921 114.77 50.2216 115.789C50.506 115.848 50.7972 115.886 51.0861 115.934C51.1043 115.943 51.1156 115.952 51.1179 115.964Z" fill="white"/>
<path d="M116 53.3769C115.986 53.3996 115.975 53.4087 115.964 53.4042C115.954 53.4019 115.945 53.3905 115.939 53.3723C115.697 50.4423 114.574 47.8783 112.649 45.6734C110.579 43.3026 107.974 41.8433 104.885 41.2432C104.514 41.1705 104.139 41.1273 103.766 41.0682C103.746 41.0591 103.737 41.0477 103.734 41.0364C103.734 41.0318 103.734 41.0273 103.737 41.0227C103.746 41.0068 103.755 41 103.764 41V41.0364H103.773C106.792 41.2364 109.367 42.4548 111.598 44.4528C113.805 46.4281 115.195 48.883 115.832 51.7698C115.948 52.2926 115.964 52.8313 115.964 53.3678V53.3701C115.975 53.3678 115.989 53.3723 116 53.3769Z" fill="white"/>
<path d="M116 103.696L115.968 103.7H115.964C115.98 105.558 115.381 107.253 114.524 108.86C113.125 111.481 111.073 113.45 108.402 114.757C107.035 115.427 105.602 115.898 104.062 115.964H104.057V116C104.037 115.986 104.025 115.975 104.028 115.964C104.028 115.959 104.03 115.957 104.03 115.952C104.041 115.939 104.05 115.932 104.06 115.932C105.231 115.755 106.389 115.507 107.481 115.036C112.01 113.081 114.794 109.697 115.791 104.857C115.87 104.476 115.92 104.089 115.939 103.698C115.945 103.68 115.955 103.671 115.964 103.669C115.975 103.664 115.986 103.673 116 103.696Z" fill="white"/>
<path d="M39.1365 103.637C39.1069 103.639 39.0887 103.632 39.0728 103.621C39.0523 103.605 39.0432 103.58 39.0387 103.548V103.516C39.0364 103.459 39.0364 103.403 39.0364 103.346V103.332C39.0341 103.323 39.0341 103.314 39.0364 103.303V103.3C39.0364 103.234 39.0523 103.166 39 103.109V102.743C39.2389 103.012 39.1297 103.334 39.1365 103.637Z" fill="#263F54"/>
<path d="M39.1456 53.2315C39.1433 53.3792 39.1092 53.5247 39.0728 53.6702C39.0591 53.6907 39.0478 53.6997 39.0341 53.6997C39.0227 53.6975 39.0114 53.6884 39 53.6702V53.377C39.0091 53.3701 39.0182 53.3611 39.025 53.352C39.0591 53.3088 39.0637 53.2519 39.0751 53.1974C39.0842 53.161 39.0955 53.1269 39.1228 53.0997C39.1251 53.0928 39.1297 53.0883 39.1365 53.0837C39.1433 53.1315 39.1456 53.1815 39.1456 53.2315Z" fill="#BEC6CC"/>
<path d="M39.141 104.062C39.0933 104.028 39.0819 103.978 39.0728 103.926C39.0637 103.866 39.0569 103.805 39 103.769V103.548C39.0114 103.528 39.025 103.516 39.0387 103.516C39.0478 103.516 39.0591 103.521 39.0705 103.535C39.0728 103.539 39.0751 103.541 39.0773 103.546C39.0978 103.578 39.116 103.607 39.1365 103.637C39.1365 103.78 39.1388 103.921 39.141 104.062Z" fill="#DCE0E4"/>
<path d="M103.427 115.964C103.429 115.968 103.427 115.973 103.425 115.977C103.416 115.993 103.407 116 103.398 116H102.959C103.093 115.88 103.252 115.939 103.402 115.932C103.418 115.943 103.427 115.952 103.427 115.964Z" fill="#294256"/>
<path d="M52.3327 116H51.8936C51.8731 115.989 51.8618 115.975 51.864 115.964C51.864 115.959 51.864 115.957 51.8663 115.955C51.8731 115.939 51.88 115.932 51.8891 115.932C52.0392 115.941 52.2007 115.877 52.3327 116Z" fill="#143046"/>
<path d="M52.2599 41C52.1507 41.1 52.0187 41.0705 51.8891 41.0659C51.8754 41.0546 51.8663 41.0455 51.864 41.0364C51.864 41.0318 51.864 41.025 51.8686 41.0205C51.8777 41.0068 51.8845 41 51.8936 41H52.2599Z" fill="#495E6F"/>
<path d="M103.209 41.0364C103.209 41.0386 103.206 41.0409 103.206 41.0409C103.2 41.0568 103.191 41.0659 103.184 41.0659C103.054 41.0705 102.922 41.1 102.813 41H103.179C103.202 41.0114 103.211 41.0227 103.209 41.0364Z" fill="#495E6F"/>
<path d="M39 54.0361V53.6702H39.0728C39.0955 53.802 39.0864 53.927 39 54.0361Z" fill="#8997A1"/>
<path d="M116 102.743V103.037C115.989 103.057 115.977 103.066 115.964 103.062C115.954 103.059 115.948 103.055 115.939 103.043C115.925 102.937 115.907 102.828 116 102.743Z" fill="#354D60"/>
<path d="M116 103.403V103.696L115.968 103.7H115.964L115.939 103.698C115.939 103.6 115.939 103.503 115.941 103.405C115.948 103.389 115.955 103.38 115.964 103.375C115.975 103.371 115.986 103.38 116 103.403Z" fill="#C7CED3"/>
<path d="M51.8936 116H51.6002C51.5797 115.989 51.5683 115.975 51.5706 115.964C51.5729 115.961 51.5729 115.959 51.5729 115.957C51.5797 115.941 51.5888 115.934 51.5956 115.934C51.6934 115.932 51.7912 115.932 51.8891 115.932C51.8913 115.941 51.8913 115.952 51.8913 115.964C51.8936 115.975 51.8936 115.986 51.8936 116Z" fill="#3A5164"/>
<path d="M104.06 115.932C104.057 115.941 104.057 115.952 104.057 115.964V116H103.764C103.741 115.986 103.732 115.975 103.737 115.964C103.737 115.961 103.737 115.959 103.739 115.957C103.748 115.943 103.759 115.939 103.771 115.939C103.866 115.936 103.962 115.934 104.06 115.932Z" fill="#D1D6DB"/>
<path d="M116 53.3768V53.67C115.986 53.6928 115.975 53.7019 115.964 53.6973C115.955 53.6928 115.948 53.6814 115.939 53.6655V53.3723C115.948 53.37 115.955 53.37 115.964 53.37C115.975 53.3677 115.989 53.3723 116 53.3768Z" fill="#BFC7CD"/>
<path d="M51.5569 41.0364C51.5569 41.0386 51.5547 41.0409 51.5547 41.0432C51.5456 41.0568 51.5342 41.0636 51.5251 41.0636C51.4523 41.0659 51.3795 41.0682 51.3067 41.0705C51.309 41.0591 51.309 41.0477 51.309 41.0364V41H51.5274C51.5501 41.0114 51.5615 41.025 51.5569 41.0364Z" fill="#DDE1E4"/>
<path d="M51.7776 41.0364C51.7753 41.0386 51.7753 41.0409 51.7731 41.0432C51.764 41.0546 51.7549 41.0614 51.7435 41.0614C51.6707 41.0614 51.5979 41.0636 51.5251 41.0636C51.5251 41.0546 51.5251 41.0455 51.5274 41.0364V41H51.748C51.7708 41.0136 51.7799 41.025 51.7776 41.0364Z" fill="#B0B9C1"/>
<path d="M39.0773 103.546C39.0523 103.546 39.025 103.548 39 103.548C39 103.475 39 103.403 39 103.328C39.025 103.289 39.0455 103.291 39.066 103.332C39.0705 103.405 39.0751 103.475 39.0773 103.546Z" fill="#AFB9C0"/>
<path d="M116 103.037V103.255C115.989 103.278 115.975 103.287 115.964 103.282C115.955 103.28 115.945 103.273 115.936 103.259C115.936 103.189 115.936 103.116 115.939 103.043C115.945 103.043 115.955 103.041 115.964 103.041C115.975 103.039 115.989 103.039 116 103.037Z" fill="#627583"/>
<path d="M116 54.0362V54.2567C115.918 54.1976 115.925 54.1134 115.936 54.0293C115.945 54.018 115.955 54.0112 115.964 54.0089C115.977 54.0066 115.989 54.0157 116 54.0362Z" fill="#2E475A"/>
<path d="M116 53.818V54.0362C115.989 54.0362 115.975 54.0339 115.964 54.0316C115.955 54.0316 115.945 54.0316 115.936 54.0294V53.8111C115.945 53.7998 115.955 53.793 115.964 53.7907C115.975 53.7861 115.989 53.7952 116 53.818Z" fill="#596C7C"/>
<path d="M51.3363 115.964C51.3386 115.968 51.3386 115.973 51.3363 115.977C51.3272 115.993 51.3181 116 51.309 116H51.0883C51.0861 115.986 51.0861 115.975 51.0861 115.964V115.934C51.1589 115.936 51.2316 115.939 51.3022 115.941C51.3226 115.948 51.334 115.955 51.3363 115.964Z" fill="#D5DADE"/>
<path d="M39.066 103.332C39.0432 103.334 39.0227 103.332 39 103.328C39 103.255 39 103.182 39 103.107C39.0773 103.166 39.0796 103.248 39.066 103.332Z" fill="#808F9B"/>
<path d="M103.766 41.0682C103.693 41.0682 103.62 41.0659 103.548 41.0636C103.527 41.0546 103.518 41.0455 103.516 41.0364C103.514 41.0318 103.516 41.0273 103.518 41.0227C103.527 41.0068 103.536 41 103.545 41H103.764V41.0364C103.764 41.0477 103.764 41.0591 103.766 41.0682Z" fill="#DDE1E4"/>
<path d="M103.548 41.0636C103.475 41.0636 103.402 41.0614 103.329 41.0614C103.311 41.0523 103.3 41.0455 103.295 41.0364C103.293 41.0318 103.295 41.0273 103.297 41.0227C103.307 41.0068 103.316 41 103.325 41H103.545V41.0364C103.545 41.0455 103.548 41.0546 103.548 41.0636Z" fill="#B0B9C1"/>
<path d="M103.771 115.939C103.768 115.946 103.768 115.955 103.768 115.964C103.766 115.975 103.766 115.986 103.764 116H103.545C103.52 115.986 103.511 115.973 103.516 115.964C103.516 115.961 103.518 115.959 103.52 115.957C103.53 115.946 103.541 115.939 103.552 115.939H103.771Z" fill="#8D9BA5"/>
<path d="M51.8936 41C51.8959 41.0114 51.8959 41.025 51.8936 41.0364C51.8936 41.0455 51.8913 41.0568 51.8891 41.0659C51.8413 41.0636 51.7912 41.0614 51.7435 41.0614C51.7435 41.0523 51.7458 41.0455 51.7458 41.0364C51.748 41.025 51.748 41.0114 51.748 41H51.8936Z" fill="#818F9B"/>
<path d="M103.329 41.0614C103.282 41.0614 103.231 41.0636 103.184 41.0659C103.181 41.0568 103.179 41.0455 103.179 41.0364C103.177 41.025 103.177 41.0114 103.179 41H103.325C103.325 41.0114 103.325 41.025 103.327 41.0364C103.327 41.0432 103.329 41.0523 103.329 41.0614Z" fill="#818F9B"/>
<path d="M116 53.6701V53.8179C115.986 53.8156 115.975 53.8156 115.964 53.8156C115.955 53.8133 115.945 53.8133 115.936 53.811C115.936 53.7633 115.939 53.7133 115.939 53.6656C115.948 53.6656 115.955 53.6633 115.964 53.6656C115.975 53.6656 115.989 53.6678 116 53.6701Z" fill="#8B99A5"/>
<path d="M51.4842 115.964C51.4864 115.966 51.4842 115.973 51.4819 115.977C51.4728 115.991 51.4637 116 51.4546 116H51.309C51.3067 115.986 51.3044 115.975 51.3044 115.964C51.3044 115.955 51.3022 115.948 51.3022 115.941C51.3522 115.939 51.4023 115.939 51.45 115.939C51.4705 115.946 51.4819 115.955 51.4842 115.964Z" fill="#98A5AE"/>
<path d="M51.6002 115.964C51.6024 115.975 51.6024 115.986 51.6002 116H51.4546C51.4546 115.986 51.4546 115.975 51.4523 115.964C51.4523 115.955 51.4523 115.945 51.45 115.939C51.4978 115.936 51.5478 115.934 51.5956 115.934C51.5979 115.943 51.6002 115.952 51.6002 115.964Z" fill="#6B7C8A"/>
<path d="M103.552 115.939C103.55 115.948 103.55 115.955 103.55 115.964C103.548 115.975 103.545 115.986 103.545 116H103.398V115.964C103.4 115.952 103.4 115.941 103.402 115.932C103.452 115.934 103.502 115.936 103.552 115.939Z" fill="#566979"/>
<path d="M116 103.255V103.403L115.97 103.407H115.964L115.941 103.405C115.939 103.357 115.936 103.309 115.936 103.259C115.945 103.259 115.955 103.259 115.964 103.257C115.975 103.257 115.986 103.255 116 103.255Z" fill="#97A3AD"/>
<path d="M73.5225 72.9593C73.3519 74.1163 72.7832 75.03 71.871 75.7529C71.1567 76.3189 70.3423 76.6507 69.4733 76.8826C68.4906 77.1463 67.4874 77.2827 66.4729 77.3008C65.5447 77.3168 64.6166 77.3281 63.6908 77.2577C63.3746 77.2326 63.37 77.2372 63.37 76.919C63.3678 75.2369 63.3678 73.5525 63.3678 71.8682V66.9265C63.3678 66.8288 63.3723 66.7311 63.37 66.6333C63.3678 66.5106 63.4383 66.456 63.5475 66.4446C63.6817 66.4333 63.8159 66.4219 63.9501 66.4219C65.0716 66.4151 66.1953 66.406 67.3191 66.406C68.5043 66.4083 69.653 66.6174 70.7404 67.0857C72.4397 67.8176 73.3519 69.1405 73.5862 70.9544C73.6726 71.6273 73.6203 72.2933 73.5225 72.9593Z" fill="#A3A3A3"/>
</g>
<defs>
<clipPath id="clip0_195_8">
<rect width="77" height="75" fill="white" transform="translate(39 41)"/>
</clipPath>
</defs>
</svg>
