<?xml version="1.0" encoding="utf-8"?>
<!-- Generator: Adobe Illustrator 25.2.1, SVG Export Plug-In . SVG Version: 6.00 Build 0)  -->
<svg version="1.1" id="Camada_1" xmlns="http://www.w3.org/2000/svg" xmlns:xlink="http://www.w3.org/1999/xlink" x="0px" y="0px"
	 viewBox="0 0 157 157" style="enable-background:new 0 0 157 157;" xml:space="preserve">
<style type="text/css">
	.st0{fill:#A3A3A3;}
	.st1{fill:#FFFFFF;}
	.st2{fill:#495E6F;}
	.st3{fill:#354D60;}
	.st4{fill:#DDE1E4;}
	.st5{fill:#B0B9C1;}
	.st6{fill:#818F9B;}
</style>
<g>
	<g>
		<path class="st0" d="M116,54.3c-0.1-0.1-0.1-0.1-0.1-0.2v-0.2c0,0,0-0.1,0-0.1v-0.3c-0.2-2.9-1.4-5.5-3.3-7.7
			c-2.1-2.4-4.7-3.8-7.8-4.4c-0.4-0.1-0.7-0.1-1.1-0.2c-0.1,0-0.1,0-0.2,0c-0.1,0-0.1,0-0.2,0c0,0-0.1,0-0.1,0c-0.1,0-0.3,0-0.4-0.1
			H52.3c-0.1,0.1-0.2,0.1-0.4,0.1c0,0-0.1,0-0.1,0c-0.1,0-0.1,0-0.2,0c-0.1,0-0.1,0-0.2,0c0,0-0.1,0-0.1,0c-0.8,0.1-1.6,0.3-2.4,0.5
			c-4.9,1.4-8.6,5.6-9.5,10.6c-0.1,0.3-0.1,0.6-0.1,0.9c0,0,0,0.1,0,0.1c0,0.1,0,0.3-0.1,0.4c0,0.1,0,0.3-0.1,0.4v48.7
			c0.2,0.3,0.1,0.6,0.1,0.9c0,0.1,0,0.3,0,0.4c0.2,1.1,0.4,2.2,0.8,3.2c1.9,4.6,5.3,7.5,10.3,8.5c0.3,0.1,0.6,0.1,0.9,0.1
			c0.1,0,0.1,0,0.2,0c0,0,0.1,0,0.1,0c0,0,0.1,0,0.1,0c0.1,0,0.2,0,0.3,0c0.2,0,0.3-0.1,0.4,0.1H103c0.1-0.1,0.3-0.1,0.4-0.1
			c0.1,0,0.1,0,0.2,0h0.2c0.1,0,0.2,0,0.3,0c1.2-0.2,2.3-0.4,3.4-0.9c4.5-2,7.3-5.3,8.3-10.2c0.1-0.4,0.1-0.8,0.1-1.2
			c0-0.1,0-0.2,0-0.3c0,0,0-0.1,0-0.1c0-0.1,0-0.1,0-0.2c0-0.1,0-0.2,0.1-0.3V54.3z M80.6,72.7c-0.1,1.2-0.3,2.3-0.7,3.4
			c-1,2.6-2.8,4.4-5.2,5.6c-1.3,0.6-2.6,1-4,1.2c-2.1,0.4-4.3,0.4-6.5,0.3c-0.2,0-0.4,0-0.6,0c-0.1,0-0.2,0.1-0.2,0.2
			c0,0.1,0,0.2,0,0.3v9.6c0,0.1,0,0.2,0,0.3c0,0.2-0.1,0.4-0.4,0.4c-0.1,0-0.2,0-0.3,0H57c-0.6,0-0.6-0.1-0.6-0.6V61
			c0-0.7,0-0.7,0.7-0.7c2.4,0,4.8-0.1,7.2-0.2c1.3,0,2.5,0,3.8,0c2,0.1,4.1,0.4,6,1.2c2.7,1.1,4.7,3,5.8,5.7
			C80.5,68.9,80.7,70.8,80.6,72.7z M98.2,93.5c-1.4,0.6-2.8,1-4.3,1.1c-1.3,0.1-2.6,0.1-3.9,0c-1.8-0.2-3.6-0.5-5.3-1.2
			c-0.4-0.2-0.6-0.4-0.6-0.9c0-0.9,0-1.7,0-2.6v-2.5c0-0.1,0-0.1,0-0.2c0-0.5,0.1-0.5,0.5-0.3c0.9,0.5,1.7,0.9,2.7,1.2
			c1.6,0.5,3.2,0.8,4.8,0.8c0.7,0,1.4,0,2.1-0.2c0.2-0.1,0.4-0.1,0.7-0.2c0.8-0.3,1.4-1.5,0.5-2.4c-0.3-0.3-0.6-0.5-0.9-0.7
			c-0.9-0.5-1.9-0.9-2.9-1.2c-1.5-0.6-2.9-1.3-4.2-2.2c-1.5-1.1-2.6-2.5-3-4.3c-0.6-2.9,0.5-6,3.1-7.8c1.2-0.9,2.6-1.4,4.1-1.6
			c1.7-0.3,3.5-0.3,5.2-0.1c1.1,0.1,2.2,0.2,3.2,0.5c0.3,0.1,0.7,0.2,1,0.4c0.3,0.1,0.4,0.3,0.4,0.6c0,0.1,0,0.2,0,0.3v4.8
			c0,0.6-0.3,0.8-0.9,0.5c-0.8-0.4-1.6-0.7-2.5-0.9c-1.4-0.3-2.8-0.5-4.3-0.5c-0.6,0-1.2,0.1-1.8,0.3c-0.4,0.1-0.7,0.3-0.9,0.7
			c-0.3,0.6-0.2,1.2,0.2,1.7c0.3,0.3,0.7,0.6,1.1,0.8c0.9,0.5,1.8,0.9,2.8,1.2c1.5,0.6,3,1.3,4.4,2.2c1.6,1,2.7,2.3,3.1,4.2
			C103.3,88.5,101.7,91.9,98.2,93.5z"/>
		<path class="st0" d="M52.3,41c-0.1,0.1-0.2,0.1-0.4,0.1c0,0-0.1,0-0.1,0c-0.1,0-0.1,0-0.2,0c-0.1,0-0.1,0-0.2,0c0,0-0.1,0-0.1,0
			c-0.8,0.1-1.6,0.3-2.4,0.5c-4.9,1.4-8.6,5.6-9.5,10.6c-0.1,0.3-0.1,0.6-0.1,0.9c0,0,0,0.1,0,0.1c0,0.1,0,0.3-0.1,0.4
			c0,0.1,0,0.3-0.1,0.4c0.1-0.1,0-0.2,0-0.3c0,0,0,0,0,0v0c0-0.1,0-0.2,0-0.3c0,0,0,0,0-0.1c0,0,0-0.1,0-0.1c0,0,0-0.1,0-0.1
			c0-1.4,0.5-2.6,1-3.8c0.7-1.6,1.6-3.1,2.9-4.3c1.5-1.5,3.2-2.6,5.1-3.2c1.1-0.4,2.1-0.6,3.3-0.7h0.6C52,41,52.1,41.1,52.3,41z"/>
		<path class="st0" d="M52.3,116c-0.1-0.1-0.3,0-0.4,0h-0.8c-1.8-0.1-3.4-0.7-5-1.5c-2.1-1.1-3.8-2.7-5-4.7c-1.1-1.8-1.8-3.6-2-5.7
			v-0.4c0,0,0-0.1,0-0.1c0,0,0,0,0,0c0,0,0,0,0-0.1c0,0,0,0,0-0.1c0,0,0,0,0,0c0-0.2,0-0.5-0.1-0.7c0.2,0.3,0.1,0.6,0.1,0.9
			c0,0.1,0,0.3,0,0.4c0.2,1.1,0.4,2.2,0.8,3.2c1.9,4.6,5.3,7.5,10.3,8.5c0.3,0.1,0.6,0.1,0.9,0.1c0.1,0,0.1,0,0.2,0c0,0,0.1,0,0.1,0
			c0,0,0.1,0,0.1,0c0.1,0,0.2,0,0.3,0C52,115.9,52.2,115.9,52.3,116z"/>
		<path class="st0" d="M115.9,53.7v-0.3c-0.2-2.9-1.4-5.5-3.3-7.7c-2.1-2.4-4.7-3.8-7.8-4.4c-0.4-0.1-0.7-0.1-1.1-0.2
			c-0.1,0-0.1,0-0.2,0c-0.1,0-0.1,0-0.2,0c0,0-0.1,0-0.1,0c-0.1,0-0.3,0-0.4-0.1c0.1,0.1,0.2,0,0.4,0h0.6c3,0.2,5.6,1.4,7.8,3.4
			c2.2,2,3.6,4.4,4.2,7.3c0.1,0.5,0.1,1.1,0.1,1.6V54c0,0.1,0,0.2,0,0.2c-0.1-0.1-0.1-0.1-0.1-0.2v-0.2
			C115.9,53.8,115.9,53.7,115.9,53.7z"/>
		<path class="st0" d="M116,103v0.7c0,1.9-0.6,3.6-1.4,5.2c-1.4,2.6-3.5,4.6-6.1,5.9c-1.4,0.7-2.8,1.1-4.3,1.2h-0.7
			c-0.1,0-0.3,0-0.4,0c0.1-0.1,0.3-0.1,0.4-0.1c0.1,0,0.1,0,0.2,0h0.2c0.1,0,0.2,0,0.3,0c1.2-0.2,2.3-0.4,3.4-0.9
			c4.5-2,7.3-5.3,8.3-10.2c0.1-0.4,0.1-0.8,0.1-1.2c0-0.1,0-0.2,0-0.3c0,0,0-0.1,0-0.1C115.9,103.2,115.9,103.1,116,103
			c0-0.1-0.1-0.2,0-0.3C115.9,102.8,116,102.9,116,103z"/>
		<path class="st0" d="M39.1,53.3L39.1,53.3C39.1,53.3,39.1,53.3,39.1,53.3C39.1,53.4,39,53.4,39.1,53.3L39.1,53.3L39.1,53.3z"/>
		<path class="st0" d="M39.1,53.2L39.1,53.2c0,0-0.1-0.1,0-0.1c0,0,0,0,0,0C39.1,53.1,39.1,53.2,39.1,53.2z"/>
		<path class="st1" d="M51.3,41C51.3,41,51.3,41,51.3,41C51.3,41.1,51.3,41.1,51.3,41c-0.1,0-0.1,0-0.1,0L51.3,41L51.3,41
			C51.3,41,51.3,41,51.3,41z"/>
		<path class="st0" d="M51.1,116C51.1,116,51.1,116,51.1,116C51.1,116,51.1,116,51.1,116C51.1,116,51.1,116,51.1,116L51.1,116
			c-1.8-0.1-3.5-0.7-5-1.5c-2.1-1.1-3.8-2.7-5-4.7c-1.1-1.8-1.8-3.6-2-5.7v-0.1c0-0.1,0-0.1-0.1-0.2c0,0,0.1,0,0.1,0
			c0.1,0.1,0,0.2,0.1,0.3c0.2,1.1,0.4,2.2,0.8,3.2c1.9,4.6,5.3,7.5,10.3,8.5C50.5,115.8,50.8,115.9,51.1,116
			C51.1,115.9,51.1,116,51.1,116z"/>
		<path class="st0" d="M116,53.4C116,53.4,116,53.4,116,53.4C116,53.4,115.9,53.4,116,53.4c-0.3-2.9-1.4-5.5-3.4-7.7
			c-2.1-2.4-4.7-3.8-7.8-4.4c-0.4-0.1-0.7-0.1-1.1-0.2c0,0,0,0,0,0c0,0,0,0,0,0c0,0,0,0,0,0v0h0c3,0.2,5.6,1.4,7.8,3.4
			c2.2,2,3.6,4.4,4.2,7.3C115.9,52.3,116,52.8,116,53.4L116,53.4C116,53.4,116,53.4,116,53.4z"/>
		<path class="st0" d="M116,103.7L116,103.7L116,103.7c0,1.9-0.6,3.6-1.5,5.2c-1.4,2.6-3.5,4.6-6.1,5.9c-1.4,0.7-2.8,1.1-4.3,1.2h0
			v0c0,0,0,0,0,0c0,0,0,0,0,0c0,0,0,0,0,0c1.2-0.2,2.3-0.4,3.4-0.9c4.5-2,7.3-5.3,8.3-10.2C115.9,104.5,115.9,104.1,116,103.7
			C115.9,103.7,116,103.7,116,103.7C116,103.7,116,103.7,116,103.7z"/>
		<path class="st0" d="M39.1,103.6C39.1,103.6,39.1,103.6,39.1,103.6C39.1,103.6,39,103.6,39.1,103.6l-0.1-0.1c0-0.1,0-0.1,0-0.2v0
			c0,0,0,0,0,0v0c0-0.1,0-0.1,0-0.2v-0.4C39.2,103,39.1,103.3,39.1,103.6z"/>
		<path class="st0" d="M39.1,53.2c0,0.1,0,0.3-0.1,0.4c0,0,0,0,0,0c0,0,0,0,0,0v-0.3c0,0,0,0,0,0C39.1,53.3,39.1,53.3,39.1,53.2
			c-0.1-0.1-0.1-0.1,0-0.1c0,0,0,0,0,0C39.1,53.1,39.1,53.2,39.1,53.2z"/>
		<path class="st0" d="M39.1,104.1c0,0-0.1-0.1-0.1-0.1c0-0.1,0-0.1-0.1-0.2v-0.2c0,0,0,0,0,0c0,0,0,0,0,0c0,0,0,0,0,0
			c0,0,0,0.1,0.1,0.1C39.1,103.8,39.1,103.9,39.1,104.1z"/>
		<path class="st0" d="M103.4,116C103.4,116,103.4,116,103.4,116C103.4,116,103.4,116,103.4,116l-0.5,0
			C103.1,115.9,103.3,115.9,103.4,116C103.4,115.9,103.4,116,103.4,116z"/>
		<path class="st0" d="M52.3,116h-0.4c0,0,0,0,0,0c0,0,0,0,0,0c0,0,0,0,0,0C52,115.9,52.2,115.9,52.3,116z"/>
		<path class="st2" d="M52.3,41c-0.1,0.1-0.2,0.1-0.4,0.1c0,0,0,0,0,0c0,0,0,0,0,0c0,0,0,0,0,0H52.3z"/>
		<path class="st0" d="M103.2,41C103.2,41,103.2,41,103.2,41C103.2,41.1,103.2,41.1,103.2,41c-0.2,0-0.3,0.1-0.4,0L103.2,41
			C103.2,41,103.2,41,103.2,41z"/>
		<path class="st0" d="M39,54v-0.4h0.1C39.1,53.8,39.1,53.9,39,54z"/>
		<path class="st3" d="M116,102.7v0.3c0,0,0,0,0,0c0,0,0,0,0,0C115.9,102.9,115.9,102.8,116,102.7z"/>
		<path class="st0" d="M116,103.4v0.3l0,0h0l0,0C115.9,103.6,115.9,103.5,116,103.4C115.9,103.4,116,103.4,116,103.4
			C116,103.4,116,103.4,116,103.4z"/>
		<path class="st0" d="M51.9,116h-0.3c0,0,0,0,0,0c0,0,0,0,0,0c0,0,0,0,0,0C51.7,115.9,51.8,115.9,51.9,116
			C51.9,115.9,51.9,116,51.9,116C51.9,116,51.9,116,51.9,116z"/>
		<path class="st0" d="M104.1,115.9C104.1,115.9,104.1,116,104.1,115.9L104.1,115.9l-0.3,0.1c0,0,0,0,0,0c0,0,0,0,0,0c0,0,0,0,0,0
			C103.9,115.9,104,115.9,104.1,115.9z"/>
		<path class="st0" d="M116,53.4v0.3c0,0,0,0,0,0c0,0,0,0,0,0L116,53.4C115.9,53.4,116,53.4,116,53.4C116,53.4,116,53.4,116,53.4z"
			/>
		<path class="st4" d="M51.6,41C51.6,41,51.6,41,51.6,41C51.5,41.1,51.5,41.1,51.6,41c-0.1,0-0.2,0-0.3,0c0,0,0,0,0,0v0L51.6,41
			C51.6,41,51.6,41,51.6,41z"/>
		<path class="st5" d="M51.8,41C51.8,41,51.8,41,51.8,41C51.8,41.1,51.8,41.1,51.8,41c-0.1,0-0.2,0-0.3,0c0,0,0,0,0,0v0L51.8,41
			C51.8,41,51.8,41,51.8,41z"/>
		<path class="st0" d="M39.1,103.5C39.1,103.5,39,103.5,39.1,103.5c-0.1-0.1-0.1-0.1-0.1-0.2c0,0,0,0,0.1,0
			C39.1,103.4,39.1,103.5,39.1,103.5z"/>
		<path class="st0" d="M116,103v0.2c0,0,0,0,0,0c0,0,0,0,0,0C115.9,103.2,115.9,103.1,116,103C115.9,103,116,103,116,103
			C116,103,116,103,116,103z"/>
		<path class="st0" d="M116,54v0.2C115.9,54.2,115.9,54.1,116,54C115.9,54,116,54,116,54C116,54,116,54,116,54z"/>
		<path class="st0" d="M116,53.8V54c0,0,0,0,0,0c0,0,0,0,0,0L116,53.8C115.9,53.8,116,53.8,116,53.8C116,53.8,116,53.8,116,53.8z"/>
		<path class="st0" d="M51.3,116C51.3,116,51.3,116,51.3,116C51.3,116,51.3,116,51.3,116l-0.2,0c0,0,0,0,0,0v0
			C51.2,115.9,51.2,115.9,51.3,116C51.3,115.9,51.3,116,51.3,116z"/>
		<path class="st0" d="M39.1,103.3C39,103.3,39,103.3,39.1,103.3c-0.1-0.1-0.1-0.2-0.1-0.2C39.1,103.2,39.1,103.2,39.1,103.3z"/>
		<path class="st0" d="M103.8,41.1c-0.1,0-0.1,0-0.2,0c0,0,0,0,0,0c0,0,0,0,0,0c0,0,0,0,0,0L103.8,41.1L103.8,41.1
			C103.8,41,103.8,41.1,103.8,41.1z"/>
		<path class="st0" d="M103.5,41.1c-0.1,0-0.1,0-0.2,0c0,0,0,0,0,0c0,0,0,0,0,0c0,0,0,0,0,0L103.5,41.1L103.5,41.1
			C103.5,41,103.5,41.1,103.5,41.1z"/>
		<path class="st0" d="M103.8,115.9C103.8,115.9,103.8,116,103.8,115.9C103.8,116,103.8,116,103.8,115.9l-0.2,0.1c0,0,0,0,0,0
			c0,0,0,0,0,0c0,0,0,0,0,0H103.8z"/>
		<path class="st6" d="M51.9,41C51.9,41,51.9,41,51.9,41C51.9,41,51.9,41.1,51.9,41c-0.1,0.1-0.1,0.1-0.2,0.1c0,0,0,0,0,0
			c0,0,0,0,0,0H51.9z"/>
		<path class="st0" d="M103.3,41.1c0,0-0.1,0-0.1,0c0,0,0,0,0,0c0,0,0,0,0,0L103.3,41.1C103.3,41,103.3,41,103.3,41.1
			C103.3,41,103.3,41.1,103.3,41.1z"/>
		<path class="st0" d="M116,53.7v0.1c0,0,0,0,0,0c0,0,0,0,0,0C115.9,53.8,115.9,53.7,116,53.7C115.9,53.7,116,53.7,116,53.7
			C116,53.7,116,53.7,116,53.7z"/>
		<path class="st0" d="M51.5,116C51.5,116,51.5,116,51.5,116C51.5,116,51.5,116,51.5,116l-0.2,0c0,0,0,0,0,0c0,0,0,0,0,0
			C51.4,115.9,51.4,115.9,51.5,116C51.5,115.9,51.5,116,51.5,116z"/>
		<path class="st0" d="M51.6,116C51.6,116,51.6,116,51.6,116l-0.1,0c0,0,0,0,0,0c0,0,0,0,0,0C51.5,115.9,51.5,115.9,51.6,116
			C51.6,115.9,51.6,116,51.6,116z"/>
		<path class="st0" d="M103.6,115.9C103.6,115.9,103.6,116,103.6,115.9C103.5,116,103.5,116,103.6,115.9l-0.2,0.1v0c0,0,0,0,0,0
			C103.5,115.9,103.5,115.9,103.6,115.9z"/>
		<path class="st0" d="M116,103.3v0.1l0,0h0l0,0C115.9,103.4,115.9,103.3,116,103.3C115.9,103.3,116,103.3,116,103.3
			C116,103.3,116,103.3,116,103.3z"/>
		<path class="st0" d="M73.5,73c-0.2,1.2-0.7,2.1-1.7,2.8c-0.7,0.6-1.5,0.9-2.4,1.1c-1,0.3-2,0.4-3,0.4c-0.9,0-1.9,0-2.8,0
			c-0.3,0-0.3,0-0.3-0.3c0-1.7,0-3.4,0-5.1v-4.9c0-0.1,0-0.2,0-0.3c0-0.1,0.1-0.2,0.2-0.2c0.1,0,0.3,0,0.4,0c1.1,0,2.2,0,3.4,0
			c1.2,0,2.3,0.2,3.4,0.7c1.7,0.7,2.6,2.1,2.8,3.9C73.7,71.6,73.6,72.3,73.5,73z"/>
	</g>
</g>
</svg>
