<svg width="200" height="200" viewBox="0 0 200 200" fill="none" xmlns="http://www.w3.org/2000/svg">
<rect width="199.296" height="199.296" fill="#111111"/>
<path d="M148.812 66.9278V132.465C148.666 133.082 148.53 133.699 148.369 134.313C146.335 142.07 139.485 147.366 131.39 147.373C110.426 147.39 89.4642 147.38 68.4993 147.373C67.7699 147.373 67.0406 147.298 66.3148 147.216C57.6414 146.231 51.013 138.87 51.0094 130.174C50.9987 109.821 50.9951 89.4716 51.0094 69.1187C51.013 61.0546 56.9836 53.8968 64.9062 52.3839C66.0932 52.1555 67.2873 52.0092 68.5028 52.0092C89.4678 52.0128 110.429 51.9735 131.394 52.0342C137.937 52.052 142.988 54.9744 146.474 60.5229C147.708 62.489 148.34 64.6799 148.816 66.9278H148.812ZM73.2221 97.9461C73.2221 104.611 73.2221 111.277 73.2221 117.942C73.2221 119.17 73.3115 119.252 74.5163 119.255C76.4898 119.259 78.4598 119.259 80.4333 119.255C81.6846 119.255 81.7597 119.184 81.7632 117.985C81.7704 114.238 81.7847 110.495 81.7561 106.749C81.7489 105.867 82.0778 105.55 82.943 105.628C85.5815 105.867 88.2164 105.739 90.8335 105.343C94.9378 104.726 98.513 103.124 101.087 99.7195C103.25 96.8614 103.872 93.5644 103.697 90.0925C103.436 85.0221 101.177 81.1114 96.6468 78.66C93.7938 77.115 90.6798 76.5405 87.4549 76.4977C83.1933 76.437 78.9353 76.5405 74.6772 76.6904C73.265 76.7403 73.2292 76.7403 73.2292 78.1391C73.2292 84.7402 73.2292 91.3414 73.2292 97.9461H73.2221ZM108.366 114.185C108.366 115.041 108.427 115.905 108.352 116.754C108.255 117.821 108.702 118.363 109.693 118.717C113.457 120.058 117.333 120.265 121.262 119.926C123.146 119.766 124.955 119.259 126.628 118.356C129.785 116.651 131.541 114.007 131.748 110.417C131.962 106.681 130.307 103.951 127.097 102.099C125.441 101.143 123.718 100.344 121.934 99.6481C120.343 99.0273 118.67 98.5027 117.397 97.2895C116.16 96.1085 116.568 94.4635 118.187 93.9212C118.945 93.6678 119.728 93.5287 120.533 93.5465C123.35 93.6143 126.099 94.0211 128.698 95.1879C129.796 95.6803 130.05 95.5054 130.057 94.2923C130.064 92.5474 130.032 90.799 130.068 89.0542C130.082 88.2727 129.817 87.7982 129.045 87.5769C124.615 86.3209 120.121 85.9998 115.688 87.2879C111.641 88.4654 108.978 91.1808 108.47 95.5054C107.987 99.6303 109.968 102.545 113.411 104.647C115.434 105.882 117.651 106.674 119.814 107.584C120.751 107.98 121.698 108.369 122.445 109.097C123.593 110.214 123.303 111.787 121.827 112.415C121.062 112.74 120.243 112.868 119.41 112.9C115.838 113.025 112.456 112.294 109.296 110.627C108.524 110.221 108.348 110.485 108.363 111.223C108.384 112.208 108.366 113.193 108.363 114.174L108.366 114.185Z" fill="#A3A3A3"/>
<path d="M85.1452 84.2227C86.7076 84.1477 88.2592 84.2441 89.7858 84.5973C92.8319 85.3038 94.8876 87.5125 95.0449 90.2315C95.2666 94.078 93.9045 96.2582 90.5474 97.4928C87.9375 98.4526 85.2275 98.2421 82.5318 98.2135C81.7953 98.2064 81.7989 97.6391 81.7953 97.1217C81.7881 94.6168 81.7881 92.1119 81.7881 89.6071C81.7881 88.244 81.8239 86.8774 81.7774 85.5179C81.7452 84.5938 82.0777 84.1549 83.043 84.2191C83.7402 84.2655 84.4409 84.2262 85.1381 84.2262L85.1452 84.2227Z" fill="#A3A3A3"/>
</svg>
