<svg width="157" height="157" viewBox="0 0 157 157" fill="none" xmlns="http://www.w3.org/2000/svg">
<rect width="156.383" height="156.383" fill="#111111"/>
<path d="M32.0007 96.7269C32.137 96.2512 32.27 95.7747 32.4106 95.3001C32.8673 93.7586 33.4207 92.254 34.1081 90.7981C34.8273 89.2756 35.678 87.8329 36.7046 86.4967C38.3899 84.3022 40.4358 82.5239 42.8816 81.207C44.7679 80.1914 46.7717 79.5089 48.8662 79.0772C50.1341 78.8157 51.4156 78.6599 52.7068 78.5664C53.9095 78.479 55.1137 78.4704 56.3154 78.5134C59.07 78.6115 61.7707 79.0396 64.378 79.9646C65.7868 80.4643 67.1358 81.0909 68.4217 81.854C69.8463 82.6994 71.1659 83.6849 72.4193 84.7636C73.6401 85.8139 74.7669 86.9603 75.9057 88.0952C76.6087 88.7959 77.3012 89.5074 78.0182 90.193C79.2335 91.3551 80.5002 92.4546 81.9619 93.3115C83.2865 94.0881 84.7158 94.5499 86.2267 94.7949C87.1947 94.9522 88.1673 95.0117 89.1435 94.9655C90.6771 94.8927 92.152 94.5499 93.5623 93.9384C94.761 93.4186 95.8674 92.7455 96.8929 91.9398C97.8066 91.2219 98.6469 90.4262 99.4261 89.5643C99.9633 88.9704 100.469 88.3513 100.972 87.7011C100.998 87.7756 100.971 87.8283 100.958 87.8795C100.344 90.2758 99.5142 92.5918 98.3528 94.7821C97.5333 96.3275 96.5596 97.7694 95.3982 99.0848C93.8467 100.842 92.0352 102.267 89.959 103.363C87.8473 104.476 85.5982 105.173 83.2499 105.571C82.1338 105.76 81.0108 105.882 79.8793 105.936C79.0839 105.974 78.2886 106.014 77.4925 105.995C75.17 105.94 72.8702 105.704 70.6161 105.117C69.1458 104.734 67.7234 104.224 66.3531 103.567C64.4693 102.663 62.7477 101.515 61.1455 100.183C60.3591 99.5291 59.6087 98.8366 58.8658 98.1344C57.8137 97.1403 56.8274 96.0821 55.7951 95.0686C54.6988 93.9925 53.5834 92.9386 52.3461 92.0193C50.5835 90.71 48.6192 89.9086 46.4366 89.6345C45.7466 89.5478 45.0563 89.4876 44.3608 89.4977C42.6946 89.5217 41.092 89.8495 39.5563 90.4957C38.0303 91.1381 36.6697 92.0379 35.4216 93.1173C34.1998 94.1738 33.1265 95.3653 32.1449 96.6424C32.1014 96.699 32.0651 96.762 32 96.7986C32 96.7746 32 96.7509 32 96.7269H32.0007Z" fill="#A3A3A3"/>
<path d="M55.0033 69.2712C55.1691 68.6848 55.3179 68.1266 55.4844 67.5731C55.9781 65.9299 56.5919 64.3318 57.3578 62.7946C58.1866 61.1317 59.1815 59.5741 60.3932 58.1601C61.8847 56.4198 63.6218 54.9743 65.6311 53.8573C67.9819 52.5504 70.5061 51.7659 73.1575 51.3593C74.306 51.183 75.4602 51.0795 76.622 51.0322C77.4486 50.9985 78.2752 50.9885 79.1001 51.0154C81.5257 51.0949 83.9172 51.4137 86.2497 52.1098C88.2993 52.7213 90.2291 53.5925 92.0337 54.7371C93.3803 55.5912 94.6312 56.5695 95.8225 57.6274C96.8829 58.5692 97.8785 59.5758 98.8821 60.5753C99.6274 61.318 100.362 62.0717 101.122 62.7989C102.177 63.8077 103.28 64.7592 104.516 65.5484C105.825 66.3831 107.239 66.9326 108.765 67.2253C109.937 67.4503 111.117 67.5327 112.303 67.4675C113.83 67.3836 115.294 67.0168 116.693 66.396C118.167 65.7418 119.48 64.8466 120.691 63.7909C121.872 62.7609 122.903 61.5959 123.861 60.3625C123.892 60.3217 123.913 60.268 124 60.2465C123.915 60.5682 123.837 60.8766 123.751 61.1829C123.159 63.2983 122.389 65.3453 121.358 67.2891C120.546 68.8184 119.584 70.246 118.44 71.5525C116.997 73.2007 115.322 74.5624 113.41 75.6353C111.905 76.4804 110.311 77.1105 108.645 77.5615C107.197 77.9535 105.724 78.211 104.231 78.3533C103.589 78.4145 102.943 78.4493 102.298 78.4783C101.615 78.5087 100.932 78.5162 100.251 78.4994C97.4229 78.4292 94.6453 78.0434 91.955 77.1381C89.6904 76.3758 87.6006 75.2781 85.6701 73.876C84.6288 73.1197 83.6457 72.294 82.6976 71.4249C81.4542 70.285 80.2791 69.0767 79.0882 67.8841C77.8844 66.6783 76.6597 65.4982 75.2829 64.4837C73.6066 63.2489 71.7437 62.4761 69.6798 62.1799C68.9322 62.0724 68.1818 61.9982 67.4271 62.0068C65.2093 62.0323 63.1339 62.5944 61.1969 63.6719C59.5486 64.5887 58.1265 65.7855 56.8393 67.1476C56.2442 67.777 55.6894 68.4426 55.1662 69.1336C55.1313 69.1795 55.1087 69.239 55.0033 69.2712Z" fill="#A3A3A3"/>
</svg>
