<?xml version="1.0" encoding="utf-8"?>
<!-- Generator: Adobe Illustrator 25.2.1, SVG Export Plug-In . SVG Version: 6.00 Build 0)  -->
<svg version="1.1" id="Camada_1" xmlns="http://www.w3.org/2000/svg" xmlns:xlink="http://www.w3.org/1999/xlink" x="0px" y="0px"
	 viewBox="0 0 157 157" style="enable-background:new 0 0 157 157;" xml:space="preserve">
<style type="text/css">
	.st0{fill:#A3A3A3;}
</style>
<path class="st0" d="M32,96.7c0.1-0.5,0.3-1,0.4-1.4c0.5-1.5,1-3,1.7-4.5c0.7-1.5,1.6-3,2.6-4.3c1.7-2.2,3.7-4,6.2-5.3
	c1.9-1,3.9-1.7,6-2.1c1.3-0.3,2.5-0.4,3.8-0.5c1.2-0.1,2.4-0.1,3.6-0.1c2.8,0.1,5.5,0.5,8.1,1.5c1.4,0.5,2.8,1.1,4,1.9
	c1.4,0.8,2.7,1.8,4,2.9c1.2,1.1,2.3,2.2,3.5,3.3c0.7,0.7,1.4,1.4,2.1,2.1c1.2,1.2,2.5,2.3,3.9,3.1c1.3,0.8,2.8,1.2,4.3,1.5
	c1,0.2,1.9,0.2,2.9,0.2c1.5-0.1,3-0.4,4.4-1c1.2-0.5,2.3-1.2,3.3-2c0.9-0.7,1.8-1.5,2.5-2.4c0.5-0.6,1-1.2,1.5-1.9
	c0,0.1,0,0.1,0,0.2c-0.6,2.4-1.4,4.7-2.6,6.9c-0.8,1.5-1.8,3-3,4.3c-1.6,1.8-3.4,3.2-5.4,4.3c-2.1,1.1-4.4,1.8-6.7,2.2
	c-1.1,0.2-2.2,0.3-3.4,0.4c-0.8,0-1.6,0.1-2.4,0.1c-2.3-0.1-4.6-0.3-6.9-0.9c-1.5-0.4-2.9-0.9-4.3-1.5c-1.9-0.9-3.6-2.1-5.2-3.4
	c-0.8-0.7-1.5-1.3-2.3-2c-1.1-1-2-2.1-3.1-3.1c-1.1-1.1-2.2-2.1-3.4-3c-1.8-1.3-3.7-2.1-5.9-2.4c-0.7-0.1-1.4-0.1-2.1-0.1
	c-1.7,0-3.3,0.4-4.8,1c-1.5,0.6-2.9,1.5-4.1,2.6c-1.2,1.1-2.3,2.2-3.3,3.5C32.1,96.7,32.1,96.8,32,96.7C32,96.8,32,96.8,32,96.7
	L32,96.7z"/>
<path class="st0" d="M55,69.3c0.2-0.6,0.3-1.1,0.5-1.7c0.5-1.6,1.1-3.2,1.9-4.8c0.8-1.7,1.8-3.2,3-4.6c1.5-1.7,3.2-3.2,5.2-4.3
	c2.4-1.3,4.9-2.1,7.5-2.5c1.1-0.2,2.3-0.3,3.5-0.3c0.8,0,1.7,0,2.5,0c2.4,0.1,4.8,0.4,7.1,1.1c2,0.6,4,1.5,5.8,2.6
	c1.3,0.9,2.6,1.8,3.8,2.9c1.1,0.9,2.1,1.9,3.1,2.9c0.7,0.7,1.5,1.5,2.2,2.2c1.1,1,2.2,2,3.4,2.7c1.3,0.8,2.7,1.4,4.2,1.7
	c1.2,0.2,2.4,0.3,3.5,0.2c1.5-0.1,3-0.5,4.4-1.1c1.5-0.7,2.8-1.5,4-2.6c1.2-1,2.2-2.2,3.2-3.4c0,0,0.1-0.1,0.1-0.1
	c-0.1,0.3-0.2,0.6-0.2,0.9c-0.6,2.1-1.4,4.2-2.4,6.1c-0.8,1.5-1.8,3-2.9,4.3c-1.4,1.6-3.1,3-5,4.1c-1.5,0.8-3.1,1.5-4.8,1.9
	c-1.4,0.4-2.9,0.6-4.4,0.8c-0.6,0.1-1.3,0.1-1.9,0.1c-0.7,0-1.4,0-2,0c-2.8-0.1-5.6-0.5-8.3-1.4c-2.3-0.8-4.4-1.9-6.3-3.3
	c-1-0.8-2-1.6-3-2.5c-1.2-1.1-2.4-2.3-3.6-3.5c-1.2-1.2-2.4-2.4-3.8-3.4c-1.7-1.2-3.5-2-5.6-2.3c-0.7-0.1-1.5-0.2-2.3-0.2
	c-2.2,0-4.3,0.6-6.2,1.7c-1.6,0.9-3.1,2.1-4.4,3.5c-0.6,0.6-1.1,1.3-1.7,2C55.1,69.2,55.1,69.2,55,69.3z"/>
</svg>
