<?xml version="1.0" encoding="utf-8"?>
<!-- Generator: Adobe Illustrator 25.2.1, SVG Export Plug-In . SVG Version: 6.00 Build 0)  -->
<svg version="1.1" id="Camada_1" xmlns="http://www.w3.org/2000/svg" xmlns:xlink="http://www.w3.org/1999/xlink" x="0px" y="0px"
	 viewBox="0 0 157 157" style="enable-background:new 0 0 157 157;" xml:space="preserve">
<style type="text/css">
	.st0{fill:#A3A3A3;}
</style>
<path class="st0" d="M114.6,45.9c-1.1-2.8-3.1-4.4-6-4.8c-0.1,0-0.2,0-0.3-0.1H47.8c-0.2,0.1-0.5,0.1-0.7,0.1
	c-3.1,0.6-5.5,3-5.9,6.1c0,0.2-0.1,0.3-0.1,0.4v60.6c0.1,0.2,0.1,0.3,0.1,0.5c0.5,3.1,2.8,5.5,5.8,6.1c0.2,0,0.3,0.1,0.4,0.1h61.3
	c0.1-0.1,0.3-0.1,0.4-0.1c3-0.7,4.9-2.5,5.7-5.4c0.1-0.3,0.1-0.5,0.2-0.8V47.4C114.9,46.8,114.8,46.3,114.6,45.9z M83.9,81.4
	c0,0.1,0,0.2,0,0.3c0,0.2-0.1,0.3-0.3,0.3c-0.1,0-0.3,0-0.4,0h-7.9c-0.5,0-0.7,0.2-0.7,0.7v25c0,0.5-0.2,0.7-0.7,0.7h-6
	c-0.6,0-0.6,0-0.6-0.6c0-8.3,0-16.7,0-25c0-0.1,0-0.3,0-0.4c0-0.3-0.1-0.3-0.3-0.3c-0.1,0-0.3,0-0.4,0h-7.8c-0.6,0-0.6,0-0.6-0.6
	v-4.6c0-0.1,0-0.1,0-0.2c0-0.4,0.1-0.4,0.4-0.4c0.1,0,0.2,0,0.3,0c8.1,0,16.2,0,24.3,0c0.2,0,0.3,0,0.5,0c0.2,0,0.2,0.1,0.2,0.3
	c0,0.1,0,0.2,0,0.3V81.4z M108.7,101.3c-0.5,2.6-1.9,4.4-4.1,5.7c-1.4,0.8-3,1.3-4.6,1.5c-1.8,0.3-3.5,0.4-5.3,0.3
	c-2.1-0.1-4.2-0.4-6.2-1.1c-0.4-0.1-0.8-0.3-1.2-0.5c-0.3-0.1-0.4-0.3-0.4-0.6c0-1,0-2.1,0-3.1c0-1,0-2.1,0-3.1c0-0.1,0-0.3,0.1-0.3
	c0.1-0.1,0.2,0.1,0.3,0.1c1.8,1.4,3.9,2.4,6.2,2.8c1.7,0.3,3.3,0.3,5-0.1c0.6-0.2,1.2-0.4,1.7-0.8c1.3-0.9,1.6-2.6,0.6-3.9
	c-0.4-0.5-0.9-1-1.4-1.3c-0.9-0.6-1.8-1.1-2.7-1.5c-0.8-0.3-1.5-0.7-2.3-1c-1.4-0.6-2.8-1.3-4-2.3c-1.3-1-2.4-2.3-3-3.9
	c-0.3-0.8-0.5-1.7-0.5-2.6c0-1.1,0-2.3,0.3-3.4c0.6-2,1.8-3.5,3.4-4.6c1.2-0.9,2.6-1.4,4.1-1.7c2.1-0.5,4.3-0.6,6.5-0.5
	c1.4,0.1,2.9,0.2,4.2,0.6c0.6,0.1,1.1,0.3,1.6,0.5c0.5,0.2,0.5,0.2,0.5,0.7c0,1.7,0,3.4,0,5.2c0,0.2,0,0.4,0,0.6
	c0,0.3-0.1,0.4-0.3,0.2c-1.9-1.2-4.1-1.8-6.4-2c-1.2-0.1-2.4-0.1-3.5,0.3c-0.8,0.2-1.6,0.6-2.2,1.3c-0.8,0.9-0.9,2.1-0.3,3.1
	c0.3,0.5,0.7,0.9,1.1,1.2c0.8,0.6,1.7,1.1,2.6,1.5c0.8,0.4,1.6,0.7,2.3,1c1,0.4,2,0.9,2.9,1.5c1,0.6,2,1.3,2.8,2.1
	c1.3,1.3,2,2.9,2.3,4.8C109,99,108.9,100.2,108.7,101.3z"/>
</svg>
