<svg width="157" height="157" viewBox="0 0 157 157" fill="none" xmlns="http://www.w3.org/2000/svg">
<rect width="156.383" height="156.383" fill="#111111"/>
<path d="M114.641 45.8526C113.562 43.1007 111.571 41.4884 108.638 41.0576C108.544 41.0432 108.452 41.0187 108.358 41H47.7861C47.5455 41.0864 47.289 41.0735 47.0398 41.1181C43.9334 41.6829 41.5677 44.138 41.1268 47.266C41.1037 47.4216 41.0706 47.5728 41 47.714V108.286C41.0706 108.44 41.1009 108.604 41.1268 108.77C41.5979 111.886 43.8931 114.282 46.9749 114.878C47.1276 114.908 47.2818 114.932 47.4244 115H108.718C108.859 114.925 109.014 114.903 109.166 114.869C112.139 114.199 114.023 112.382 114.849 109.459C114.924 109.195 114.951 108.918 115 108.648V47.3524C114.903 46.8467 114.83 46.3367 114.641 45.8526ZM83.9439 81.4442C83.9439 81.5407 83.9411 81.6373 83.9382 81.7323C83.931 81.9067 83.8359 81.996 83.6659 82.0047C83.5333 82.0119 83.4008 82.0133 83.2682 82.0133H75.3295C74.879 82.0133 74.6533 82.2409 74.6523 82.6962V107.705C74.6523 108.188 74.4165 108.43 73.9449 108.43H67.9556C67.3778 108.43 67.3735 108.426 67.3735 107.844C67.3721 99.4957 67.3721 91.1479 67.3721 82.8C67.3721 82.6559 67.3764 82.5104 67.3692 82.3663C67.3548 82.0882 67.3058 82.0392 67.022 82.0191C66.8909 82.009 66.7583 82.0133 66.6257 82.0133H58.7951C58.1871 82.0133 58.1756 82.0003 58.1741 81.3794V76.7962C58.1741 76.7372 58.1741 76.6766 58.1756 76.6161C58.1856 76.2228 58.2303 76.1767 58.6107 76.1666C58.7187 76.1637 58.8268 76.1666 58.9349 76.1666C67.0306 76.1666 75.1264 76.1666 83.2207 76.1666C83.3777 76.1666 83.5348 76.1666 83.6904 76.1753C83.8474 76.1825 83.9295 76.2718 83.9367 76.4288C83.9425 76.5239 83.9439 76.6204 83.9439 76.717V81.4442ZM108.747 101.3C108.287 103.856 106.871 105.736 104.648 107.031C103.223 107.861 101.666 108.29 100.052 108.563C98.2869 108.859 96.509 108.92 94.7296 108.842C92.6074 108.748 90.5139 108.457 88.4939 107.76C88.0732 107.615 87.6655 107.436 87.2549 107.266C86.9725 107.148 86.8586 106.968 86.863 106.658C86.8774 105.623 86.8687 104.589 86.8687 103.554C86.8673 102.508 86.8673 101.461 86.8702 100.415C86.8702 100.3 86.8212 100.146 86.948 100.085C87.0733 100.026 87.1641 100.16 87.2534 100.231C89.0904 101.67 91.1608 102.591 93.456 102.987C95.1172 103.275 96.7813 103.307 98.431 102.883C99.0419 102.726 99.6153 102.48 100.128 102.105C101.408 101.171 101.681 99.5029 100.765 98.2048C100.386 97.6688 99.8977 97.2409 99.3617 96.8678C98.5102 96.2727 97.5838 95.8131 96.6358 95.3953C95.865 95.0567 95.0884 94.7296 94.3132 94.404C92.8768 93.8003 91.5023 93.0871 90.2675 92.1276C88.9291 91.0888 87.8802 89.8267 87.288 88.2202C86.9811 87.3903 86.8111 86.5316 86.7751 85.6484C86.7319 84.5131 86.7837 83.3864 87.1065 82.287C87.6813 80.3333 88.8729 78.8364 90.537 77.7025C91.7861 76.8524 93.175 76.3222 94.6374 75.9707C96.7741 75.4577 98.9454 75.3713 101.127 75.4693C102.557 75.5327 103.979 75.6868 105.377 76.0225C105.927 76.1551 106.471 76.3092 107.007 76.4922C107.481 76.655 107.488 76.6622 107.488 77.155C107.489 78.8753 107.489 80.5956 107.489 82.3159C107.489 82.5205 107.494 82.725 107.486 82.9296C107.478 83.2538 107.426 83.2869 107.161 83.1241C105.213 81.9254 103.072 81.3304 100.811 81.1517C99.6341 81.0595 98.4541 81.1013 97.3029 81.424C96.4543 81.6617 95.6777 82.0176 95.0653 82.6761C94.2657 83.5362 94.1375 84.8185 94.7628 85.8141C95.061 86.2895 95.4558 86.6757 95.8981 87.0142C96.6949 87.6237 97.5795 88.0891 98.4901 88.5026C99.2667 88.8556 100.052 89.1913 100.837 89.5299C101.843 89.9635 102.825 90.4433 103.776 90.9879C104.805 91.5772 105.755 92.2673 106.584 93.1188C107.883 94.4516 108.629 96.0407 108.845 97.8864C108.979 99.0289 108.95 100.169 108.747 101.3Z" fill="#A3A3A3"/>
</svg>
