<svg width="200" height="200" viewBox="0 0 200 200" fill="none" xmlns="http://www.w3.org/2000/svg">
<rect width="199.296" height="199.296" fill="#111111"/>
<path d="M81.8715 145.953C79.9317 145.519 78.0417 144.969 76.269 144.014C67.6751 139.379 65.5578 127.317 72.0662 120.033C74.6987 117.086 77.9316 115.3 81.8608 114.721C72.8691 112.466 67.9309 106.976 68.3324 97.4876C68.5526 92.2178 72.7554 84.931 81.8963 83.3508C79.4628 82.953 77.3348 82.2819 75.4305 81.0461C71.0466 78.2088 68.5491 74.2103 68.0659 68.9903C67.295 60.6701 73.37 53.1063 81.9106 52.0588C82.4541 51.9913 83.0083 52.002 83.559 52.002C94.1388 52.002 104.719 51.9913 115.295 52.0197C123.736 52.041 130.695 59.0402 130.717 67.474C130.735 75.3005 125.59 81.5965 117.92 83.1306C117.654 83.1839 117.387 83.2407 116.851 83.3543C121.412 83.9758 124.94 85.9715 127.64 89.3769C130.351 92.7931 131.321 96.7383 130.827 101.003C130.006 108.087 123.793 114.021 116.993 114.618C108.651 115.349 101.521 109.97 99.7981 101.933C99.5992 102.26 99.6844 102.583 99.6844 102.882C99.6809 111.99 99.6915 121.095 99.6809 130.204C99.6702 136.844 95.6486 142.668 89.4421 145.011C88.3621 145.42 87.2147 145.644 86.0991 145.956H81.8786L81.8715 145.953ZM112.716 83.4324C108.449 83.4324 104.427 83.4324 100.402 83.4324C99.7519 83.4324 99.6738 83.8302 99.6773 84.3415C99.6844 85.9288 99.6773 87.5162 99.6773 89.1035C99.6773 91.4152 99.6773 93.727 99.6773 96.0423C101.461 89.2988 105.695 85.105 112.716 83.436V83.4324Z" fill="#A3A3A3"/>
</svg>
