<svg width="25" height="25" viewBox="0 0 25 25" fill="none" xmlns="http://www.w3.org/2000/svg">
<circle cx="12.5" cy="12.5" r="12.5" fill="#111111"/>
<path d="M15.4964 4.14482V11.6619C15.4964 11.7417 15.4314 11.8067 15.3509 11.8067H13.6421C13.5619 11.8067 13.4969 11.742 13.4969 11.6619V4.14482C13.4969 4.06503 13.5619 4 13.6421 4H15.3509C15.4311 4 15.4964 4.06467 15.4964 4.14482Z" fill="#F0F0F0"/>
<path d="M12.0551 4.15282V5.83964C12.0551 5.9233 11.987 5.99149 11.9026 5.99149H9.29487C9.13416 5.99149 9.00348 6.12119 9.00348 6.28147V11.6555C9.00348 11.7391 8.93496 11.8073 8.8509 11.8073H7.15411C7.06969 11.8073 7.00153 11.7391 7.00153 11.6555V6.14298C7.00153 6.05932 7.06969 5.99149 7.15411 5.99149H8.82511C8.93566 5.99149 9.03456 5.93068 9.08578 5.83542L10.0203 4.08182C10.0468 4.03226 10.0984 4.00098 10.1553 4.00098H11.9029C11.9873 4.00098 12.0555 4.06881 12.0555 4.15282H12.0551Z" fill="#F0F0F0"/>
<path d="M12.2113 17.9894C11.8337 19.7507 10.2404 20.9999 8.21441 20.9999C5.81511 20.9999 4 19.24 4 16.9135C4 14.5869 5.81511 12.8267 8.21441 12.8267C10.2361 12.8267 11.827 14.0709 12.2088 15.8267C12.2293 15.9212 12.1565 16.0105 12.0594 16.0105H10.227C10.1655 16.0105 10.1097 15.9739 10.0864 15.9173C9.79782 15.2182 9.08223 14.7543 8.21159 14.7553C7.02342 14.7571 6.06129 15.7311 6.06129 16.9138C6.06129 18.0966 6.98421 19.072 8.21477 19.072C9.08577 19.072 9.80135 18.6063 10.0885 17.9054C10.1104 17.8516 10.163 17.8172 10.2213 17.8172H12.0707C12.1625 17.8172 12.2307 17.9012 12.2116 17.9901L12.2113 17.9894Z" fill="#F0F0F0"/>
<path d="M20.8428 20.8168H18.6734C18.6247 20.8168 18.5788 20.7943 18.5491 20.756L17.5651 19.485L17.4206 19.2997L16.3759 17.9525L16.3663 17.9398L15.3336 16.6312C15.2866 16.5711 15.2901 16.4857 15.3417 16.4294L15.4964 16.2621L16.758 14.8973L18.4735 13.0597C18.5032 13.028 18.5449 13.0098 18.5883 13.0098H20.6789C20.8163 13.0098 20.8873 13.1732 20.793 13.273L17.8438 16.3876C17.7904 16.4439 17.7866 16.5303 17.8346 16.5911L20.9664 20.5644C21.0473 20.6671 20.9739 20.8168 20.8428 20.8168Z" fill="#6233FA"/>
<path d="M16.3755 17.9521L15.5384 18.8273C15.5112 18.8555 15.4964 18.8931 15.4964 18.9321V20.6646C15.4964 20.7483 15.4282 20.8164 15.3438 20.8164H13.6495C13.5654 20.8164 13.4969 20.7483 13.4969 20.6646V13.1616C13.4969 13.078 13.5654 13.0098 13.6495 13.0098H15.3438C15.4282 13.0098 15.4964 13.078 15.4964 13.1616V16.2618L15.3417 16.4291C15.2897 16.4853 15.2866 16.5704 15.3335 16.6309L16.3663 17.9395L16.3758 17.9521H16.3755Z" fill="url(#paint0_linear_435_23)"/>
<defs>
<linearGradient id="paint0_linear_435_23" x1="13.4969" y1="16.9135" x2="17.3298" y2="16.9135" gradientUnits="userSpaceOnUse">
<stop stop-color="#F2F2F2"/>
<stop offset="0.24" stop-color="#EFEFEF"/>
<stop offset="0.38" stop-color="#E7E7E7"/>
<stop offset="0.49" stop-color="#D9D9D9"/>
<stop offset="0.59" stop-color="#C5C5C5"/>
<stop offset="0.66" stop-color="#B3B3B3"/>
</linearGradient>
</defs>
</svg>
