<svg width="77" height="55" viewBox="0 0 77 55" fill="none" xmlns="http://www.w3.org/2000/svg">
<path d="M73.0478 1.18014C70.9431 0.579488 68.8006 1.54053 67.7191 3.57036C67.326 4.30881 66.7801 4.63916 65.9492 4.63916H65.9423C58.9793 4.62326 52.0988 4.62326 45.4912 4.63916H45.4826C44.8525 4.63916 43.9942 4.48723 43.7556 3.21351C43.4448 1.57056 42.2414 0.404595 40.6123 0.169635C39.0157 -0.0600245 37.4158 -0.0564917 35.8587 0.180234C34.3223 0.411661 33.1 1.59882 32.8167 3.13224C32.5712 4.46604 31.7129 4.64093 30.9884 4.64093H30.9747C24.2349 4.6215 17.4092 4.6215 10.6883 4.6427C9.79736 4.64093 9.21539 4.29114 8.78965 3.4944C7.80254 1.64652 5.74421 0.660753 3.78201 1.10241C1.64986 1.57939 0.0601856 3.50676 0.00181749 5.685C-0.0582673 7.91093 1.3769 9.88953 3.49189 10.5008C5.55709 11.0961 7.73559 10.1492 8.78621 8.19889C9.22226 7.38978 9.78363 7.04176 10.6591 7.04176H10.6797C13.5312 7.06119 16.4307 7.05942 19.2358 7.05942C20.5783 7.05766 21.9208 7.05766 23.2649 7.05942C23.2976 7.05942 23.3319 7.05589 23.3662 7.05412C23.5808 7.03646 23.943 7.00642 24.2984 7.26612L24.7018 7.56114L24.5593 8.04696C24.4186 8.52924 24.0546 8.7218 23.8606 8.82603C23.8332 8.84017 23.8057 8.8543 23.78 8.8702C21.1345 10.5449 18.7963 12.6578 16.8307 15.1487C13.3715 19.5335 11.3372 24.5736 10.7845 30.1243C10.6746 31.2355 10.2162 31.7902 9.20165 32.0358C7.5107 32.4456 6.51844 33.5498 6.25407 35.3182C6.04978 36.6961 6.03605 38.203 6.21802 39.8018C6.47038 42.0313 7.96734 43.3668 10.2231 43.3757C11.2995 43.3792 12.4136 43.3845 13.526 43.3739C15.4694 43.3545 16.9766 42.0613 17.2736 40.1516C17.5363 38.4769 17.5311 36.7844 17.2633 35.1221C17.0213 33.6169 16.1183 32.5905 14.5818 32.0694L14.5406 32.0552C13.2153 31.6065 12.9166 31.2885 13.1638 29.7498C14.9011 18.9328 20.9045 11.6614 31.009 8.13882C31.9635 7.8067 32.6073 8.11232 32.9764 9.07336C33.536 10.5326 34.5832 11.3629 36.0888 11.5466C37.5445 11.7215 39.0192 11.7215 40.4681 11.5449C41.9753 11.3611 43.0208 10.529 43.5787 9.07159C43.8963 8.23775 44.389 8.01163 44.8646 8.01163C45.098 8.01163 45.3298 8.06816 45.5307 8.13175C48.7701 9.15992 51.6645 10.7304 54.1331 12.7991C59.3244 17.1503 62.4419 22.86 63.3964 29.7692C63.6007 31.2443 63.393 31.5853 62.0025 32.0588L61.9698 32.0694C60.4334 32.594 59.5544 33.5957 59.2832 35.1362C59.0463 36.4718 59.0257 37.9451 59.218 39.7736C59.4497 41.9853 60.9724 43.3651 63.1939 43.3757H63.2866C64.3664 43.381 65.4822 43.3845 66.5792 43.3721C68.4436 43.3509 69.9354 42.0631 70.2907 40.1657C70.4573 39.2842 70.4349 38.385 70.4109 37.4328C70.4023 37.0918 70.3937 36.7403 70.3955 36.3887C70.4006 33.9119 69.3603 32.541 67.0204 31.9404C66.2015 31.7302 65.7912 31.2055 65.8015 30.3787C65.8033 30.1437 65.7912 29.9229 65.7621 29.7215C64.5415 20.8708 60.2583 13.9121 53.0327 9.03803C52.9812 9.00446 52.9262 8.97443 52.8696 8.94263C52.6258 8.80484 52.255 8.59814 52.0181 8.13882L51.5511 7.23255L52.54 7.10535C52.5795 7.10005 52.6155 7.09475 52.6481 7.08945C52.7408 7.07532 52.8455 7.05766 52.9657 7.05766H56.5536C59.666 7.05942 62.8831 7.05942 66.047 7.04529H66.059C67.0153 7.04529 67.4513 7.62651 67.7243 8.13352C68.7611 10.0538 70.871 11.052 72.8521 10.5573C75.0082 10.0203 76.531 8.10879 76.5533 5.90582C76.5773 3.72052 75.1353 1.77725 73.0478 1.18014ZM41.5513 7.39331C41.5444 8.49744 40.8732 9.19349 39.802 9.21115C39.5977 9.21469 39.3917 9.21469 39.1874 9.21469C39.026 9.21469 38.863 9.21469 38.7016 9.21292H37.9531C36.6742 9.21292 36.0012 9.18289 35.5171 8.68294C34.9986 8.15119 34.9986 7.40215 34.9986 5.91112V5.5472C34.9986 5.12675 34.9986 4.70629 35.0038 4.28584C35.0175 3.17817 35.6905 2.4839 36.7583 2.47506C37.984 2.46446 38.9316 2.46623 39.8312 2.47683C40.8732 2.4892 41.5307 3.16228 41.5479 4.23108C41.5616 5.28221 41.5582 6.32628 41.5513 7.39331Z" fill="#A3A3A3"/>
<path d="M56.0231 48.1349C54.0438 44.0223 52.0816 39.8213 50.1846 35.7581C49.3675 34.0109 48.552 32.2637 47.7314 30.5165C47.1426 29.2622 46.552 28.0097 45.9615 26.7554L45.7229 26.2449C44.6362 23.9394 43.5495 21.6322 42.4697 19.3233C41.6577 17.5832 40.2277 16.5797 38.4475 16.5002L38.396 16.4967H38.3462C36.384 16.5179 34.9265 17.5196 34.0098 19.477C28.6365 30.9599 24.4923 39.7806 20.5714 48.0766C19.6632 49.997 19.8435 51.8183 21.0915 53.3411C22.307 54.8251 23.9893 55.318 25.955 54.765C27.7661 54.2563 29.6562 53.7404 31.3231 53.2829C33.2012 52.7688 35.1428 52.237 37.0638 51.6964C37.4947 51.5745 37.9016 51.5145 38.3033 51.5145C38.6741 51.5145 39.038 51.5657 39.4105 51.6699C42.3032 52.4808 45.2474 53.2881 48.0954 54.069L48.1143 54.0743L50.6086 54.758C51.0361 54.8746 51.5408 55 52.1193 55C52.2395 55 52.3614 54.9947 52.4798 54.9841C53.8876 54.8569 55.2146 53.9471 55.9459 52.608C56.6978 51.2283 56.727 49.5977 56.0231 48.1349ZM52.5674 50.8432L52.303 51.17L51.8962 51.0816C51.788 51.0587 51.6404 51.0181 51.582 51.0022L49.0876 50.3185C46.3855 49.5783 43.3212 48.7374 40.4011 47.9194C38.9556 47.5149 37.5702 47.5237 36.0664 47.9477C34.1523 48.4865 32.221 49.0165 30.3532 49.527C28.5884 50.0111 26.7636 50.5093 24.961 51.0163C24.8151 51.0569 24.6829 51.0834 24.5662 51.0922L24.2331 51.1205L23.9705 50.8255C23.9705 50.8255 23.9533 50.8043 23.943 50.7919L23.7267 50.5093L23.8211 50.1612C23.852 50.0446 23.9018 49.9157 23.9687 49.7761C27.8846 41.4889 32.0304 32.6647 37.4123 21.1623C37.5239 20.9274 37.6355 20.7454 37.747 20.6217L37.9016 20.4504L38.123 20.408C38.1522 20.4027 38.1951 20.3938 38.2569 20.3903L38.3376 20.3832L38.6706 20.4362L38.8423 20.6376C38.9213 20.7313 38.9968 20.8567 39.0672 21.0086C40.1487 23.3211 41.2354 25.6301 42.3238 27.939C42.9933 29.3629 43.6628 30.785 44.3306 32.2089C45.1358 33.9208 45.9357 35.6344 46.7357 37.348L46.7804 37.4416C48.6842 41.5172 50.6516 45.7324 52.6378 49.8592C52.873 50.3485 52.6944 50.6859 52.5674 50.8432Z" fill="#4312E1"/>
</svg>
