<svg width="79" height="55" viewBox="0 0 79 55" fill="none" xmlns="http://www.w3.org/2000/svg">
<path d="M75.3822 1.18014C73.2102 0.579488 70.9993 1.54053 69.8832 3.57036C69.4775 4.30881 68.9142 4.63916 68.0567 4.63916H68.0496C60.8641 4.62326 53.7637 4.62326 46.9449 4.63916H46.9361C46.2859 4.63916 45.4001 4.48723 45.1539 3.21351C44.8332 1.57056 43.5913 0.404595 41.9101 0.169635C40.2626 -0.0600245 38.6115 -0.0564917 37.0046 0.180234C35.4191 0.411661 34.1577 1.59882 33.8654 3.13224C33.6121 4.46604 32.7263 4.64093 31.9787 4.64093H31.9645C25.0093 4.6215 17.9656 4.6215 11.0299 4.6427C10.1104 4.64093 9.50989 4.29114 9.07054 3.4944C8.05189 1.64652 5.92778 0.660753 3.90287 1.10241C1.70259 1.57939 0.0621089 3.50676 0.00187557 5.685C-0.0601294 7.91093 1.42091 9.88953 3.60348 10.5008C5.73468 11.0961 7.98279 10.1492 9.06699 8.19889C9.51697 7.38978 10.0963 7.04176 10.9998 7.04176H11.021C13.9636 7.06119 16.9558 7.05942 19.8505 7.05942C21.2359 7.05766 22.6213 7.05766 24.0084 7.05942C24.0421 7.05942 24.0775 7.05589 24.1129 7.05412C24.3344 7.03646 24.7082 7.00642 25.0749 7.26612L25.4912 7.56114L25.3442 8.04696C25.1989 8.52924 24.8233 8.7218 24.6231 8.82603C24.5948 8.84017 24.5665 8.8543 24.5399 8.8702C21.8099 10.5449 19.397 12.6578 17.3686 15.1487C13.7989 19.5335 11.6995 24.5736 11.1291 30.1243C11.0157 31.2355 10.5427 31.7902 9.49571 32.0358C7.75071 32.4456 6.72675 33.5498 6.45393 35.3182C6.24311 36.6961 6.22895 38.203 6.41673 39.8018C6.67715 42.0313 8.22195 43.3668 10.5498 43.3757C11.6606 43.3792 12.8103 43.3845 13.9583 43.3739C15.9637 43.3545 17.5192 42.0613 17.8256 40.1516C18.0967 38.4769 18.0914 36.7844 17.815 35.1221C17.5652 33.6169 16.6334 32.5905 15.0478 32.0694L15.0053 32.0552C13.6376 31.6065 13.3294 31.2885 13.5845 29.7498C15.3773 18.9328 21.5725 11.6614 32 8.13882C32.985 7.8067 33.6493 8.11232 34.0302 9.07336C34.6077 10.5326 35.6884 11.3629 37.242 11.5466C38.7443 11.7215 40.2661 11.7215 41.7613 11.5449C43.3167 11.3611 44.3956 10.529 44.9714 9.07159C45.2991 8.23775 45.8076 8.01163 46.2983 8.01163C46.5392 8.01163 46.7784 8.06816 46.9857 8.13175C50.3286 9.15992 53.3155 10.7304 55.863 12.7991C61.2202 17.1503 64.4374 22.86 65.4224 29.7692C65.6332 31.2443 65.4188 31.5853 63.9839 32.0588L63.9502 32.0694C62.3647 32.594 61.4576 33.5957 61.1777 35.1362C60.9332 36.4718 60.912 37.9451 61.1104 39.7736C61.3496 41.9853 62.9209 43.3651 65.2133 43.3757H65.309C66.4233 43.381 67.5749 43.3845 68.7069 43.3721C70.6308 43.3509 72.1703 42.0631 72.537 40.1657C72.7089 39.2842 72.6858 38.385 72.661 37.4328C72.6522 37.0918 72.6433 36.7403 72.6451 36.3887C72.6504 33.9119 71.5768 32.541 69.1622 31.9404C68.3171 31.7302 67.8937 31.2055 67.9044 30.3787C67.9061 30.1437 67.8937 29.9229 67.8636 29.7215C66.604 20.8708 62.184 13.9121 54.7274 9.03803C54.6743 9.00446 54.6176 8.97443 54.5591 8.94263C54.3076 8.80484 53.9249 8.59814 53.6804 8.13882L53.1986 7.23255L54.219 7.10535C54.2597 7.10005 54.2969 7.09475 54.3306 7.08945C54.4263 7.07532 54.5343 7.05766 54.6583 7.05766H58.3609C61.5728 7.05942 64.8927 7.05942 68.1577 7.04529H68.1701C69.1569 7.04529 69.6068 7.62651 69.8885 8.13352C70.9585 10.0538 73.1358 11.052 75.1802 10.5573C77.4053 10.0203 78.9767 8.10879 78.9997 5.90582C79.0245 3.72052 77.5364 1.77725 75.3822 1.18014ZM42.8792 7.39331C42.8721 8.49744 42.1794 9.19349 41.0739 9.21115C40.8631 9.21469 40.6505 9.21469 40.4397 9.21469C40.2732 9.21469 40.1049 9.21469 39.9384 9.21292H39.166C37.8461 9.21292 37.1517 9.18289 36.6521 8.68294C36.1171 8.15119 36.1171 7.40215 36.1171 5.91112V5.5472C36.1171 5.12675 36.1171 4.70629 36.1224 4.28584C36.1366 3.17817 36.831 2.4839 37.9329 2.47506C39.1978 2.46446 40.1758 2.46623 41.1041 2.47683C42.1794 2.4892 42.8579 3.16228 42.8756 4.23108C42.8898 5.28221 42.8863 6.32628 42.8792 7.39331Z" fill="#A3A3A3"/>
<path d="M57.8135 48.1349C55.7708 44.0223 53.7459 39.8213 51.7884 35.7581C50.9451 34.0109 50.1036 32.2637 49.2568 30.5165C48.6491 29.2622 48.0397 28.0097 47.4303 26.7554L47.184 26.2449C46.0626 23.9394 44.9412 21.6322 43.8269 19.3233C42.989 17.5832 41.5133 16.5797 39.6761 16.5002L39.623 16.4967H39.5716C37.5467 16.5179 36.0426 17.5196 35.0966 19.477C29.5516 30.9599 25.275 39.7806 21.2288 48.0766C20.2916 49.997 20.4776 51.8183 21.7656 53.3411C23.0198 54.8251 24.756 55.318 26.7844 54.765C28.6534 54.2563 30.6039 53.7404 32.3241 53.2829C34.2622 52.7688 36.2659 52.237 38.2482 51.6964C38.6929 51.5745 39.1128 51.5145 39.5273 51.5145C39.91 51.5145 40.2856 51.5657 40.67 51.6699C43.6551 52.4808 46.6933 53.2881 49.6324 54.069L49.6518 54.0743L52.2259 54.758C52.667 54.8746 53.1879 55 53.7849 55C53.9089 55 54.0347 54.9947 54.1569 54.9841C55.6096 54.8569 56.979 53.9471 57.7337 52.608C58.5097 51.2283 58.5398 49.5977 57.8135 48.1349ZM54.2473 50.8432L53.9745 51.17L53.5546 51.0816C53.443 51.0587 53.2906 51.0181 53.2304 51.0022L50.6563 50.3185C47.8679 49.5783 44.7056 48.7374 41.6922 47.9194C40.2005 47.5149 38.7709 47.5237 37.219 47.9477C35.2437 48.4865 33.2506 49.0165 31.3232 49.527C29.502 50.0111 27.6188 50.5093 25.7587 51.0163C25.6081 51.0569 25.4717 51.0834 25.3512 51.0922L25.0075 51.1205L24.7365 50.8255C24.7365 50.8255 24.7188 50.8043 24.7081 50.7919L24.4849 50.5093L24.5824 50.1612C24.6142 50.0446 24.6656 49.9157 24.7347 49.7761C28.7757 41.4889 33.054 32.6647 38.6079 21.1623C38.723 20.9274 38.8382 20.7454 38.9533 20.6217L39.1128 20.4504L39.3413 20.408C39.3714 20.4027 39.4157 20.3938 39.4795 20.3903L39.5627 20.3832L39.9064 20.4362L40.0836 20.6376C40.1651 20.7313 40.243 20.8567 40.3157 21.0086C41.4318 23.3211 42.5532 25.6301 43.6763 27.939C44.3672 29.3629 45.0582 30.785 45.7473 32.2089C46.5782 33.9208 47.4037 35.6344 48.2293 37.348L48.2753 37.4416C50.24 41.5172 52.2702 45.7324 54.3199 49.8592C54.5626 50.3485 54.3784 50.6859 54.2473 50.8432Z" fill="#4312E1"/>
</svg>
