<svg width="70" height="69" viewBox="0 0 70 69" fill="none" xmlns="http://www.w3.org/2000/svg">
<path d="M69.9867 29.5958C69.5847 28.8392 68.9766 28.5264 67.925 28.5264H67.9166C55.3966 28.5477 42.6672 28.5461 30.3565 28.5461H19.8334C18.3299 28.5445 17.8215 29.0406 17.8215 30.5079V33.4751C17.8182 37.8523 17.8165 42.3784 17.8331 46.8276C17.8348 47.2076 17.7916 47.6399 17.461 47.9608C17.127 48.2867 16.6635 48.3178 16.3462 48.3145C14.4007 48.2883 12.4204 48.2932 10.5065 48.2982C9.90507 48.2998 9.30365 48.3014 8.70224 48.3014H8.69559C8.06261 48.3014 7.4479 48.2179 6.86975 48.0525C4.63521 47.4172 3.238 45.4832 3.22471 43.0089C3.21142 40.8506 3.21474 38.6596 3.21641 36.539C3.21807 35.6301 3.21973 34.7229 3.21973 33.8141V26.9298C3.21807 20.9135 3.2164 14.6925 3.22305 8.57459C3.22637 5.36992 5.328 3.20672 8.45469 3.19035C16.0837 3.15268 23.7708 3.16906 30.3781 3.18707C32.3534 3.19198 33.9185 4.04351 34.902 5.64666C35.5599 6.72089 35.6363 7.89829 35.6363 8.68922C35.638 10.3071 35.638 11.925 35.638 13.5429C35.6363 16.086 35.6363 18.6275 35.6396 21.1706C35.6396 22.2383 36.2693 22.9277 37.2412 22.9293H37.2445C37.7163 22.9293 38.1151 22.7721 38.3975 22.4757C38.6932 22.1646 38.8494 21.7175 38.8494 21.1821L38.8527 18.9484C38.8577 15.3426 38.8627 11.6139 38.8461 7.94905C38.8261 3.65868 35.1396 0.0249726 30.7951 0.0135097C23.1295 -0.00450325 15.474 -0.00450325 8.04434 0.0135097C3.69488 0.0249726 0.0166137 3.66523 0.0099682 7.96379C-0.00332273 19.5085 -0.00332273 31.4609 0.0099682 43.4887C0.0149523 47.7872 3.71648 51.4406 8.09418 51.4652C10.6876 51.4799 13.4753 51.4881 16.293 51.4553C16.6552 51.4521 17.122 51.4897 17.4593 51.8189C17.7966 52.1497 17.8381 52.6 17.8348 52.957C17.8231 54.9695 17.8248 57.0181 17.8265 58.9979C17.8281 61.6032 17.8298 64.2986 17.8015 66.9514C17.7916 67.9831 18.1072 68.5841 18.8881 68.9869H24.7992C26.7713 68.9869 28.7533 68.9869 30.7403 68.9869C43.689 68.9869 56.9367 68.9869 70 69C69.9851 57.6747 69.9867 46.1628 69.9867 35.0291V29.5958ZM66.8168 64.2135C66.8168 65.5693 66.5261 65.8608 65.1854 65.8608C58.1013 65.8625 51.0156 65.8625 43.9298 65.8625C36.8441 65.8625 29.7601 65.8625 22.676 65.8608C21.327 65.8608 21.0362 65.571 21.0362 64.2216V33.3621C21.0362 32.0062 21.3386 31.7131 22.7358 31.7131H65.1771C66.5261 31.7131 66.8168 32.0046 66.8168 33.3539V64.2135Z" fill="#A3A3A3"/>
<path d="M21.0312 17.1146C20.998 20.3766 18.3365 22.9312 14.9705 22.9312H14.9689C11.6578 22.9312 8.94311 20.3177 8.91819 17.1064C8.90158 14.9711 8.90822 12.798 8.91487 10.6971V10.53C8.91819 9.44108 9.51794 8.79097 10.5214 8.79097H10.5247C11.5083 8.79261 12.1213 9.46728 12.1246 10.553C12.128 11.4323 12.1279 12.3117 12.1263 13.1911C12.1263 14.3504 12.1246 15.5475 12.1329 16.7265C12.1412 18.1004 12.8938 19.1959 14.0933 19.5873C14.9639 19.8706 15.8677 19.7461 16.5738 19.2483C17.3513 18.7014 17.8032 17.7795 17.8148 16.7183C17.8264 15.5999 17.8248 14.4634 17.8231 13.3646C17.8231 12.3723 17.8198 11.3455 17.8281 10.3401C17.8347 9.54424 18.3498 8.92689 19.1123 8.80407C19.938 8.67143 20.684 9.10374 20.9664 9.8783C21.0345 10.0666 21.0345 10.291 21.0345 10.553V10.607C21.0362 11.5977 21.0362 12.5884 21.0345 13.5775V13.9656C21.0345 14.321 21.0345 14.6763 21.0362 15.0317C21.0379 15.7145 21.0395 16.4219 21.0312 17.1146Z" fill="#4312E1"/>
<path d="M29.9444 17.4879C29.9461 18.7276 29.9478 19.9655 29.9411 21.2052C29.9395 21.7521 29.77 22.2041 29.4543 22.5119C29.1736 22.7854 28.7865 22.9295 28.3329 22.9295H28.318C27.371 22.9229 26.7347 22.2368 26.7314 21.2248C26.7247 17.3766 26.7247 13.8608 26.733 10.476C26.7347 9.44104 27.3444 8.79585 28.3246 8.79094H28.3329C29.2882 8.79094 29.9345 9.46069 29.9411 10.4596C29.9478 11.7271 29.9461 13.0158 29.9444 14.262C29.9444 14.8187 29.9428 15.3771 29.9428 15.9339V17.4879H29.9444Z" fill="#4312E1"/>
<path d="M53.9878 48.8306C54.6108 49.6264 54.5394 50.4976 53.8017 51.1035C53.1189 51.6619 52.2251 51.5423 51.5771 50.8071C51.0621 50.2241 50.5637 49.5969 50.0836 48.9927C49.8892 48.7503 49.6965 48.508 49.4954 48.2574C49.1083 47.7793 48.8525 47.4616 48.384 47.4616H48.3823C47.9122 47.4616 47.6513 47.7825 47.2559 48.2689L47.2426 48.2869C47.0449 48.5292 46.8505 48.7732 46.6545 49.0189C46.1362 49.6723 45.5979 50.3469 45.0297 50.9561C44.719 51.2885 44.3402 51.4637 43.9332 51.4637H43.9299C43.5029 51.4621 43.0859 51.2656 42.7569 50.9086C42.2369 50.3469 42.217 49.5462 42.7054 48.9174C43.7272 47.6073 44.6443 46.479 45.5115 45.4638C46.1262 44.7465 46.1245 44.0473 45.5065 43.3251C44.4034 42.0331 43.5444 40.9703 42.8051 39.9813C42.2486 39.2395 42.3831 38.3601 43.1374 37.7951C43.4065 37.5937 43.6657 37.4988 43.9498 37.4988H44.0262C44.5778 37.5004 45.0147 37.7296 45.4035 38.2209C45.9833 38.9545 46.5831 39.6931 47.1612 40.407L47.3091 40.5888C47.4869 40.8082 47.6397 40.9965 47.8058 41.1308C47.972 41.2651 48.1514 41.3437 48.3807 41.3453C48.8375 41.3453 49.0884 41.0358 49.4373 40.6068C50.17 39.7029 50.8993 38.7973 51.6004 37.9196C51.9227 37.5151 52.353 37.2646 52.8115 37.2122C53.2136 37.168 53.5957 37.2793 53.9163 37.5331C54.6656 38.1276 54.742 39.0528 54.1057 39.8355C53.8366 40.1663 53.5691 40.5004 53.3016 40.8328C52.6338 41.6647 51.9426 42.5244 51.2399 43.3431C50.6318 44.0489 50.6418 44.7482 51.2681 45.4834C52.1021 46.4627 52.9677 47.5254 53.9878 48.8306Z" fill="#4312E1"/>
<path d="M38.7115 46.6363C38.1234 49.6903 35.3672 51.7029 32.1558 51.4261C29.147 51.1641 26.7779 48.5735 26.763 45.531C26.7513 43.2941 26.7563 41.0343 26.763 39.0921C26.7663 38.0621 27.391 37.3645 28.3197 37.358H28.3346C28.7649 37.358 29.1371 37.5004 29.4128 37.769C29.7335 38.0818 29.9112 38.5599 29.9129 39.1151C29.9162 39.9142 29.9146 40.7133 29.9146 41.5108C29.9129 42.7717 29.9112 44.0736 29.9229 45.3574C29.9345 46.543 30.4628 47.4453 31.4497 47.9644C32.4166 48.4736 33.425 48.4278 34.3621 47.8317C35.2276 47.2831 35.6662 46.4021 35.6679 45.2149C35.6695 44.46 35.6695 43.7051 35.6679 42.9502C35.6679 41.6254 35.6662 40.2564 35.6745 38.9104C35.6795 38.221 36.1248 37.6183 36.7843 37.4137C37.4323 37.2106 38.0819 37.4333 38.5254 38.0064C38.7331 38.2766 38.8278 38.5763 38.8261 38.9497C38.8195 39.7668 38.8195 40.5659 38.8212 41.4928C38.8212 41.8776 38.8228 42.2804 38.8228 42.7078C38.7946 43.1614 38.8079 43.6347 38.8245 44.1374C38.8477 44.9595 38.8743 45.8094 38.7132 46.6363H38.7115Z" fill="#4312E1"/>
<path d="M61.12 58.6411C61.125 59.0979 60.9771 59.4877 60.6947 59.7693C60.384 60.0805 59.9288 60.2459 59.3789 60.2475C57.2241 60.2524 55.071 60.2508 52.9162 60.2508H50.552C49.6616 60.2491 48.7694 60.2491 47.8789 60.2508C45.8388 60.2524 43.7305 60.2541 41.6588 60.2426C40.8779 60.2393 40.1951 59.658 40.1037 58.9211C39.9974 58.0712 40.446 57.3572 41.2185 57.1444C41.3664 57.1051 41.5491 57.0854 41.7966 57.0854C45.6095 57.0821 48.9505 57.0805 52.029 57.0805C54.6241 57.0805 57.033 57.0821 59.3822 57.0838C60.4123 57.0838 61.11 57.7109 61.12 58.6411Z" fill="#A3A3A3"/>
<path d="M34.3952 58.6509C34.4002 59.5647 33.7589 60.2197 32.8369 60.2442C32.3218 60.2573 31.7919 60.2541 31.2802 60.2508C31.0409 60.2491 30.8034 60.2475 30.5641 60.2475C30.3249 60.2475 30.0873 60.2491 29.8497 60.2508C29.3364 60.2541 28.8064 60.2573 28.2914 60.2442C27.3976 60.2197 26.7264 59.5352 26.733 58.6493C26.738 57.7486 27.3593 57.1067 28.2465 57.092C29.7401 57.0641 31.2968 57.0641 32.8734 57.0903C33.7224 57.1051 34.3902 57.7912 34.3952 58.6509Z" fill="#A3A3A3"/>
</svg>
