<svg width="60" height="55" viewBox="0 0 60 55" fill="none" xmlns="http://www.w3.org/2000/svg">
<g clip-path="url(#clip0_195_19)">
<path d="M0 45.0328C0 30.4439 0 15.8535 0 1.26459C0.428627 0.255336 1.27337 0 2.31678 0C20.7556 0.00755432 39.1944 0.00604346 57.6332 0.00604346C59.3696 0.00604346 60 0.616433 60 2.28443C60 16.1919 60 30.0994 60 44.007C60 44.2139 60.0063 44.4224 59.9937 44.6294C59.9499 45.3607 59.4697 45.9529 58.7517 46.1841C58.3731 46.3065 57.9836 46.302 57.5941 46.302C51.0192 46.3004 44.4427 46.302 37.8678 46.302C36.912 46.302 36.9104 46.3035 36.9104 47.1949C36.9089 48.3446 36.9277 49.4944 36.9026 50.6427C36.8917 51.1443 36.9777 51.4223 37.6019 51.4918C38.517 51.5915 39.1521 52.3832 39.1443 53.2202C39.1365 54.0754 38.5108 54.7779 37.5847 54.9381C37.2796 54.9909 36.9636 54.997 36.6539 54.997C32.2049 55 27.756 55 23.3086 54.9985C23.0364 54.9985 22.7595 55 22.492 54.9622C21.4971 54.8217 20.8275 54.1146 20.8181 53.2202C20.8088 52.3424 21.4846 51.587 22.4763 51.4691C22.9409 51.4132 23.063 51.2213 23.0583 50.8149C23.0442 49.6651 23.0536 48.5154 23.0536 47.3671C23.0536 46.3035 23.0536 46.3035 21.9789 46.3035C15.3837 46.3035 8.78842 46.2989 2.1932 46.308C1.17481 46.308 0.395776 45.9907 0 45.0328ZM29.9476 33.9159C38.4357 33.9159 46.9237 33.9159 55.4118 33.9159C56.3927 33.9159 56.3942 33.9144 56.3942 32.9429C56.3942 23.4441 56.3942 13.9453 56.3942 4.44647C56.3942 3.56262 56.3927 3.56111 55.4994 3.56111C38.4842 3.56111 21.4673 3.56111 4.45209 3.56111C3.55886 3.56111 3.55886 3.56262 3.55886 4.44799C3.55886 13.9649 3.55886 23.4834 3.55886 33.0003C3.55886 33.9129 3.55886 33.9144 4.48338 33.9144C12.9715 33.9174 21.4595 33.9159 29.9476 33.9159ZM29.9476 42.7409C31.7435 42.7409 33.5377 42.7409 35.3336 42.7409C42.0868 42.7409 48.8385 42.7363 55.5917 42.7484C56.1252 42.7499 56.4286 42.6713 56.4083 42.0474C56.3661 40.748 56.3754 39.4457 56.4052 38.1463C56.4177 37.613 56.2002 37.4241 55.6793 37.474C55.5057 37.4906 55.3289 37.4755 55.1521 37.4755C38.4857 37.4755 21.8193 37.4755 5.15291 37.4755C4.89949 37.4755 4.64607 37.474 4.39108 37.4755C3.5745 37.48 3.55886 37.4921 3.55886 38.2581C3.55729 39.4638 3.55729 40.671 3.55886 41.8766C3.55886 42.7378 3.56042 42.7409 4.47869 42.7409C12.9683 42.7409 21.458 42.7409 29.9476 42.7409ZM29.9288 51.4434C30.8049 51.4434 31.6824 51.4283 32.5585 51.4495C33.0215 51.46 33.2343 51.318 33.2264 50.8391C33.2061 49.5231 33.2077 48.2056 33.2249 46.8882C33.2311 46.441 33.034 46.2959 32.5929 46.2989C30.8393 46.311 29.0872 46.3125 27.3336 46.2989C26.8706 46.2959 26.7219 46.4863 26.7266 46.9108C26.7423 48.2283 26.7438 49.5443 26.7266 50.8617C26.7204 51.309 26.9144 51.4585 27.3571 51.448C28.2143 51.4298 29.0716 51.4419 29.9288 51.4434Z" fill="#A3A3A3"/>
<path d="M19.3977 16.9156C19.3977 15.4652 19.3946 14.0132 19.3977 12.5628C19.4008 11.3632 20.1298 10.5443 21.1951 10.5307C22.2339 10.5171 22.98 11.2906 23.0567 12.4631C23.0708 12.6882 23.0676 12.9148 23.0676 13.1414C23.0692 15.7235 23.0645 18.3056 23.0708 20.8877C23.0739 22.1674 23.8044 23.0648 25.1091 23.3368C26.3105 23.5876 27.3461 23.2416 28.1893 22.3789C28.5585 22.0012 28.6601 21.5328 28.6586 21.0221C28.6507 18.3267 28.6554 15.6329 28.6554 12.9375C28.6554 12.7305 28.6492 12.522 28.6617 12.315C28.7227 11.3224 29.4658 10.5745 30.431 10.5307C31.3508 10.4884 32.147 11.1698 32.3082 12.1413C32.3144 12.179 32.3238 12.2153 32.3238 12.2531C32.3191 15.3428 32.4286 18.4385 32.2753 21.5222C32.147 24.0816 30.37 25.9249 27.7356 26.6788C24.2863 27.6654 20.5162 25.8055 19.6042 22.6644C19.4665 22.1915 19.393 21.7096 19.3962 21.214C19.4008 19.7802 19.3977 18.3479 19.3977 16.9156Z" fill="#6233FA"/>
<path d="M40.5538 18.7604C40.5538 20.8696 40.5663 22.9802 40.5506 25.0894C40.5397 26.4084 39.3305 27.2696 38.1306 26.836C37.5002 26.6078 37.095 26.1697 36.9683 25.526C36.9104 25.2314 36.8901 24.9277 36.8885 24.6271C36.8838 20.7094 36.8838 16.7902 36.887 12.8726C36.887 12.6097 36.9026 12.3438 36.9449 12.0854C37.095 11.1532 37.8944 10.4899 38.7986 10.5307C39.77 10.573 40.5381 11.33 40.5475 12.3181C40.5663 14.465 40.5538 16.6135 40.5538 18.7604Z" fill="#6233FA"/>
</g>
<defs>
<clipPath id="clip0_195_19">
<rect width="60" height="55" fill="white"/>
</clipPath>
</defs>
</svg>
