<?xml version="1.0" encoding="utf-8"?>
<!-- Generator: Adobe Illustrator 25.2.1, SVG Export Plug-In . SVG Version: 6.00 Build 0)  -->
<svg version="1.1" id="Camada_1" xmlns="http://www.w3.org/2000/svg" xmlns:xlink="http://www.w3.org/1999/xlink" x="0px" y="0px"
	 viewBox="0 0 130 39" style="enable-background:new 0 0 130 39;" xml:space="preserve">
<style type="text/css">
	.st0{clip-path:url(#SVGID_2_);}
	.st1{fill:#EFEFEF;}
	.st2{fill:url(#SVGID_3_);}
	.st3{fill:#6233FA;}
</style>
<g>
	<defs>
		<rect id="SVGID_1_" width="130" height="39"/>
	</defs>
	<clipPath id="SVGID_2_">
		<use xlink:href="#SVGID_1_"  style="overflow:visible;"/>
	</clipPath>
	<g class="st0">
		<path class="st1" d="M40.5,0.9h-8.3c-0.4,0-0.7,0.3-0.7,0.7v35.9c0,0.4,0.3,0.7,0.7,0.7h8.3c0.4,0,0.7-0.3,0.7-0.7V1.6
			C41.2,1.2,40.8,0.9,40.5,0.9z"/>
		<path class="st1" d="M87.4,24.6C85.6,33,77.9,39,68,39c-11.6,0-20.4-8.4-20.4-19.5C47.6,8.4,56.4,0,68,0c9.8,0,17.5,5.9,19.4,14.3
			c0.1,0.5-0.3,0.9-0.7,0.9h-8.9c-0.3,0-0.6-0.2-0.7-0.4c-1.4-3.3-4.9-5.5-9.1-5.5c-5.8,0-10.4,4.7-10.4,10.3S62.1,29.8,68,29.8
			c4.2,0,7.7-2.2,9.1-5.6c0.1-0.3,0.4-0.4,0.6-0.4h9C87.2,23.8,87.5,24.2,87.4,24.6L87.4,24.6z"/>
		
			<linearGradient id="SVGID_3_" gradientUnits="userSpaceOnUse" x1="93.6411" y1="20.5" x2="112.216" y2="20.5" gradientTransform="matrix(1 0 0 -1 0 40)">
			<stop  offset="0" style="stop-color:#F2F2F2"/>
			<stop  offset="0.24" style="stop-color:#EFEFEF"/>
			<stop  offset="0.38" style="stop-color:#E7E7E7"/>
			<stop  offset="0.49" style="stop-color:#D9D9D9"/>
			<stop  offset="0.59" style="stop-color:#C5C5C5"/>
			<stop  offset="0.66" style="stop-color:#B3B3B3"/>
		</linearGradient>
		<path class="st2" d="M107.6,24.5l-4.1,4.2c-0.1,0.1-0.2,0.3-0.2,0.5v8.3c0,0.4-0.3,0.7-0.7,0.7h-8.2c-0.4,0-0.7-0.3-0.7-0.7V1.6
			c0-0.4,0.3-0.7,0.7-0.7h8.2c0.4,0,0.7,0.3,0.7,0.7v14.8l-0.8,0.8c-0.3,0.3-0.3,0.7,0,1L107.6,24.5L107.6,24.5L107.6,24.5z"/>
		<path class="st3" d="M129.2,38.1h-10.5c-0.2,0-0.5-0.1-0.6-0.3l-4.8-6.1l-0.7-0.9l-5.1-6.4l0-0.1l-5-6.2c-0.2-0.3-0.2-0.7,0-1
			l0.8-0.8l6.1-6.5l8.3-8.8c0.1-0.2,0.3-0.2,0.6-0.2h10.1c0.7,0,1,0.8,0.6,1.3L114.7,17c-0.3,0.3-0.3,0.7,0,1l15.2,19
			C130.2,37.4,129.9,38.1,129.2,38.1z"/>
		<path class="st1" d="M24.5,1.6v8c0,0.4-0.3,0.7-0.7,0.7H11.1c-0.8,0-1.4,0.6-1.4,1.4v25.6c0,0.4-0.3,0.7-0.7,0.7H0.7
			c-0.4,0-0.7-0.3-0.7-0.7V11.1c0-0.4,0.3-0.7,0.7-0.7h8.1c0.5,0,1-0.3,1.3-0.7l4.5-8.4C14.8,1,15,0.9,15.3,0.9h8.5
			C24.2,0.9,24.5,1.2,24.5,1.6L24.5,1.6z"/>
	</g>
</g>
</svg>
